ply
format ascii 1.0
comment created by MATLAB plywrite
element vertex 252
property float x
property float y
property float z
property float nx
property float ny
property float nz
element face 500
property list uchar int vertex_indices
end_header
-1.630041 13.344428 22.064535 -0.730164 0.656166 -0.190542 
-22.932910 -143.678835 169.355314 -0.494170 0.530677 0.688606 
5.507503 -122.529893 157.711560 0.037139 0.792450 0.608805 
6.477385 -114.279182 143.619877 0.709975 0.632236 0.310183 
0.391964 -69.082948 71.439377 0.225934 -0.682881 -0.694714 
-13.232280 -16.186365 36.532861 -0.722608 0.201131 0.661350 
-8.663905 -142.836376 167.002566 0.585550 0.359856 0.726385 
11.247875 -127.312578 161.154503 0.722241 0.548433 0.421413 
14.288900 4.871995 21.700996 0.972881 0.020496 -0.230395 
-3.857711 -149.506965 156.335660 0.443046 -0.586586 -0.677958 
-13.453805 -145.976086 151.898363 -0.005829 0.187170 -0.982310 
-8.672775 -54.013231 62.153731 -0.955667 -0.251348 -0.153375 
4.556350 15.601485 19.779972 -0.195120 0.848904 -0.491213 
-17.950620 -9.568056 24.879373 -0.721574 -0.662151 -0.202203 
6.979055 -95.228933 109.724842 0.991831 0.115912 0.053254 
-9.964820 3.917380 9.252879 0.378693 0.350475 -0.856597 
-17.808185 -3.700387 30.918615 -0.293345 0.198585 0.935154 
1.761142 -148.882154 161.276095 0.189534 -0.769796 0.609501 
2.677398 -104.623027 131.502584 0.030721 0.843716 0.535911 
-1.873216 -50.148341 70.293174 0.119947 0.688930 0.714834 
-6.309540 -102.982716 117.702700 -0.999801 0.019787 0.002539 
-9.993650 -151.678444 171.809702 0.619875 -0.082743 0.780326 
-7.434540 -62.228038 74.312375 -0.973940 0.132721 0.183917 
-5.678695 -119.867858 136.952134 -0.971476 -0.138937 -0.192175 
-15.276965 -14.050131 28.060600 -0.765377 -0.578835 -0.281333 
10.820640 -0.459527 31.875924 0.656906 -0.248291 0.711917 
-24.049080 17.947301 27.802849 -0.604980 0.735948 0.303940 
-2.731358 6.059373 29.184454 -0.666542 0.288138 0.687531 
-21.619370 -160.549993 162.277116 -0.476843 -0.876711 0.063231 
-26.213065 4.796834 19.560491 -0.947436 0.044297 -0.316864 
-7.852525 -60.422438 68.377693 -0.987948 -0.144537 -0.055393 
10.011765 10.870072 32.755143 0.721060 0.179323 0.669265 
-18.111510 -148.028641 173.283464 -0.190515 0.139941 0.971659 
5.094976 -74.524892 80.849723 0.859303 -0.353061 -0.370064 
-20.563880 -5.025806 29.228826 -0.788274 -0.423398 0.446496 
-1.267812 -116.387843 125.126878 -0.265774 -0.724019 -0.636522 
-9.685985 -45.941473 55.107406 -0.991147 -0.132477 -0.008781 
7.103075 -103.972496 116.907371 0.963774 -0.178169 -0.198483 
5.654569 -66.485929 76.571812 0.999638 0.022973 -0.013993 
1.565647 -21.374422 44.821614 0.320434 0.574305 0.753323 
5.123132 -27.097233 41.303333 0.998710 -0.016610 0.047985 
2.405273 -6.426554 34.073505 -0.119586 0.425791 0.896884 
-7.483320 -143.805118 151.999210 0.010912 -0.410964 -0.911586 
8.128320 -109.421903 134.034138 0.740795 0.558033 0.373927 
-2.689032 -33.533192 37.650952 -0.066781 -0.662715 -0.745888 
3.616817 -63.794099 68.595017 0.696896 -0.488037 -0.525505 
-24.579895 -156.778040 166.190504 -0.845017 -0.457925 0.276135 
5.531724 -11.274221 11.289374 0.354162 -0.769640 -0.531248 
1.033929 -75.295381 95.362665 0.276346 0.719595 0.637037 
-5.777000 -76.465355 91.909788 -0.857107 0.348765 0.379118 
15.135670 4.382962 26.522427 0.990419 -0.025242 0.135769 
-13.213180 11.472528 11.217021 0.443126 0.606985 -0.659704 
7.994485 -145.282931 169.405703 0.253794 -0.503134 0.826102 
9.204700 17.892891 24.789729 0.094579 0.995010 -0.031787 
3.057990 1.517547 31.919192 -0.217429 0.070906 0.973497 
-7.439370 -6.615125 31.887120 -0.088866 0.497460 0.862923 
-9.649565 -31.290940 47.896474 -0.821583 0.284285 0.494149 
-3.742389 -72.193107 75.061228 -0.318170 -0.683344 -0.657122 
11.241295 -2.125541 21.650304 0.928917 -0.357897 -0.094986 
6.033090 -12.614958 21.963395 0.769798 -0.617852 -0.160219 
8.260370 -135.948634 148.472202 0.203937 -0.565909 -0.798847 
-1.786859 -20.979593 26.541791 0.076657 -0.697121 -0.712843 
2.020809 -41.745765 61.113114 0.554497 0.549684 0.624804 
-11.433395 -116.889641 149.893514 -0.591141 0.576501 0.564092 
-15.656055 19.247509 22.934683 0.189761 0.979230 -0.071407 
17.119335 -137.828370 155.733741 0.987690 -0.004934 -0.156347 
-7.114275 -125.844526 144.904412 -0.824081 -0.262754 -0.501847 
-4.327210 -118.563333 129.680433 -0.720145 -0.539723 -0.435992 
-3.936996 4.621695 13.187366 -0.192506 0.598853 -0.777378 
4.169126 -30.149412 49.528598 0.761433 0.427044 0.487703 
-23.171535 -151.634147 171.465868 -0.581513 -0.160155 0.797617 
9.361285 -120.053867 144.734595 0.916338 0.378888 0.129498 
-6.526775 5.047428 27.661825 -0.089968 0.587696 0.804064 
-2.522723 -129.535100 140.575447 -0.339799 -0.671957 -0.658036 
3.883549 -82.925127 87.451675 0.683509 -0.519888 -0.512379 
10.520815 -136.216320 169.853901 0.615461 0.236193 0.751945 
-13.824920 -162.064691 160.969029 0.213912 -0.968226 -0.129536 
-7.491275 -50.288691 64.790469 -0.896970 0.253613 0.362112 
6.819010 9.625971 13.221129 0.252331 0.632797 -0.732050 
0.721780 -56.246498 75.606234 0.303177 0.676729 0.670911 
-26.385450 -150.621195 163.171655 -0.977644 -0.205875 0.042753 
-23.891250 -143.036836 157.221286 -0.547439 0.631281 -0.549359 
-0.626575 -32.693791 54.220471 0.115728 0.640164 0.759471 
0.125205 -95.295635 99.036387 0.027926 -0.751017 -0.659692 
-7.112825 -77.289883 86.978091 -0.998677 -0.050610 0.009115 
5.065109 -35.626421 50.688555 0.985870 0.090476 0.140975 
-3.568603 -128.189749 157.942953 -0.631156 0.314275 0.709135 
-6.703305 -93.794839 105.353938 -0.999408 -0.032260 0.011954 
1.929123 -145.547045 163.019729 -0.382676 -0.321535 0.866126 
-1.862147 -84.146780 86.901345 -0.334497 -0.695054 -0.636405 
11.069245 14.455247 18.343462 0.695480 0.570733 -0.436545 
-25.135840 -0.359695 19.246361 -0.816095 -0.475443 -0.328546 
-6.197635 -156.627396 158.261379 0.789669 -0.582892 -0.191467 
-16.822895 -139.772275 167.883411 -0.040244 0.917479 0.395742 
4.316372 -137.143268 172.743919 -0.056377 0.263866 0.962910 
-4.949000 6.621596 16.384733 0.026472 0.975710 -0.217460 
-27.304415 -147.822003 165.485781 -0.968509 0.061097 0.241366 
-10.790385 -36.827564 45.475701 -0.933137 -0.304022 -0.191898 
-2.859465 -82.523582 102.729149 -0.598730 0.585872 0.546146 
-12.264505 -151.572849 150.831739 0.222812 -0.048960 -0.973631 
-20.035080 -147.884068 151.146426 -0.263562 0.359328 -0.895219 
-12.016085 0.245242 28.632401 0.219359 0.072177 0.972971 
9.513590 -148.023047 165.742306 0.409331 -0.797760 0.442750 
-5.280965 -32.151699 52.658494 -0.347027 0.600190 0.720656 
2.778231 -50.687051 55.436371 0.698034 -0.478675 -0.532558 
-0.007013 -117.460263 150.082820 -0.224045 0.792199 0.567648 
11.908830 16.664772 27.786675 0.801867 0.549141 0.235485 
-5.930300 -95.540784 110.994226 -0.903115 0.306319 0.300918 
-6.686120 -156.389508 166.165380 0.769877 -0.481309 0.419084 
-12.975655 16.538372 18.590829 0.593413 0.740631 -0.315160 
2.302529 -132.399301 167.710791 -0.856414 0.172355 0.486672 
-11.571195 -135.640404 153.253811 -0.925543 0.312101 -0.214390 
-10.375110 -27.537561 35.107596 -0.595769 -0.573815 -0.561956 
-21.763195 -158.421712 154.931995 -0.483755 -0.683069 -0.547173 
3.511748 -112.249177 143.052682 0.071041 0.881904 0.466046 
-11.451440 -139.411823 163.186345 -0.120665 0.846007 0.519338 
10.044575 -123.524800 156.388338 0.778307 0.578793 0.243385 
10.748295 -126.184420 147.142350 0.971807 0.066046 -0.226340 
6.169610 -7.929471 34.298048 0.572349 0.192352 0.797131 
-2.706917 -122.632739 156.186931 -0.365360 0.631416 0.683978 
2.491205 -113.361026 121.731256 0.148890 -0.753433 -0.640445 
8.889435 -112.652878 135.069488 0.976851 0.202606 0.068656 
-10.064170 11.187024 16.200957 0.820045 0.572255 0.007135 
-0.384400 -134.049152 145.061946 0.002417 -0.697475 -0.716605 
-2.707695 -98.542192 120.428151 -0.650433 0.577874 0.492948 
-11.637400 -141.689196 152.084608 -0.541062 0.033977 -0.840296 
4.235870 -142.031181 152.199414 0.190467 -0.494125 -0.848271 
5.751560 -71.933375 84.794301 0.965412 0.212747 0.150727 
-1.949108 8.596789 16.718763 -0.618469 0.665113 -0.418474 
-8.025980 -21.731226 43.300485 -0.361885 0.532105 0.765443 
-7.957705 -127.492344 154.313637 -0.756124 0.223455 0.615097 
3.560936 -19.806000 28.636142 0.729139 -0.549945 -0.407329 
5.789025 -18.800675 34.516967 0.980283 -0.191128 -0.050151 
-4.121205 -93.103910 98.410153 -0.573707 -0.625348 -0.528961 
-7.005000 -134.151876 146.687747 -0.553372 -0.366216 -0.748108 
-22.317660 11.663339 33.278793 -0.510705 0.108743 0.852851 
-10.337115 -135.147290 157.574715 -0.619472 0.597371 0.509316 
15.686660 -137.776950 161.320757 0.932620 0.020727 0.360264 
-5.632030 -100.270963 109.408751 -0.868216 -0.398005 -0.296299 
0.808290 13.311029 31.049776 -0.694531 0.472013 0.542983 
-11.633530 -13.644252 36.274920 -0.230306 0.493382 0.838769 
5.842078 7.895596 34.536340 -0.149795 -0.009038 0.988676 
10.780875 5.249161 14.844878 0.855759 0.134474 -0.499593 
-12.763850 -3.703056 7.852357 -0.021982 -0.297027 -0.954616 
-4.957105 -113.934162 142.816979 -0.484287 0.838089 0.251142 
9.169445 -146.132202 156.279972 0.403882 -0.649969 -0.643755 
4.893472 -89.783630 109.414517 0.696806 0.580935 0.420685 
-15.277555 -155.669171 172.224881 0.103603 -0.431169 0.896303 
-20.218330 -158.604589 169.172920 -0.352182 -0.719053 0.599108 
-4.171975 -141.976789 151.063178 0.027271 -0.543798 -0.838773 
-21.297675 -153.263362 151.524952 -0.323487 -0.255873 -0.910980 
-5.734180 -113.124773 137.169838 -0.865005 0.468860 0.178709 
4.361961 -97.824398 104.191688 0.586818 -0.604026 -0.539257 
-2.439198 9.998699 24.300888 -0.897694 0.433036 0.081395 
2.215772 -14.913143 20.134905 0.110354 -0.822881 -0.557395 
-9.903755 -128.244366 150.429760 -0.968631 -0.161622 -0.188763 
-12.963535 6.818089 30.719612 0.796660 0.116125 0.593167 
0.964342 -140.105447 172.226909 -0.798968 -0.320815 0.508653 
4.976971 -79.651724 95.781336 0.789768 0.470923 0.393063 
-3.659210 0.140691 29.349361 -0.256476 0.263943 0.929814 
3.783914 -66.863572 83.347980 0.721737 0.509792 0.468197 
-25.969090 9.599085 25.631949 -0.978117 0.182292 0.100284 
6.113920 -94.877040 104.188011 0.906758 -0.299363 -0.296936 
3.498997 16.986415 26.987483 -0.361524 0.922746 0.133566 
6.763940 -149.926945 160.262414 0.104503 -0.987606 0.117106 
-17.078475 16.954888 31.084823 0.181647 0.697225 0.693457 
-16.189920 -140.969590 156.797115 -0.479627 0.791318 -0.379176 
-4.810830 -11.693898 18.182373 -0.089271 -0.802365 -0.590120 
-6.485550 -62.421075 67.221355 -0.730537 -0.507333 -0.457087 
-8.607920 -39.048411 44.780714 -0.531096 -0.587574 -0.610487 
-12.293075 -28.359584 39.759054 -0.971447 -0.232545 -0.047047 
-5.259050 -44.924264 48.602757 -0.199596 -0.671095 -0.713998 
-1.176782 -55.604241 58.075956 0.117016 -0.690183 -0.714111 
4.035054 -126.335091 164.668886 0.026332 0.735668 0.676830 
4.514752 -137.918673 162.147629 -0.648471 0.010520 0.761167 
-0.205596 -100.581518 125.420936 -0.362292 0.743146 0.562564 
-0.304284 -85.814049 108.193657 -0.211422 0.741701 0.636538 
-26.743990 1.885755 27.960154 -0.880707 -0.219734 0.419609 
-7.021490 -117.446621 141.536565 -0.915706 0.141123 -0.376254 
-4.820615 -0.606107 11.582575 0.022137 -0.006111 -0.999736 
12.329230 -141.051166 167.545606 0.798171 -0.278773 0.534050 
11.849210 11.368972 20.923706 0.968977 0.243573 0.041904 
-22.419985 13.299653 14.896388 -0.685312 0.370588 -0.626907 
-0.047148 -14.998049 39.774707 0.003109 0.585944 0.810346 
7.609495 -9.852285 29.594291 0.933949 -0.350606 0.069390 
-18.175745 15.362367 14.031540 -0.072744 0.764269 -0.640782 
-2.836494 -62.488371 82.118658 -0.308681 0.679779 0.665295 
5.758135 -99.002625 122.401441 0.708874 0.589140 0.387830 
-2.070970 -135.629675 161.574262 -0.355061 0.286536 0.889848 
12.553835 -146.635959 159.773495 0.771467 -0.635068 -0.039092 
6.650790 -87.216812 99.493675 0.999511 0.025197 -0.018536 
3.933239 -39.960922 47.889735 0.851258 -0.341774 -0.398183 
4.125641 -6.219744 7.848757 -0.137451 -0.353705 -0.925203 
-6.084325 -54.908040 58.771454 -0.518305 -0.618348 -0.590767 
6.335670 14.474326 33.053135 0.009855 0.677726 0.735248 
8.413855 -8.315325 13.104109 0.867164 -0.481712 -0.126414 
6.556975 -147.784940 165.425051 -0.480598 -0.740794 0.469308 
6.590310 -115.447254 150.597544 0.430583 0.795483 0.426386 
5.814703 -116.263279 127.759131 0.677538 -0.547741 -0.490838 
-9.438400 -15.185751 22.832885 -0.300432 -0.699122 -0.648821 
2.225173 -101.784387 107.138292 0.267400 -0.740487 -0.616584 
-16.564205 9.311883 33.801623 0.322550 -0.038578 0.945766 
-24.379075 -141.464336 162.203042 -0.626772 0.779171 -0.007071 
-4.490910 -125.925904 138.777048 -0.731723 -0.451687 -0.510451 
0.875009 -82.914110 85.539428 0.175392 -0.714213 -0.677597 
-12.150080 -11.708610 19.772352 -0.399677 -0.790719 -0.463704 
3.514702 11.188610 15.160287 -0.322800 0.691084 -0.646686 
-12.139975 -8.025019 11.254827 -0.288598 -0.787115 -0.545125 
14.672945 -137.635394 150.480500 0.645630 -0.237814 -0.725677 
6.823590 5.317155 9.165349 0.233338 0.510885 -0.827375 
1.427378 -30.514366 36.329842 0.619640 -0.527464 -0.581230 
-13.008825 -146.623138 172.996084 0.189960 0.342017 0.920293 
5.245716 -1.137533 6.852142 -0.099002 0.133567 -0.986082 
7.078335 -128.868358 142.023617 0.611103 -0.502042 -0.611970 
-4.244345 -44.582897 64.317998 -0.341239 0.628090 0.699328 
-5.723905 -109.703119 128.722766 -0.938090 0.279119 0.205132 
3.637249 -141.153645 164.753075 -0.997840 -0.065673 0.001591 
-6.146135 -74.948776 80.424352 -0.822023 -0.430932 -0.372258 
-18.937775 8.181105 8.894424 -0.414019 0.210760 -0.885533 
-26.529395 -154.210053 158.365568 -0.918473 -0.354322 -0.175681 
9.499805 -3.086096 8.581615 0.758862 -0.173483 -0.627720 
-2.552462 -74.224080 94.214923 -0.326078 0.676727 0.660086 
-4.670470 -151.493270 161.616934 0.834150 -0.466503 0.294227 
-5.950930 -108.359869 120.806583 -0.944597 -0.245629 -0.217723 
12.891495 -130.560169 151.899664 0.903172 0.296179 -0.310740 
-3.851335 -57.023704 76.189996 -0.491745 0.592670 0.637910 
-3.927336 -108.850842 117.477488 -0.560269 -0.626535 -0.541805 
-14.756075 -16.589787 33.831597 -0.944463 -0.234674 0.230040 
1.458023 -92.138494 115.773126 0.041990 0.782763 0.620902 
-13.963950 -121.080290 147.050174 -0.966102 0.015646 -0.257688 
8.135740 -115.988648 132.670129 0.912144 -0.265552 -0.312211 
-13.857620 -161.233387 165.675996 0.133734 -0.898794 0.417475 
-10.925345 5.991736 28.450961 0.580637 0.540005 0.609308 
-12.027035 15.813246 27.526020 0.806709 0.474270 0.352546 
-6.254465 -86.367117 93.587592 -0.897229 -0.345901 -0.274467 
4.043935 -51.146174 67.677474 0.765506 0.457097 0.452839 
3.333868 -149.096552 155.153102 0.139541 -0.801914 -0.580914 
-26.937245 -147.648733 157.562594 -0.957976 0.162456 -0.236411 
-0.331943 -43.892147 47.181142 0.283096 -0.643636 -0.711049 
4.734457 -59.719317 74.604533 0.870327 0.349001 0.347461 
11.031355 -132.412995 147.907688 0.719557 -0.125735 -0.682956 
5.213395 -55.814402 65.351524 0.990851 -0.072215 -0.114017 
5.109545 -46.681148 58.283127 0.999708 0.023300 0.006448 
-1.113185 -102.272334 107.645527 -0.245135 -0.755105 -0.608051 
-21.449100 3.491315 30.416180 -0.197387 -0.234177 0.951945 
-0.435976 -64.645791 84.636134 0.180594 0.709106 0.681582 
-4.559125 -8.522593 13.739656 -0.085982 -0.642746 -0.761239 
4.702273 -18.614786 40.761620 0.757642 0.285559 0.586885 
-23.121620 16.857928 18.230707 -0.694339 0.617275 -0.369952 
-25.144470 -149.627689 154.284460 -0.738621 0.023889 -0.673697 
-5.611270 -141.386322 164.539914 0.159159 0.273367 0.948651 
-12.635125 -158.014497 153.098103 0.269419 -0.605730 -0.748669 
3 18 151 144 
3 54 27 159 
3 46 28 148 
3 205 24 13 
3 158 160 48 
3 148 231 147 
3 131 154 59 
3 134 111 155 
3 60 208 145 
3 191 210 40 
3 44 61 210 
3 114 105 197 
3 14 162 190 
3 8 181 50 
3 208 240 224 
3 122 109 233 
3 133 234 89 
3 21 6 211 
3 91 13 34 
3 184 131 59 
3 85 62 242 
3 129 140 5 
3 15 143 218 
3 236 164 17 
3 5 16 227 
3 9 222 92 
3 239 235 79 
3 170 169 97 
3 140 183 55 
3 205 207 167 
3 102 52 196 
3 98 49 87 
3 35 123 73 
3 4 33 74 
3 95 153 128 
3 112 44 169 
3 11 30 77 
3 90 8 142 
3 120 226 243 
3 10 42 9 
3 77 225 214 
3 196 157 216 
3 235 19 79 
3 37 198 152 
3 206 68 128 
3 233 156 122 
3 169 44 171 
3 194 53 163 
3 23 178 151 
3 109 51 185 
3 184 118 132 
3 168 11 193 
3 0 139 163 
3 221 49 98 
3 181 8 90 
3 98 87 107 
3 130 229 155 
3 17 164 88 
3 247 183 39 
3 81 166 100 
3 92 108 76 
3 53 194 106 
3 94 110 157 
3 178 144 151 
3 155 66 134 
3 68 212 179 
3 49 221 186 
3 202 1 93 
3 136 130 111 
3 112 61 44 
3 28 46 219 
3 235 239 241 
3 154 199 167 
3 52 157 196 
3 214 62 82 
3 34 16 244 
3 133 138 87 
3 160 79 245 
3 6 93 211 
3 125 166 111 
3 90 78 12 
3 103 39 129 
3 217 89 234 
3 146 48 176 
3 20 223 215 
3 30 11 168 
3 38 45 241 
3 32 1 70 
3 62 19 235 
3 43 18 3 
3 45 172 104 
3 200 243 83 
3 116 71 197 
3 53 90 12 
3 126 60 145 
3 113 251 76 
3 36 77 56 
3 156 101 232 
3 142 8 58 
3 32 147 211 
3 151 18 175 
3 30 22 77 
3 233 165 201 
3 94 75 173 
3 115 166 93 
3 112 169 170 
3 38 33 45 
3 143 15 179 
3 24 112 227 
3 4 172 45 
3 136 86 130 
3 37 152 162 
3 248 182 29 
3 3 197 71 
3 21 211 147 
3 113 76 28 
3 110 216 157 
3 201 165 135 
3 10 166 125 
3 66 178 23 
3 57 204 89 
3 225 19 214 
3 85 191 40 
3 201 244 101 
3 135 177 244 
3 100 150 249 
3 16 101 244 
3 219 249 113 
3 239 160 38 
3 114 3 18 
3 248 64 185 
3 36 11 77 
3 177 161 29 
3 238 44 210 
3 166 10 100 
3 238 210 191 
3 170 97 56 
3 116 117 71 
3 133 89 83 
3 123 120 213 
3 231 28 76 
3 161 248 29 
3 174 250 88 
3 84 234 49 
3 208 60 240 
3 188 110 86 
3 61 112 199 
3 141 31 194 
3 14 37 162 
3 103 129 56 
3 47 59 154 
3 111 130 155 
3 224 116 65 
3 103 214 82 
3 61 131 210 
3 54 141 27 
3 182 248 185 
3 80 96 237 
3 33 190 74 
3 198 37 230 
3 6 21 108 
3 53 12 163 
3 187 14 146 
3 250 188 115 
3 145 189 164 
3 46 96 80 
3 184 195 58 
3 234 84 217 
3 52 94 157 
3 206 209 68 
3 25 118 184 
3 133 87 234 
3 48 221 98 
3 193 171 172 
3 226 20 138 
3 47 246 192 
3 69 85 40 
3 31 141 25 
3 152 83 204 
3 238 171 44 
3 205 167 199 
3 30 168 217 
3 191 104 238 
3 213 60 123 
3 241 45 104 
3 28 219 113 
3 159 55 41 
3 86 136 188 
3 207 13 91 
3 101 16 55 
3 186 245 79 
3 144 105 114 
3 190 146 14 
3 228 124 175 
3 206 0 12 
3 226 120 35 
3 221 245 186 
3 173 110 94 
3 127 190 33 
3 191 242 104 
3 229 66 155 
3 93 166 202 
3 225 77 22 
3 2 105 119 
3 51 218 185 
3 195 184 59 
3 215 151 175 
3 116 224 117 
3 69 82 62 
3 43 3 121 
3 52 102 180 
3 251 99 9 
3 115 6 250 
3 233 109 64 
3 16 5 140 
3 149 9 42 
3 251 150 99 
3 247 40 132 
3 56 5 170 
3 213 230 117 
3 58 8 50 
3 47 195 59 
3 243 138 133 
3 193 36 97 
3 229 144 178 
3 164 189 102 
3 74 190 162 
3 107 138 20 
3 165 233 64 
3 147 108 21 
3 41 54 159 
3 117 224 240 
3 176 228 146 
3 110 119 86 
3 152 198 200 
3 237 81 249 
3 20 124 107 
3 32 70 147 
3 20 226 223 
3 149 236 9 
3 225 79 19 
3 189 65 137 
3 199 154 61 
3 208 65 145 
3 39 183 129 
3 223 67 23 
3 147 70 148 
3 99 100 10 
3 9 99 10 
3 115 136 166 
3 121 230 37 
3 22 30 217 
3 153 27 139 
3 143 179 246 
3 142 58 220 
3 43 121 187 
3 185 64 109 
3 182 185 218 
3 28 231 148 
3 206 78 209 
3 137 65 7 
3 82 69 39 
3 96 70 1 
3 171 238 172 
3 177 135 161 
3 188 136 115 
3 68 95 128 
3 248 161 26 
3 62 85 69 
3 27 72 159 
3 122 95 51 
3 203 66 23 
3 174 216 110 
3 22 84 49 
3 245 221 48 
3 80 219 46 
3 135 244 201 
3 56 77 214 
3 126 145 236 
3 24 199 112 
3 49 234 87 
3 161 135 26 
3 115 93 6 
3 137 180 189 
3 153 95 27 
3 119 130 86 
3 124 20 215 
3 50 25 58 
3 72 101 159 
3 175 18 187 
3 246 154 167 
3 15 68 179 
3 108 147 231 
3 62 214 19 
3 0 153 139 
3 35 73 203 
3 134 42 125 
3 138 243 226 
3 74 162 152 
3 186 225 49 
3 62 235 242 
3 47 192 220 
3 247 118 183 
3 34 177 91 
3 25 141 54 
3 193 97 169 
3 196 216 88 
3 210 132 40 
3 76 251 92 
3 78 142 209 
3 72 27 95 
3 184 58 25 
3 205 13 207 
3 57 168 193 
3 180 102 189 
3 98 176 48 
3 40 247 39 
3 94 52 75 
3 88 164 196 
3 200 198 120 
3 111 134 125 
3 35 67 226 
3 83 89 204 
3 72 95 232 
3 78 90 142 
3 76 108 231 
3 12 0 163 
3 26 165 64 
3 113 249 150 
3 78 206 12 
3 149 123 60 
3 229 130 63 
3 193 11 36 
3 144 63 119 
3 174 110 188 
3 207 143 246 
3 123 134 73 
3 123 35 120 
3 83 152 200 
3 248 26 64 
3 206 128 0 
3 2 116 197 
3 49 225 22 
3 220 212 209 
3 22 217 84 
3 146 190 158 
3 194 163 139 
3 173 2 119 
3 181 90 106 
3 152 204 74 
3 27 141 139 
3 220 209 142 
3 241 239 38 
3 174 88 216 
3 207 91 143 
3 244 177 34 
3 105 144 119 
3 98 107 176 
3 202 81 237 
3 250 6 17 
3 101 72 232 
3 233 201 156 
3 220 58 195 
3 99 150 100 
3 222 108 92 
3 215 23 151 
3 3 71 121 
3 121 117 230 
3 145 65 189 
3 145 164 236 
3 111 166 136 
3 250 17 88 
3 131 61 154 
3 146 228 187 
3 102 196 164 
3 133 83 243 
3 15 218 51 
3 167 207 246 
3 232 122 156 
3 176 107 124 
3 243 200 120 
3 6 108 222 
3 48 160 245 
3 1 32 211 
3 236 17 9 
3 100 249 81 
3 63 144 229 
3 171 193 169 
3 225 186 79 
3 119 63 130 
3 29 218 91 
3 90 53 106 
3 122 51 109 
3 116 7 65 
3 217 57 89 
3 247 132 118 
3 114 18 144 
3 230 213 198 
3 96 46 70 
3 246 47 154 
3 213 240 60 
3 240 213 117 
3 238 104 172 
3 38 160 127 
3 50 31 25 
3 93 1 211 
3 137 7 75 
3 220 192 212 
3 54 118 25 
3 183 118 41 
3 212 192 179 
3 214 103 56 
3 91 177 29 
3 203 134 66 
3 149 126 236 
3 181 106 31 
3 104 242 241 
3 178 66 229 
3 31 106 194 
3 121 37 187 
3 101 156 201 
3 33 38 127 
3 24 205 199 
3 239 79 160 
3 204 57 4 
3 227 112 170 
3 135 165 26 
3 174 188 250 
3 197 105 2 
3 9 17 222 
3 172 4 193 
3 187 37 14 
3 197 3 114 
3 23 67 203 
3 110 173 119 
3 68 15 95 
3 140 129 183 
3 251 9 92 
3 217 168 57 
3 134 203 73 
3 17 6 222 
3 137 75 180 
3 153 0 128 
3 184 132 131 
3 218 29 182 
3 1 202 96 
3 16 34 227 
3 219 80 237 
3 210 131 132 
3 107 87 138 
3 120 198 213 
3 126 149 60 
3 113 150 251 
3 237 249 219 
3 122 232 95 
3 56 97 36 
3 95 15 51 
3 208 224 65 
3 215 223 23 
3 75 7 173 
3 7 116 173 
3 34 13 24 
3 71 117 121 
3 101 55 159 
3 193 4 57 
3 235 241 242 
3 181 31 50 
3 227 170 5 
3 16 140 55 
3 47 220 195 
3 43 187 18 
3 226 67 223 
3 91 218 143 
3 116 2 173 
3 134 123 149 
3 52 180 75 
3 192 246 179 
3 68 209 212 
3 228 176 124 
3 67 35 203 
3 39 103 82 
3 41 118 54 
3 33 4 45 
3 127 160 158 
3 46 148 70 
3 10 125 42 
3 96 202 237 
3 85 242 191 
3 134 149 42 
3 183 41 55 
3 227 34 24 
3 228 175 187 
3 74 204 4 
3 39 69 40 
3 202 166 81 
3 175 124 215 
3 48 146 158 
3 56 129 5 
3 139 141 194 
3 158 190 127 
