ply
format ascii 1.0
comment created by MATLAB plywrite
element vertex 502
property float x
property float y
property float z
property float nx
property float ny
property float nz
element face 1000
property list uchar short vertex_indices
end_header
-29.645390 -29.368353 32.070887 -0.624760 -0.658282 -0.419928 
29.204380 -354.878585 373.126679 0.802383 -0.556464 -0.215708 
4.770318 -357.716689 385.187728 -0.724954 0.051230 0.686890 
1.955115 -136.619494 159.070366 0.488547 0.603774 0.629903 
4.520655 -341.175452 390.555418 -0.683165 0.409515 0.604635 
1.550594 -340.944704 385.212514 -0.878799 -0.169898 0.445923 
9.184558 14.239030 51.565711 -0.205712 0.917437 0.340575 
2.058719 -232.451715 261.629975 0.108546 0.787096 0.607205 
-43.712550 -395.026321 389.405852 -0.541779 -0.840509 0.004578 
10.236693 -43.299652 48.910940 0.774269 -0.605723 -0.183320 
0.325577 -182.026228 178.281038 0.247596 -0.685592 -0.684587 
-4.840456 -138.006844 162.444620 -0.106746 0.688712 0.717134 
-24.672720 -371.484606 363.423726 0.301388 -0.048017 -0.952292 
-33.534960 -391.387848 376.388888 0.027436 -0.848776 -0.528039 
-53.867910 -17.499406 54.030814 -0.927949 -0.363797 0.081010 
15.652440 -34.312890 66.876741 0.852477 -0.262207 0.452250 
9.657437 -308.656357 356.458602 -0.028892 0.741909 0.669878 
16.466490 -315.492986 361.405819 0.500846 0.700481 0.508409 
-1.093041 -306.261294 313.169853 -0.003391 -0.751924 -0.659241 
12.708110 -9.083357 16.249967 0.277374 0.245431 -0.928885 
-1.440294 7.853231 51.353332 -0.779715 0.514196 0.357278 
-40.878470 -365.216134 400.730589 -0.340607 0.469913 0.814351 
-40.853790 3.750576 18.020698 -0.763189 -0.001134 -0.646174 
-45.139450 -26.717371 59.923991 -0.703278 -0.406554 0.583192 
4.205218 -115.367195 137.463677 0.575779 0.538322 0.615377 
-13.833550 -17.131466 23.984005 0.271782 -0.092373 -0.957915 
-5.698299 -2.135022 50.956805 -0.861873 0.439867 0.252373 
24.723550 -329.806700 370.757886 0.870516 0.453859 0.190299 
21.857050 -359.139535 394.322963 0.697604 -0.178555 0.693878 
20.405030 -328.418595 375.447454 0.642119 0.608443 0.466348 
-28.668310 -21.522896 20.909664 -0.511639 -0.486607 -0.708123 
10.648667 -300.259772 348.643209 0.269419 0.821296 0.502877 
12.872370 -243.238696 257.661570 0.996493 0.082694 0.012758 
12.364980 -230.387616 243.901957 0.998964 0.039073 -0.023310 
1.297867 -289.836928 295.635952 0.101925 -0.757200 -0.645181 
-18.990050 -380.277722 402.064067 0.784933 -0.003700 0.619570 
17.178090 -324.564030 341.063213 0.734033 -0.339355 -0.588246 
17.900910 -339.672365 352.485461 0.256555 -0.496877 -0.829031 
-25.428150 -307.601828 340.309874 -0.667584 -0.106888 -0.736822 
-35.663430 -35.929589 67.711081 -0.521794 0.097590 0.847471 
10.192616 -327.379010 379.932753 0.151281 0.723527 0.673515 
-13.336290 -313.979888 333.730349 -0.910293 -0.187307 -0.369165 
17.982170 -307.754136 338.951126 0.959701 0.280816 -0.010791 
-10.387630 -135.430545 132.651387 -0.255659 -0.680387 -0.686813 
-39.360130 -355.297228 390.298565 -0.217636 0.905901 0.363286 
-10.186530 -344.780286 377.144792 -0.247245 0.473405 0.845434 
-1.678167 -347.174792 379.779682 -0.080717 0.137350 0.987228 
9.226970 -317.724171 366.310421 0.043168 0.826194 0.561729 
-47.622990 13.631786 28.976250 -0.862269 0.304793 -0.404466 
-0.342303 -225.261086 253.351765 0.128868 0.764532 0.631573 
-30.408880 -361.583538 363.621384 -0.049449 0.323356 -0.944985 
-16.927350 -150.875829 154.730236 -0.936056 -0.286010 -0.204931 
-8.097293 -42.470599 44.954493 -0.149021 -0.782519 -0.604530 
-50.475290 -20.054133 44.280511 -0.793994 -0.596773 -0.115909 
-37.345140 -39.059909 62.357687 -0.857512 -0.513525 0.031088 
-24.101510 -381.503303 406.817052 0.412705 -0.172995 0.894286 
-30.559150 -54.382552 75.347810 -0.919229 -0.191846 0.343821 
-0.561467 -109.058694 133.895316 0.211500 0.647025 0.732548 
0.315583 -88.833388 115.833849 0.303321 0.602762 0.738020 
-15.160180 -104.579882 104.402409 -0.342520 -0.641017 -0.686860 
-13.367150 -196.671828 211.901619 -0.921846 0.264584 0.283188 
-1.104099 -148.296292 172.114250 0.259103 0.685318 0.680591 
-5.240952 -282.857637 317.750323 -0.452848 0.776355 0.438408 
-22.237140 -362.811287 364.188101 0.158280 0.151611 -0.975685 
10.130316 -178.059066 191.158115 0.958339 0.216276 0.186575 
-20.220850 -66.136172 91.860895 -0.551729 0.392753 0.735758 
-32.188810 -32.734325 66.977223 -0.059207 0.401086 0.914125 
-20.938440 -107.881624 112.032264 -0.828070 -0.428461 -0.361555 
12.360460 -349.712255 360.028427 0.128867 -0.588328 -0.798288 
-43.818080 -13.359605 60.607556 -0.228745 -0.242984 0.942674 
9.957181 -265.276809 297.282974 0.417623 0.733083 0.536825 
14.331560 -263.976310 284.288807 0.996847 0.073730 -0.029334 
-14.954670 -31.149692 30.775325 0.273279 -0.493683 -0.825588 
4.941845 -105.468298 107.855407 0.774885 -0.421211 -0.471311 
2.803635 1.836272 61.230432 -0.570862 0.388228 0.723461 
8.342658 -111.538643 129.013679 0.920321 0.248817 0.301828 
23.876810 -330.387267 354.149778 0.923880 0.280394 -0.260433 
10.932371 -209.490189 215.267898 0.949334 -0.208052 -0.235542 
-45.096100 -383.051618 405.643781 -0.528369 -0.189553 0.827585 
-54.366320 -11.965138 47.432434 -0.996762 -0.013261 -0.079313 
-13.068930 -259.586680 276.707056 -0.957920 0.201672 0.204247 
18.800270 16.575560 42.094042 0.155145 0.970692 -0.183541 
-21.727950 -350.873319 381.129384 -0.186914 0.800992 0.568748 
-26.593150 13.784420 48.555141 0.718631 0.643737 0.263007 
-37.426940 -395.956070 386.295208 -0.127582 -0.982396 -0.136459 
21.430480 12.334264 32.580052 0.730799 0.512215 -0.451186 
-5.151049 -228.309640 254.533289 -0.494154 0.642883 0.585247 
0.441562 -40.886716 75.348221 -0.134403 0.546494 0.826608 
-24.336270 -367.934695 401.823443 0.565672 0.356648 0.743517 
-15.873710 -166.104979 176.407150 -0.994702 0.037674 0.095643 
5.959978 -242.302600 242.968939 0.538674 -0.628029 -0.561614 
5.340057 -70.682462 76.269107 0.687823 -0.523668 -0.502664 
-32.241150 -394.674528 403.998010 0.182148 -0.721782 0.667722 
-24.845410 -86.159036 95.638977 -0.968562 -0.228869 -0.097500 
-23.081600 -81.020974 86.450313 -0.679943 -0.524476 -0.512448 
-23.945470 -29.525202 26.402565 -0.118429 -0.742405 -0.659401 
18.268250 -14.308182 20.054446 0.835313 -0.022473 -0.549315 
-16.638840 -353.490700 360.345312 -0.140541 -0.406016 -0.902995 
1.884350 -252.761593 252.857141 0.180704 -0.759693 -0.624670 
-26.053860 -50.128655 78.174666 -0.266190 0.471221 0.840889 
2.441795 -23.619374 21.034816 -0.367254 -0.263072 -0.892142 
-51.733920 -379.122182 387.833053 -0.939591 -0.318350 0.125783 
21.915530 -322.975602 361.877293 0.859374 0.499313 0.110287 
19.088880 -23.421797 65.501461 0.673262 -0.206904 0.709865 
-0.244620 -60.405910 91.340755 -0.012484 0.611669 0.791015 
-52.561430 1.522780 47.223113 -0.982315 0.187090 -0.007357 
13.669000 -42.460609 68.064125 0.965248 -0.143819 0.218205 
10.715331 -39.688339 73.657579 0.620770 0.117114 0.775196 
-52.625320 -11.853484 39.193096 -0.909897 -0.218587 -0.352573 
-13.262820 -165.883962 182.430074 -0.853618 0.350113 0.385690 
1.372702 -119.766440 118.328680 0.437687 -0.602863 -0.667073 
-17.338250 -124.732256 126.003732 -0.684185 -0.540638 -0.489491 
21.939600 1.964510 54.959552 0.947501 0.206027 0.244528 
15.780440 -283.239663 306.010556 0.989245 -0.068812 -0.129068 
-36.737030 -375.948341 407.244539 -0.123656 0.065032 0.990192 
-21.796220 -316.871187 345.318351 -0.508880 -0.483017 -0.712556 
-8.097903 -162.491864 159.097403 -0.250804 -0.675099 -0.693786 
-17.007290 -363.708912 365.599832 0.270926 -0.152091 -0.950509 
-8.746868 -245.425019 268.807167 -0.720255 0.516517 0.463080 
-40.939040 -23.443401 61.507260 -0.106280 -0.010501 0.994281 
-26.490740 8.822426 19.043281 0.400217 0.564309 -0.722068 
-5.856830 -298.839638 306.406496 -0.296747 -0.720526 -0.626725 
-17.150180 -6.993242 49.769154 0.252460 0.898890 0.358135 
0.938948 -52.521256 54.058541 0.161662 -0.760693 -0.628658 
1.307950 -63.497037 66.051825 0.324818 -0.676328 -0.661116 
9.603662 -216.011228 234.521942 0.862752 0.409122 0.297118 
-16.535000 -132.191856 147.416515 -0.873767 0.270731 0.404024 
10.932430 -257.926078 265.288428 0.795975 -0.454217 -0.400139 
-4.441727 -160.480820 184.819598 -0.199478 0.682546 0.703093 
-28.373700 -394.707273 382.958215 0.284428 -0.927309 -0.243307 
-16.912440 -297.829018 334.065195 -0.731402 0.601741 -0.320871 
-13.091760 -270.907597 288.277563 -0.967892 0.197128 0.155967 
11.690440 -19.469920 17.193256 0.175838 -0.142283 -0.974082 
-32.263620 -42.376453 55.574633 -0.688248 -0.668788 -0.281137 
6.753192 -187.383370 187.162205 0.645244 -0.530941 -0.549329 
-33.764570 -356.870950 366.692763 -0.356111 0.609768 -0.708074 
-7.193933 -157.908492 181.383327 -0.416343 0.633569 0.652111 
-39.879670 8.031971 17.452778 -0.437963 0.422880 -0.793323 
-33.153750 -47.849093 66.062494 -0.850804 -0.482200 -0.208843 
-14.665240 -379.088045 392.249336 0.864701 -0.030958 0.501333 
14.901620 -271.419005 297.943417 0.924168 0.345882 0.162111 
-10.353180 -35.438751 36.107456 -0.047100 -0.792157 -0.608497 
3.214775 -153.574996 151.801616 0.484542 -0.602234 -0.634455 
-52.558270 -380.939212 397.466245 -0.908205 -0.265645 0.323413 
-11.575100 -251.956398 257.840669 -0.829327 -0.434417 -0.351424 
-10.477260 -316.721744 360.591649 -0.380726 0.443530 0.811375 
13.703080 -33.715195 28.288691 0.662150 -0.691711 -0.288260 
-19.186220 -127.868047 137.685973 -0.976702 0.032992 0.212050 
-11.610590 -147.263130 167.620093 -0.687969 0.480854 0.543579 
27.232340 -2.534738 40.254410 0.940060 0.296286 -0.168827 
4.296959 9.569346 29.684687 -0.381455 0.689759 -0.615405 
4.561188 -99.465267 123.164285 0.577923 0.527714 0.622513 
9.498927 -76.898447 95.224495 0.999802 -0.000124 0.019912 
-12.555340 -265.702235 275.006549 -0.875482 -0.384288 -0.293009 
-26.841100 13.017255 23.334264 0.478213 0.711638 -0.514669 
12.043360 -365.848771 399.410810 0.073045 -0.568988 0.819095 
7.118835 -184.164445 202.558560 0.725022 0.512883 0.459668 
25.105490 -346.728493 357.933240 0.501364 -0.560973 -0.658744 
2.098664 -253.015617 285.012369 -0.083332 0.766934 0.636292 
-14.062820 -225.025546 237.401771 -0.923678 0.271075 0.270810 
-37.360610 -354.487636 374.233958 -0.410883 0.854156 -0.318735 
-0.310566 -320.152579 368.850316 -0.397268 0.687274 0.608139 
-41.420290 -392.946773 403.511958 -0.375292 -0.690780 0.618044 
-14.390360 -339.939345 351.055315 -0.458066 -0.455412 -0.763397 
-14.322850 -327.129182 342.581006 -0.836607 -0.202503 -0.508999 
5.147717 -241.764652 271.547402 0.330090 0.753222 0.568944 
-9.892510 -25.208491 62.092167 -0.162201 0.389982 0.906424 
12.989180 -270.687629 283.649033 0.921689 -0.274209 -0.274405 
-20.026120 -358.843866 390.368177 0.383826 0.689347 0.614393 
-18.566890 -76.380225 100.645353 -0.589646 0.436169 0.679761 
23.440070 4.368203 36.988053 0.928060 0.331336 -0.170061 
16.480950 -308.776117 352.495342 0.860477 0.485305 0.155110 
9.391497 -366.034605 393.344495 -0.715539 -0.674802 0.180682 
19.946120 -22.698883 38.350448 0.953229 -0.291630 -0.079415 
6.533335 -249.958373 280.501588 0.443666 0.717292 0.537264 
-14.842090 -207.516134 214.070834 -0.977428 -0.169794 -0.125716 
6.298101 -368.272999 385.117849 -0.256150 -0.517951 0.816158 
2.849260 -89.006006 90.800158 0.605200 -0.524644 -0.598733 
6.341669 -43.422268 43.008462 0.229673 -0.889567 -0.394868 
-41.756980 20.412771 37.422212 -0.275209 0.952561 -0.129950 
-17.462460 -142.792279 153.257334 -0.968875 0.132521 0.209092 
-10.952880 -4.581457 39.256347 -0.363914 0.926950 0.091266 
31.806980 -349.233600 369.121188 0.932483 -0.330666 -0.145379 
-10.287760 -318.281978 330.928614 -0.702328 -0.444020 -0.556400 
-8.921771 -305.402433 315.658234 -0.726597 -0.518761 -0.450492 
-11.020090 -294.667797 306.372869 -0.872973 -0.383463 -0.301453 
19.131110 -13.946683 64.289514 0.479183 -0.019811 0.877491 
3.712734 -81.329239 108.146967 0.471276 0.523550 0.709785 
-21.114320 -12.121294 56.182852 0.382724 0.348085 0.855780 
-7.770572 -321.813798 332.513755 -0.406473 -0.665567 -0.625940 
1.961407 -194.350548 217.797084 0.283284 0.722299 0.630900 
22.903340 -349.036603 391.465998 0.769211 0.257955 0.584615 
-14.749380 -14.220497 56.692429 -0.148503 0.340392 0.928483 
6.086462 -327.049996 379.951206 -0.136608 0.742136 0.656180 
13.871250 8.825290 25.895697 0.081791 0.649741 -0.755743 
7.964094 -18.686921 64.757449 -0.139079 -0.044280 0.989291 
-24.561190 -68.327998 75.314772 -0.570948 -0.578058 -0.582981 
-10.830190 -6.808719 50.380505 -0.346940 0.814870 0.464348 
-21.143200 -301.642672 346.718264 -0.251172 0.863828 0.436707 
-55.960530 -372.879647 384.531348 -0.948991 -0.270869 0.161389 
-4.031854 8.951332 41.956431 -0.734494 0.668000 -0.119559 
-3.919137 -89.854593 88.924847 0.072937 -0.664863 -0.743395 
-11.819550 -305.503592 321.742008 -0.951586 -0.228607 -0.205480 
5.950908 -293.840617 336.432070 0.043692 0.892687 0.448554 
0.438530 -270.837415 273.534113 0.020206 -0.772535 -0.634651 
7.392502 -331.872695 342.849062 0.196239 -0.686901 -0.699755 
8.065983 -78.499655 102.081595 0.847476 0.297194 0.439841 
-4.207897 -330.068354 372.226382 -0.716944 0.271344 0.642156 
-14.761140 -149.168325 149.012433 -0.582074 -0.589755 -0.559803 
13.231040 -354.700962 399.856325 0.359346 -0.006538 0.933182 
-7.300576 -277.390095 308.448038 -0.577583 0.689764 0.436604 
-5.596228 -226.562850 224.542529 -0.295483 -0.711402 -0.637650 
-9.690850 -377.003808 381.735121 0.839937 -0.542421 0.016878 
-5.463313 -370.298130 374.123242 0.175865 -0.805238 -0.566271 
-20.738390 -331.181045 355.817243 -0.960581 0.045472 -0.274256 
8.607823 -123.130964 139.353263 0.902456 0.297023 0.312011 
20.535670 -353.732000 363.596389 0.303426 -0.640408 -0.705556 
-49.191650 -362.378116 393.251515 -0.669996 0.598586 0.439089 
7.770570 -94.833800 115.831671 0.785309 0.382432 0.486863 
-52.403850 -2.488435 36.383900 -0.935190 0.091727 -0.342060 
9.745195 -29.731031 22.691086 -0.064874 -0.590130 -0.804698 
7.602037 -36.530962 29.885659 -0.042807 -0.847793 -0.528596 
-18.369060 -134.835333 139.270653 -0.971355 -0.218537 -0.093333 
-28.049410 -313.819921 346.251868 -0.896953 -0.329228 -0.295102 
-20.753330 -324.100193 351.172458 -0.798356 -0.444295 -0.406485 
-45.766740 -16.420034 33.247838 -0.720713 -0.428472 -0.544963 
-8.746312 -183.481418 180.387461 -0.397499 -0.665427 -0.631824 
4.392148 -32.410564 70.135432 -0.082010 0.391848 0.916368 
-2.683721 -368.506240 385.340097 0.248377 -0.343664 0.905651 
-5.450242 -204.638724 201.138789 -0.214488 -0.711219 -0.669449 
-13.221860 -294.517852 325.178249 -0.973553 0.162589 -0.160499 
8.256090 -347.750913 382.501623 -0.865687 -0.177334 0.468123 
-30.566020 -358.656895 396.257268 0.115285 0.823842 0.554971 
7.225807 -220.074917 220.258402 0.637508 -0.567502 -0.521080 
7.591987 -348.422943 398.394249 -0.035516 0.480548 0.876249 
-3.347864 -199.631433 224.828007 -0.074295 0.750573 0.656598 
3.844177 -214.713211 239.664991 0.533229 0.653482 0.537241 
-23.230560 -97.669525 104.743305 -0.932200 -0.314742 -0.178719 
11.046990 -54.014561 78.099289 0.985137 -0.068973 0.157317 
15.983910 -4.155901 65.784341 0.450658 0.055772 0.890953 
-7.201632 -216.146424 240.258231 -0.652820 0.550263 0.520612 
-42.581090 -24.681251 39.732968 -0.642570 -0.673368 -0.365622 
-45.714760 10.965920 56.485550 -0.436268 0.592863 0.676893 
26.304220 -17.144717 58.198660 0.871828 -0.252043 0.419988 
-33.162690 -353.365248 380.872303 -0.183991 0.979937 -0.076617 
-27.927380 -312.771488 350.810672 -0.870603 0.033650 0.490834 
-25.914770 -21.415373 59.172921 0.075952 0.228285 0.970627 
24.126470 -365.754823 378.600042 0.665151 -0.715544 -0.213471 
1.977426 -359.863056 365.187441 0.116377 -0.501943 -0.857035 
-0.467695 -234.261108 232.121003 0.152340 -0.734211 -0.661609 
-8.918509 -308.033004 352.476308 -0.085315 0.782292 0.617042 
-18.824680 -46.152299 50.548515 -0.237946 -0.739586 -0.629598 
-12.177390 -385.623753 386.836039 0.850711 -0.524430 0.035568 
-19.682470 -393.027946 389.082148 0.589436 -0.805031 0.067012 
-29.796680 -370.548100 405.087794 0.126178 0.342111 0.931149 
6.127664 -124.343067 126.621517 0.810038 -0.393476 -0.434759 
-26.495070 16.536098 34.403778 0.707236 0.693593 -0.136920 
12.548430 -1.285160 18.489847 0.079089 0.555607 -0.827675 
3.656346 -345.664243 389.446304 -0.979935 -0.118867 -0.159996 
-11.478730 -293.218402 329.676491 -0.516730 0.832164 0.201229 
3.416606 -371.068455 380.523840 0.117757 -0.928876 0.351174 
-36.064300 -0.800210 15.233310 -0.342198 0.040339 -0.938762 
-9.241570 -170.925871 192.330076 -0.569643 0.570598 0.591544 
-24.780740 -342.437142 366.992666 -0.801519 0.579299 0.148257 
-11.309650 -67.020686 68.518919 -0.127495 -0.673517 -0.728093 
-30.465850 -15.163167 59.757260 0.228114 -0.276435 0.933567 
-27.437470 -5.220513 60.045124 0.832997 0.021041 0.552877 
-37.108830 14.599963 21.394095 -0.007261 0.719193 -0.694773 
7.436877 -148.028476 165.801209 0.814443 0.413495 0.407067 
26.790920 -6.461491 53.629095 0.895395 0.194621 0.400487 
-56.084100 -368.835714 378.666506 -0.962109 0.159912 -0.220849 
16.448250 8.984196 58.392936 0.248161 0.629510 0.736297 
4.939106 -138.963658 138.983946 0.694174 -0.486122 -0.530855 
-8.778461 -349.661521 357.101500 -0.021102 -0.540000 -0.841400 
13.444000 -29.692678 69.308356 0.310187 0.047316 0.949497 
21.131400 -22.646517 47.137494 0.901958 -0.429582 -0.043937 
8.251962 -287.523614 327.098136 0.383652 0.795014 0.469854 
-6.903816 -243.276802 243.596079 -0.352409 -0.721296 -0.596272 
-11.329030 -227.687739 229.504989 -0.759319 -0.500229 -0.416179 
-13.733210 -255.600489 268.251611 -0.993115 -0.088946 -0.076226 
-13.484950 -247.854705 262.656670 -0.994430 0.079749 0.068917 
-2.217164 -302.001653 345.431668 -0.169929 0.810014 0.561250 
-49.971070 11.397238 51.912394 -0.901510 0.351747 0.252100 
-2.542018 -170.926423 195.127635 0.053186 0.706243 0.705969 
-22.832030 7.648581 35.339946 0.931140 0.313852 0.185674 
-19.475430 4.836088 28.682363 0.829878 0.553802 -0.067860 
-25.693970 4.071595 47.304175 0.979919 0.061560 0.189653 
13.881450 -255.392657 273.978790 0.995875 0.089270 -0.016260 
-45.947360 7.256181 25.258472 -0.813493 0.160154 -0.559088 
-25.405020 -354.296272 362.647901 -0.341801 0.057378 -0.938019 
-1.543601 -241.474890 271.060591 -0.336002 0.714199 0.614022 
-14.419440 -385.434461 379.538924 0.733945 -0.596951 -0.323998 
-35.248880 19.138670 28.737333 0.142864 0.901476 -0.408572 
-23.706310 -344.041772 359.404368 -0.829158 0.193308 -0.524528 
-27.023550 -69.699292 80.886856 -0.964780 -0.256078 -0.060205 
-50.719010 -388.620789 394.453929 -0.837305 -0.477598 0.266119 
15.958790 -365.423091 373.248153 0.343985 -0.583606 -0.735580 
10.518921 -251.073759 278.250865 0.778894 0.533212 0.330165 
12.651550 -261.576386 289.350069 0.822909 0.486587 0.293348 
-8.360986 -0.355484 29.732676 -0.223562 0.891714 -0.393531 
-19.633630 -367.367286 396.290775 0.721529 0.208747 0.660167 
21.256170 -12.035063 32.128210 0.953887 -0.118243 -0.275894 
-11.629700 -66.313930 94.970187 -0.231425 0.593600 0.770767 
9.314632 -138.221298 147.947543 0.995175 -0.056132 -0.080468 
8.383638 -152.720722 156.826586 0.881349 -0.307028 -0.359106 
0.638306 -327.453003 377.956865 -0.702163 0.413302 0.579783 
-37.197550 -377.953340 364.585287 -0.178521 -0.261871 -0.948448 
-8.449459 -28.964088 29.764780 -0.161018 -0.511893 -0.843824 
8.802898 -74.892620 86.800711 0.960095 -0.214196 -0.179825 
-2.971039 -122.358193 147.408119 0.110241 0.678274 0.726492 
-2.195550 -104.417114 102.724717 0.221097 -0.651123 -0.726055 
-48.926670 15.586718 46.121942 -0.604356 0.787590 0.120234 
5.319426 -367.584221 369.872260 0.170736 -0.630471 -0.757203 
28.832990 -341.815795 357.432337 0.745003 -0.099748 -0.659561 
8.377841 -119.697498 127.850073 0.980136 -0.118701 -0.158881 
-18.245840 -340.526285 370.620614 -0.501629 0.569737 0.650975 
-27.257060 -354.016269 385.253400 -0.045427 0.956111 0.289463 
11.663230 -301.650074 313.811499 0.693617 -0.520306 -0.498174 
7.348054 -201.656522 201.760732 0.710589 -0.491835 -0.503152 
9.841393 -182.227243 186.877747 0.932202 -0.239861 -0.271047 
28.187270 -350.497268 383.754549 0.917394 0.053973 0.394304 
-21.414770 -101.385004 115.353879 -0.955467 0.089871 0.281079 
8.383870 14.676507 34.158134 -0.185295 0.861132 -0.473410 
-24.555490 -17.759776 18.215623 0.243643 -0.237856 -0.940246 
12.861500 -273.477294 305.428535 0.596403 0.688137 0.413244 
-54.065750 -10.908658 56.587489 -0.860062 -0.047847 0.507940 
-18.317060 -112.683604 128.819746 -0.870170 0.271086 0.411480 
15.921030 -295.841734 329.307863 0.891400 0.394364 0.223344 
-32.774090 -386.619905 408.101909 -0.029805 -0.364451 0.930746 
-12.237020 -5.386757 23.630302 0.186342 0.502817 -0.844069 
-49.642400 -383.059818 374.740275 -0.720597 -0.580899 -0.378546 
-37.970490 -37.240743 66.198889 -0.810943 -0.269630 0.519299 
-10.568980 -363.986504 367.919248 0.197489 -0.482225 -0.853497 
-25.096210 -6.515803 55.815189 0.791556 0.501918 0.348593 
-25.763900 5.881106 55.319296 0.890275 0.159881 0.426436 
-6.475021 0.775806 43.370109 -0.903293 0.429022 -0.001747 
-14.074340 -185.431740 187.282036 -0.888553 -0.347743 -0.299247 
-31.538210 18.271171 45.543892 0.310789 0.942731 0.121115 
10.659860 -203.921868 218.378557 0.926889 0.297720 0.228561 
7.275004 -52.029893 57.746895 0.651673 -0.635798 -0.413622 
1.897604 -352.429031 395.587797 -0.991459 0.127018 -0.029575 
16.960080 -290.027350 318.694393 0.988161 0.149738 0.033404 
12.108660 -372.857053 383.445254 -0.082403 -0.958381 0.273341 
-35.559990 -397.458984 396.430382 -0.115257 -0.949494 0.291852 
22.622980 13.599639 48.374670 0.845582 0.523759 0.103288 
-42.219830 -387.693735 373.501139 -0.358306 -0.715115 -0.600190 
-24.579460 -301.275080 341.528836 -0.838010 0.508810 -0.197108 
5.039676 -265.632645 268.838937 0.313671 -0.728010 -0.609600 
-14.523530 -0.009711 28.160875 0.469470 0.843906 -0.259655 
9.199045 -278.100603 285.914191 0.537422 -0.645477 -0.542712 
-2.014353 -325.993682 335.110213 -0.011336 -0.740052 -0.672454 
-25.174890 -71.339375 90.073445 -0.867952 0.126394 0.480295 
-12.369720 -208.715726 209.939908 -0.717844 -0.517792 -0.465394 
18.586190 -317.468202 339.301945 0.955421 -0.055569 -0.289971 
-2.508901 -279.674787 284.211195 -0.194168 -0.750450 -0.631762 
-12.570070 -115.390169 137.550163 -0.616344 0.498269 0.609793 
-11.276380 -235.400748 254.450162 -0.842999 0.397730 0.362164 
6.270087 -310.134385 319.271893 0.322880 -0.705317 -0.631092 
8.002409 -235.463421 237.571667 0.736902 -0.489445 -0.466282 
-46.015490 -355.157380 384.536720 -0.410942 0.911476 0.018389 
-12.320840 -297.437001 315.213408 -0.993065 -0.093174 -0.071693 
-50.255460 -2.544183 59.017412 -0.767832 0.032663 0.639818 
-24.654700 -308.117843 350.983249 -0.572140 0.425484 0.701155 
15.333620 -283.984287 316.320234 0.813471 0.489381 0.314279 
31.946330 -342.843807 366.034624 0.987718 0.155943 -0.009693 
-33.742800 9.837139 58.421773 0.274152 0.597640 0.753437 
-1.007764 -39.206884 37.664462 -0.282942 -0.776666 -0.562791 
-14.412480 -221.265858 229.011885 -0.993183 -0.098324 -0.062611 
10.061810 4.406243 62.581229 -0.166299 0.426201 0.889211 
9.208955 -370.331010 374.763416 0.209749 -0.923706 -0.320581 
-16.606330 -159.858068 167.925306 -0.994194 0.027684 0.103984 
7.796989 -94.664536 103.349018 0.928930 -0.262491 -0.261127 
-31.250720 -351.547764 375.483231 -0.453914 0.890340 0.035465 
-5.909405 -9.904348 57.766702 -0.674077 0.264644 0.689626 
2.801725 -275.549988 311.816692 -0.080216 0.818237 0.569257 
-15.688610 -166.250653 169.265348 -0.900279 -0.347580 -0.262082 
-51.041100 -370.841932 397.990280 -0.726692 0.189974 0.660173 
-14.065530 -117.993438 116.994882 -0.384157 -0.641682 -0.663828 
-26.373090 -396.528597 393.700046 0.271131 -0.937313 0.218935 
7.506050 15.232346 43.322021 -0.304758 0.942061 -0.140154 
16.530110 -25.406818 22.597326 0.741904 -0.360185 -0.565548 
-51.203310 -386.068017 385.503363 -0.869899 -0.485601 0.086417 
-16.684590 -94.492369 116.123040 -0.641388 0.462591 0.612071 
4.357296 -352.151310 381.018117 -0.377763 0.188458 0.906520 
10.031463 -47.295924 78.637294 0.690437 0.296035 0.660045 
-13.140570 -358.325280 387.289509 0.290804 0.351539 0.889861 
-42.616380 -2.908591 64.910298 -0.206404 -0.082310 0.974999 
-55.350490 -370.540459 390.379554 -0.951978 0.191692 0.238729 
-50.300910 -358.464836 373.068772 -0.540062 0.688374 -0.484226 
-1.223430 -140.355591 136.954423 0.216290 -0.673509 -0.706827 
-4.195064 -120.012319 117.213227 -0.006091 -0.676790 -0.736151 
9.440452 -234.031225 257.034106 0.731381 0.561388 0.387202 
-9.697420 -16.672671 24.573815 -0.220753 -0.105505 -0.969607 
-16.320780 -304.477078 334.237762 -0.739701 -0.110524 -0.663797 
9.867288 -168.146925 175.182840 0.981771 -0.116300 -0.150331 
-4.023481 3.065587 30.906378 -0.608130 0.668297 -0.428435 
25.875390 -357.980190 387.684833 0.903211 -0.282085 0.323479 
21.793330 4.555144 45.127534 0.966676 0.254917 0.023560 
-12.724910 -83.393574 83.991664 -0.238470 -0.644857 -0.726148 
-49.117220 -374.873009 368.339871 -0.697782 -0.125566 -0.705219 
-3.797430 -157.707660 153.808898 -0.031210 -0.694095 -0.719207 
9.563075 -161.352810 174.656205 0.951068 0.231370 0.204789 
10.414186 -54.547446 68.628279 0.926172 -0.342780 -0.157186 
10.324862 -369.460739 388.046831 -0.658335 -0.577432 0.482875 
-34.292360 -19.223364 25.661744 -0.692113 -0.423506 -0.584485 
-45.418280 17.844235 29.413776 -0.487011 0.732697 -0.475370 
-49.679560 13.362735 39.235976 -0.877947 0.452006 -0.157794 
-4.460049 -341.471593 377.583430 -0.518771 0.049388 0.853486 
-30.767980 -352.473811 367.196695 -0.674667 0.538947 -0.504341 
-12.113740 -366.753871 389.198694 0.603481 -0.098094 0.791321 
-16.883650 -322.472885 345.816542 -0.817839 -0.234246 -0.525612 
2.144542 -287.174789 326.865210 -0.103888 0.855205 0.507771 
-1.231005 -264.217330 296.930333 -0.356172 0.747813 0.560283 
-0.489446 -360.401022 384.473842 0.012357 0.061663 0.998021 
11.496790 -242.883522 250.581248 0.890088 -0.321023 -0.323555 
-24.855860 -47.474791 54.698695 -0.546881 -0.684516 -0.482037 
-9.134990 -277.097237 283.988946 -0.549775 -0.643247 -0.532899 
20.504270 -24.612862 62.874933 0.852729 -0.434919 0.289307 
8.651232 -62.993981 89.731233 0.864220 0.243404 0.440316 
4.656056 -48.937664 81.638278 0.220280 0.522973 0.823393 
-4.866264 -260.532999 262.503476 -0.292764 -0.740475 -0.604968 
-31.892150 -2.582853 63.800952 0.439082 -0.035303 0.897753 
-51.260750 -358.147057 380.203809 -0.708537 0.699487 -0.093238 
-19.959990 -332.997887 363.069479 -0.801871 0.325048 0.501344 
1.623800 -357.621144 400.283242 -0.942369 -0.306485 0.134194 
-35.189270 -369.471239 362.012944 -0.029117 0.131024 -0.990952 
0.919014 -209.964312 206.602407 0.191640 -0.711867 -0.675662 
-16.582760 -318.749015 358.717444 -0.570212 0.146197 0.808384 
5.210258 -362.585673 400.212845 -0.444004 -0.649318 0.617451 
20.926140 0.803971 29.786925 0.846580 0.220871 -0.484270 
-26.693790 -35.850303 39.942387 -0.420185 -0.804341 -0.420096 
-39.390190 16.573615 50.669070 -0.099133 0.926435 0.363167 
-24.928660 -80.648401 95.405426 -0.932302 0.121030 0.340829 
6.824756 -1.345868 19.866804 -0.223934 0.574733 -0.787106 
15.694920 3.150331 24.307372 0.424244 0.545151 -0.723068 
-11.051080 -284.872086 313.859767 -0.829205 0.511139 0.226177 
12.212780 -297.370364 339.182448 0.681512 0.684898 0.257791 
-0.454805 -72.250791 101.597399 0.073176 0.624644 0.777474 
-12.465570 -372.051835 371.940515 0.594070 -0.398822 -0.698586 
-20.738030 -117.214568 123.523392 -0.989185 -0.145338 -0.019761 
-0.541212 -173.206377 169.122952 0.158714 -0.695910 -0.700371 
5.251673 -12.144941 16.544748 -0.278388 0.202634 -0.938850 
-6.119263 -200.787927 225.016938 -0.456554 0.651142 0.606278 
9.797367 -156.734571 165.891450 0.999240 0.037559 -0.010475 
-7.524627 -109.668392 134.872876 -0.235803 0.655522 0.717418 
-20.503780 -4.241194 45.503311 0.599394 0.762171 0.244585 
-10.930050 -276.399522 301.711563 -0.813749 0.491399 0.310386 
28.594640 -10.866823 49.291137 0.983043 -0.174649 -0.055893 
-17.584070 -337.341558 351.686899 -0.711324 -0.147479 -0.687218 
-13.259290 -159.826541 159.070351 -0.637524 -0.569795 -0.518552 
5.696199 -356.475062 389.167396 -0.972738 -0.177566 -0.149171 
-54.461080 -379.675252 379.434305 -0.929744 -0.307347 -0.202765 
-30.367660 -9.974390 16.084186 -0.275616 -0.114882 -0.954378 
-19.984470 -4.023569 18.698474 0.419779 0.290691 -0.859816 
13.990610 -39.284223 55.487314 0.921348 -0.388737 0.000933 
6.809936 -172.419300 172.682518 0.694442 -0.490043 -0.526885 
17.735460 -4.107666 20.163368 0.717500 0.330009 -0.613422 
21.409500 10.530598 54.197394 0.666853 0.510473 0.542885 
-0.161914 -19.407884 61.617783 -0.358941 0.060239 0.931414 
-7.362665 -93.546861 119.847825 -0.186831 0.626003 0.757110 
-5.662502 -185.804367 209.618438 -0.243226 0.700414 0.671016 
-9.491070 -127.512394 150.643821 -0.461001 0.591305 0.661693 
-12.106540 -288.315701 313.576064 -0.980781 0.183496 0.066310 
-9.792610 -374.643398 385.964681 0.550921 -0.500479 0.667838 
7.971391 -293.847124 302.302960 0.375780 -0.697869 -0.609728 
-17.350870 -389.549077 397.239483 0.561720 -0.613789 0.554737 
14.834540 -291.032026 309.052531 0.924080 -0.245443 -0.292973 
3.697146 -354.937943 401.805665 -0.382884 0.075636 0.920695 
-21.446360 -323.378894 354.609055 -0.931676 -0.227070 0.283582 
-12.944750 -272.832985 285.019127 -0.955898 -0.235078 -0.176062 
-3.432531 -75.707812 76.048216 0.193424 -0.647527 -0.737086 
-48.834480 -22.526296 60.332116 -0.563203 -0.443825 0.697009 
11.169580 -193.281495 203.431387 0.999369 0.035447 -0.002288 
-7.008145 -336.013521 345.606937 -0.143872 -0.656433 -0.740538 
-13.850410 -386.355814 395.511963 0.867573 -0.290695 0.403502 
-6.401997 -3.551059 24.872205 -0.198622 0.612516 -0.765097 
5.818986 -161.747111 180.942716 0.643717 0.547415 0.534757 
-20.581030 -40.236334 71.294934 -0.049918 0.497513 0.866019 
14.264970 -305.022934 320.493024 0.796561 -0.389020 -0.462767 
-24.506680 13.317241 40.146843 0.964382 0.258134 0.057746 
-1.549184 -214.588520 241.457043 -0.107740 0.747697 0.655241 
15.976000 -348.081163 396.400367 0.476816 0.347992 0.807186 
-15.399030 -188.958961 197.477394 -0.999691 -0.020552 0.014003 
-12.481910 -328.310560 365.523833 -0.527205 0.334992 0.780920 
8.881157 -96.860389 111.145782 0.998789 -0.047135 -0.014123 
12.036910 -219.605431 228.684383 0.987537 -0.106671 -0.115720 
17.089190 -371.237930 393.183114 0.223363 -0.813944 0.536288 
21.935640 -334.159154 350.849490 0.686256 -0.199868 -0.699361 
-10.222700 -198.845982 219.155980 -0.721959 0.490490 0.488052 
7.422456 -137.450726 155.248233 0.831983 0.387875 0.396683 
-7.211980 -10.536460 23.141622 -0.172007 0.254780 -0.951578 
-14.175170 -240.016732 251.487267 -0.998591 -0.052957 -0.003266 
-0.597271 -180.000285 203.939558 0.309384 0.683090 0.661566 
-10.622910 -299.349933 341.432453 -0.049152 0.874013 0.483411 
3.674859 -10.156309 65.258676 -0.353430 -0.102677 0.929809 
4.628136 -61.469510 91.464635 0.397237 0.537512 0.743830 
-28.072780 -55.537230 79.729937 -0.715410 0.149950 0.682425 
-43.433430 -364.550140 363.383643 -0.325915 0.320990 -0.889238 
-29.036780 -381.901603 367.164748 0.128936 -0.541884 -0.830505 
13.159950 -325.128944 338.524447 0.516751 -0.550141 -0.655983 
-20.975630 -385.240255 372.814220 0.476987 -0.589382 -0.652006 
-6.808520 -256.862434 283.951091 -0.675343 0.568741 0.469516 
3 4 305 5 
3 135 289 50 
3 7 165 391 
3 229 10 426 
3 220 366 307 
3 295 8 162 
3 157 182 1 
3 161 207 305 
3 63 12 50 
3 325 79 14 
3 406 405 48 
3 16 47 17 
3 262 283 128 
3 60 482 175 
3 339 178 9 
3 158 412 70 
3 448 293 214 
3 3 24 309 
3 37 216 68 
3 95 0 30 
3 203 281 31 
3 32 414 33 
3 159 60 367 
3 420 416 153 
3 313 487 76 
3 32 297 287 
3 268 476 401 
3 5 207 407 
3 284 256 479 
3 278 352 211 
3 391 236 49 
3 141 366 52 
3 104 302 437 
3 402 339 9 
3 349 34 204 
3 187 218 206 
3 119 265 69 
3 5 305 207 
3 65 99 496 
3 59 67 237 
3 369 342 260 
3 94 398 59 
3 285 120 154 
3 119 69 471 
3 496 39 56 
3 62 259 411 
3 461 11 309 
3 55 88 254 
3 153 80 279 
3 250 198 145 
3 35 88 55 
3 360 230 462 
3 93 94 237 
3 51 370 180 
3 94 196 398 
3 401 476 64 
3 99 104 87 
3 430 95 141 
3 381 8 295 
3 248 68 296 
3 115 38 393 
3 481 28 191 
3 127 32 287 
3 82 372 316 
3 240 488 159 
3 58 187 437 
3 458 195 494 
3 117 289 97 
3 304 455 142 
3 414 90 358 
3 80 280 279 
3 181 335 395 
3 215 24 3 
3 251 430 141 
3 398 264 470 
3 406 282 311 
3 172 424 450 
3 458 373 192 
3 3 11 61 
3 81 6 344 
3 448 97 289 
3 29 191 27 
3 47 193 40 
3 167 349 127 
3 276 436 327 
3 395 475 299 
3 243 417 275 
3 454 9 146 
3 410 164 448 
3 269 112 239 
3 270 388 399 
3 183 41 184 
3 378 253 465 
3 158 290 501 
3 21 114 254 
3 192 197 188 
3 43 377 390 
3 10 134 318 
3 432 321 382 
3 203 276 411 
3 431 365 337 
3 202 41 230 
3 106 384 238 
3 229 352 226 
3 449 51 208 
3 71 287 298 
3 149 170 397 
3 146 380 173 
3 260 212 213 
3 200 20 6 
3 170 149 429 
3 240 86 480 
3 257 19 441 
3 240 159 356 
3 468 223 224 
3 260 176 228 
3 260 342 176 
3 143 376 387 
3 388 135 497 
3 239 457 271 
3 104 495 419 
3 306 425 12 
3 269 186 243 
3 244 316 372 
3 10 455 134 
3 486 247 396 
3 58 437 459 
3 54 56 331 
3 293 448 289 
3 118 86 356 
3 460 442 235 
3 242 311 282 
3 111 43 208 
3 234 4 467 
3 379 200 6 
3 130 259 230 
3 214 410 448 
3 488 460 262 
3 359 217 44 
3 155 28 209 
3 485 77 338 
3 34 354 204 
3 178 52 366 
3 364 182 313 
3 304 142 272 
3 155 428 172 
3 273 163 473 
3 107 15 274 
3 380 132 96 
3 276 327 363 
3 277 144 278 
3 279 280 144 
3 246 265 119 
3 346 223 245 
3 377 67 59 
3 141 52 251 
3 113 140 341 
3 168 232 88 
3 230 435 462 
3 459 437 302 
3 73 371 484 
3 297 174 298 
3 320 364 27 
3 261 137 120 
3 114 21 78 
3 478 317 466 
3 344 112 397 
3 309 11 3 
3 393 130 230 
3 175 482 352 
3 157 37 313 
3 156 190 236 
3 133 53 241 
3 101 143 199 
3 1 396 247 
3 247 342 369 
3 61 136 128 
3 165 7 290 
3 265 246 188 
3 92 328 162 
3 114 328 55 
3 490 25 329 
3 306 399 497 
3 388 244 160 
3 332 97 273 
3 348 445 181 
3 334 365 421 
3 234 481 40 
3 498 12 500 
3 433 194 434 
3 473 189 350 
3 468 224 214 
3 467 4 340 
3 395 150 433 
3 275 301 447 
3 345 8 330 
3 41 393 230 
3 194 433 150 
3 370 109 180 
3 323 453 25 
3 257 434 456 
3 480 236 190 
3 422 388 270 
3 126 180 148 
3 480 190 235 
3 275 173 301 
3 36 478 353 
3 204 354 416 
3 125 236 391 
3 249 277 211 
3 263 82 315 
3 64 476 156 
3 411 493 281 
3 116 400 440 
3 193 47 161 
3 315 483 423 
3 110 255 272 
3 48 288 219 
3 20 373 74 
3 421 365 386 
3 366 141 307 
3 436 171 42 
3 105 219 79 
3 206 218 484 
3 261 22 137 
3 214 293 263 
3 364 76 27 
3 141 72 307 
3 345 84 8 
3 98 90 127 
3 256 285 154 
3 258 450 340 
3 330 8 381 
3 383 231 46 
3 10 318 426 
3 135 408 289 
3 346 245 362 
3 291 438 212 
3 325 105 79 
3 226 10 229 
3 473 205 68 
3 24 151 57 
3 126 326 147 
3 299 329 348 
3 387 422 270 
3 172 428 424 
3 119 66 246 
3 57 459 444 
3 110 272 389 
3 148 11 461 
3 386 69 265 
3 314 215 303 
3 54 138 56 
3 133 241 430 
3 304 272 303 
3 361 325 69 
3 365 334 83 
3 451 399 330 
3 276 363 324 
3 147 222 126 
3 297 165 174 
3 440 400 142 
3 231 2 450 
3 310 201 177 
3 274 103 186 
3 408 372 263 
3 135 50 497 
3 24 215 75 
3 33 485 125 
3 171 76 42 
3 445 285 284 
3 343 8 84 
3 74 6 20 
3 171 31 17 
3 46 385 413 
3 175 367 60 
3 313 37 487 
3 317 349 167 
3 100 441 132 
3 454 106 402 
3 81 379 6 
3 287 71 167 
3 402 308 91 
3 374 412 210 
3 367 278 491 
3 32 127 414 
3 292 179 337 
3 418 419 495 
3 146 9 178 
3 217 359 422 
3 109 60 262 
3 202 185 184 
3 124 91 470 
3 238 402 106 
3 458 494 373 
3 137 405 267 
3 109 262 136 
3 375 370 51 
3 431 337 179 
3 349 317 464 
3 223 115 224 
3 415 138 133 
3 259 62 435 
3 152 308 418 
3 317 167 466 
3 81 322 379 
3 197 373 26 
3 385 45 82 
3 43 111 377 
3 409 385 300 
3 490 441 392 
3 295 143 101 
3 454 173 275 
3 352 482 336 
3 155 467 428 
3 326 355 382 
3 253 378 129 
3 361 69 386 
3 335 26 200 
3 303 268 443 
3 181 299 348 
3 408 263 293 
3 480 235 442 
3 245 223 468 
3 178 366 221 
3 218 151 75 
3 368 239 271 
3 444 461 309 
3 311 431 179 
3 220 307 100 
3 286 284 479 
3 418 384 419 
3 501 412 158 
3 72 25 307 
3 459 382 444 
3 492 283 460 
3 193 305 4 
3 223 346 38 
3 464 357 18 
3 430 251 415 
3 276 324 411 
3 395 299 181 
3 381 451 330 
3 215 314 75 
3 458 166 227 
3 483 45 407 
3 39 23 331 
3 272 255 303 
3 246 66 477 
3 21 217 376 
3 137 22 288 
3 113 466 167 
3 411 281 203 
3 104 99 302 
3 33 391 32 
3 353 327 42 
3 165 290 158 
3 62 210 435 
3 260 228 463 
3 320 28 396 
3 143 387 199 
3 241 53 225 
3 333 266 188 
3 406 311 179 
3 441 100 392 
3 76 102 27 
3 368 494 239 
3 179 405 406 
3 390 59 310 
3 92 378 465 
3 103 15 417 
3 460 283 262 
3 399 388 497 
3 16 250 47 
3 324 374 411 
3 180 222 51 
3 40 4 234 
3 24 57 309 
3 325 14 471 
3 472 338 77 
3 164 163 448 
3 109 136 148 
3 156 338 472 
3 420 153 144 
3 392 25 490 
3 350 357 205 
3 115 410 224 
3 264 196 251 
3 2 413 176 
3 433 490 475 
3 44 244 359 
3 70 174 158 
3 374 62 411 
3 438 117 332 
3 452 261 453 
3 419 227 87 
3 86 49 480 
3 264 124 470 
3 440 142 455 
3 47 250 161 
3 77 318 472 
3 267 405 292 
3 169 432 382 
3 475 329 299 
3 78 21 376 
3 77 485 233 
3 245 468 427 
3 249 211 426 
3 421 386 265 
3 120 137 267 
3 334 479 83 
3 173 454 146 
3 446 210 412 
3 171 102 76 
3 468 214 423 
3 201 470 177 
3 363 327 341 
3 255 110 73 
3 28 486 396 
3 500 12 438 
3 4 258 340 
3 82 168 385 
3 83 256 337 
3 331 23 54 
3 113 167 71 
3 53 54 23 
3 66 99 477 
3 440 226 116 
3 411 259 493 
3 248 213 332 
3 371 152 484 
3 127 287 167 
3 418 308 238 
3 266 333 286 
3 139 409 300 
3 356 159 491 
3 275 447 243 
3 477 87 166 
3 233 485 358 
3 111 439 67 
3 342 247 486 
3 48 219 105 
3 370 375 89 
3 206 418 495 
3 31 16 17 
3 424 340 450 
3 94 59 237 
3 221 146 178 
3 486 403 342 
3 426 318 233 
3 365 83 337 
3 119 471 23 
3 345 399 306 
3 227 195 458 
3 268 489 3 
3 115 223 38 
3 117 438 12 
3 394 455 304 
3 472 318 319 
3 127 349 347 
3 480 442 240 
3 212 438 213 
3 220 100 132 
3 80 118 356 
3 114 78 328 
3 80 153 469 
3 248 312 213 
3 290 118 501 
3 221 220 146 
3 251 52 264 
3 250 145 161 
3 438 291 500 
3 355 444 382 
3 157 1 216 
3 262 128 136 
3 328 78 162 
3 225 0 241 
3 12 425 50 
3 232 44 21 
3 117 12 63 
3 140 113 71 
3 98 347 420 
3 156 476 492 
3 89 375 336 
3 26 373 20 
3 155 209 467 
3 434 194 85 
3 323 25 72 
3 18 34 464 
3 112 269 149 
3 301 173 96 
3 268 401 443 
3 481 191 29 
3 206 495 187 
3 76 353 42 
3 199 381 101 
3 326 126 355 
3 205 357 499 
3 133 430 415 
3 496 56 351 
3 124 339 91 
3 302 99 65 
3 8 343 162 
3 65 496 351 
3 470 91 177 
3 433 434 257 
3 258 4 5 
3 48 105 406 
3 45 315 82 
3 361 242 282 
3 406 105 282 
3 54 133 138 
3 80 469 131 
3 279 144 153 
3 31 171 436 
3 285 348 120 
3 46 45 385 
3 231 450 258 
3 376 143 78 
3 106 15 107 
3 89 482 109 
3 492 460 190 
3 101 381 295 
3 84 13 129 
3 132 19 96 
3 265 266 421 
3 297 32 391 
3 181 197 26 
3 53 133 54 
3 388 160 135 
3 404 261 452 
3 215 489 303 
3 102 29 27 
3 380 96 173 
3 316 232 168 
3 476 268 61 
3 55 254 114 
3 416 184 185 
3 186 103 243 
3 350 18 357 
3 92 465 55 
3 176 413 228 
3 335 181 26 
3 501 80 131 
3 214 224 410 
3 145 427 483 
3 34 18 121 
3 501 131 446 
3 467 424 428 
3 73 110 310 
3 378 343 84 
3 277 420 144 
3 140 298 70 
3 159 367 491 
3 18 189 121 
3 478 499 317 
3 102 171 17 
3 43 400 208 
3 0 404 30 
3 341 353 466 
3 317 499 357 
3 145 198 362 
3 333 284 286 
3 455 319 134 
3 195 239 494 
3 12 498 306 
3 483 407 207 
3 402 9 454 
3 422 359 244 
3 200 26 20 
3 159 488 60 
3 479 256 83 
3 332 117 97 
3 175 278 367 
3 121 189 184 
3 482 60 109 
3 163 97 448 
3 203 436 276 
3 319 455 394 
3 222 208 51 
3 375 51 449 
3 413 383 46 
3 434 85 429 
3 256 292 337 
3 146 220 380 
3 318 134 319 
3 248 332 273 
3 471 14 53 
3 186 239 195 
3 111 67 377 
3 189 183 184 
3 403 2 176 
3 152 206 484 
3 61 268 3 
3 149 269 447 
3 177 308 371 
3 139 300 35 
3 372 160 244 
3 129 500 291 
3 201 310 59 
3 434 429 456 
3 187 495 437 
3 41 164 410 
3 248 296 312 
3 290 86 118 
3 122 197 181 
3 43 390 389 
3 119 39 66 
3 345 13 84 
3 401 394 443 
3 454 275 417 
3 486 172 403 
3 430 241 0 
3 116 449 208 
3 446 435 210 
3 300 88 35 
3 338 156 236 
3 383 2 231 
3 89 109 370 
3 336 226 352 
3 11 148 136 
3 199 451 381 
3 152 418 206 
3 446 462 435 
3 214 263 423 
3 310 110 390 
3 176 342 403 
3 198 130 346 
3 6 457 344 
3 347 349 204 
3 98 249 90 
3 329 475 490 
3 107 384 106 
3 291 212 252 
3 163 183 473 
3 199 387 270 
3 122 181 445 
3 124 123 339 
3 105 325 361 
3 201 59 398 
3 409 139 463 
3 484 314 73 
3 322 200 379 
3 232 254 88 
3 194 150 322 
3 30 323 95 
3 437 495 104 
3 273 473 68 
3 252 474 253 
3 111 208 222 
3 485 33 358 
3 255 314 303 
3 64 319 394 
3 108 14 79 
3 188 197 122 
3 499 36 487 
3 324 140 70 
3 44 217 21 
3 493 198 250 
3 231 5 407 
3 303 489 268 
3 95 323 72 
3 496 99 39 
3 322 150 200 
3 25 453 329 
3 147 439 222 
3 407 45 46 
3 108 22 225 
3 395 200 150 
3 89 336 482 
3 5 231 258 
3 121 184 416 
3 368 6 74 
3 123 52 178 
3 139 212 463 
3 401 64 394 
3 294 138 196 
3 397 85 344 
3 205 473 350 
3 377 59 390 
3 389 400 43 
3 92 55 328 
3 296 216 247 
3 169 382 459 
3 382 321 326 
3 92 162 343 
3 358 249 233 
3 209 28 481 
3 447 269 243 
3 364 320 396 
3 182 364 396 
3 149 447 301 
3 373 494 74 
3 56 39 331 
3 324 70 374 
3 198 346 362 
3 433 475 395 
3 383 413 2 
3 0 225 404 
3 271 457 6 
3 250 16 281 
3 0 95 430 
3 263 372 82 
3 281 493 250 
3 289 408 293 
3 213 438 332 
3 385 409 228 
3 246 192 188 
3 334 421 266 
3 125 485 338 
3 292 256 154 
3 280 356 491 
3 405 179 292 
3 122 333 188 
3 481 234 209 
3 212 474 252 
3 296 68 216 
3 468 423 427 
3 284 285 256 
3 216 1 247 
3 142 389 272 
3 103 417 243 
3 489 215 3 
3 218 58 151 
3 461 444 355 
3 403 172 450 
3 108 79 219 
3 169 302 65 
3 361 282 105 
3 296 247 369 
3 283 61 128 
3 121 354 34 
3 311 242 431 
3 385 228 413 
3 277 98 420 
3 470 201 398 
3 300 168 88 
3 378 84 129 
3 419 87 104 
3 57 58 459 
3 474 139 35 
3 169 459 302 
3 207 145 483 
3 322 85 194 
3 453 261 120 
3 141 95 72 
3 445 284 333 
3 394 304 443 
3 420 347 204 
3 35 55 465 
3 478 466 353 
3 190 156 492 
3 341 324 363 
3 369 260 213 
3 36 353 487 
3 283 476 61 
3 148 461 126 
3 222 180 126 
3 157 313 182 
3 145 362 427 
3 219 22 108 
3 85 81 344 
3 242 361 386 
3 211 229 426 
3 352 229 211 
3 289 63 50 
3 418 238 384 
3 396 1 182 
3 178 339 123 
3 236 125 338 
3 368 271 6 
3 143 295 78 
3 145 207 161 
3 139 474 212 
3 253 129 291 
3 499 487 37 
3 19 132 441 
3 77 233 318 
3 75 151 24 
3 57 151 58 
3 460 488 442 
3 126 461 355 
3 390 110 389 
3 498 500 13 
3 373 197 192 
3 80 356 280 
3 407 46 231 
3 397 170 85 
3 218 75 484 
3 349 464 34 
3 7 391 49 
3 269 239 186 
3 154 120 267 
3 41 202 184 
3 253 474 465 
3 53 108 225 
3 483 427 423 
3 259 130 198 
3 358 33 414 
3 154 267 292 
3 483 315 45 
3 41 410 393 
3 320 27 191 
3 321 237 67 
3 380 220 132 
3 31 281 16 
3 195 274 186 
3 277 249 98 
3 365 431 242 
3 316 244 232 
3 432 169 351 
3 29 102 17 
3 415 251 196 
3 419 384 227 
3 486 28 155 
3 404 452 30 
3 175 352 278 
3 93 237 432 
3 53 14 108 
3 183 164 41 
3 471 69 325 
3 294 56 138 
3 226 449 116 
3 192 166 458 
3 393 410 115 
3 99 87 477 
3 73 310 177 
3 140 71 298 
3 425 306 497 
3 500 129 13 
3 37 205 499 
3 160 408 135 
3 317 357 464 
3 227 166 87 
3 49 236 480 
3 259 198 493 
3 15 454 417 
3 10 226 440 
3 387 376 217 
3 25 392 307 
3 38 346 393 
3 152 371 308 
3 52 123 264 
3 23 39 119 
3 294 94 93 
3 334 266 286 
3 287 297 298 
3 212 260 463 
3 274 15 103 
3 467 340 424 
3 60 488 262 
3 432 294 93 
3 233 249 426 
3 18 350 189 
3 471 53 23 
3 343 378 92 
3 274 227 107 
3 326 321 439 
3 31 436 203 
3 405 137 48 
3 360 185 202 
3 266 265 188 
3 353 76 487 
3 476 283 492 
3 64 156 472 
3 39 99 66 
3 138 415 196 
3 329 453 348 
3 457 239 112 
3 257 441 433 
3 360 131 469 
3 193 4 40 
3 336 375 226 
3 473 183 189 
3 165 297 391 
3 109 148 180 
3 131 462 446 
3 356 86 240 
3 228 409 463 
3 320 191 28 
3 185 360 469 
3 193 161 305 
3 335 200 395 
3 22 219 288 
3 196 264 398 
3 217 422 387 
3 232 21 254 
3 362 245 427 
3 339 402 91 
3 365 242 386 
3 259 435 230 
3 164 183 163 
3 153 416 469 
3 451 199 270 
3 474 35 465 
3 177 91 308 
3 280 491 144 
3 429 149 301 
3 330 399 345 
3 345 306 498 
3 61 11 136 
3 222 439 111 
3 50 425 497 
3 238 308 402 
3 270 399 451 
3 285 445 348 
3 90 249 358 
3 22 261 225 
3 436 42 327 
3 209 234 467 
3 168 82 316 
3 432 237 321 
3 246 166 192 
3 348 453 120 
3 313 76 364 
3 96 456 301 
3 481 29 40 
3 29 17 40 
3 391 33 125 
3 142 400 389 
3 466 113 341 
3 375 449 226 
3 137 288 48 
3 37 157 216 
3 442 488 240 
3 227 384 107 
3 124 264 123 
3 144 491 278 
3 121 416 354 
3 246 477 166 
3 456 429 301 
3 333 122 445 
3 452 323 30 
3 400 116 208 
3 397 112 149 
3 341 327 353 
3 319 64 472 
3 56 294 351 
3 460 235 190 
3 80 501 118 
3 453 323 452 
3 286 479 334 
3 202 230 360 
3 13 345 498 
3 351 294 432 
3 443 304 303 
3 416 185 469 
3 225 261 404 
3 385 168 300 
3 17 47 40 
3 70 298 174 
3 450 2 403 
3 160 372 408 
3 221 366 220 
3 100 307 392 
3 429 85 170 
3 490 433 441 
3 147 326 439 
3 85 322 81 
3 7 86 290 
3 321 67 439 
3 127 90 414 
3 227 274 195 
3 455 10 440 
3 296 369 312 
3 295 162 78 
3 70 412 374 
3 49 86 7 
3 63 289 117 
3 312 369 213 
3 314 255 73 
3 163 273 97 
3 19 456 96 
3 98 127 347 
3 315 423 263 
3 15 106 454 
3 57 444 309 
3 165 158 174 
3 204 416 420 
3 68 205 37 
3 68 248 273 
3 252 253 291 
3 218 187 58 
3 94 294 196 
3 478 36 499 
3 374 210 62 
3 211 277 278 
3 486 155 172 
3 232 244 44 
3 75 314 484 
3 422 244 388 
3 73 177 371 
3 412 501 446 
3 393 346 130 
3 19 257 456 
3 112 344 457 
3 169 65 351 
3 462 131 360 
3 324 341 140 
3 74 494 368 
