ply
format ascii 1.0
comment created by MATLAB plywrite
element vertex 252
property float x
property float y
property float z
property float nx
property float ny
property float nz
element face 500
property list uchar int vertex_indices
end_header
-4.260083 9.063047 39.791270 -0.730164 0.656166 -0.190542 
-46.865820 -363.900020 397.181917 -0.494170 0.530677 0.688606 
10.015005 -316.944604 365.434849 0.037139 0.792450 0.608805 
11.954770 -294.806498 333.951220 0.709975 0.632236 0.310183 
-0.216073 -175.541763 171.511832 0.225934 -0.682881 -0.694714 
-27.464560 -55.785912 80.540219 -0.722608 0.201131 0.661350 
-18.327810 -361.274003 392.139441 0.585550 0.359856 0.726385 
21.495750 -327.887160 374.233805 0.722241 0.548433 0.421413 
27.577800 -7.736415 42.453166 0.972881 0.020496 -0.230395 
-8.715422 -370.348429 373.473881 0.443046 -0.586586 -0.677958 
-27.907610 -361.511747 363.186942 -0.005829 0.187170 -0.982310 
-18.345550 -141.688048 146.912667 -0.955667 -0.251348 -0.153375 
8.112700 14.490990 34.319326 -0.195120 0.848904 -0.491213 
-36.901240 -37.887889 54.585936 -0.721574 -0.662151 -0.202203 
12.958110 -243.147958 258.541101 0.991831 0.115912 0.053254 
-20.929640 -4.666401 17.938797 0.378693 0.350475 -0.856597 
-36.616370 -28.568239 64.317344 -0.293345 0.198585 0.935154 
2.522284 -371.074981 383.104820 0.189534 -0.769796 0.609501 
4.354797 -270.647255 305.854190 0.030721 0.843716 0.535911 
-4.746432 -137.214040 161.645585 0.119947 0.688930 0.714834 
-13.619080 -261.846679 277.598319 -0.999801 0.019787 0.002539 
-20.987300 -380.881007 405.290534 0.619875 -0.082743 0.780326 
-15.869080 -162.981131 174.515860 -0.973940 0.132721 0.183917 
-12.357390 -303.316760 322.851215 -0.971476 -0.138937 -0.192175 
-31.553930 -48.124538 62.741217 -0.765377 -0.578835 -0.281333 
20.641280 -22.469439 64.935616 0.656906 -0.248291 0.711917 
-49.098160 15.973474 49.426742 -0.604980 0.735948 0.303940 
-6.462717 -8.355041 56.945120 -0.666542 0.288138 0.687531 
-44.238740 -394.811084 389.773994 -0.476843 -0.876711 0.063231 
-53.426130 -7.030536 38.202225 -0.947436 0.044297 -0.316864 
-16.705050 -156.996057 161.924265 -0.987948 -0.144537 -0.055393 
19.023530 -0.161912 62.162214 0.721060 0.179323 0.669265 
-37.223020 -374.170900 406.778135 -0.190515 0.139941 0.971659 
9.189953 -190.189797 192.509289 0.859303 -0.353061 -0.370064 
-42.127760 -30.543164 61.467935 -0.788274 -0.423398 0.446496 
-3.535624 -291.626622 297.808714 -0.265774 -0.724019 -0.636522 
-20.371970 -122.725991 129.591324 -0.991147 -0.132477 -0.008781 
13.206150 -263.508109 276.403574 0.963774 -0.178169 -0.198483 
10.309138 -172.400695 180.737888 0.999638 0.022973 -0.013993 
2.131295 -69.477536 99.192935 0.320434 0.574305 0.753323 
9.246263 -79.515854 94.445503 0.998710 -0.016610 0.047985 
3.810547 -35.282535 71.717586 -0.119586 0.425791 0.896884 
-15.966640 -357.210146 362.520249 0.010912 -0.410964 -0.911586 
15.256640 -281.257637 312.836844 0.740795 0.558033 0.373927 
-6.378064 -90.926828 89.715131 -0.066781 -0.662715 -0.745888 
6.233633 -163.826313 163.707578 0.696896 -0.488037 -0.525505 
-50.159790 -388.832527 396.091985 -0.845017 -0.457925 0.276135 
10.063447 -35.864222 28.088424 0.354162 -0.769640 -0.531248 
1.067859 -197.535953 221.843347 0.276346 0.719595 0.637037 
-12.554000 -198.494753 215.405588 -0.857107 0.348765 0.379118 
29.271340 -10.643055 52.291635 0.990419 -0.025242 0.135769 
-27.426360 9.658251 18.845019 0.443126 0.606985 -0.659704 
14.988970 -367.128372 397.924333 0.253794 -0.503134 0.826102 
17.409400 17.069902 43.422270 0.094579 0.995010 -0.031787 
5.115981 -18.532595 64.231322 -0.217429 0.070906 0.973497 
-15.878740 -34.785122 67.420247 -0.088866 0.497460 0.862923 
-20.299130 -90.540530 109.309257 -0.821583 0.284285 0.494149 
-8.484779 -183.210827 179.999594 -0.318170 -0.683344 -0.657122 
21.482590 -21.711221 45.150797 0.928917 -0.357897 -0.094986 
11.066180 -42.815307 49.972745 0.769798 -0.617852 -0.160219 
15.520740 -340.086363 352.323645 0.203937 -0.565909 -0.798847 
-4.573719 -61.375949 62.475384 0.076657 -0.697121 -0.712843 
3.041617 -116.736851 139.924449 0.554497 0.549684 0.624804 
-23.866790 -302.536875 347.542670 -0.591141 0.576501 0.564092 
-32.312110 20.521159 39.170333 0.189761 0.979230 -0.071407 
33.238670 -346.750453 367.598605 0.987690 -0.004934 -0.156347 
-15.228550 -318.451017 341.146426 -0.824081 -0.262754 -0.501847 
-9.654420 -297.799027 307.786013 -0.720145 -0.539723 -0.435992 
-8.873991 -4.831564 25.526039 -0.192506 0.598853 -0.777378 
7.338252 -88.910321 112.116892 0.761433 0.427044 0.487703 
-47.343070 -380.654879 404.585146 -0.581513 -0.160155 0.797617 
17.722570 -306.801764 338.490530 0.916338 0.378888 0.129498 
-14.053550 -9.769881 54.304642 -0.089968 0.587696 0.804064 
-6.045446 -324.100585 333.964733 -0.339799 -0.671957 -0.658036 
6.767098 -209.631060 209.073276 0.683509 -0.519888 -0.512379 
20.041630 -349.174416 395.194086 0.615461 0.236193 0.751945 
-28.649840 -397.317247 387.763702 0.213912 -0.968226 -0.129536 
-15.982550 -135.293659 150.696323 -0.896970 0.253613 0.362112 
12.638020 5.163490 23.591854 0.252331 0.632797 -0.732050 
0.443561 -151.535587 174.710960 0.303177 0.676729 0.670911 
-53.770900 -375.311288 387.591553 -0.977644 -0.205875 0.042753 
-48.782500 -357.762411 372.657080 -0.547439 0.631281 -0.549359 
-2.253151 -95.875833 122.518382 0.115728 0.640164 0.759471 
-0.749590 -239.005979 237.190887 0.027926 -0.751017 -0.659692 
-15.225650 -198.171130 205.872012 -0.998677 -0.050610 0.009115 
9.130217 -100.328332 116.627609 0.985870 0.090476 0.140975 
-8.137206 -328.356883 368.161579 -0.631156 0.314275 0.709135 
-14.406610 -238.531405 249.225662 -0.999408 -0.032260 0.011954 
2.858245 -365.102210 385.258041 -0.382676 -0.321535 0.866126 
-4.724295 -211.854236 208.461279 -0.334497 -0.695054 -0.636405 
21.138490 12.773115 31.904802 0.695480 0.570733 -0.436545 
-51.271680 -17.217949 39.636577 -0.816095 -0.475443 -0.328546 
-13.395270 -385.359588 380.173487 0.789669 -0.582892 -0.191467 
-34.645790 -355.498135 392.675490 -0.040244 0.917479 0.395742 
7.632745 -352.184321 401.344897 -0.056377 0.263866 0.962910 
-10.898000 -2.110706 31.120808 0.026472 0.975710 -0.217460 
-55.608830 -370.638550 391.100125 -0.968509 0.061097 0.241366 
-22.580770 -100.645477 106.682366 -0.933137 -0.304022 -0.191898 
-6.718929 -214.938959 239.467584 -0.598730 0.585872 0.546146 
-25.529010 -372.278630 363.292400 0.222812 -0.048960 -0.973631 
-41.070160 -365.026938 362.446261 -0.263562 0.359328 -0.895219 
-25.032170 -19.762492 58.166668 0.219359 0.072177 0.972971 
18.027180 -371.143248 391.693591 0.409331 -0.797760 0.442750 
-11.561930 -94.166857 119.177594 -0.347027 0.600190 0.720656 
4.556462 -132.348741 132.147486 0.698034 -0.478675 -0.532558 
-1.014026 -303.753840 348.149529 -0.224045 0.792199 0.567648 
22.817660 13.414883 49.907405 0.801867 0.549141 0.235485 
-12.860600 -244.279413 261.204606 -0.903115 0.306319 0.300918 
-14.372240 -388.045412 395.886323 0.769877 -0.481309 0.419084 
-26.951310 16.840422 31.566286 0.593413 0.740631 -0.315160 
3.605057 -340.683128 389.381061 -0.856414 0.172355 0.486672 
-24.142390 -341.382547 361.763562 -0.925543 0.312101 -0.214390 
-21.750220 -77.918216 82.230169 -0.595769 -0.573815 -0.561956 
-44.526390 -387.616470 374.232451 -0.483755 -0.683069 -0.547173 
6.023496 -290.519606 332.004829 0.071041 0.881904 0.466046 
-23.902880 -352.898403 383.137184 -0.120665 0.846007 0.519338 
19.089150 -318.405132 363.186371 0.778307 0.578793 0.243385 
20.496590 -320.025981 345.758256 0.971807 0.066046 -0.226340 
11.339220 -38.378188 72.767838 0.572349 0.192352 0.797131 
-6.413835 -316.540445 362.426733 -0.365360 0.631416 0.683978 
3.982409 -284.214735 289.806748 0.148890 -0.753433 -0.640445 
16.778870 -288.133731 316.199933 0.976851 0.202606 0.068656 
-21.128340 7.093667 28.927086 0.820045 0.572255 0.007135 
-1.768801 -334.923294 344.743344 0.002417 -0.697475 -0.716605 
-6.415389 -254.055804 281.273005 -0.650433 0.577874 0.492948 
-24.274800 -353.012458 361.844676 -0.541062 0.033977 -0.840296 
7.471741 -353.742351 362.211081 0.190467 -0.494125 -0.848271 
10.503120 -186.584591 199.361831 0.965412 0.212747 0.150727 
-4.898216 1.706070 30.998791 -0.618469 0.665113 -0.418474 
-17.051960 -69.582692 96.293401 -0.361885 0.532105 0.765443 
-16.915410 -325.510345 360.623990 -0.756124 0.223455 0.615097 
6.121873 -59.866501 66.194646 0.729139 -0.549945 -0.407329 
10.578050 -60.208179 77.554158 0.980283 -0.191128 -0.050151 
-9.242410 -234.372033 235.061730 -0.573707 -0.625348 -0.528961 
-15.010000 -335.779063 348.036033 -0.553372 -0.366216 -0.748108 
-45.635320 1.215163 62.892205 -0.510705 0.108743 0.852851 
-21.674230 -342.124680 370.208119 -0.619472 0.597371 0.509316 
30.373320 -348.882419 378.752060 0.932620 0.020727 0.360264 
-12.264060 -253.105588 259.925731 -0.868216 -0.398005 -0.296299 
0.616580 5.402153 57.775099 -0.694531 0.472013 0.542983 
-24.267060 -50.598506 79.007492 -0.230306 0.493382 0.838769 
10.684155 -6.823347 66.914395 -0.149795 -0.009038 0.988676 
20.561750 -4.239636 28.590075 0.855759 0.134474 -0.499593 
-26.527700 -19.347075 18.185930 -0.021982 -0.297027 -0.954616 
-10.914210 -293.795298 332.207418 -0.484287 0.838089 0.251142 
17.338890 -363.576622 372.012600 0.403882 -0.649969 -0.643755 
8.786943 -232.133214 255.742331 0.696806 0.580935 0.420685 
-31.555110 -389.028537 407.717181 0.103603 -0.431169 0.896303 
-41.436660 -393.678595 402.787431 -0.352182 -0.719053 0.599108 
-9.343950 -353.179072 359.916853 0.027271 -0.543798 -0.838773 
-43.595350 -375.936945 365.355030 -0.323487 -0.255873 -0.910980 
-12.468360 -289.917662 320.589389 -0.865005 0.468860 0.178709 
7.723923 -246.125629 248.512986 0.586818 -0.604026 -0.539257 
-5.878395 1.477042 45.602266 -0.897694 0.433036 0.081395 
3.431544 -46.680284 47.235042 0.110354 -0.822881 -0.557395 
-20.807510 -325.460840 353.157050 -0.968631 -0.161622 -0.188763 
-26.927070 -7.451672 59.711948 0.796660 0.116125 0.593167 
0.928684 -357.901879 401.495749 -0.798968 -0.320815 0.508653 
8.953943 -206.416114 224.423226 0.789768 0.470923 0.393063 
-8.318419 -20.258377 59.642408 -0.256476 0.263943 0.929814 
6.567828 -175.866449 194.441271 0.721737 0.509792 0.468197 
-52.938180 0.145391 48.424230 -0.978117 0.182292 0.100284 
11.227840 -240.229439 247.326690 0.906758 -0.299363 -0.296936 
5.997994 14.377847 48.180364 -0.361524 0.922746 0.133566 
12.527880 -372.759090 381.495375 0.104503 -0.987606 0.117106 
-35.156950 12.675857 56.387650 0.181647 0.697225 0.693457 
-33.379840 -353.458248 370.981839 -0.479627 0.791318 -0.379176 
-10.621660 -39.460777 42.042283 -0.089271 -0.802365 -0.590120 
-13.971100 -160.530799 160.411047 -0.730537 -0.507333 -0.457087 
-18.215840 -104.809180 106.180731 -0.531096 -0.587574 -0.610487 
-25.586150 -81.422845 91.861887 -0.971447 -0.232545 -0.047047 
-11.518100 -118.089711 116.175152 -0.199596 -0.671095 -0.713998 
-3.353564 -143.238962 139.393529 0.117016 -0.690183 -0.714111 
7.070107 -327.337937 380.871570 0.026332 0.735668 0.676830 
8.029503 -349.496615 380.462494 -0.648471 0.010520 0.761167 
-1.411192 -260.131573 292.074299 -0.362292 0.743146 0.562564 
-1.608568 -223.705702 251.712779 -0.211422 0.741701 0.636538 
-54.487980 -16.212563 56.165970 -0.880707 -0.219734 0.419609 
-15.042980 -300.308055 331.051575 -0.915706 0.141123 -0.376254 
-10.641230 -14.645260 24.407580 0.022137 -0.006111 -0.999736 
23.658460 -357.920796 392.511437 0.798171 -0.278773 0.534050 
22.698420 5.568463 38.299798 0.968977 0.243573 0.041904 
-45.839970 11.840756 25.472898 -0.685312 0.370588 -0.626907 
-1.094296 -54.706019 86.548581 0.003109 0.585944 0.810346 
14.218990 -40.342316 64.129456 0.933949 -0.350606 0.069390 
-37.351490 16.312125 22.918117 -0.072744 0.764269 -0.640782 
-6.672988 -166.624313 190.232548 -0.308681 0.679779 0.665295 
10.516271 -255.765986 285.403756 0.708874 0.589140 0.387830 
-5.141940 -344.689269 378.400161 -0.355061 0.286536 0.889848 
24.107670 -365.981547 379.201143 0.771467 -0.635068 -0.039092 
12.301580 -223.031236 234.873934 0.999511 0.025197 -0.018536 
6.866478 -107.877812 112.763774 0.851258 -0.341774 -0.398183 
7.251282 -24.379016 19.185405 -0.137451 -0.353705 -0.925203 
-13.168650 -142.124756 140.506042 -0.518305 -0.618348 -0.590767 
11.671340 6.927404 61.316496 0.009855 0.677726 0.735248 
15.827710 -30.672321 30.534332 0.867164 -0.481712 -0.126414 
12.113950 -370.540132 390.963840 -0.480598 -0.740794 0.469308 
12.180620 -299.933711 348.373774 0.430583 0.795483 0.426386 
10.629405 -292.430396 303.023390 0.677538 -0.547741 -0.490838 
-19.876800 -48.304694 52.740042 -0.300432 -0.699122 -0.648821 
3.450346 -255.224254 255.990185 0.267400 -0.740487 -0.616584 
-34.128410 -3.696885 64.878448 0.322550 -0.038578 0.945766 
-49.758150 -356.610112 381.991585 -0.626772 0.779171 -0.007071 
-9.981820 -316.162827 328.924258 -0.731723 -0.451687 -0.510451 
0.750018 -208.844128 205.244379 0.175392 -0.714213 -0.677597 
-25.300160 -40.126192 45.228122 -0.399677 -0.790719 -0.463704 
6.029404 7.513107 26.845113 -0.322800 0.691084 -0.646686 
-25.279950 -29.351995 26.719649 -0.288598 -0.787115 -0.545125 
28.345890 -344.263205 357.014940 0.645630 -0.237814 -0.725677 
12.647180 -1.831837 17.203827 0.233338 0.510885 -0.827375 
1.854756 -84.360729 85.865382 0.619640 -0.527464 -0.581230 
-27.017650 -371.244941 405.641175 0.189960 0.342017 0.920293 
9.491432 -13.815939 15.159291 -0.099002 0.133567 -0.986082 
13.156670 -323.346367 336.594373 0.611103 -0.502042 -0.611970 
-9.488690 -123.693073 147.469065 -0.341239 0.628090 0.699328 
-12.447810 -279.695521 302.326595 -0.938090 0.279119 0.205132 
6.274498 -357.008743 386.967370 -0.997840 -0.065673 0.001591 
-13.292270 -190.867418 191.828102 -0.822023 -0.430932 -0.372258 
-38.875550 4.004437 15.516397 -0.414019 0.210760 -0.885533 
-54.058790 -380.566574 379.414929 -0.918473 -0.354322 -0.175681 
17.999610 -18.404857 19.397661 0.758862 -0.173483 -0.627720 
-6.104925 -194.934253 219.119345 -0.326078 0.676727 0.660086 
-10.340940 -376.433551 384.830943 0.834150 -0.466503 0.294227 
-12.901860 -273.842544 285.956940 -0.944597 -0.245629 -0.217723 
24.782990 -330.680409 357.023178 0.903172 0.296179 -0.310740 
-8.702669 -153.323505 176.189365 -0.491745 0.592670 0.637910 
-8.854672 -273.492854 279.495144 -0.560269 -0.626535 -0.541805 
-30.512150 -55.512253 75.299064 -0.944463 -0.234674 0.230040 
1.916046 -239.386388 269.401484 0.041990 0.782763 0.620902 
-28.927900 -309.780843 343.532252 -0.966102 0.015646 -0.257688 
15.271480 -293.845532 312.735527 0.912144 -0.265552 -0.312211 
-28.715240 -397.537423 396.845108 0.133734 -0.898794 0.417475 
-22.850690 -8.196918 55.505191 0.580637 0.540005 0.609308 
-25.054070 11.816092 49.726706 0.806709 0.474270 0.352546 
-13.508930 -218.969412 222.721898 -0.897229 -0.345901 -0.274467 
7.087869 -138.163427 156.813322 0.765506 0.457097 0.452839 
5.667737 -369.054578 370.944602 0.139541 -0.801914 -0.580914 
-54.874490 -367.122735 375.184453 -0.957976 0.162456 -0.236411 
-1.663885 -115.456829 112.919077 0.283096 -0.643636 -0.711049 
8.468913 -158.080549 174.096687 0.870327 0.349001 0.347461 
21.062710 -332.789275 349.780360 0.719557 -0.125735 -0.682956 
9.426791 -146.569510 154.028718 0.990851 -0.072215 -0.114017 
9.219090 -125.475630 136.238632 0.999708 0.023300 0.006448 
-3.226369 -256.403043 257.199833 -0.245135 -0.755105 -0.608051 
-43.898200 -13.983852 60.435793 -0.197387 -0.234177 0.951945 
-1.871952 -171.946145 196.130465 0.180594 0.709106 0.681582 
-10.118250 -31.341076 31.888333 -0.085982 -0.642746 -0.761239 
8.404546 -62.334262 89.969100 0.757642 0.285559 0.586885 
-47.243240 17.623584 30.718221 -0.694339 0.617275 -0.369952 
-51.288940 -369.769397 369.419774 -0.738621 0.023889 -0.673697 
-12.222540 -357.388832 386.634119 0.159159 0.273367 0.948651 
-26.270250 -386.068482 370.401785 0.269419 -0.605730 -0.748669 
3 18 151 144 
3 54 27 159 
3 46 28 148 
3 205 24 13 
3 158 160 48 
3 148 231 147 
3 131 154 59 
3 134 111 155 
3 60 208 145 
3 191 210 40 
3 44 61 210 
3 114 105 197 
3 14 162 190 
3 8 181 50 
3 208 240 224 
3 122 109 233 
3 133 234 89 
3 21 6 211 
3 91 13 34 
3 184 131 59 
3 85 62 242 
3 129 140 5 
3 15 143 218 
3 236 164 17 
3 5 16 227 
3 9 222 92 
3 239 235 79 
3 170 169 97 
3 140 183 55 
3 205 207 167 
3 102 52 196 
3 98 49 87 
3 35 123 73 
3 4 33 74 
3 95 153 128 
3 112 44 169 
3 11 30 77 
3 90 8 142 
3 120 226 243 
3 10 42 9 
3 77 225 214 
3 196 157 216 
3 235 19 79 
3 37 198 152 
3 206 68 128 
3 233 156 122 
3 169 44 171 
3 194 53 163 
3 23 178 151 
3 109 51 185 
3 184 118 132 
3 168 11 193 
3 0 139 163 
3 221 49 98 
3 181 8 90 
3 98 87 107 
3 130 229 155 
3 17 164 88 
3 247 183 39 
3 81 166 100 
3 92 108 76 
3 53 194 106 
3 94 110 157 
3 178 144 151 
3 155 66 134 
3 68 212 179 
3 49 221 186 
3 202 1 93 
3 136 130 111 
3 112 61 44 
3 28 46 219 
3 235 239 241 
3 154 199 167 
3 52 157 196 
3 214 62 82 
3 34 16 244 
3 133 138 87 
3 160 79 245 
3 6 93 211 
3 125 166 111 
3 90 78 12 
3 103 39 129 
3 217 89 234 
3 146 48 176 
3 20 223 215 
3 30 11 168 
3 38 45 241 
3 32 1 70 
3 62 19 235 
3 43 18 3 
3 45 172 104 
3 200 243 83 
3 116 71 197 
3 53 90 12 
3 126 60 145 
3 113 251 76 
3 36 77 56 
3 156 101 232 
3 142 8 58 
3 32 147 211 
3 151 18 175 
3 30 22 77 
3 233 165 201 
3 94 75 173 
3 115 166 93 
3 112 169 170 
3 38 33 45 
3 143 15 179 
3 24 112 227 
3 4 172 45 
3 136 86 130 
3 37 152 162 
3 248 182 29 
3 3 197 71 
3 21 211 147 
3 113 76 28 
3 110 216 157 
3 201 165 135 
3 10 166 125 
3 66 178 23 
3 57 204 89 
3 225 19 214 
3 85 191 40 
3 201 244 101 
3 135 177 244 
3 100 150 249 
3 16 101 244 
3 219 249 113 
3 239 160 38 
3 114 3 18 
3 248 64 185 
3 36 11 77 
3 177 161 29 
3 238 44 210 
3 166 10 100 
3 238 210 191 
3 170 97 56 
3 116 117 71 
3 133 89 83 
3 123 120 213 
3 231 28 76 
3 161 248 29 
3 174 250 88 
3 84 234 49 
3 208 60 240 
3 188 110 86 
3 61 112 199 
3 141 31 194 
3 14 37 162 
3 103 129 56 
3 47 59 154 
3 111 130 155 
3 224 116 65 
3 103 214 82 
3 61 131 210 
3 54 141 27 
3 182 248 185 
3 80 96 237 
3 33 190 74 
3 198 37 230 
3 6 21 108 
3 53 12 163 
3 187 14 146 
3 250 188 115 
3 145 189 164 
3 46 96 80 
3 184 195 58 
3 234 84 217 
3 52 94 157 
3 206 209 68 
3 25 118 184 
3 133 87 234 
3 48 221 98 
3 193 171 172 
3 226 20 138 
3 47 246 192 
3 69 85 40 
3 31 141 25 
3 152 83 204 
3 238 171 44 
3 205 167 199 
3 30 168 217 
3 191 104 238 
3 213 60 123 
3 241 45 104 
3 28 219 113 
3 159 55 41 
3 86 136 188 
3 207 13 91 
3 101 16 55 
3 186 245 79 
3 144 105 114 
3 190 146 14 
3 228 124 175 
3 206 0 12 
3 226 120 35 
3 221 245 186 
3 173 110 94 
3 127 190 33 
3 191 242 104 
3 229 66 155 
3 93 166 202 
3 225 77 22 
3 2 105 119 
3 51 218 185 
3 195 184 59 
3 215 151 175 
3 116 224 117 
3 69 82 62 
3 43 3 121 
3 52 102 180 
3 251 99 9 
3 115 6 250 
3 233 109 64 
3 16 5 140 
3 149 9 42 
3 251 150 99 
3 247 40 132 
3 56 5 170 
3 213 230 117 
3 58 8 50 
3 47 195 59 
3 243 138 133 
3 193 36 97 
3 229 144 178 
3 164 189 102 
3 74 190 162 
3 107 138 20 
3 165 233 64 
3 147 108 21 
3 41 54 159 
3 117 224 240 
3 176 228 146 
3 110 119 86 
3 152 198 200 
3 237 81 249 
3 20 124 107 
3 32 70 147 
3 20 226 223 
3 149 236 9 
3 225 79 19 
3 189 65 137 
3 199 154 61 
3 208 65 145 
3 39 183 129 
3 223 67 23 
3 147 70 148 
3 99 100 10 
3 9 99 10 
3 115 136 166 
3 121 230 37 
3 22 30 217 
3 153 27 139 
3 143 179 246 
3 142 58 220 
3 43 121 187 
3 185 64 109 
3 182 185 218 
3 28 231 148 
3 206 78 209 
3 137 65 7 
3 82 69 39 
3 96 70 1 
3 171 238 172 
3 177 135 161 
3 188 136 115 
3 68 95 128 
3 248 161 26 
3 62 85 69 
3 27 72 159 
3 122 95 51 
3 203 66 23 
3 174 216 110 
3 22 84 49 
3 245 221 48 
3 80 219 46 
3 135 244 201 
3 56 77 214 
3 126 145 236 
3 24 199 112 
3 49 234 87 
3 161 135 26 
3 115 93 6 
3 137 180 189 
3 153 95 27 
3 119 130 86 
3 124 20 215 
3 50 25 58 
3 72 101 159 
3 175 18 187 
3 246 154 167 
3 15 68 179 
3 108 147 231 
3 62 214 19 
3 0 153 139 
3 35 73 203 
3 134 42 125 
3 138 243 226 
3 74 162 152 
3 186 225 49 
3 62 235 242 
3 47 192 220 
3 247 118 183 
3 34 177 91 
3 25 141 54 
3 193 97 169 
3 196 216 88 
3 210 132 40 
3 76 251 92 
3 78 142 209 
3 72 27 95 
3 184 58 25 
3 205 13 207 
3 57 168 193 
3 180 102 189 
3 98 176 48 
3 40 247 39 
3 94 52 75 
3 88 164 196 
3 200 198 120 
3 111 134 125 
3 35 67 226 
3 83 89 204 
3 72 95 232 
3 78 90 142 
3 76 108 231 
3 12 0 163 
3 26 165 64 
3 113 249 150 
3 78 206 12 
3 149 123 60 
3 229 130 63 
3 193 11 36 
3 144 63 119 
3 174 110 188 
3 207 143 246 
3 123 134 73 
3 123 35 120 
3 83 152 200 
3 248 26 64 
3 206 128 0 
3 2 116 197 
3 49 225 22 
3 220 212 209 
3 22 217 84 
3 146 190 158 
3 194 163 139 
3 173 2 119 
3 181 90 106 
3 152 204 74 
3 27 141 139 
3 220 209 142 
3 241 239 38 
3 174 88 216 
3 207 91 143 
3 244 177 34 
3 105 144 119 
3 98 107 176 
3 202 81 237 
3 250 6 17 
3 101 72 232 
3 233 201 156 
3 220 58 195 
3 99 150 100 
3 222 108 92 
3 215 23 151 
3 3 71 121 
3 121 117 230 
3 145 65 189 
3 145 164 236 
3 111 166 136 
3 250 17 88 
3 131 61 154 
3 146 228 187 
3 102 196 164 
3 133 83 243 
3 15 218 51 
3 167 207 246 
3 232 122 156 
3 176 107 124 
3 243 200 120 
3 6 108 222 
3 48 160 245 
3 1 32 211 
3 236 17 9 
3 100 249 81 
3 63 144 229 
3 171 193 169 
3 225 186 79 
3 119 63 130 
3 29 218 91 
3 90 53 106 
3 122 51 109 
3 116 7 65 
3 217 57 89 
3 247 132 118 
3 114 18 144 
3 230 213 198 
3 96 46 70 
3 246 47 154 
3 213 240 60 
3 240 213 117 
3 238 104 172 
3 38 160 127 
3 50 31 25 
3 93 1 211 
3 137 7 75 
3 220 192 212 
3 54 118 25 
3 183 118 41 
3 212 192 179 
3 214 103 56 
3 91 177 29 
3 203 134 66 
3 149 126 236 
3 181 106 31 
3 104 242 241 
3 178 66 229 
3 31 106 194 
3 121 37 187 
3 101 156 201 
3 33 38 127 
3 24 205 199 
3 239 79 160 
3 204 57 4 
3 227 112 170 
3 135 165 26 
3 174 188 250 
3 197 105 2 
3 9 17 222 
3 172 4 193 
3 187 37 14 
3 197 3 114 
3 23 67 203 
3 110 173 119 
3 68 15 95 
3 140 129 183 
3 251 9 92 
3 217 168 57 
3 134 203 73 
3 17 6 222 
3 137 75 180 
3 153 0 128 
3 184 132 131 
3 218 29 182 
3 1 202 96 
3 16 34 227 
3 219 80 237 
3 210 131 132 
3 107 87 138 
3 120 198 213 
3 126 149 60 
3 113 150 251 
3 237 249 219 
3 122 232 95 
3 56 97 36 
3 95 15 51 
3 208 224 65 
3 215 223 23 
3 75 7 173 
3 7 116 173 
3 34 13 24 
3 71 117 121 
3 101 55 159 
3 193 4 57 
3 235 241 242 
3 181 31 50 
3 227 170 5 
3 16 140 55 
3 47 220 195 
3 43 187 18 
3 226 67 223 
3 91 218 143 
3 116 2 173 
3 134 123 149 
3 52 180 75 
3 192 246 179 
3 68 209 212 
3 228 176 124 
3 67 35 203 
3 39 103 82 
3 41 118 54 
3 33 4 45 
3 127 160 158 
3 46 148 70 
3 10 125 42 
3 96 202 237 
3 85 242 191 
3 134 149 42 
3 183 41 55 
3 227 34 24 
3 228 175 187 
3 74 204 4 
3 39 69 40 
3 202 166 81 
3 175 124 215 
3 48 146 158 
3 56 129 5 
3 139 141 194 
3 158 190 127 
