ply
format ascii 1.0
comment created by MATLAB plywrite
element vertex 252
property float x
property float y
property float z
property float nx
property float ny
property float nz
element face 500
property list uchar int vertex_indices
end_header
-1.630041 12.441304 27.449445 -0.730164 0.656166 -0.190542 
-22.932910 -206.418073 234.629730 -0.494170 0.530677 0.688606 
5.507503 -177.760065 217.377960 0.037139 0.792450 0.608805 
6.477385 -165.624970 198.233707 0.709975 0.632236 0.310183 
0.391964 -99.651799 99.879459 0.225934 -0.682881 -0.694714 
-13.232280 -27.395570 49.211344 -0.722608 0.201131 0.661350 
-8.663905 -205.087602 231.486913 0.585550 0.359856 0.726385 
11.247875 -184.321853 222.332054 0.722241 0.548433 0.421413 
14.288900 1.463493 27.824088 0.972881 0.020496 -0.230395 
-3.857711 -212.692680 218.286998 0.443046 -0.586586 -0.677958 
-13.453805 -207.658806 212.165426 -0.005829 0.187170 -0.982310 
-8.672775 -79.132597 86.301151 -0.955667 -0.251348 -0.153375 
4.556350 15.603936 24.253809 -0.195120 0.848904 -0.491213 
-17.950620 -17.626417 33.399983 -0.721574 -0.662151 -0.202203 
6.979055 -137.470136 152.265149 0.991831 0.115912 0.053254 
-9.964820 1.467303 11.737002 0.378693 0.350475 -0.856597 
-17.808185 -10.602369 40.664228 -0.293345 0.198585 0.935154 
1.761142 -212.374469 224.647081 0.189534 -0.769796 0.609501 
2.677398 -151.860235 181.515615 0.030721 0.843716 0.535911 
-1.873216 -74.922183 96.495935 0.119947 0.688930 0.714834 
-6.309540 -148.347843 163.411740 -0.999801 0.019787 0.002539 
-9.993650 -217.063007 238.620395 0.619875 -0.082743 0.780326 
-7.434540 -91.027713 102.928865 -0.973940 0.132721 0.183917 
-5.678695 -172.223476 190.124511 -0.971476 -0.138937 -0.192175 
-15.276965 -23.771239 37.983784 -0.765377 -0.578835 -0.281333 
10.820640 -6.484981 41.584643 0.656906 -0.248291 0.711917 
-24.049080 17.851209 34.448965 -0.604980 0.735948 0.303940 
-2.731358 2.258738 37.433843 -0.666542 0.288138 0.687531 
-21.619370 -227.642766 227.115191 -0.476843 -0.876711 0.063231 
-26.213065 1.579833 25.048949 -0.947436 0.044297 -0.316864 
-7.852525 -88.086965 95.033220 -0.987948 -0.144537 -0.055393 
10.011765 8.155580 41.594668 0.721060 0.179323 0.669265 
-18.111510 -212.465638 240.171305 -0.190515 0.139941 0.971659 
5.094976 -107.667363 112.657101 0.859303 -0.353061 -0.370064 
-20.563880 -12.156435 38.600044 -0.788274 -0.423398 0.446496 
-1.267812 -166.516930 174.403681 -0.265774 -0.724019 -0.636522 
-9.685985 -67.934676 76.333755 -0.991147 -0.132477 -0.008781 
7.103075 -149.555024 162.476791 0.963774 -0.178169 -0.198483 
5.654569 -96.788917 106.291922 0.999638 0.022973 -0.013993 
1.565647 -34.968922 60.505525 0.320434 0.574305 0.753323 
5.123132 -42.056750 56.504042 0.998710 -0.016610 0.047985 
2.405273 -14.461877 45.038201 -0.119586 0.425791 0.896884 
-7.483320 -204.846631 212.079430 0.010912 -0.410964 -0.911586 
8.128320 -158.351932 185.286521 0.740795 0.558033 0.373927 
-2.689032 -50.058260 52.399545 -0.066781 -0.662715 -0.745888 
3.616817 -92.491857 95.652908 0.696896 -0.488037 -0.525505 
-24.579895 -223.130564 231.825400 -0.845017 -0.457925 0.276135 
5.531724 -18.485432 15.903605 0.354162 -0.769640 -0.531248 
1.033929 -110.120293 131.600969 0.276346 0.719595 0.637037 
-5.777000 -111.295972 127.229228 -0.857107 0.348765 0.379118 
15.135670 0.345606 34.140850 0.990419 -0.025242 0.135769 
-13.213180 11.092585 13.534872 0.443126 0.606985 -0.659704 
7.994485 -208.508438 234.855646 0.253794 -0.503134 0.826102 
9.204700 18.081788 30.537351 0.094579 0.995010 -0.031787 
3.057990 -3.919111 41.443184 -0.217429 0.070906 0.973497 
-7.439370 -14.488381 42.214758 -0.088866 0.497460 0.862923 
-9.649565 -48.167885 65.494493 -0.821583 0.284285 0.494149 
-3.742389 -104.057193 104.898881 -0.318170 -0.683344 -0.657122 
11.241295 -7.628238 28.457943 0.928917 -0.357897 -0.094986 
6.033090 -21.295793 29.913902 0.769798 -0.617852 -0.160219 
8.260370 -194.280498 206.708673 0.203937 -0.565909 -0.798847 
-1.786859 -32.627662 36.702278 0.076657 -0.697121 -0.712843 
2.020809 -63.080825 83.721603 0.554497 0.549684 0.624804 
-11.433395 -169.645932 206.650479 -0.591141 0.576501 0.564092 
-15.656055 20.028297 27.990330 0.189761 0.979230 -0.071407 
17.119335 -197.450309 216.336644 0.987690 -0.004934 -0.156347 
-7.114275 -180.788375 201.060136 -0.824081 -0.262754 -0.501847 
-4.327210 -169.800423 180.540850 -0.720145 -0.539723 -0.435992 
-3.936996 1.989465 16.781402 -0.192506 0.598853 -0.777378 
4.169126 -46.847110 67.502101 0.761433 0.427044 0.487703 
-23.171535 -216.971037 238.168981 -0.581513 -0.160155 0.797617 
9.361285 -173.243535 200.260309 0.916338 0.378888 0.129498 
-6.526775 1.095472 35.555620 -0.089968 0.587696 0.804064 
-2.522723 -185.153226 195.801541 -0.339799 -0.671957 -0.658036 
3.883549 -119.247866 122.079659 0.683509 -0.519888 -0.512379 
10.520815 -196.766660 234.531643 0.615461 0.236193 0.751945 
-13.824920 -229.481065 225.566149 0.213912 -0.968226 -0.129536 
-7.491275 -74.554368 89.356456 -0.896970 0.253613 0.362112 
6.819010 8.491650 16.324867 0.252331 0.632797 -0.732050 
0.721780 -83.381095 104.012727 0.303177 0.676729 0.670911 
-26.385450 -214.824778 227.285212 -0.977644 -0.205875 0.042753 
-23.891250 -204.370071 218.791299 -0.547439 0.631281 -0.549359 
-0.626575 -50.623991 73.855972 0.115728 0.640164 0.759471 
0.125205 -136.488002 138.376832 0.027926 -0.751017 -0.659692 
-7.112825 -111.874689 120.900476 -0.998677 -0.050610 0.009115 
5.065109 -54.083220 69.557746 0.985870 0.090476 0.140975 
-3.568603 -185.141020 218.244757 -0.631156 0.314275 0.709135 
-6.703305 -135.168722 146.439566 -0.999408 -0.032260 0.011954 
1.929123 -208.213188 226.580294 -0.382676 -0.321535 0.866126 
-1.862147 -120.780983 121.486396 -0.334497 -0.695054 -0.636405 
11.069245 14.257476 22.500970 0.695480 0.570733 -0.436545 
-25.135840 -5.092243 25.156233 -0.816095 -0.475443 -0.328546 
-6.197635 -222.141814 221.502475 0.789669 -0.582892 -0.191467 
-16.822895 -201.192354 232.325601 -0.040244 0.917479 0.395742 
4.316372 -198.260695 238.381360 -0.056377 0.263866 0.962910 
-4.949000 4.269600 20.737989 0.026472 0.975710 -0.217460 
-27.304415 -211.417239 230.013656 -0.968509 0.061097 0.241366 
-10.790385 -55.123420 62.901152 -0.933137 -0.304022 -0.191898 
-2.859465 -120.253605 141.900215 -0.598730 0.585872 0.546146 
-12.264505 -214.827937 211.338491 0.222812 -0.048960 -0.973631 
-20.035080 -210.063989 211.378706 -0.263562 0.359328 -0.895219 
-12.016085 -5.244430 37.297588 0.219359 0.072177 0.972971 
9.513590 -211.704250 230.367242 0.409331 -0.797760 0.442750 
-5.280965 -49.763073 71.771194 -0.347027 0.600190 0.720656 
2.778231 -74.136826 77.235968 0.698034 -0.478675 -0.532558 
-0.007013 -170.406670 206.953638 -0.224045 0.792199 0.567648 
11.908830 16.185538 34.556192 0.801867 0.549141 0.235485 
-5.930300 -138.002480 153.946532 -0.903115 0.306319 0.300918 
-6.686120 -222.622959 231.753885 0.769877 -0.481309 0.419084 
-12.975655 16.940803 22.614235 0.593413 0.740631 -0.315160 
2.302529 -191.590223 231.363898 -0.856414 0.172355 0.486672 
-11.571195 -194.357960 212.893939 -0.925543 0.312101 -0.214390 
-10.375110 -42.009603 48.493619 -0.595769 -0.573815 -0.561956 
-21.763195 -224.141487 217.353709 -0.483755 -0.683069 -0.547173 
3.511748 -162.929243 197.293353 0.071041 0.881904 0.466046 
-11.451440 -200.254059 226.183372 -0.120665 0.846007 0.519338 
10.044575 -178.921123 215.757263 0.778307 0.578793 0.243385 
10.748295 -181.454032 204.003444 0.971807 0.066046 -0.226340 
6.169610 -16.438124 45.480398 0.572349 0.192352 0.797131 
-2.706917 -177.741302 215.406228 -0.365360 0.631416 0.683978 
2.491205 -162.242504 169.686692 0.148890 -0.753433 -0.640445 
8.889435 -162.655735 186.955574 0.976851 0.202606 0.068656 
-10.064170 10.223036 20.042537 0.820045 0.572255 0.007135 
-0.384400 -191.470145 202.085392 0.002417 -0.697475 -0.716605 
-2.707695 -142.847705 166.510772 -0.650433 0.577874 0.492948 
-11.637400 -202.104471 211.978856 -0.541062 0.033977 -0.840296 
4.235870 -202.560532 212.162301 0.190467 -0.494125 -0.848271 
5.751560 -104.692848 117.525898 0.965412 0.212747 0.150727 
-1.949108 6.803948 20.974709 -0.618469 0.665113 -0.418474 
-8.025980 -35.280654 58.563738 -0.361885 0.532105 0.765443 
-7.957705 -183.871462 213.456907 -0.756124 0.223455 0.615097 
3.560936 -31.311425 39.307575 0.729139 -0.549945 -0.407329 
5.789025 -30.592584 46.852113 0.980283 -0.191128 -0.050151 
-4.121205 -133.576136 137.343555 -0.573707 -0.625348 -0.528961 
-7.005000 -191.766267 204.209206 -0.553372 -0.366216 -0.748108 
-22.317660 9.134462 42.196086 -0.510705 0.108743 0.852851 
-10.337115 -194.149002 218.461801 -0.619472 0.597371 0.509316 
15.686660 -197.942164 223.594620 0.932620 0.020727 0.360264 
-5.632030 -143.993167 152.358433 -0.868216 -0.398005 -0.296299 
0.808290 11.499361 39.133596 -0.694531 0.472013 0.542983 
-11.633530 -24.065028 48.621809 -0.230306 0.493382 0.838769 
5.842078 4.110640 44.207671 -0.149795 -0.009038 0.988676 
10.780875 2.639420 18.873421 0.855759 0.134474 -0.499593 
-12.763850 -8.299214 10.678368 -0.021982 -0.297027 -0.954616 
-4.957105 -165.096154 197.155438 -0.484287 0.838089 0.251142 
9.169445 -208.299917 217.877128 0.403882 -0.649969 -0.643755 
4.893472 -130.360208 151.317197 0.696806 0.580935 0.420685 
-15.277555 -222.292471 239.559200 0.103603 -0.431169 0.896303 
-20.218330 -225.803320 235.885193 -0.352182 -0.719053 0.599108 
-4.171975 -202.376199 210.679755 0.027271 -0.543798 -0.838773 
-21.297675 -217.094926 212.408719 -0.323487 -0.255873 -0.910980 
-5.734180 -163.479234 189.733218 -0.865005 0.468860 0.178709 
4.361961 -140.290926 145.331596 0.586818 -0.604026 -0.539257 
-2.439198 7.868219 30.691277 -0.897694 0.433036 0.081395 
2.215772 -24.100585 27.766685 0.110354 -0.822881 -0.557395 
-9.903755 -184.460703 208.483070 -0.968631 -0.161622 -0.188763 
-12.963535 3.091553 39.353677 0.796660 0.116125 0.593167 
0.964342 -202.059828 238.005465 -0.798968 -0.320815 0.508653 
4.976971 -115.825408 132.580876 0.789768 0.470923 0.393063 
-3.659210 -5.452041 38.240091 -0.256476 0.263943 0.929814 
3.783914 -97.957470 115.138702 0.721737 0.509792 0.468197 
-25.969090 7.215616 32.461617 -0.978117 0.182292 0.100284 
6.113920 -136.458992 145.032081 0.906758 -0.299363 -0.296936 
3.498997 16.683594 33.485077 -0.361524 0.922746 0.133566 
6.763940 -213.631329 223.433775 0.104503 -0.987606 0.117106 
-17.078475 16.232875 38.814771 0.181647 0.697225 0.693457 
-16.189920 -201.640234 218.033152 -0.479627 0.791318 -0.379176 
-4.810830 -19.720313 24.906469 -0.089271 -0.802365 -0.590120 
-6.485550 -90.569560 93.729846 -0.730537 -0.507333 -0.457087 
-8.607920 -57.941024 62.219754 -0.531096 -0.587574 -0.610487 
-12.293075 -43.543378 54.622715 -0.971447 -0.232545 -0.047047 
-5.259050 -65.961839 67.775994 -0.199596 -0.671095 -0.713998 
-1.176782 -80.793134 81.159147 0.117016 -0.690183 -0.714111 
4.035054 -183.402557 226.803001 0.026332 0.735668 0.676830 
4.514752 -198.209092 224.683727 -0.648471 0.010520 0.761167 
-0.205596 -145.998108 173.205323 -0.362292 0.743146 0.562564 
-0.304284 -125.077665 149.333120 -0.211422 0.741701 0.636538 
-26.743990 -3.044536 36.259616 -0.880707 -0.219734 0.419609 
-7.021490 -169.534311 195.842146 -0.915706 0.141123 -0.376254 
-4.820615 -4.646201 15.217955 0.022137 -0.006111 -0.999736 
12.329230 -202.821132 232.014344 0.798171 -0.278773 0.534050 
11.849210 9.987293 26.163914 0.968977 0.243573 0.041904 
-22.419985 13.099911 18.135335 -0.685312 0.370588 -0.626907 
-0.047148 -26.174944 53.306911 0.003109 0.585944 0.810346 
7.609495 -18.467407 39.557797 0.933949 -0.350606 0.069390 
-18.175745 15.867925 16.804761 -0.072744 0.764269 -0.640782 
-2.836494 -92.146775 113.103064 -0.308681 0.679779 0.665295 
5.758135 -143.643596 169.122092 0.708874 0.589140 0.387830 
-2.070970 -195.176058 223.709450 -0.355061 0.286536 0.889848 
12.553835 -209.304154 222.469081 0.771467 -0.635068 -0.039092 
6.650790 -126.031258 138.163424 0.999511 0.025197 -0.018536 
3.933239 -59.438191 66.352732 0.851258 -0.341774 -0.398183 
4.125641 -11.570549 10.925357 -0.137451 -0.353705 -0.925203 
-6.084325 -79.957621 81.993673 -0.518305 -0.618348 -0.590767 
6.335670 12.811311 41.621632 0.009855 0.677726 0.735248 
8.413855 -14.820340 17.966870 0.867164 -0.481712 -0.126414 
6.556975 -211.362985 229.931001 -0.480598 -0.740794 0.469308 
6.590310 -167.841231 207.421479 0.430583 0.795483 0.426386 
5.814703 -166.618222 177.813152 0.677538 -0.547741 -0.490838 
-9.438400 -24.724774 31.301318 -0.300432 -0.699122 -0.648821 
2.225173 -145.733573 149.558180 0.267400 -0.740487 -0.616584 
-16.564205 6.025285 43.110911 0.322550 -0.038578 0.945766 
-24.379075 -202.823997 225.110330 -0.626772 0.779171 -0.007071 
-4.490910 -180.281430 193.102703 -0.731723 -0.451687 -0.510451 
0.875009 -119.042320 119.592637 0.175392 -0.714213 -0.677597 
-12.150080 -19.898436 26.974912 -0.399677 -0.790719 -0.463704 
3.514702 10.329165 18.689508 -0.322800 0.691084 -0.646686 
-12.139975 -14.258014 15.533774 -0.288598 -0.787115 -0.545125 
14.672945 -196.674117 209.488135 0.645630 -0.237814 -0.725677 
6.823590 3.295764 11.483236 0.233338 0.510885 -0.827375 
1.427378 -46.001676 50.380219 0.619640 -0.527464 -0.581230 
-13.008825 -210.609746 239.657161 0.189960 0.342017 0.920293 
5.245716 -4.864011 9.121536 -0.099002 0.133567 -0.986082 
7.078335 -184.431278 197.617487 0.611103 -0.502042 -0.611970 
-4.244345 -67.089586 88.171665 -0.341239 0.628090 0.699328 
-5.723905 -158.186376 178.409861 -0.938090 0.279119 0.205132 
3.637249 -202.675102 228.394303 -0.997840 -0.065673 0.001591 
-6.146135 -108.175875 112.146507 -0.822023 -0.430932 -0.372258 
-18.937775 7.045993 10.844638 -0.414019 0.210760 -0.885533 
-26.529395 -219.009686 221.396187 -0.918473 -0.354322 -0.175681 
9.499805 -7.570091 11.564707 0.758862 -0.173483 -0.627720 
-2.552462 -108.612827 130.001775 -0.326078 0.676727 0.660086 
-4.670470 -215.803004 225.351283 0.834150 -0.466503 0.294227 
-5.950930 -155.648531 167.984501 -0.944597 -0.245629 -0.217723 
12.891495 -187.618237 210.625526 0.903172 0.296179 -0.310740 
-3.851335 -84.449840 104.849338 -0.491745 0.592670 0.637910 
-3.927336 -155.953887 163.705776 -0.560269 -0.626535 -0.541805 
-14.756075 -27.649893 45.740044 -0.944463 -0.234674 0.230040 
1.458023 -134.057392 159.818872 0.041990 0.782763 0.620902 
-13.963950 -174.809443 203.373202 -0.966102 0.015646 -0.257688 
8.135740 -166.752301 184.169985 0.912144 -0.265552 -0.312211 
-13.857620 -228.871065 231.602074 0.133734 -0.898794 0.417475 
-10.925345 2.244159 36.487067 0.580637 0.540005 0.609308 
-12.027035 15.104620 34.302492 0.806709 0.474270 0.352546 
-6.254465 -124.336047 130.400548 -0.897229 -0.345901 -0.274467 
4.043935 -75.957796 93.195310 0.765506 0.457097 0.452839 
3.333868 -212.040886 216.708632 0.139541 -0.801914 -0.580914 
-26.937245 -210.399670 219.696188 -0.957976 0.162456 -0.236411 
-0.331943 -64.477925 65.824683 0.283096 -0.643636 -0.711049 
4.734457 -87.795591 103.057798 0.870327 0.349001 0.347461 
11.031355 -189.627715 205.621240 0.719557 -0.125735 -0.682956 
5.213395 -81.793899 90.638399 0.990851 -0.072215 -0.114017 
5.109545 -69.213826 80.536160 0.999708 0.023300 0.006448 
-1.113185 -146.418628 150.266380 -0.245135 -0.755105 -0.608051 
-21.449100 -1.202911 39.291892 -0.197387 -0.234177 0.951945 
-0.435976 -95.203169 116.591524 0.180594 0.709106 0.681582 
-4.559125 -15.153344 18.813808 -0.085982 -0.642746 -0.761239 
4.702273 -30.975394 54.951571 0.757642 0.285559 0.586885 
-23.121620 17.392239 22.114121 -0.694339 0.617275 -0.369952 
-25.144470 -212.644501 215.632512 -0.738621 0.023889 -0.673697 
-5.611270 -202.956265 228.140461 0.159159 0.273367 0.948651 
-12.635125 -223.428718 214.928929 0.269419 -0.605730 -0.748669 
3 18 151 144 
3 54 27 159 
3 46 28 148 
3 205 24 13 
3 158 160 48 
3 148 231 147 
3 131 154 59 
3 134 111 155 
3 60 208 145 
3 191 210 40 
3 44 61 210 
3 114 105 197 
3 14 162 190 
3 8 181 50 
3 208 240 224 
3 122 109 233 
3 133 234 89 
3 21 6 211 
3 91 13 34 
3 184 131 59 
3 85 62 242 
3 129 140 5 
3 15 143 218 
3 236 164 17 
3 5 16 227 
3 9 222 92 
3 239 235 79 
3 170 169 97 
3 140 183 55 
3 205 207 167 
3 102 52 196 
3 98 49 87 
3 35 123 73 
3 4 33 74 
3 95 153 128 
3 112 44 169 
3 11 30 77 
3 90 8 142 
3 120 226 243 
3 10 42 9 
3 77 225 214 
3 196 157 216 
3 235 19 79 
3 37 198 152 
3 206 68 128 
3 233 156 122 
3 169 44 171 
3 194 53 163 
3 23 178 151 
3 109 51 185 
3 184 118 132 
3 168 11 193 
3 0 139 163 
3 221 49 98 
3 181 8 90 
3 98 87 107 
3 130 229 155 
3 17 164 88 
3 247 183 39 
3 81 166 100 
3 92 108 76 
3 53 194 106 
3 94 110 157 
3 178 144 151 
3 155 66 134 
3 68 212 179 
3 49 221 186 
3 202 1 93 
3 136 130 111 
3 112 61 44 
3 28 46 219 
3 235 239 241 
3 154 199 167 
3 52 157 196 
3 214 62 82 
3 34 16 244 
3 133 138 87 
3 160 79 245 
3 6 93 211 
3 125 166 111 
3 90 78 12 
3 103 39 129 
3 217 89 234 
3 146 48 176 
3 20 223 215 
3 30 11 168 
3 38 45 241 
3 32 1 70 
3 62 19 235 
3 43 18 3 
3 45 172 104 
3 200 243 83 
3 116 71 197 
3 53 90 12 
3 126 60 145 
3 113 251 76 
3 36 77 56 
3 156 101 232 
3 142 8 58 
3 32 147 211 
3 151 18 175 
3 30 22 77 
3 233 165 201 
3 94 75 173 
3 115 166 93 
3 112 169 170 
3 38 33 45 
3 143 15 179 
3 24 112 227 
3 4 172 45 
3 136 86 130 
3 37 152 162 
3 248 182 29 
3 3 197 71 
3 21 211 147 
3 113 76 28 
3 110 216 157 
3 201 165 135 
3 10 166 125 
3 66 178 23 
3 57 204 89 
3 225 19 214 
3 85 191 40 
3 201 244 101 
3 135 177 244 
3 100 150 249 
3 16 101 244 
3 219 249 113 
3 239 160 38 
3 114 3 18 
3 248 64 185 
3 36 11 77 
3 177 161 29 
3 238 44 210 
3 166 10 100 
3 238 210 191 
3 170 97 56 
3 116 117 71 
3 133 89 83 
3 123 120 213 
3 231 28 76 
3 161 248 29 
3 174 250 88 
3 84 234 49 
3 208 60 240 
3 188 110 86 
3 61 112 199 
3 141 31 194 
3 14 37 162 
3 103 129 56 
3 47 59 154 
3 111 130 155 
3 224 116 65 
3 103 214 82 
3 61 131 210 
3 54 141 27 
3 182 248 185 
3 80 96 237 
3 33 190 74 
3 198 37 230 
3 6 21 108 
3 53 12 163 
3 187 14 146 
3 250 188 115 
3 145 189 164 
3 46 96 80 
3 184 195 58 
3 234 84 217 
3 52 94 157 
3 206 209 68 
3 25 118 184 
3 133 87 234 
3 48 221 98 
3 193 171 172 
3 226 20 138 
3 47 246 192 
3 69 85 40 
3 31 141 25 
3 152 83 204 
3 238 171 44 
3 205 167 199 
3 30 168 217 
3 191 104 238 
3 213 60 123 
3 241 45 104 
3 28 219 113 
3 159 55 41 
3 86 136 188 
3 207 13 91 
3 101 16 55 
3 186 245 79 
3 144 105 114 
3 190 146 14 
3 228 124 175 
3 206 0 12 
3 226 120 35 
3 221 245 186 
3 173 110 94 
3 127 190 33 
3 191 242 104 
3 229 66 155 
3 93 166 202 
3 225 77 22 
3 2 105 119 
3 51 218 185 
3 195 184 59 
3 215 151 175 
3 116 224 117 
3 69 82 62 
3 43 3 121 
3 52 102 180 
3 251 99 9 
3 115 6 250 
3 233 109 64 
3 16 5 140 
3 149 9 42 
3 251 150 99 
3 247 40 132 
3 56 5 170 
3 213 230 117 
3 58 8 50 
3 47 195 59 
3 243 138 133 
3 193 36 97 
3 229 144 178 
3 164 189 102 
3 74 190 162 
3 107 138 20 
3 165 233 64 
3 147 108 21 
3 41 54 159 
3 117 224 240 
3 176 228 146 
3 110 119 86 
3 152 198 200 
3 237 81 249 
3 20 124 107 
3 32 70 147 
3 20 226 223 
3 149 236 9 
3 225 79 19 
3 189 65 137 
3 199 154 61 
3 208 65 145 
3 39 183 129 
3 223 67 23 
3 147 70 148 
3 99 100 10 
3 9 99 10 
3 115 136 166 
3 121 230 37 
3 22 30 217 
3 153 27 139 
3 143 179 246 
3 142 58 220 
3 43 121 187 
3 185 64 109 
3 182 185 218 
3 28 231 148 
3 206 78 209 
3 137 65 7 
3 82 69 39 
3 96 70 1 
3 171 238 172 
3 177 135 161 
3 188 136 115 
3 68 95 128 
3 248 161 26 
3 62 85 69 
3 27 72 159 
3 122 95 51 
3 203 66 23 
3 174 216 110 
3 22 84 49 
3 245 221 48 
3 80 219 46 
3 135 244 201 
3 56 77 214 
3 126 145 236 
3 24 199 112 
3 49 234 87 
3 161 135 26 
3 115 93 6 
3 137 180 189 
3 153 95 27 
3 119 130 86 
3 124 20 215 
3 50 25 58 
3 72 101 159 
3 175 18 187 
3 246 154 167 
3 15 68 179 
3 108 147 231 
3 62 214 19 
3 0 153 139 
3 35 73 203 
3 134 42 125 
3 138 243 226 
3 74 162 152 
3 186 225 49 
3 62 235 242 
3 47 192 220 
3 247 118 183 
3 34 177 91 
3 25 141 54 
3 193 97 169 
3 196 216 88 
3 210 132 40 
3 76 251 92 
3 78 142 209 
3 72 27 95 
3 184 58 25 
3 205 13 207 
3 57 168 193 
3 180 102 189 
3 98 176 48 
3 40 247 39 
3 94 52 75 
3 88 164 196 
3 200 198 120 
3 111 134 125 
3 35 67 226 
3 83 89 204 
3 72 95 232 
3 78 90 142 
3 76 108 231 
3 12 0 163 
3 26 165 64 
3 113 249 150 
3 78 206 12 
3 149 123 60 
3 229 130 63 
3 193 11 36 
3 144 63 119 
3 174 110 188 
3 207 143 246 
3 123 134 73 
3 123 35 120 
3 83 152 200 
3 248 26 64 
3 206 128 0 
3 2 116 197 
3 49 225 22 
3 220 212 209 
3 22 217 84 
3 146 190 158 
3 194 163 139 
3 173 2 119 
3 181 90 106 
3 152 204 74 
3 27 141 139 
3 220 209 142 
3 241 239 38 
3 174 88 216 
3 207 91 143 
3 244 177 34 
3 105 144 119 
3 98 107 176 
3 202 81 237 
3 250 6 17 
3 101 72 232 
3 233 201 156 
3 220 58 195 
3 99 150 100 
3 222 108 92 
3 215 23 151 
3 3 71 121 
3 121 117 230 
3 145 65 189 
3 145 164 236 
3 111 166 136 
3 250 17 88 
3 131 61 154 
3 146 228 187 
3 102 196 164 
3 133 83 243 
3 15 218 51 
3 167 207 246 
3 232 122 156 
3 176 107 124 
3 243 200 120 
3 6 108 222 
3 48 160 245 
3 1 32 211 
3 236 17 9 
3 100 249 81 
3 63 144 229 
3 171 193 169 
3 225 186 79 
3 119 63 130 
3 29 218 91 
3 90 53 106 
3 122 51 109 
3 116 7 65 
3 217 57 89 
3 247 132 118 
3 114 18 144 
3 230 213 198 
3 96 46 70 
3 246 47 154 
3 213 240 60 
3 240 213 117 
3 238 104 172 
3 38 160 127 
3 50 31 25 
3 93 1 211 
3 137 7 75 
3 220 192 212 
3 54 118 25 
3 183 118 41 
3 212 192 179 
3 214 103 56 
3 91 177 29 
3 203 134 66 
3 149 126 236 
3 181 106 31 
3 104 242 241 
3 178 66 229 
3 31 106 194 
3 121 37 187 
3 101 156 201 
3 33 38 127 
3 24 205 199 
3 239 79 160 
3 204 57 4 
3 227 112 170 
3 135 165 26 
3 174 188 250 
3 197 105 2 
3 9 17 222 
3 172 4 193 
3 187 37 14 
3 197 3 114 
3 23 67 203 
3 110 173 119 
3 68 15 95 
3 140 129 183 
3 251 9 92 
3 217 168 57 
3 134 203 73 
3 17 6 222 
3 137 75 180 
3 153 0 128 
3 184 132 131 
3 218 29 182 
3 1 202 96 
3 16 34 227 
3 219 80 237 
3 210 131 132 
3 107 87 138 
3 120 198 213 
3 126 149 60 
3 113 150 251 
3 237 249 219 
3 122 232 95 
3 56 97 36 
3 95 15 51 
3 208 224 65 
3 215 223 23 
3 75 7 173 
3 7 116 173 
3 34 13 24 
3 71 117 121 
3 101 55 159 
3 193 4 57 
3 235 241 242 
3 181 31 50 
3 227 170 5 
3 16 140 55 
3 47 220 195 
3 43 187 18 
3 226 67 223 
3 91 218 143 
3 116 2 173 
3 134 123 149 
3 52 180 75 
3 192 246 179 
3 68 209 212 
3 228 176 124 
3 67 35 203 
3 39 103 82 
3 41 118 54 
3 33 4 45 
3 127 160 158 
3 46 148 70 
3 10 125 42 
3 96 202 237 
3 85 242 191 
3 134 149 42 
3 183 41 55 
3 227 34 24 
3 228 175 187 
3 74 204 4 
3 39 69 40 
3 202 166 81 
3 175 124 215 
3 48 146 158 
3 56 129 5 
3 139 141 194 
3 158 190 127 
