ply
format ascii 1.0
comment VCGLIB generated
element vertex 502
property float x
property float y
property float z
property float nx
property float ny
property float nz
element face 1000
property list uchar int vertex_indices
end_header
-30.64539 -9.101649 40.32822 -0.6247598 -0.7624097 0.168543 
28.20438 4.639897 433.106 0.8023829 -0.5460075 0.2409515 
3.770318 12.79193 441.8854 -0.7249537 0.5219302 0.4494787 
0.9551147 8.353961 178.3617 0.4885471 0.8723419 0.01847446 
3.520655 32.15685 435.3013 -0.6831646 0.7171128 0.1379693 
0.550594 27.63829 432.017 -0.878799 0.1951801 0.4354505 
8.184558 46.67331 26.11969 -0.2057124 0.8895484 -0.4079045 
1.058719 14.30051 295.2652 0.1085457 0.9859194 -0.1272042 
-44.71255 -16.45704 466.3559 -0.541779 -0.591091 0.5975677 
9.236693 -6.530599 58.46041 0.7742695 -0.5579375 0.2986848 
-0.6744232 -14.8002 216.4379 0.2475963 -0.9688631 0.0007127335 
-5.840456 10.11016 181.1675 -0.1067463 0.9940832 0.0200955 
-25.67272 -18.61416 437.1737 0.3013883 -0.7073265 -0.6394172 
-34.53496 -24.74656 456.5416 0.02743627 -0.9735555 0.2267971 
-54.86791 20.79915 46.27435 -0.927949 -0.1999595 0.3145265 
14.65244 17.29234 63.75133 0.8524771 0.1343815 0.5051976 
8.657437 30.76222 396.0475 -0.0288921 0.998284 -0.0509352 
15.46649 29.09222 402.9912 0.5008461 0.8548141 -0.1358166 
-2.093041 -5.383107 369.1281 -0.003390745 -0.9978443 0.0655391 
11.70811 -5.155984 19.0526 0.2773742 -0.4832762 -0.830366 
-2.440294 40.8413 29.75742 -0.7797146 0.616225 -0.1109589 
-41.87847 19.90141 455.4632 -0.3406074 0.9081126 0.243553 
-41.85379 7.752818 12.53353 -0.7631894 -0.4577164 -0.4561114 
-46.13945 17.86045 55.17868 -0.7032784 0.1249035 0.6998561 
3.205218 8.040652 153.1068 0.575779 0.815788 0.05448461 
-14.83355 -5.433561 28.35232 0.271782 -0.742667 -0.6120296 
-6.698299 31.66238 35.40941 -0.861873 0.4894873 -0.1325786 
23.72355 24.70674 416.9364 0.8705164 0.455488 -0.1863654 
20.85705 19.6088 448.1068 0.6976042 0.3643891 0.6169028 
19.40503 30.0787 418.8818 0.6421191 0.7599917 -0.1004776 
-29.66831 -12.03243 29.12843 -0.5116392 -0.8448024 -0.1566342 
9.648667 31.2759 386.4945 0.2694195 0.9363317 -0.2251581 
11.87237 1.258479 299.2831 0.9964934 0.06749459 -0.04945175 
11.36498 0.4553993 283.6026 0.9989644 0.01114581 -0.04411191 
0.2978667 -6.363862 349.118 0.1019248 -0.9916335 0.07921125 
-19.99005 7.767387 465.1241 0.7849327 0.4354868 0.4407177 
16.17809 3.093962 396.3494 0.7340328 -0.6559139 -0.1759913 
16.90091 -0.1640664 411.9827 0.2565548 -0.9375593 -0.2348665 
-26.42815 17.42068 385.9104 -0.6675838 -0.596594 -0.4454296 
-36.66343 16.60083 65.19562 -0.5217935 0.6682603 0.5302449 
9.192616 34.96206 420.9122 0.151281 0.987858 -0.03536541 
-14.33629 5.967684 385.7917 -0.910293 -0.3934854 -0.1285921 
16.98217 16.08508 385.1995 0.9597009 0.1909366 -0.2061978 
-11.38763 -13.94649 162.0936 -0.2556593 -0.9667563 -0.004542421 
-40.36013 19.44784 443.4713 -0.2176361 0.8974507 -0.3836884 
-11.18653 17.11715 429.5232 -0.2472447 0.9325601 0.2630622 
-2.678167 17.32963 432.4868 -0.08071661 0.795198 0.6009535 
8.22697 31.45522 407.196 0.04316768 0.9814097 -0.1870071 
-48.62299 26.17009 13.16657 -0.8622692 -0.07048028 -0.5015221 
-1.342303 13.33919 286.1501 0.1288677 0.9871949 -0.09401786 
-31.40888 -9.688078 431.4559 -0.04944862 -0.4395598 -0.8968512 
-17.92735 -8.083131 184.2049 -0.9360563 -0.3471478 0.05733214 
-9.097293 -9.294859 55.64053 -0.1490211 -0.9807916 0.1258591 
-51.47529 9.922926 42.03433 -0.7939944 -0.5039417 0.340023 
-38.34514 9.102211 63.88567 -0.8575116 -0.3411337 0.3850997 
-25.10151 10.88521 468.647 0.4127046 0.5100313 0.7546807 
-31.55915 7.040582 80.56913 -0.9192289 0.1074633 0.3787741 
-1.561467 10.4626 147.2868 0.2115 0.9755055 0.06047234 
-0.6844169 12.37512 124.7261 0.3033206 0.9480768 0.09564026 
-16.16018 -11.647 127.2688 -0.3425196 -0.9389513 -0.03241429 
-14.36715 1.97155 244.879 -0.9218459 0.3873333 0.01315479 
-2.104099 9.562346 192.9285 0.2591026 0.9658441 -0.00334424 
-6.240952 19.35157 358.0364 -0.4528476 0.858967 -0.2389659 
-23.23714 -10.27235 432.5133 0.1582797 -0.58271 -0.7971177 
9.130316 0.088158 221.6881 0.9583395 0.2848587 -0.0210018 
-21.22085 11.24744 97.22544 -0.5517288 0.7979786 0.2425395 
-33.18881 18.77642 62.88036 -0.05920669 0.9299953 0.3627718 
-21.93844 -7.821435 133.7103 -0.8280699 -0.5586252 0.0473109 
11.36046 -2.371027 422.3435 0.1288667 -0.9804858 -0.1484623 
-44.81808 30.27133 47.71032 -0.2287454 0.494757 0.838386 
8.957181 16.80016 335.6163 0.4176227 0.89796 -0.1387772 
13.33156 6.464297 327.1931 0.9968468 0.03139245 -0.0728768 
-15.95467 -11.82127 40.61447 0.273279 -0.932866 -0.2346907 
3.941845 -9.380201 129.827 0.7748852 -0.6311086 -0.03542485 
1.803635 44.25324 39.12308 -0.5708617 0.7860835 0.2370437 
7.342658 3.955812 145.8716 0.9203206 0.3893649 0.03748336 
22.87681 9.513928 407.4921 0.9238797 0.01411423 -0.3824228 
9.932371 -6.382963 254.4159 0.9493336 -0.3136684 -0.01943746 
-46.0961 8.479646 468.868 -0.5283687 0.4511576 0.7192242 
-55.36632 19.85858 39.12512 -0.9967616 -0.06545995 -0.04670589 
-14.06893 3.642814 320.1389 -0.9579204 0.2870281 0.001820541 
17.80027 40.36666 19.16165 0.1551448 0.5565979 -0.8161672 
-22.72795 15.25355 435.4615 -0.1869144 0.9685524 -0.1642234 
-27.59315 43.61049 24.61358 0.7186306 0.6411644 -0.269218 
-38.42694 -20.02828 465.0708 -0.1275816 -0.791149 0.5981691 
20.43048 28.20858 16.0547 0.730799 0.04315269 -0.6812274 
-6.151049 11.68896 288.6427 -0.4941536 0.8684188 -0.04075602 
-0.5584382 18.96967 72.61686 -0.1344025 0.9709298 0.1980689 
-25.33627 18.46448 457.7091 0.565672 0.7779346 0.2735564 
-16.87371 -2.383999 205.952 -0.9947025 0.09426984 0.04098988 
4.959978 -10.90072 290.0738 0.5386735 -0.8412046 0.04696437 
4.340057 -6.552292 90.71684 0.6878232 -0.7257262 0.01485331 
-33.24115 -3.248306 474.7471 0.1821478 -0.03822446 0.9825279 
-25.84541 -3.111015 111.2503 -0.9685622 -0.2307777 0.09289216 
-24.0816 -6.691299 102.8082 -0.6799429 -0.7332157 0.008506615 
-24.94547 -14.25043 37.08056 -0.1184286 -0.9912264 0.05869441 
17.26825 -6.41139 24.37317 0.8353131 -0.4043161 -0.3725326 
-17.63884 -5.430637 424.7567 -0.1405412 -0.9256108 -0.3514155 
0.8843498 -11.4052 302.0635 0.1807038 -0.9788923 0.09547798 
-27.05386 13.29914 79.72823 -0.2661901 0.927802 0.2613933 
1.441795 -13.77485 30.43754 -0.3672535 -0.8168607 -0.4448184 
-52.73392 -3.789834 456.0575 -0.9395914 -0.1361652 0.3140495 
20.91553 22.8952 407.6782 0.8593739 0.4310516 -0.275084 
18.08888 25.70319 56.52329 0.6732624 0.3556485 0.648253 
-1.24462 15.85257 93.54235 -0.01248367 0.9918479 0.1268147 
-53.56143 31.59529 31.05393 -0.9823152 0.1270907 -0.137495 
12.669 11.14023 69.2521 0.9652476 0.05259939 0.2559892 
9.715331 18.53456 70.91449 0.6207698 0.6309594 0.4653333 
-53.62532 12.67464 34.20426 -0.9098967 -0.4038714 -0.09474178 
-14.26282 3.134927 209.3708 -0.8536182 0.5202915 0.02515603 
0.3727019 -12.7609 144.4237 0.4376869 -0.8979805 -0.04540136 
-18.33825 -10.36623 151.8724 -0.6841847 -0.7284114 0.03616817 
20.9396 38.82385 35.35237 0.9475013 0.3185909 0.02722395 
14.78044 8.637299 351.3438 0.9892454 -0.1399225 -0.04260677 
-37.73703 16.17299 465.6256 -0.1236556 0.7461572 0.6541855 
-22.79622 13.65458 394.3237 -0.5088801 -0.8453979 -0.162307 
-9.097903 -14.49026 193.6231 -0.2508044 -0.9679477 -0.01321176 
-18.00729 -9.817937 433.8741 0.2709256 -0.7796571 -0.5645654 
-9.746868 9.177455 307.139 -0.7202545 0.69268 -0.03778693 
-41.93904 22.15368 54.18242 -0.1062798 0.6956389 0.7104866 
-27.49074 13.13958 10.14747 0.400217 -0.1115545 -0.9096054 
-6.85683 -4.801271 360.7695 -0.2967471 -0.9526498 0.06632904 
-18.15018 26.31854 37.57232 0.2524604 0.8888503 -0.3823728 
-0.06105204 -10.13152 66.92755 0.1616625 -0.9824197 0.09336432 
0.3079498 -9.232128 80.4622 0.3248183 -0.9457152 0.01075842 
8.603662 4.871572 269.604 0.8627516 0.4993867 -0.07919992 
-17.535 1.966804 168.8856 -0.8737671 0.4771242 0.09425186 
9.93243 -4.982165 312.4319 0.795975 -0.6041206 0.03824037 
-5.441727 10.02273 207.595 -0.1994781 0.9797946 0.01452748 
-29.3737 -21.87401 462.3686 0.2844278 -0.8277499 0.4836641 
-17.91244 20.53911 376.472 -0.7314022 0.198604 -0.6523858 
-14.09176 3.86346 333.6278 -0.9678919 0.249676 -0.02910607 
10.69044 -13.50272 25.72879 0.1758378 -0.7893909 -0.5881694 
-33.26362 0.1753386 61.84302 -0.6882479 -0.6716975 0.2741119 
5.753192 -11.68535 224.8279 0.6452442 -0.7638658 -0.01300091 
-34.76457 -2.807961 430.4888 -0.3561111 -0.06951445 -0.9318544 
-8.193933 9.259095 204.0544 -0.4163432 0.9091131 0.01310974 
-40.87967 11.03509 9.67604 -0.437963 -0.2619442 -0.8599847 
-34.15375 4.608235 71.24783 -0.8508041 -0.4886409 0.1932939 
-15.66524 0.1438257 458.6397 0.8647007 0.3326054 0.376386 
13.90162 11.95494 339.6248 0.9241678 0.3592046 -0.1299464 
-11.35318 -10.8993 46.28381 -0.04709978 -0.9904118 0.1298694 
2.214775 -13.05744 184.0697 0.4845419 -0.8744714 -0.02278175 
-53.55827 3.118761 462.8046 -0.9082052 0.04084883 0.416527 
-12.5751 -6.288636 304.5256 -0.829327 -0.5556731 0.05868598 
-11.47726 27.28651 403.2355 -0.3807257 0.8873523 0.2601036 
12.70308 -16.28677 40.66095 0.6621498 -0.6929435 0.2852842 
-20.18622 -2.81214 160.604 -0.9767019 0.1732705 0.1266129 
-12.61059 6.50322 189.6715 -0.6879688 0.7243838 0.04435229 
26.23234 21.84939 29.33851 0.9400595 0.09012718 -0.3288847 
3.296959 23.20555 15.97784 -0.3814553 0.05257446 -0.922891 
3.561188 9.457058 135.3105 0.5779235 0.8133334 0.06703161 
8.498927 4.707896 105.5492 0.9998018 0.01399262 0.01416748 
-13.55534 -3.265666 322.7405 -0.8754817 -0.4789215 0.06454465 
-27.8411 20.64005 10.20412 0.4782127 0.1392768 -0.8671302 
11.04336 18.1757 455.0583 0.07304495 0.1768541 0.9815229 
6.118835 4.768408 232.0035 0.7250219 0.6876971 -0.0376301 
24.10549 -1.585639 419.3507 0.5013642 -0.86247 -0.06913308 
1.098664 16.7918 321.1608 -0.08333217 0.9922308 -0.09237953 
-15.06282 -0.5505829 276.6127 -0.9236776 0.3831708 -0.0001882735 
-38.36061 5.964157 433.5281 -0.4108833 0.3785984 -0.8293601 
-1.310566 31.55377 410.1236 -0.3972675 0.9159952 -0.0559582 
-42.42029 -2.150789 473.4426 -0.375292 -0.05143061 0.9254788 
-15.39036 -1.66413 411.2973 -0.4580664 -0.8618287 -0.2177762 
-15.32285 2.168225 398.7553 -0.8366075 -0.5031089 -0.2167244 
4.147717 14.83484 306.5968 0.33009 0.9349123 -0.1303058 
-10.89251 21.11054 55.56717 -0.1622009 0.9166983 0.3651782 
11.98918 -0.03320278 330.7708 0.9216895 -0.3879286 -0.0001378466 
-21.02612 16.37456 445.6022 0.3838263 0.921883 -0.05300236 
-19.56689 9.957359 108.4381 -0.5896456 0.7890819 0.1722438 
22.44007 25.06369 23.34619 0.9280604 0.114038 -0.3545408 
15.48095 27.1533 393.7827 0.8604767 0.4528412 -0.2334839 
8.391497 12.64952 451.5932 -0.715539 -0.3493949 0.6049192 
18.94612 2.343785 40.09845 0.9532288 -0.2623682 0.1500594 
5.533335 15.50703 316.7013 0.4436656 0.887105 -0.127301 
-15.84209 -5.696199 252.5473 -0.9774279 -0.2089576 0.0311683 
5.298101 3.399633 448.0646 -0.2561499 0.2108654 0.9433573 
1.84926 -9.90436 110.0766 0.6052004 -0.7943475 -0.05238777 
5.341669 -11.85609 55.0546 0.2296735 -0.908232 0.3498067 
-42.75698 39.62894 14.14765 -0.2752094 0.5816722 -0.7654524 
-18.46246 -2.240104 178.5737 -0.9688751 0.2415567 0.0541436 
-11.95288 19.15816 29.95644 -0.3639141 0.7199867 -0.5909194 
30.80698 6.089003 427.4194 0.9324834 -0.3366139 0.1310183 
-11.28776 -0.3112681 386.6758 -0.7023281 -0.7074043 -0.07946348 
-9.921771 -2.424532 370.0883 -0.7265973 -0.6853656 0.04827437 
-12.02009 -1.143578 358.2914 -0.8729733 -0.4843084 0.05799101 
18.13111 33.00685 50.22587 0.4791832 0.606473 0.6344872 
2.712734 12.21358 115.7747 0.4712762 0.8720995 0.1316861 
-22.11432 27.45492 44.37336 0.3827238 0.8512617 0.358993 
-8.770572 -2.031896 389.691 -0.4064733 -0.9132329 0.02802225 
0.9614068 9.234201 246.9851 0.283284 0.9568559 -0.06463039 
21.90334 26.01337 440.4701 0.7692106 0.595787 0.2309825 
-15.74938 26.04988 45.9106 -0.1485029 0.8972306 0.4158414 
5.086462 35.26918 420.7292 -0.136608 0.9887587 -0.06078242 
12.87125 19.19886 14.1836 0.08179069 -0.07495631 -0.9938269 
6.964094 29.23064 53.29482 -0.139079 0.6682252 0.7308435 
-25.56119 -5.314746 88.76711 -0.5709476 -0.8209791 -0.003479537 
-11.83019 27.022 37.82383 -0.34694 0.9045433 -0.2478587 
-22.1432 28.35215 386.1751 -0.2511716 0.9196171 -0.302022 
-56.96053 -1.190498 450.4335 -0.9489909 -0.07741366 0.3056527 
-5.031854 33.50611 23.57319 -0.7344937 0.3878054 -0.5568896 
-4.919137 -12.31197 109.4716 0.07293732 -0.9957895 -0.05552876 
-12.81955 2.863412 373.7328 -0.9515864 -0.306946 0.01635401 
4.950908 26.15643 375.5165 0.04369159 0.9484001 -0.3140516 
-0.5614697 -9.106023 324.8988 0.02020636 -0.9950303 0.09750074 
6.392502 -1.787549 401.7084 0.1962391 -0.980514 -0.009087236 
7.065983 9.353506 110.5333 0.8474759 0.5211628 0.1008657 
-5.207897 25.77345 417.9559 -0.716944 0.6459421 0.2622025 
-15.76114 -11.62778 179.8295 -0.5820743 -0.8128598 0.02118096 
12.23104 28.42283 448.7519 0.3593459 0.6552368 0.6644812 
-8.300576 15.96208 349.3332 -0.5775829 0.7964625 -0.1790125 
-6.596228 -13.27547 269.9412 -0.295483 -0.9539235 0.05215193 
-10.69085 -7.307312 451.216 0.8399374 -0.3716145 0.3954843 
-6.463313 -8.108312 442.7793 0.175865 -0.9698033 0.1689768 
-21.73839 10.28617 408.9424 -0.9605812 -0.1617748 -0.2260814 
7.607823 2.848575 158.7951 0.9024558 0.4306522 0.01059721 
19.53567 -2.770339 426.8146 0.3034264 -0.9517408 -0.04606489 
-50.19165 15.79924 449.3838 -0.6699963 0.7337473 -0.1127827 
6.77057 7.069539 128.2606 0.7853093 0.6146841 0.07384246 
-53.40385 18.46923 27.03051 -0.9351903 -0.1770125 -0.3067338 
8.745195 -17.71288 35.01484 -0.06487368 -0.9862922 -0.1517204 
6.602037 -17.36404 43.26118 -0.04280742 -0.9732539 0.2257085 
-19.36906 -7.569722 165.6433 -0.971355 -0.2205253 0.0885326 
-29.04941 17.17666 393.0758 -0.8969526 -0.4414678 0.02413198 
-21.75333 12.43935 402.033 -0.7983556 -0.6015925 0.02673697 
-46.76674 3.383425 33.39186 -0.7207132 -0.6883224 -0.08236998 
-9.746312 -14.22458 218.5366 -0.3974994 -0.9172947 0.02376257 
3.392148 21.85408 64.55057 -0.0820099 0.9250487 0.3708898 
-3.683721 3.389918 448.333 0.248377 0.3973868 0.8833984 
-6.450242 -14.58335 243.2315 -0.2144882 -0.9762799 0.02953789 
-14.22186 15.61075 369.2842 -0.9735526 0.001477635 -0.2284582 
7.25609 19.22629 434.4302 -0.865687 0.2056198 0.4564062 
-31.56602 21.7451 448.9622 0.1152851 0.9749681 -0.1901226 
6.225807 -11.32758 263.5937 0.6375081 -0.769744 0.03282658 
6.591987 32.67955 444.191 -0.03551577 0.959401 0.2798006 
-4.347864 10.78105 254.2399 -0.07429478 0.9950199 -0.06645176 
2.844177 10.56473 271.8697 0.5332294 0.8419681 -0.08219672 
-24.23056 -5.237748 123.3977 -0.9322 -0.3489298 0.09618325 
10.04699 9.797834 81.97361 0.9851367 0.06246883 0.1600106 
14.98391 42.982 45.33742 0.450658 0.6694368 0.5905606 
-8.201632 9.822295 273.0638 -0.6528198 0.757223 -0.02096719 
-43.58109 1.813594 42.08123 -0.6425701 -0.7346762 0.2176106 
-46.71476 48.12884 30.94743 -0.436268 0.897853 0.05941606 
25.30422 24.79655 48.52127 0.8718283 0.1187555 0.4751973 
-34.16269 12.82375 436.7784 -0.1839913 0.6387423 -0.747098 
-28.92738 22.13281 395.1443 -0.8706031 0.3708667 0.3232771 
-26.91477 21.88293 51.61187 0.07595176 0.8477597 0.5249141 
23.12647 -0.135589 442.7401 0.6651514 -0.6569127 0.3550204 
0.9774265 -6.783161 431.3649 0.1163772 -0.9609433 -0.2510865 
-1.467695 -13.38132 278.9431 0.1523402 -0.9869938 0.05133869 
-9.918509 27.7933 393.3336 -0.08531488 0.9894783 -0.1168506 
-19.82468 -7.604574 61.1063 -0.2379465 -0.9681594 0.07777461 
-13.17739 -10.4177 459.3011 0.8507106 -0.3456763 0.3959791 
-20.68247 -14.97683 464.9876 0.5894358 -0.5218568 0.6166288 
-30.79668 19.03985 461.1726 0.1261782 0.9003317 0.4165117 
5.127664 -9.476182 152.0071 0.8100382 -0.5856501 -0.02919057 
-27.49507 33.53447 14.65338 0.7072356 0.3936261 -0.5872616 
11.54843 3.716497 15.77732 0.07908874 -0.1923829 -0.9781277 
2.656346 27.20896 437.2928 -0.9799347 -0.1971858 -0.02908245 
-12.47873 20.73524 371.1691 -0.5167298 0.7307187 -0.4461398 
2.416606 -3.131795 447.0048 0.1177572 -0.4084954 0.9051325 
-37.0643 1.266731 13.57263 -0.3421981 -0.635282 -0.6923274 
-10.24157 7.428939 218.1754 -0.5696427 0.821759 0.01480976 
-25.78074 10.2149 422.1603 -0.8015192 0.5144591 -0.3047932 
-12.30965 -10.16599 83.99228 -0.1274948 -0.9910883 -0.03858942 
-31.46585 27.92563 48.27204 0.2281137 0.4646643 0.8555999 
-28.43747 36.9682 42.58289 0.8329969 0.4058225 0.3760643 
-38.10883 20.32409 8.128245 -0.007261201 0.01726591 -0.9998246 
6.436877 4.219061 189.0507 0.8144435 0.5802251 -0.004546368 
25.79092 30.20029 39.53347 0.8953955 0.4208049 0.1455685 
-57.0841 -2.799986 444.5947 -0.962109 -0.04308924 -0.2692391 
15.44825 48.06314 33.23911 0.2481614 0.9657714 0.07550798 
3.939106 -11.47209 167.907 0.6941742 -0.7191117 -0.03162964 
-9.778461 -4.913252 420.5889 -0.02110208 -0.9767981 -0.2131203 
12.444 23.52533 62.46168 0.3101875 0.7048549 0.6379368 
20.1314 10.15681 45.2454 0.9019585 -0.334828 0.2726924 
7.251962 23.48979 366.2941 0.3836524 0.8943968 -0.2299244 
-7.903816 -11.20748 291.0174 -0.3524086 -0.9316611 0.08840762 
-12.32903 -9.883494 273.5282 -0.7593191 -0.6479988 0.0594334 
-14.73321 -0.3075053 312.8076 -0.9931155 -0.1167937 0.008994594 
-14.48495 1.593567 304.9465 -0.9944298 0.105123 -0.007659281 
-3.217164 26.89765 385.6285 -0.1699292 0.9696296 -0.1759046 
-50.97107 44.46793 27.99852 -0.9015096 0.4269843 -0.070462 
-3.542018 9.901172 219.8242 0.05318556 0.9985846 -0.0001957537 
-23.83203 26.50642 20.44205 0.9311402 0.353218 -0.09063669 
-20.47543 18.13597 18.17632 0.8298782 0.3436123 -0.4395824 
-26.69397 33.91979 29.59979 0.9799194 0.1776351 0.09057519 
12.88145 4.938361 316.0599 0.9958748 0.05162521 -0.07462104 
-46.94736 17.24872 14.73272 -0.8134933 -0.2820902 -0.5085802 
-26.40502 -4.107443 426.5882 -0.341801 -0.6227087 -0.7038507 
-2.543601 14.66067 306.1392 -0.3360017 0.9391938 -0.07083767 
-15.41944 -16.7002 454.8897 0.7339448 -0.6512088 0.1930083 
-36.24888 30.82635 9.780818 0.1428636 0.3485339 -0.9263445 
-24.70631 2.089413 418.6344 -0.8291578 -0.2342085 -0.5075862 
-28.02355 -1.601727 92.85853 -0.9647796 -0.2236454 0.1385035 
-51.71901 -6.333386 465.556 -0.8373054 -0.1495374 0.525888 
14.95879 -4.572831 439.391 0.3439853 -0.9328057 -0.10746 
9.518921 12.53178 316.0323 0.7788944 0.6104993 -0.1435768 
11.65155 13.05912 328.7613 0.8229094 0.5514972 -0.1366416 
-9.360986 14.47559 21.85439 -0.223562 0.3522667 -0.908806 
-20.63363 14.07576 454.1146 0.7215289 0.6144157 0.3192014 
20.25617 6.269598 30.14824 0.9538874 -0.2786969 -0.111476 
-12.6297 13.83858 99.16235 -0.2314246 0.9647533 0.1252746 
8.314632 -2.893142 172.7514 0.9951755 -0.09659074 -0.01720782 
7.383638 -7.860866 186.5273 0.8813494 -0.4710279 -0.03682398 
-0.3616943 33.1502 419.7915 -0.7021626 0.702218 0.1177185 
-38.19755 -23.30507 441.6699 -0.1785208 -0.8558255 -0.4854822 
-9.449459 -10.78266 38.73112 -0.161018 -0.9586371 -0.2347086 
7.802898 -0.9648468 99.4035 0.9600954 -0.2786145 0.02430468 
-3.971039 10.65118 163.0861 0.1102408 0.99332 0.03409357 
-3.19555 -12.98602 126.1843 0.2210969 -0.9738116 -0.05298311 
-49.92667 43.05284 22.11779 -0.6043559 0.6419277 -0.4718929 
4.319426 -9.466917 438.6752 0.1707357 -0.9812335 -0.08961108 
27.83299 2.313865 416.1607 0.7450027 -0.5369136 -0.3958469 
7.377841 -4.284145 149.9936 0.9801362 -0.1962801 -0.02841111 
-19.24584 15.11056 423.1721 -0.5016285 0.8631739 0.0574421 
-28.25706 16.12071 439.7436 -0.04542658 0.8807527 -0.4713928 
10.66323 -0.7401921 366.789 0.6936174 -0.7201736 0.01565115 
6.348054 -11.39771 241.8407 0.7105887 -0.7035622 -0.008001598 
8.841393 -7.379371 221.622 0.9322017 -0.361267 -0.02205097 
27.18727 17.90628 436.7868 0.9173936 0.3169803 0.2406501 
-22.41477 0.8567361 131.8394 -0.9554673 0.2623015 0.1352043 
7.38387 31.67369 15.60441 -0.1852951 0.2741594 -0.9436643 
-25.55549 -11.0875 25.32351 0.2436434 -0.8330449 -0.496663 
11.8615 16.75164 345.2483 0.5964031 0.7787938 -0.19438 
-55.06575 28.8844 43.89724 -0.8600624 0.325336 0.3930003 
-19.31706 2.772388 146.432 -0.8701705 0.4826472 0.09927271 
14.92103 18.0907 372.4977 0.8914001 0.4367856 -0.1209306 
-33.77409 7.498405 472.4191 -0.02980542 0.4004326 0.9158413 
-13.23702 4.634741 21.22325 0.1863424 -0.2413034 -0.9523913 
-50.6424 -18.84275 450.6628 -0.7205968 -0.6784294 0.1430865 
-38.97049 14.10532 65.07716 -0.810943 0.1765433 0.5578565 
-11.56898 -8.013198 435.4044 0.1974893 -0.9444986 -0.262527 
-26.09621 32.08454 40.85364 0.7915564 0.6014018 -0.1084182 
-26.7639 42.60363 33.25647 0.8902755 0.4145893 0.1884818 
-7.475021 27.52944 29.22369 -0.9032926 0.3021282 -0.3045999 
-15.07434 -9.854423 223.7485 -0.8885529 -0.4574908 0.03429216 
-32.53821 44.91465 20.19534 0.3107888 0.7522514 -0.5809717 
9.65986 1.28824 252.9677 0.9268888 0.3721366 -0.04890381 
6.275004 -6.437132 68.81139 0.6516733 -0.7420517 0.157103 
0.8976045 26.65806 444.8979 -0.9914594 0.06890261 -0.1107285 
15.96008 13.84884 362.8175 0.9881613 0.1295007 -0.08226109 
11.10866 -2.13051 449.7802 -0.08240277 -0.4843946 0.8709602 
-36.55999 -12.39835 471.9286 -0.1152571 -0.4650213 0.8777648 
21.62298 43.28765 24.61612 0.8455817 0.4433887 -0.2973181 
-43.21983 -24.03384 452.6632 -0.358306 -0.9300606 0.08126577 
-25.57946 24.0902 382.9006 -0.8380101 0.220406 -0.4991597 
4.039676 -8.655618 319.0652 0.3136711 -0.9458328 0.08373044 
-15.52353 13.39192 20.72445 0.4694704 0.4131266 -0.7803358 
8.199045 -4.583257 336.4737 0.5374223 -0.8401766 0.0726677 
-3.014353 -3.43145 393.684 -0.01133586 -0.9987926 0.04780038 
-26.17489 5.068523 99.2382 -0.8679522 0.4289943 0.2502456 
-13.36972 -10.40776 250.82 -0.7178442 -0.6952172 0.03705267 
17.58619 7.809077 391.1303 0.955421 -0.2443339 -0.1657463 
-3.508901 -7.479903 336.3978 -0.1941683 -0.9773715 0.08392672 
-13.57007 8.096789 153.1713 -0.6163438 0.7835189 0.07885797 
-12.27638 5.347784 292.7722 -0.8429994 0.5373263 -0.0251503 
5.270087 -3.41296 375.006 0.32288 -0.9449834 0.05248695 
7.002409 -9.626262 282.8634 0.7369019 -0.6758013 0.01637975 
-47.01549 14.47864 439.9937 -0.4109418 0.6575125 -0.6315095 
-13.32084 4.222793 365.1325 -0.9930653 -0.1165785 0.01518984 
-51.25546 38.42538 40.40026 -0.7678317 0.475517 0.4293228 
-25.6547 26.39862 392.5038 -0.57214 0.7966549 0.1949275 
14.33362 17.09171 357.8576 0.8134709 0.5682731 -0.1238169 
30.94633 9.008657 421.8354 0.9877185 0.1034144 -0.1171228 
-34.7428 48.84253 32.7535 0.2741516 0.9553559 0.1101639 
-2.007764 -12.85367 49.42168 -0.282942 -0.9471388 0.1512343 
-15.41248 -4.643158 269.4535 -0.993183 -0.1137979 0.02525336 
9.06181 47.71874 38.40467 -0.1662994 0.9301379 0.3273959 
8.208955 -7.571534 443.1759 0.2097495 -0.8798431 0.4264754 
-17.60633 -4.359443 197.273 -0.9941937 0.09310296 0.053952 
6.796989 -3.814082 120.8054 0.92893 -0.3702543 0.000965071 
-32.25072 9.66687 432.5319 -0.4539138 0.6546414 -0.604489 
-6.909405 30.81438 44.0003 -0.6740768 0.6747712 0.3005068 
1.801725 20.56602 350.2339 -0.08021624 0.9811062 -0.176057 
-16.68861 -8.82529 201.8295 -0.9002786 -0.4310957 0.06045668 
-52.0411 12.50675 457.1635 -0.7266919 0.6011457 0.3324795 
-15.06553 -12.3727 142.593 -0.3841573 -0.9231349 -0.01565814 
-27.37309 -13.9893 469.7715 0.2711309 -0.5079681 0.817592 
6.50605 40.26481 20.67674 -0.304758 0.5670323 -0.7652431 
15.53011 -13.97366 32.41152 0.7419044 -0.6545924 -0.1452124 
-52.20331 -11.98831 458.7776 -0.869899 -0.2822647 0.404478 
-17.68459 7.628861 128.2311 -0.6413876 0.7599015 0.1056967 
3.357296 14.02561 436.149 -0.377763 0.7742673 0.5077454 
9.031463 16.21185 78.33163 0.6904374 0.6760512 0.2573926 
-14.14057 14.11174 443.4825 0.2908045 0.8778034 0.3806494 
-43.61638 43.31192 44.0874 -0.2064036 0.6312275 0.7476292 
-56.35049 6.04621 452.5012 -0.9519784 0.3043531 0.0332595 
-51.30091 1.418891 435.1851 -0.5400616 0.1443532 -0.8291536 
-2.22343 -14.49626 167.5313 0.2162898 -0.976045 -0.02355761 
-5.195064 -13.96416 143.9113 -0.006091335 -0.9991002 -0.0419724 
8.440452 8.84219 293.4878 0.7313811 0.6707542 -0.1231692 
-10.69742 -4.506716 28.42952 -0.2207526 -0.7602199 -0.6110106 
-17.32078 14.81554 380.4911 -0.7397012 -0.5475282 -0.3912226 
8.867288 -5.270988 206.4338 0.9817713 -0.1885367 -0.02406259 
-5.023481 18.53683 20.53011 -0.6081302 0.1696067 -0.7755071 
24.87539 14.76618 443.5121 0.9032108 0.02927046 0.4281981 
20.79333 32.42329 28.03226 0.966676 0.1969123 -0.1635942 
-13.72491 -10.96156 102.7575 -0.2384696 -0.9694475 -0.05747952 
-50.11722 -17.2638 442.0672 -0.6977817 -0.5874547 -0.4098752 
-4.79743 -14.93602 187.6877 -0.03120997 -0.9993551 -0.01775488 
8.563075 0.2687223 202.12 0.9510676 0.3084106 -0.01879602 
9.414186 0.955542 76.70678 0.926172 -0.3535291 0.1312355 
9.324862 4.938695 450.4904 -0.6583346 -0.0668606 0.7497501 
-35.29236 -5.799623 30.5736 -0.6921133 -0.712757 -0.1138279 
-46.41828 30.28012 10.94217 -0.4870106 0.1819562 -0.8542323 
-50.67956 35.0007 19.3707 -0.8779471 0.2080385 -0.4311947 
-5.460049 20.42935 427.832 -0.5187709 0.6384287 0.568582 
-31.76798 1.524008 428.1947 -0.6746674 0.02446916 -0.7377162 
-13.11374 8.349362 449.5741 0.6034808 0.4901867 0.6289102 
-17.88365 9.143684 397.9181 -0.8178391 -0.5373011 -0.2060262 
1.144542 23.59223 365.9513 -0.1038876 0.9637694 -0.2456746 
-2.231005 17.42492 334.7842 -0.3561721 0.9249633 -0.132606 
-1.489446 9.788303 443.0465 0.01235706 0.7493106 0.6621034 
10.49679 -4.68578 294.9017 0.890088 -0.4557854 -0.001789491 
-25.85586 -5.105218 64.3311 -0.5468807 -0.8248773 0.1431752 
-10.13499 -5.398095 334.748 -0.5497752 -0.8316602 0.07802935 
19.50427 22.32888 55.67744 0.8527291 -0.1029619 0.5121055 
7.651232 12.14239 94.11897 0.8642201 0.4834633 0.1392366 
3.656056 17.41327 81.06738 0.2202803 0.9520248 0.2124274 
-5.866264 -9.747952 312.327 -0.2927643 -0.9513715 0.09581935 
-32.89215 42.6193 43.24177 0.4390823 0.6098458 0.6597689 
-52.26075 8.006324 439.2022 -0.7085366 0.4286821 -0.5605422 
-20.95999 15.09044 414.2864 -0.8018714 0.584348 0.1246587 
0.6238002 26.21908 450.7242 -0.9423688 -0.1218281 0.3116072 
-36.18927 -18.08155 435.156 -0.02911691 -0.6080622 -0.7933553 
-0.08098587 -14.46133 249.5891 0.1916396 -0.9811314 0.02560302 
-17.58276 23.83806 403.3257 -0.5702124 0.6749914 0.4682356 
4.210258 21.7688 453.6081 -0.4440041 -0.02253176 0.8957415 
19.92614 15.54836 21.20314 0.8465801 -0.1862521 -0.4986103 
-27.69379 -7.873426 48.78607 -0.4201852 -0.8658069 0.2717036 
-40.39019 47.94428 24.21567 -0.0991334 0.9118858 -0.3982925 
-25.92866 1.553302 107.8655 -0.9323021 0.3265843 0.1554206 
5.824756 4.87991 16.62447 -0.223934 -0.1501725 -0.9629651 
14.69492 12.77897 16.59168 0.4242441 -0.1258076 -0.8967661 
-12.05108 14.13223 356.9309 -0.8292053 0.5213603 -0.2014995 
11.21278 25.46757 379.2171 0.6815121 0.666581 -0.3020118 
-1.454805 14.44879 106.5658 0.07317609 0.991447 0.1080653 
-13.46557 -11.58766 442.5265 0.5940698 -0.7759849 -0.2119636 
-21.73803 -5.913818 145.981 -0.9891847 -0.1167425 0.08879601 
-1.541212 -15.09919 205.8443 0.1587137 -0.9873196 -0.003152862 
4.251673 -7.601511 21.03036 -0.2783884 -0.5205848 -0.8071502 
-7.119263 9.92584 255.0327 -0.4565536 0.8891301 -0.03172559 
8.797367 -3.396336 194.234 0.9992395 0.01915078 -0.03396515 
-8.524627 10.78775 148.2221 -0.2358027 0.970815 0.04376541 
-21.50378 24.98051 33.43699 0.5993937 0.7118838 -0.3659899 
-11.93005 10.88336 344.78 -0.8137494 0.5669471 -0.1279964 
27.59464 22.47224 39.57318 0.9830431 -0.1630178 0.08397347 
-18.58407 1.190255 410.1387 -0.7113238 -0.5902207 -0.3816518 
-14.25929 -12.15834 192.0366 -0.6375244 -0.7695776 0.03623595 
4.696199 17.40695 443.4988 -0.9727376 -0.231038 0.0200781 
-55.46108 -11.70221 451.4344 -0.9297442 -0.3607033 0.07395145 
-31.36766 -6.090084 19.47996 -0.2756157 -0.7560822 -0.5936124 
-20.98447 1.480469 17.51388 0.4197794 -0.4024335 -0.8135309 
12.99061 2.831324 59.96945 0.9213481 -0.2742189 0.2755389 
5.809936 -11.25726 207.478 0.694442 -0.7190771 -0.02605011 
16.73546 2.700935 18.42663 0.7175004 -0.2004044 -0.6671067 
20.4095 45.7216 29.85564 0.6668531 0.7448367 0.02291775 
-1.161914 25.81829 51.86959 -0.3589408 0.7012061 0.6160126 
-8.362665 11.75686 129.8688 -0.1868312 0.9780082 0.09270494 
-6.662502 9.559032 237.1299 -0.2432259 0.9697469 -0.02078939 
-10.49107 8.955464 168.0299 -0.4610007 0.8860031 0.04977021 
-13.10654 10.83772 358.7929 -0.9807814 0.1766395 -0.08286358 
-10.79261 -1.482544 452.3174 0.5509207 0.1183422 0.8261244 
6.971391 -4.015532 355.4096 0.3757798 -0.9246107 0.0623274 
-18.35087 -4.691774 467.7444 0.5617201 -0.0417545 0.826273 
13.83454 4.438527 357.728 0.9240803 -0.380718 -0.03360819 
2.697146 29.93636 450.0402 -0.3828838 0.7045137 0.5975454 
-22.44636 16.11445 403.633 -0.9316764 0.03996072 0.3610848 
-13.94475 -0.7184381 332.8423 -0.9558979 -0.2907194 0.04173091 
-4.432531 -11.18935 93.5479 0.1934241 -0.9790695 -0.06332564 
-49.83448 21.9256 52.94955 -0.5632027 0.17903 0.8066914 
10.16958 -2.518508 237.8901 0.9993689 0.02344735 -0.02668249 
-8.008145 -3.009906 405.7735 -0.1438721 -0.9878078 -0.05946949 
-14.85041 -3.396236 464.8448 0.8675727 0.07976744 0.4908714 
-7.401997 7.354981 20.87335 -0.1986217 -0.1078927 -0.9741194 
4.818986 5.476761 206.0567 0.6437171 0.7652113 -0.008951747 
-21.58103 15.96189 69.8452 -0.04991845 0.9641632 0.2605713 
13.26497 2.184299 372.7136 0.7965614 -0.6023046 -0.05214638 
-25.50668 35.76559 19.93424 0.9643818 0.2233606 -0.1416958 
-2.549184 12.25891 272.8522 -0.1077396 0.9920272 -0.06537805 
14.976 31.21928 442.8147 0.4768157 0.8168343 0.3246976 
-16.39903 -3.960544 231.8346 -0.9996907 -0.004631021 0.02443446 
-13.48191 21.40285 412.9706 -0.5272045 0.7890692 0.3153176 
7.881157 1.136486 126.6936 0.9987887 -0.04331578 0.02334302 
11.03691 -3.46501 268.2821 0.9875374 -0.1572543 -0.006398668 
16.08919 7.907753 454.5642 0.2233628 -0.1963302 0.9547583 
20.93564 3.262951 407.77 0.6862557 -0.6358515 -0.3531941 
-11.2227 6.461876 250.4348 -0.7219585 0.6919342 -0.001725106 
6.422456 4.240923 176.5993 0.8319833 0.5547658 0.006227211 
-8.21198 -0.3489251 23.96979 -0.1720069 -0.4927119 -0.8530232 
-15.17517 -1.35106 293.7463 -0.9985915 -0.03975577 0.03513665 
-1.597271 9.669677 230.3635 0.3093839 0.9508154 -0.01522163 
-11.62291 25.70661 381.7094 -0.04915203 0.9598428 -0.2761991 
2.674859 37.21372 48.56345 -0.3534299 0.5848716 0.730077 
3.628136 15.02197 94.24208 0.397237 0.9060462 0.1458876 
-29.07278 9.89328 83.83172 -0.7154099 0.5885789 0.3765152 
-44.43343 -12.52034 433.0639 -0.3259152 -0.4018139 -0.8557599 
-30.03678 -24.51492 445.5164 0.1289356 -0.9704254 -0.2040841 
12.15995 0.3506676 395.1863 0.5167506 -0.8528586 -0.07483954 
-21.97563 -22.47241 450.8127 0.4769873 -0.8777941 -0.04427985 
-7.80852 12.45362 322.8022 -0.6753433 0.7341583 -0.07016354 
3 4 305 5 
3 135 289 50 
3 7 165 391 
3 229 10 426 
3 220 366 307 
3 295 8 162 
3 157 182 1 
3 161 207 305 
3 63 12 50 
3 325 79 14 
3 406 405 48 
3 16 47 17 
3 262 283 128 
3 60 482 175 
3 339 178 9 
3 158 412 70 
3 448 293 214 
3 3 24 309 
3 37 216 68 
3 95 0 30 
3 203 281 31 
3 32 414 33 
3 159 60 367 
3 420 416 153 
3 313 487 76 
3 32 297 287 
3 268 476 401 
3 5 207 407 
3 284 256 479 
3 278 352 211 
3 391 236 49 
3 141 366 52 
3 104 302 437 
3 402 339 9 
3 349 34 204 
3 187 218 206 
3 119 265 69 
3 5 305 207 
3 65 99 496 
3 59 67 237 
3 369 342 260 
3 94 398 59 
3 285 120 154 
3 119 69 471 
3 496 39 56 
3 62 259 411 
3 461 11 309 
3 55 88 254 
3 153 80 279 
3 250 198 145 
3 35 88 55 
3 360 230 462 
3 93 94 237 
3 51 370 180 
3 94 196 398 
3 401 476 64 
3 99 104 87 
3 430 95 141 
3 381 8 295 
3 248 68 296 
3 115 38 393 
3 481 28 191 
3 127 32 287 
3 82 372 316 
3 240 488 159 
3 58 187 437 
3 458 195 494 
3 117 289 97 
3 304 455 142 
3 414 90 358 
3 80 280 279 
3 181 335 395 
3 215 24 3 
3 251 430 141 
3 398 264 470 
3 406 282 311 
3 172 424 450 
3 458 373 192 
3 3 11 61 
3 81 6 344 
3 448 97 289 
3 29 191 27 
3 47 193 40 
3 167 349 127 
3 276 436 327 
3 395 475 299 
3 243 417 275 
3 454 9 146 
3 410 164 448 
3 269 112 239 
3 270 388 399 
3 183 41 184 
3 378 253 465 
3 158 290 501 
3 21 114 254 
3 192 197 188 
3 43 377 390 
3 10 134 318 
3 432 321 382 
3 203 276 411 
3 431 365 337 
3 202 41 230 
3 106 384 238 
3 229 352 226 
3 449 51 208 
3 71 287 298 
3 149 170 397 
3 146 380 173 
3 260 212 213 
3 200 20 6 
3 170 149 429 
3 240 86 480 
3 257 19 441 
3 240 159 356 
3 468 223 224 
3 260 176 228 
3 260 342 176 
3 143 376 387 
3 388 135 497 
3 239 457 271 
3 104 495 419 
3 306 425 12 
3 269 186 243 
3 244 316 372 
3 10 455 134 
3 486 247 396 
3 58 437 459 
3 54 56 331 
3 293 448 289 
3 118 86 356 
3 460 442 235 
3 242 311 282 
3 111 43 208 
3 234 4 467 
3 379 200 6 
3 130 259 230 
3 214 410 448 
3 488 460 262 
3 359 217 44 
3 155 28 209 
3 485 77 338 
3 34 354 204 
3 178 52 366 
3 364 182 313 
3 304 142 272 
3 155 428 172 
3 273 163 473 
3 107 15 274 
3 380 132 96 
3 276 327 363 
3 277 144 278 
3 279 280 144 
3 246 265 119 
3 346 223 245 
3 377 67 59 
3 141 52 251 
3 113 140 341 
3 168 232 88 
3 230 435 462 
3 459 437 302 
3 73 371 484 
3 297 174 298 
3 320 364 27 
3 261 137 120 
3 114 21 78 
3 478 317 466 
3 344 112 397 
3 309 11 3 
3 393 130 230 
3 175 482 352 
3 157 37 313 
3 156 190 236 
3 133 53 241 
3 101 143 199 
3 1 396 247 
3 247 342 369 
3 61 136 128 
3 165 7 290 
3 265 246 188 
3 92 328 162 
3 114 328 55 
3 490 25 329 
3 306 399 497 
3 388 244 160 
3 332 97 273 
3 348 445 181 
3 334 365 421 
3 234 481 40 
3 498 12 500 
3 433 194 434 
3 473 189 350 
3 468 224 214 
3 467 4 340 
3 395 150 433 
3 275 301 447 
3 345 8 330 
3 41 393 230 
3 194 433 150 
3 370 109 180 
3 323 453 25 
3 257 434 456 
3 480 236 190 
3 422 388 270 
3 126 180 148 
3 480 190 235 
3 275 173 301 
3 36 478 353 
3 204 354 416 
3 125 236 391 
3 249 277 211 
3 263 82 315 
3 64 476 156 
3 411 493 281 
3 116 400 440 
3 193 47 161 
3 315 483 423 
3 110 255 272 
3 48 288 219 
3 20 373 74 
3 421 365 386 
3 366 141 307 
3 436 171 42 
3 105 219 79 
3 206 218 484 
3 261 22 137 
3 214 293 263 
3 364 76 27 
3 141 72 307 
3 345 84 8 
3 98 90 127 
3 256 285 154 
3 258 450 340 
3 330 8 381 
3 383 231 46 
3 10 318 426 
3 135 408 289 
3 346 245 362 
3 291 438 212 
3 325 105 79 
3 226 10 229 
3 473 205 68 
3 24 151 57 
3 126 326 147 
3 299 329 348 
3 387 422 270 
3 172 428 424 
3 119 66 246 
3 57 459 444 
3 110 272 389 
3 148 11 461 
3 386 69 265 
3 314 215 303 
3 54 138 56 
3 133 241 430 
3 304 272 303 
3 361 325 69 
3 365 334 83 
3 451 399 330 
3 276 363 324 
3 147 222 126 
3 297 165 174 
3 440 400 142 
3 231 2 450 
3 310 201 177 
3 274 103 186 
3 408 372 263 
3 135 50 497 
3 24 215 75 
3 33 485 125 
3 171 76 42 
3 445 285 284 
3 343 8 84 
3 74 6 20 
3 171 31 17 
3 46 385 413 
3 175 367 60 
3 313 37 487 
3 317 349 167 
3 100 441 132 
3 454 106 402 
3 81 379 6 
3 287 71 167 
3 402 308 91 
3 374 412 210 
3 367 278 491 
3 32 127 414 
3 292 179 337 
3 418 419 495 
3 146 9 178 
3 217 359 422 
3 109 60 262 
3 202 185 184 
3 124 91 470 
3 238 402 106 
3 458 494 373 
3 137 405 267 
3 109 262 136 
3 375 370 51 
3 431 337 179 
3 349 317 464 
3 223 115 224 
3 415 138 133 
3 259 62 435 
3 152 308 418 
3 317 167 466 
3 81 322 379 
3 197 373 26 
3 385 45 82 
3 43 111 377 
3 409 385 300 
3 490 441 392 
3 295 143 101 
3 454 173 275 
3 352 482 336 
3 155 467 428 
3 326 355 382 
3 253 378 129 
3 361 69 386 
3 335 26 200 
3 303 268 443 
3 181 299 348 
3 408 263 293 
3 480 235 442 
3 245 223 468 
3 178 366 221 
3 218 151 75 
3 368 239 271 
3 444 461 309 
3 311 431 179 
3 220 307 100 
3 286 284 479 
3 418 384 419 
3 501 412 158 
3 72 25 307 
3 459 382 444 
3 492 283 460 
3 193 305 4 
3 223 346 38 
3 464 357 18 
3 430 251 415 
3 276 324 411 
3 395 299 181 
3 381 451 330 
3 215 314 75 
3 458 166 227 
3 483 45 407 
3 39 23 331 
3 272 255 303 
3 246 66 477 
3 21 217 376 
3 137 22 288 
3 113 466 167 
3 411 281 203 
3 104 99 302 
3 33 391 32 
3 353 327 42 
3 165 290 158 
3 62 210 435 
3 260 228 463 
3 320 28 396 
3 143 387 199 
3 241 53 225 
3 333 266 188 
3 406 311 179 
3 441 100 392 
3 76 102 27 
3 368 494 239 
3 179 405 406 
3 390 59 310 
3 92 378 465 
3 103 15 417 
3 460 283 262 
3 399 388 497 
3 16 250 47 
3 324 374 411 
3 180 222 51 
3 40 4 234 
3 24 57 309 
3 325 14 471 
3 472 338 77 
3 164 163 448 
3 109 136 148 
3 156 338 472 
3 420 153 144 
3 392 25 490 
3 350 357 205 
3 115 410 224 
3 264 196 251 
3 2 413 176 
3 433 490 475 
3 44 244 359 
3 70 174 158 
3 374 62 411 
3 438 117 332 
3 452 261 453 
3 419 227 87 
3 86 49 480 
3 264 124 470 
3 440 142 455 
3 47 250 161 
3 77 318 472 
3 267 405 292 
3 169 432 382 
3 475 329 299 
3 78 21 376 
3 77 485 233 
3 245 468 427 
3 249 211 426 
3 421 386 265 
3 120 137 267 
3 334 479 83 
3 173 454 146 
3 446 210 412 
3 171 102 76 
3 468 214 423 
3 201 470 177 
3 363 327 341 
3 255 110 73 
3 28 486 396 
3 500 12 438 
3 4 258 340 
3 82 168 385 
3 83 256 337 
3 331 23 54 
3 113 167 71 
3 53 54 23 
3 66 99 477 
3 440 226 116 
3 411 259 493 
3 248 213 332 
3 371 152 484 
3 127 287 167 
3 418 308 238 
3 266 333 286 
3 139 409 300 
3 356 159 491 
3 275 447 243 
3 477 87 166 
3 233 485 358 
3 111 439 67 
3 342 247 486 
3 48 219 105 
3 370 375 89 
3 206 418 495 
3 31 16 17 
3 424 340 450 
3 94 59 237 
3 221 146 178 
3 486 403 342 
3 426 318 233 
3 365 83 337 
3 119 471 23 
3 345 399 306 
3 227 195 458 
3 268 489 3 
3 115 223 38 
3 117 438 12 
3 394 455 304 
3 472 318 319 
3 127 349 347 
3 480 442 240 
3 212 438 213 
3 220 100 132 
3 80 118 356 
3 114 78 328 
3 80 153 469 
3 248 312 213 
3 290 118 501 
3 221 220 146 
3 251 52 264 
3 250 145 161 
3 438 291 500 
3 355 444 382 
3 157 1 216 
3 262 128 136 
3 328 78 162 
3 225 0 241 
3 12 425 50 
3 232 44 21 
3 117 12 63 
3 140 113 71 
3 98 347 420 
3 156 476 492 
3 89 375 336 
3 26 373 20 
3 155 209 467 
3 434 194 85 
3 323 25 72 
3 18 34 464 
3 112 269 149 
3 301 173 96 
3 268 401 443 
3 481 191 29 
3 206 495 187 
3 76 353 42 
3 199 381 101 
3 326 126 355 
3 205 357 499 
3 133 430 415 
3 496 56 351 
3 124 339 91 
3 302 99 65 
3 8 343 162 
3 65 496 351 
3 470 91 177 
3 433 434 257 
3 258 4 5 
3 48 105 406 
3 45 315 82 
3 361 242 282 
3 406 105 282 
3 54 133 138 
3 80 469 131 
3 279 144 153 
3 31 171 436 
3 285 348 120 
3 46 45 385 
3 231 450 258 
3 376 143 78 
3 106 15 107 
3 89 482 109 
3 492 460 190 
3 101 381 295 
3 84 13 129 
3 132 19 96 
3 265 266 421 
3 297 32 391 
3 181 197 26 
3 53 133 54 
3 388 160 135 
3 404 261 452 
3 215 489 303 
3 102 29 27 
3 380 96 173 
3 316 232 168 
3 476 268 61 
3 55 254 114 
3 416 184 185 
3 186 103 243 
3 350 18 357 
3 92 465 55 
3 176 413 228 
3 335 181 26 
3 501 80 131 
3 214 224 410 
3 145 427 483 
3 34 18 121 
3 501 131 446 
3 467 424 428 
3 73 110 310 
3 378 343 84 
3 277 420 144 
3 140 298 70 
3 159 367 491 
3 18 189 121 
3 478 499 317 
3 102 171 17 
3 43 400 208 
3 0 404 30 
3 341 353 466 
3 317 499 357 
3 145 198 362 
3 333 284 286 
3 455 319 134 
3 195 239 494 
3 12 498 306 
3 483 407 207 
3 402 9 454 
3 422 359 244 
3 200 26 20 
3 159 488 60 
3 479 256 83 
3 332 117 97 
3 175 278 367 
3 121 189 184 
3 482 60 109 
3 163 97 448 
3 203 436 276 
3 319 455 394 
3 222 208 51 
3 375 51 449 
3 413 383 46 
3 434 85 429 
3 256 292 337 
3 146 220 380 
3 318 134 319 
3 248 332 273 
3 471 14 53 
3 186 239 195 
3 111 67 377 
3 189 183 184 
3 403 2 176 
3 152 206 484 
3 61 268 3 
3 149 269 447 
3 177 308 371 
3 139 300 35 
3 372 160 244 
3 129 500 291 
3 201 310 59 
3 434 429 456 
3 187 495 437 
3 41 164 410 
3 248 296 312 
3 290 86 118 
3 122 197 181 
3 43 390 389 
3 119 39 66 
3 345 13 84 
3 401 394 443 
3 454 275 417 
3 486 172 403 
3 430 241 0 
3 116 449 208 
3 446 435 210 
3 300 88 35 
3 338 156 236 
3 383 2 231 
3 89 109 370 
3 336 226 352 
3 11 148 136 
3 199 451 381 
3 152 418 206 
3 446 462 435 
3 214 263 423 
3 310 110 390 
3 176 342 403 
3 198 130 346 
3 6 457 344 
3 347 349 204 
3 98 249 90 
3 329 475 490 
3 107 384 106 
3 291 212 252 
3 163 183 473 
3 199 387 270 
3 122 181 445 
3 124 123 339 
3 105 325 361 
3 201 59 398 
3 409 139 463 
3 484 314 73 
3 322 200 379 
3 232 254 88 
3 194 150 322 
3 30 323 95 
3 437 495 104 
3 273 473 68 
3 252 474 253 
3 111 208 222 
3 485 33 358 
3 255 314 303 
3 64 319 394 
3 108 14 79 
3 188 197 122 
3 499 36 487 
3 324 140 70 
3 44 217 21 
3 493 198 250 
3 231 5 407 
3 303 489 268 
3 95 323 72 
3 496 99 39 
3 322 150 200 
3 25 453 329 
3 147 439 222 
3 407 45 46 
3 108 22 225 
3 395 200 150 
3 89 336 482 
3 5 231 258 
3 121 184 416 
3 368 6 74 
3 123 52 178 
3 139 212 463 
3 401 64 394 
3 294 138 196 
3 397 85 344 
3 205 473 350 
3 377 59 390 
3 389 400 43 
3 92 55 328 
3 296 216 247 
3 169 382 459 
3 382 321 326 
3 92 162 343 
3 358 249 233 
3 209 28 481 
3 447 269 243 
3 364 320 396 
3 182 364 396 
3 149 447 301 
3 373 494 74 
3 56 39 331 
3 324 70 374 
3 198 346 362 
3 433 475 395 
3 383 413 2 
3 0 225 404 
3 271 457 6 
3 250 16 281 
3 0 95 430 
3 263 372 82 
3 281 493 250 
3 289 408 293 
3 213 438 332 
3 385 409 228 
3 246 192 188 
3 334 421 266 
3 125 485 338 
3 292 256 154 
3 280 356 491 
3 405 179 292 
3 122 333 188 
3 481 234 209 
3 212 474 252 
3 296 68 216 
3 468 423 427 
3 284 285 256 
3 216 1 247 
3 142 389 272 
3 103 417 243 
3 489 215 3 
3 218 58 151 
3 461 444 355 
3 403 172 450 
3 108 79 219 
3 169 302 65 
3 361 282 105 
3 296 247 369 
3 283 61 128 
3 121 354 34 
3 311 242 431 
3 385 228 413 
3 277 98 420 
3 470 201 398 
3 300 168 88 
3 378 84 129 
3 419 87 104 
3 57 58 459 
3 474 139 35 
3 169 459 302 
3 207 145 483 
3 322 85 194 
3 453 261 120 
3 141 95 72 
3 445 284 333 
3 394 304 443 
3 420 347 204 
3 35 55 465 
3 478 466 353 
3 190 156 492 
3 341 324 363 
3 369 260 213 
3 36 353 487 
3 283 476 61 
3 148 461 126 
3 222 180 126 
3 157 313 182 
3 145 362 427 
3 219 22 108 
3 85 81 344 
3 242 361 386 
3 211 229 426 
3 352 229 211 
3 289 63 50 
3 418 238 384 
3 396 1 182 
3 178 339 123 
3 236 125 338 
3 368 271 6 
3 143 295 78 
3 145 207 161 
3 139 474 212 
3 253 129 291 
3 499 487 37 
3 19 132 441 
3 77 233 318 
3 75 151 24 
3 57 151 58 
3 460 488 442 
3 126 461 355 
3 390 110 389 
3 498 500 13 
3 373 197 192 
3 80 356 280 
3 407 46 231 
3 397 170 85 
3 218 75 484 
3 349 464 34 
3 7 391 49 
3 269 239 186 
3 154 120 267 
3 41 202 184 
3 253 474 465 
3 53 108 225 
3 483 427 423 
3 259 130 198 
3 358 33 414 
3 154 267 292 
3 483 315 45 
3 41 410 393 
3 320 27 191 
3 321 237 67 
3 380 220 132 
3 31 281 16 
3 195 274 186 
3 277 249 98 
3 365 431 242 
3 316 244 232 
3 432 169 351 
3 29 102 17 
3 415 251 196 
3 419 384 227 
3 486 28 155 
3 404 452 30 
3 175 352 278 
3 93 237 432 
3 53 14 108 
3 183 164 41 
3 471 69 325 
3 294 56 138 
3 226 449 116 
3 192 166 458 
3 393 410 115 
3 99 87 477 
3 73 310 177 
3 140 71 298 
3 425 306 497 
3 500 129 13 
3 37 205 499 
3 160 408 135 
3 317 357 464 
3 227 166 87 
3 49 236 480 
3 259 198 493 
3 15 454 417 
3 10 226 440 
3 387 376 217 
3 25 392 307 
3 38 346 393 
3 152 371 308 
3 52 123 264 
3 23 39 119 
3 294 94 93 
3 334 266 286 
3 287 297 298 
3 212 260 463 
3 274 15 103 
3 467 340 424 
3 60 488 262 
3 432 294 93 
3 233 249 426 
3 18 350 189 
3 471 53 23 
3 343 378 92 
3 274 227 107 
3 326 321 439 
3 31 436 203 
3 405 137 48 
3 360 185 202 
3 266 265 188 
3 353 76 487 
3 476 283 492 
3 64 156 472 
3 39 99 66 
3 138 415 196 
3 329 453 348 
3 457 239 112 
3 257 441 433 
3 360 131 469 
3 193 4 40 
3 336 375 226 
3 473 183 189 
3 165 297 391 
3 109 148 180 
3 131 462 446 
3 356 86 240 
3 228 409 463 
3 320 191 28 
3 185 360 469 
3 193 161 305 
3 335 200 395 
3 22 219 288 
3 196 264 398 
3 217 422 387 
3 232 21 254 
3 362 245 427 
3 339 402 91 
3 365 242 386 
3 259 435 230 
3 164 183 163 
3 153 416 469 
3 451 199 270 
3 474 35 465 
3 177 91 308 
3 280 491 144 
3 429 149 301 
3 330 399 345 
3 345 306 498 
3 61 11 136 
3 222 439 111 
3 50 425 497 
3 238 308 402 
3 270 399 451 
3 285 445 348 
3 90 249 358 
3 22 261 225 
3 436 42 327 
3 209 234 467 
3 168 82 316 
3 432 237 321 
3 246 166 192 
3 348 453 120 
3 313 76 364 
3 96 456 301 
3 481 29 40 
3 29 17 40 
3 391 33 125 
3 142 400 389 
3 466 113 341 
3 375 449 226 
3 137 288 48 
3 37 157 216 
3 442 488 240 
3 227 384 107 
3 124 264 123 
3 144 491 278 
3 121 416 354 
3 246 477 166 
3 456 429 301 
3 333 122 445 
3 452 323 30 
3 400 116 208 
3 397 112 149 
3 341 327 353 
3 319 64 472 
3 56 294 351 
3 460 235 190 
3 80 501 118 
3 453 323 452 
3 286 479 334 
3 202 230 360 
3 13 345 498 
3 351 294 432 
3 443 304 303 
3 416 185 469 
3 225 261 404 
3 385 168 300 
3 17 47 40 
3 70 298 174 
3 450 2 403 
3 160 372 408 
3 221 366 220 
3 100 307 392 
3 429 85 170 
3 490 433 441 
3 147 326 439 
3 85 322 81 
3 7 86 290 
3 321 67 439 
3 127 90 414 
3 227 274 195 
3 455 10 440 
3 296 369 312 
3 295 162 78 
3 70 412 374 
3 49 86 7 
3 63 289 117 
3 312 369 213 
3 314 255 73 
3 163 273 97 
3 19 456 96 
3 98 127 347 
3 315 423 263 
3 15 106 454 
3 57 444 309 
3 165 158 174 
3 204 416 420 
3 68 205 37 
3 68 248 273 
3 252 253 291 
3 218 187 58 
3 94 294 196 
3 478 36 499 
3 374 210 62 
3 211 277 278 
3 486 155 172 
3 232 244 44 
3 75 314 484 
3 422 244 388 
3 73 177 371 
3 412 501 446 
3 393 346 130 
3 19 257 456 
3 112 344 457 
3 169 65 351 
3 462 131 360 
3 324 341 140 
3 74 494 368 
