ply
format ascii 1.0
comment created by MATLAB plywrite
element vertex 502
property float x
property float y
property float z
property float nx
property float ny
property float nz
element face 1000
property list uchar short vertex_indices
end_header
-14.322695 -13.822983 19.099904 -0.624760 -0.658282 -0.419928 
15.102190 -202.408388 219.344684 0.802383 -0.556464 -0.215708 
2.885159 -203.295369 227.148879 -0.724954 0.051230 0.686890 
1.477557 -74.740420 94.828667 0.488547 0.603774 0.629903 
2.760327 -191.820576 232.105776 -0.683165 0.409515 0.604635 
1.275297 -192.111986 228.563067 -0.878799 -0.169898 0.445923 
5.092279 16.873161 35.730408 -0.205712 0.917437 0.340575 
1.529359 -130.081905 155.215753 0.108546 0.787096 0.607205 
-21.356275 -227.816935 226.851826 -0.541779 -0.840509 0.004578 
5.618347 -21.707173 29.165670 0.774269 -0.605723 -0.183320 
0.662788 -103.410673 103.851893 0.247596 -0.685592 -0.684587 
-1.920228 -75.384132 96.962558 -0.106746 0.688712 0.717134 
-11.836360 -214.287644 211.492210 0.301388 -0.048017 -0.952292 
-16.267480 -226.476035 218.477052 0.027436 -0.848776 -0.528039 
-26.433955 -4.080361 34.728941 -0.927949 -0.363797 0.081010 
8.326220 -14.218851 41.891772 0.852477 -0.262207 0.452250 
5.328718 -172.982590 212.084480 -0.028892 0.741909 0.669878 
8.733245 -177.128073 214.812907 0.500846 0.700481 0.508409 
-0.046520 -174.993278 183.424889 -0.003391 -0.751924 -0.659241 
6.854055 -1.618068 10.243036 0.277374 0.245431 -0.928885 
-0.220147 12.598266 35.056672 -0.779715 0.514196 0.357278 
-19.939235 -206.999758 236.885837 -0.340607 0.469913 0.814351 
-19.926895 7.085444 12.493018 -0.763189 -0.001134 -0.646174 
-22.069725 -9.734570 37.889564 -0.703278 -0.406554 0.583192 
2.602609 -62.372785 82.195226 0.575779 0.538322 0.615377 
-6.416775 -6.338969 14.728388 0.271782 -0.092373 -0.957915 
-2.349149 5.906390 33.959966 -0.861873 0.439867 0.252373 
12.861775 -185.891205 219.854811 0.870516 0.453859 0.190299 
11.428525 -203.482663 233.120467 0.697604 -0.178555 0.693878 
10.702515 -184.575005 223.096867 0.642119 0.608443 0.466348 
-13.834155 -9.522782 12.312874 -0.511639 -0.486607 -0.708123 
5.824333 -168.036152 207.573931 0.269419 0.821296 0.502877 
6.936185 -137.603922 151.671233 0.996493 0.082694 0.012758 
6.682490 -130.183174 143.569077 0.998964 0.039073 -0.023310 
1.148933 -165.504864 173.104313 0.101925 -0.757200 -0.645181 
-8.995025 -216.929689 236.519690 0.784933 -0.003700 0.619570 
9.089045 -184.870650 200.495243 0.734033 -0.339355 -0.588246 
9.450455 -193.991015 206.851051 0.256555 -0.496877 -0.829031 
-12.214075 -173.625298 201.406534 -0.667584 -0.106888 -0.736822 
-17.331715 -15.227122 42.313275 -0.521794 0.097590 0.847471 
5.596308 -183.508174 226.173700 0.151281 0.723527 0.673515 
-6.168145 -178.425631 196.488677 -0.910293 -0.187307 -0.369165 
9.491085 -173.840066 200.488009 0.959701 0.280816 -0.010791 
-4.693815 -76.149370 77.315086 -0.255659 -0.680387 -0.686813 
-19.180065 -201.256493 230.757726 -0.217636 0.905901 0.363286 
-4.593265 -195.341349 222.864952 -0.247245 0.473405 0.845434 
-0.339084 -196.718112 224.422004 -0.080717 0.137350 0.987228 
5.113485 -178.206812 217.896711 0.043168 0.826194 0.561729 
-23.311495 14.585877 20.620157 -0.862269 0.304793 -0.404466 
0.328848 -125.978005 150.296163 0.128868 0.764532 0.631573 
-14.704440 -207.670463 212.449072 -0.049449 0.323356 -0.944985 
-7.963675 -84.606317 90.747218 -0.936056 -0.286010 -0.204931 
-3.548647 -21.484175 26.597125 -0.149021 -0.782519 -0.604530 
-24.737645 -6.596037 28.015842 -0.793994 -0.596773 -0.115909 
-18.172570 -17.760117 38.483483 -0.857512 -0.513525 0.031088 
-11.550755 -217.350661 239.586216 0.412705 -0.172995 0.894286 
-14.779575 -26.892697 45.866683 -0.919229 -0.191846 0.343821 
0.219267 -58.464483 80.342026 0.211500 0.647025 0.732548 
0.657792 -46.486074 69.986485 0.303321 0.602762 0.738020 
-7.080090 -57.936352 61.053314 -0.342520 -0.641017 -0.686860 
-6.183575 -110.372687 125.045158 -0.921846 0.264584 0.283188 
-0.052050 -81.437958 102.551527 0.259103 0.685318 0.680591 
-2.120476 -159.009141 188.428842 -0.452848 0.776355 0.438408 
-10.618570 -208.441735 212.724571 0.158280 0.151611 -0.975685 
5.565158 -99.692811 112.767212 0.958339 0.216276 0.186575 
-9.610425 -33.352350 55.895943 -0.551729 0.392753 0.735758 
-15.594405 -13.158102 42.090308 -0.059207 0.401086 0.914125 
-9.969220 -59.501691 65.864740 -0.828070 -0.428461 -0.361555 
6.680230 -200.055691 211.043040 0.128867 -0.588328 -0.798288 
-21.409040 -0.772433 39.458421 -0.228745 -0.242984 0.942674 
5.478591 -148.994207 176.249005 0.417623 0.733083 0.536825 
7.665780 -149.210055 167.694598 0.996847 0.073730 -0.029334 
-6.977335 -15.118505 18.087751 0.273279 -0.493683 -0.825588 
2.970922 -58.240879 63.281279 0.774885 -0.421211 -0.471311 
1.901817 9.410053 41.139995 -0.570862 0.388228 0.723461 
4.671329 -60.524585 76.880938 0.920321 0.248817 0.301828 
12.438405 -187.662259 208.734354 0.923880 0.280394 -0.260433 
5.966185 -118.637734 126.221148 0.949334 -0.208052 -0.235542 
-22.048050 -218.480643 238.675009 -0.528369 -0.189553 0.827585 
-26.683160 -0.940715 30.791208 -0.996762 -0.013261 -0.079313 
-6.034465 -146.915450 163.005898 -0.957920 0.201672 0.204247 
9.900135 17.641542 29.610670 0.155145 0.970692 -0.183541 
-10.363975 -199.071320 225.013595 -0.186914 0.800992 0.568748 
-12.796575 16.319207 33.685476 0.718631 0.643737 0.263007 
-18.213470 -228.695988 224.700584 -0.127582 -0.982396 -0.136459 
11.215240 14.021179 22.914565 0.730799 0.512215 -0.451186 
-2.075525 -127.911913 150.829800 -0.494154 0.642883 0.585247 
0.720781 -17.895443 46.991610 -0.134403 0.546494 0.826608 
-11.668135 -208.721061 237.387860 0.565672 0.356648 0.743517 
-7.436855 -92.952670 103.929405 -0.994702 0.037674 0.095643 
3.479989 -138.204245 141.954150 0.538674 -0.628029 -0.561614 
3.170028 -37.682524 45.122555 0.687823 -0.523668 -0.502664 
-15.620575 -226.366394 236.609252 0.182148 -0.721782 0.667722 
-11.922705 -46.386080 56.746094 -0.968562 -0.228869 -0.097500 
-11.040800 -43.726429 51.048486 -0.679943 -0.524476 -0.512448 
-11.472735 -14.399909 15.307951 -0.118429 -0.742405 -0.659401 
9.634125 -4.784243 12.343954 0.835313 -0.022473 -0.549315 
-7.819420 -202.548246 210.939426 -0.140541 -0.406016 -0.902995 
1.442175 -144.352887 147.674704 0.180704 -0.759693 -0.624670 
-12.526930 -23.821196 48.105746 -0.266190 0.471221 0.840889 
1.720897 -10.910004 12.221601 -0.367254 -0.263072 -0.892142 
-25.366960 -217.345248 227.128638 -0.939591 -0.318350 0.125783 
11.457765 -182.077192 214.503672 0.859374 0.499313 0.110287 
10.044440 -7.072733 41.882510 0.673262 -0.206904 0.709865 
0.377690 -29.575523 56.026704 -0.012484 0.611669 0.791015 
-25.780715 8.033782 31.775654 -0.982315 0.187090 -0.007357 
7.334500 -19.551713 42.004386 0.965248 -0.143819 0.218205 
5.857666 -17.237413 45.964380 0.620770 0.117114 0.775196 
-25.812660 -1.552892 25.307618 -0.909897 -0.218587 -0.352573 
-6.131410 -92.303415 107.963108 -0.853618 0.350113 0.385690 
1.186351 -66.900197 69.071952 0.437687 -0.602863 -0.667073 
-8.169125 -69.571152 73.774838 -0.684185 -0.540638 -0.489491 
11.469800 8.972972 36.970093 0.947501 0.206027 0.244528 
8.390220 -160.242139 180.570491 0.989245 -0.068812 -0.129068 
-17.868515 -213.611731 240.334121 -0.123656 0.065032 0.990192 
-10.398110 -179.387495 203.973073 -0.508880 -0.483017 -0.712556 
-3.548952 -91.986406 92.690661 -0.250804 -0.675099 -0.693786 
-8.003645 -208.922507 213.590923 0.270926 -0.152091 -0.950509 
-3.873434 -138.132671 158.919441 -0.720255 0.516517 0.463080 
-19.969520 -7.419986 39.217908 -0.106280 -0.010501 0.994281 
-12.745370 10.551891 13.597394 0.400217 0.564309 -0.722068 
-2.428415 -170.609123 179.534453 -0.296747 -0.720526 -0.626725 
-8.075090 2.568607 32.763347 0.252460 0.898890 0.358135 
0.969474 -27.425940 31.828938 0.161662 -0.760693 -0.628658 
1.153975 -33.743683 38.909817 0.324818 -0.676328 -0.661116 
5.301831 -121.380588 138.513763 0.862752 0.409122 0.297118 
-7.767500 -72.759818 87.428399 -0.873767 0.270731 0.404024 
5.966215 -146.759934 155.531859 0.795975 -0.454217 -0.400139 
-1.720864 -88.502195 110.006386 -0.199478 0.682546 0.703093 
-13.686850 -228.141540 222.579987 0.284428 -0.927309 -0.243307 
-7.956220 -167.630485 198.057813 -0.731402 0.601741 -0.320871 
-6.045880 -153.498515 169.776163 -0.967892 0.197128 0.155967 
6.345220 -8.463833 10.006348 0.175838 -0.142283 -0.974082 
-15.631810 -20.536400 33.685067 -0.688248 -0.668788 -0.281137 
3.876596 -106.242002 109.326245 0.645244 -0.530941 -0.549329 
-16.382285 -204.272791 214.889374 -0.356111 0.609768 -0.708074 
-3.096966 -87.073666 107.929898 -0.416343 0.633569 0.652111 
-19.439835 9.892379 12.471187 -0.437963 0.422880 -0.793323 
-16.076875 -23.310836 40.220924 -0.850804 -0.482200 -0.208843 
-6.832620 -216.954466 230.075673 0.864701 -0.030958 0.501333 
7.950810 -153.033966 176.177451 0.924168 0.345882 0.162111 
-4.676590 -17.533532 21.285085 -0.047100 -0.792157 -0.608497 
2.107387 -86.649813 88.569873 0.484542 -0.602234 -0.634455 
-25.779135 -217.753835 233.399350 -0.908205 -0.265645 0.323413 
-5.287550 -143.400796 151.064158 -0.829327 -0.434417 -0.351424 
-4.738630 -178.015092 214.167730 -0.380726 0.443530 0.811375 
7.351540 -17.036059 16.216202 0.662150 -0.691711 -0.288260 
-9.093110 -70.688158 81.301686 -0.976702 0.032992 0.212050 
-5.305295 -81.123698 99.641518 -0.687969 0.480854 0.543579 
14.116170 4.748046 26.791723 0.940060 0.296286 -0.168827 
2.648480 11.936621 20.753912 -0.381455 0.689759 -0.615405 
2.780594 -52.963121 73.987455 0.577923 0.527714 0.622513 
5.249464 -40.246897 57.241487 0.999802 -0.000124 0.019912 
-5.777670 -151.134193 161.362597 -0.875482 -0.384288 -0.293009 
-12.920550 13.706025 16.807620 0.478213 0.711638 -0.514669 
6.521680 -207.531498 235.953264 0.073045 -0.568988 0.819095 
4.059418 -102.813024 119.858731 0.725022 0.512883 0.459668 
13.052745 -198.241116 209.894894 0.501364 -0.560973 -0.658744 
1.549332 -141.842633 169.090364 -0.083332 0.766934 0.636292 
-6.531410 -127.150145 139.682457 -0.923678 0.271075 0.270810 
-18.180305 -202.055483 220.115450 -0.410883 0.854156 -0.318735 
0.344717 -179.614092 219.387608 -0.397268 0.687274 0.608139 
-20.210145 -225.255062 236.429197 -0.375292 -0.690780 0.618044 
-6.695180 -194.288180 205.875371 -0.458066 -0.455412 -0.763397 
-6.661425 -186.454268 201.293343 -0.836607 -0.202503 -0.508999 
3.073859 -135.464074 161.051296 0.330090 0.753222 0.568944 
-4.446255 -8.547969 39.460755 -0.162201 0.389982 0.906424 
6.994590 -153.737580 166.708806 0.921689 -0.274209 -0.274405 
-9.513060 -203.615117 230.508581 0.383826 0.689347 0.614393 
-8.783445 -39.449678 60.898580 -0.589646 0.436169 0.679761 
12.220035 9.077808 25.189396 0.928060 0.331336 -0.170061 
8.740475 -173.392702 209.432325 0.860477 0.485305 0.155110 
5.195748 -208.160913 231.893566 -0.715539 -0.674802 0.180682 
10.473060 -8.853375 23.842069 0.953229 -0.291630 -0.079415 
3.766668 -140.180370 166.337946 0.443666 0.717292 0.537264 
-6.921045 -117.421454 125.587609 -0.977428 -0.169794 -0.125716 
3.649050 -210.338730 226.222599 -0.256150 -0.517951 0.816158 
1.924630 -48.687294 53.282965 0.605200 -0.524644 -0.598733 
3.670834 -22.280790 25.220464 0.229673 -0.889567 -0.394868 
-20.378490 19.810362 26.815883 -0.275209 0.952561 -0.129950 
-8.231230 -79.340028 90.438912 -0.968875 0.132521 0.209092 
-4.976440 3.300395 25.955788 -0.363914 0.926950 0.091266 
16.403490 -198.978857 217.144771 0.932483 -0.330666 -0.145379 
-4.643880 -181.527167 194.262345 -0.702328 -0.444020 -0.556400 
-3.960885 -174.213339 185.155382 -0.726597 -0.518761 -0.450492 
-5.010045 -167.830699 179.859689 -0.872973 -0.383463 -0.301453 
10.065555 -0.856988 41.864138 0.479183 -0.019811 0.877491 
2.356367 -42.123884 65.487240 0.471276 0.523550 0.709785 
-10.057160 -0.315618 36.611810 0.382724 0.348085 0.855780 
-3.385286 -183.749617 195.024788 -0.406473 -0.665567 -0.625940 
1.480703 -108.333879 129.168910 0.283284 0.722299 0.630900 
11.951670 -196.985459 232.057734 0.769211 0.257955 0.584615 
-6.874690 -1.672622 36.776594 -0.148503 0.340392 0.928483 
3.543231 -183.287293 226.213420 -0.136608 0.742136 0.656180 
7.435625 11.124835 18.165912 0.081791 0.649741 -0.755743 
4.482047 -3.978151 41.781075 -0.139079 -0.044280 0.989291 
-11.780595 -36.192410 44.682537 -0.570948 -0.578058 -0.582981 
-4.915095 2.742568 33.186291 -0.346940 0.814870 0.464348 
-10.071600 -169.118497 206.175392 -0.251172 0.863828 0.436707 
-27.480265 -213.458702 225.447712 -0.948991 -0.270869 0.161389 
-1.515927 12.547257 28.883577 -0.734494 0.668000 -0.119559 
-1.459569 -49.409294 51.962042 0.072937 -0.664863 -0.743395 
-5.409775 -173.773797 189.202803 -0.951586 -0.228607 -0.205480 
3.475454 -164.774313 199.968097 0.043692 0.892687 0.448554 
0.719265 -154.680348 159.953040 0.020206 -0.772535 -0.634651 
4.196251 -189.594270 201.076754 0.196239 -0.686901 -0.699755 
4.532991 -40.742943 61.679456 0.847476 0.297194 0.439841 
-1.603948 -185.943267 220.812005 -0.716944 0.271344 0.642156 
-6.880570 -83.944465 87.077639 -0.582074 -0.589755 -0.559803 
7.115520 -200.062503 237.179258 0.359346 -0.006538 0.933182 
-3.150288 -156.139305 182.682944 -0.577583 0.689764 0.436604 
-2.298114 -129.246617 130.981516 -0.295483 -0.711402 -0.637650 
-4.345425 -216.441160 223.239880 0.839937 -0.542421 0.016878 
-2.231657 -212.605034 218.724098 0.175865 -0.805238 -0.566271 
-9.869195 -188.052488 209.779850 -0.960581 0.045472 -0.274256 
4.803911 -67.391163 82.807970 0.902456 0.297023 0.312011 
10.767835 -202.438190 213.086703 0.303426 -0.640408 -0.705556 
-24.095825 -205.731004 232.136286 -0.669996 0.598586 0.439089 
4.385285 -50.486529 69.484998 0.785309 0.382432 0.486863 
-25.701925 4.456372 24.215240 -0.935190 0.091727 -0.342060 
5.372598 -14.846418 12.816477 -0.064874 -0.590130 -0.804698 
4.301018 -18.780156 17.046201 -0.042807 -0.847793 -0.528596 
-8.684530 -75.200956 81.777533 -0.971355 -0.218537 -0.093333 
-13.524705 -177.275526 204.849690 -0.896953 -0.329228 -0.295102 
-9.876665 -183.718988 207.273396 -0.798356 -0.444295 -0.406485 
-22.383370 -5.092695 20.963565 -0.720713 -0.428472 -0.544963 
-3.873156 -104.205264 105.134910 -0.397499 -0.665427 -0.631824 
2.696074 -12.679077 44.222761 -0.082010 0.391848 0.916368 
-0.841860 -210.475703 226.351329 0.248377 -0.343664 0.905651 
-2.225121 -116.580851 117.206026 -0.214488 -0.711219 -0.669449 
-6.110930 -166.163621 192.409110 -0.973553 0.162589 -0.160499 
4.628045 -196.875364 226.188622 -0.865687 -0.177334 0.468123 
-14.783010 -202.999712 234.450225 0.115285 0.823842 0.554971 
4.112903 -125.278341 128.666091 0.637508 -0.567502 -0.521080 
4.295993 -195.998998 236.727708 -0.035516 0.480548 0.876249 
-1.173932 -111.268558 133.416120 -0.074295 0.750573 0.656598 
2.422089 -120.086656 142.050632 0.533229 0.653482 0.537241 
-11.115280 -53.301042 61.856441 -0.932200 -0.314742 -0.178719 
6.023495 -26.418080 47.731669 0.985137 -0.068973 0.157317 
8.491955 5.794766 43.676588 0.450658 0.055772 0.890953 
-3.100816 -120.992694 142.326692 -0.652820 0.550263 0.520612 
-20.790545 -10.059743 24.598552 -0.642570 -0.673368 -0.365622 
-22.357380 15.101076 38.737543 -0.436268 0.592863 0.676893 
13.652110 -3.496582 37.537064 0.871828 -0.252043 0.419988 
-16.081345 -200.754029 224.634547 -0.183991 0.979937 -0.076617 
-13.463690 -176.196670 207.976264 -0.870603 0.033650 0.490834 
-12.457385 -6.262495 37.830683 0.075952 0.228285 0.970627 
12.563235 -209.203097 222.087241 0.665151 -0.715544 -0.213471 
1.488713 -206.392971 213.636483 0.116377 -0.501943 -0.857035 
0.266153 -133.747247 135.392313 0.152340 -0.734211 -0.661609 
-3.959255 -172.898880 209.481562 -0.085315 0.782292 0.617042 
-8.912340 -23.472473 30.019666 -0.237946 -0.739586 -0.629598 
-5.588695 -221.762711 225.922164 0.850711 -0.524430 0.035568 
-9.341235 -226.511661 226.802554 0.589436 -0.805031 0.067012 
-14.398340 -210.191301 239.346311 0.126178 0.342111 0.931149 
3.563832 -69.260210 74.219127 0.810038 -0.393476 -0.434759 
-12.747535 16.974378 24.480537 0.707236 0.693593 -0.136920 
6.774215 3.767384 12.386140 0.079089 0.555607 -0.827675 
2.328173 -194.905528 230.992301 -0.979935 -0.118867 -0.159996 
-5.239365 -164.922468 195.516227 -0.516730 0.832164 0.201229 
2.208303 -212.585200 222.926971 0.117757 -0.928876 0.351174 
-17.532150 3.819306 10.255526 -0.342198 0.040339 -0.938762 
-4.120785 -94.839686 114.142953 -0.569643 0.570598 0.591544 
-11.890370 -194.625264 216.292127 -0.801519 0.579299 0.148257 
-5.154825 -35.887190 40.260909 -0.127495 -0.673517 -0.728093 
-14.732925 -2.045665 38.741260 0.228114 -0.276435 0.933567 
-13.218735 4.606756 39.761724 0.832997 0.021041 0.552877 
-18.054415 14.599482 15.646066 -0.007261 0.719193 -0.694773 
4.218438 -81.785502 98.365150 0.814443 0.413495 0.407067 
13.895460 3.244769 35.380955 0.895395 0.194621 0.400487 
-27.542050 -211.251485 221.874809 -0.962109 0.159912 -0.220849 
8.724125 13.938876 39.843991 0.248161 0.629510 0.736297 
2.969553 -77.977064 81.242368 0.694174 -0.486122 -0.530855 
-3.889231 -200.265779 209.095982 -0.021102 -0.540000 -0.841400 
7.222000 -10.936077 43.897868 0.310187 0.047316 0.949497 
11.065700 -8.086210 29.704467 0.901958 -0.429582 -0.043937 
4.625981 -161.340807 194.271889 0.383652 0.795014 0.469854 
-2.951908 -138.801451 142.291060 -0.352409 -0.721296 -0.596272 
-5.164515 -129.583004 134.196084 -0.759319 -0.500229 -0.416179 
-6.366605 -144.962610 157.701115 -0.993115 -0.088946 -0.076226 
-6.242475 -140.265002 154.616634 -0.994430 0.079749 0.068917 
-0.608582 -169.465034 205.287746 -0.169929 0.810014 0.561250 
-24.485535 15.007524 35.724714 -0.901510 0.351747 0.252100 
-0.771009 -94.606924 116.007947 0.053186 0.706243 0.705969 
-10.916015 11.127384 24.364022 0.931140 0.313852 0.185674 
-9.237715 8.697590 19.691257 0.829878 0.553802 -0.067860 
-12.346985 9.739746 32.042096 0.979919 0.061560 0.189653 
7.440725 -144.346791 161.536555 0.995875 0.089270 -0.016260 
-22.473680 10.025661 17.610337 -0.813493 0.160154 -0.559088 
-12.202510 -202.893411 212.407355 -0.341801 0.057378 -0.938019 
-0.271800 -135.311467 160.750902 -0.336002 0.714199 0.614022 
-6.709720 -222.244609 221.073193 0.733945 -0.596951 -0.323998 
-17.124440 18.237222 20.919786 0.142864 0.901476 -0.408572 
-11.353155 -196.327375 211.099540 -0.829158 0.193308 -0.524528 
-13.011775 -36.642266 48.282987 -0.964780 -0.256078 -0.060205 
-24.859505 -223.125910 230.751007 -0.837305 -0.477598 0.266119 
8.479395 -209.427933 218.546958 0.343985 -0.583606 -0.735580 
5.759461 -141.111521 164.744514 0.778894 0.533212 0.330165 
6.825775 -147.188335 171.268768 0.822909 0.486587 0.293348 
-3.680493 5.324070 19.958835 -0.223562 0.891714 -0.393531 
-9.316815 -208.803844 233.746697 0.721529 0.208747 0.660167 
11.128085 -2.262685 20.582560 0.953887 -0.118243 -0.275894 
-5.314850 -33.211748 57.953992 -0.231425 0.593600 0.770767 
5.157316 -76.735191 87.279965 0.995175 -0.056132 -0.080468 
4.691819 -85.661550 91.991044 0.881349 -0.307028 -0.359106 
0.819153 -183.722160 224.850274 -0.702163 0.413302 0.579783 
-18.098775 -218.503334 211.727523 -0.178521 -0.261871 -0.948448 
-3.724729 -13.745648 17.596188 -0.161018 -0.511893 -0.843824 
4.901449 -39.611662 51.792781 0.960095 -0.214196 -0.179825 
-0.985520 -66.204745 88.242274 0.110241 0.678274 0.726492 
-0.597775 -57.967648 59.948415 0.221097 -0.651123 -0.726055 
-23.963335 17.317972 32.213534 -0.604356 0.787590 0.120234 
3.159713 -211.150010 216.116267 0.170736 -0.630471 -0.757203 
14.916495 -195.007727 209.970350 0.745003 -0.099748 -0.659561 
4.688921 -66.060786 75.425296 0.980136 -0.118701 -0.158881 
-8.622920 -193.049032 218.869998 -0.501629 0.569737 0.650975 
-13.128530 -200.822951 227.501028 -0.045427 0.956111 0.289463 
6.331615 -171.865662 184.236921 0.693617 -0.520306 -0.498174 
4.174027 -114.540889 117.869172 0.710589 -0.491835 -0.503152 
5.420697 -102.828291 109.566284 0.932202 -0.239861 -0.271047 
14.593635 -198.601856 226.795044 0.917394 0.053973 0.394304 
-10.207385 -54.893812 68.620537 -0.955467 0.089871 0.281079 
4.691935 15.714181 24.161808 -0.185295 0.861132 -0.473410 
-11.777745 -7.238540 10.830438 0.243643 -0.237856 -0.940246 
6.930750 -153.782398 180.996008 0.596403 0.688137 0.413244 
-26.532875 0.526525 36.982621 -0.860062 -0.047847 0.507940 
-8.658530 -61.304053 76.656236 -0.870170 0.271086 0.411480 
8.460515 -166.702073 195.051864 0.891400 0.394364 0.223344 
-15.887045 -220.654656 240.016405 -0.029805 -0.364451 0.930746 
-5.618510 1.461358 15.471311 0.186342 0.502817 -0.844069 
-24.321200 -221.061402 218.071979 -0.720597 -0.580899 -0.378546 
-18.485245 -16.227240 41.195883 -0.810943 -0.269630 0.519299 
-4.784490 -208.914284 215.114069 0.197489 -0.482225 -0.853497 
-12.048105 3.390735 36.833825 0.791556 0.501918 0.348593 
-12.381950 11.614013 37.536305 0.890275 0.159881 0.426436 
-2.737510 7.214716 29.144736 -0.903293 0.429022 -0.001747 
-6.537170 -104.930930 109.568768 -0.888553 -0.347743 -0.299247 
-15.269105 19.059435 32.051872 0.310789 0.942731 0.121115 
5.829930 -114.666300 128.758948 0.926889 0.297720 0.228561 
4.137502 -26.791002 34.328789 0.651673 -0.635798 -0.413622 
1.448802 -198.903594 234.522899 -0.991459 0.127018 -0.029575 
8.980040 -163.710276 188.460746 0.988161 0.149738 0.033404 
6.554330 -213.534147 224.725531 -0.082403 -0.958381 0.273341 
-17.279995 -228.853333 231.332126 -0.115257 -0.949494 0.291852 
11.811490 16.180981 33.549764 0.845582 0.523759 0.103288 
-20.609915 -224.253940 216.859728 -0.358306 -0.715115 -0.600190 
-11.789730 -169.305888 202.746405 -0.838010 0.508810 -0.197108 
3.019838 -151.601768 157.256652 0.313671 -0.728010 -0.609600 
-6.761765 5.423602 18.939781 0.469470 0.843906 -0.259655 
5.099522 -158.490798 167.601164 0.537422 -0.645477 -0.542712 
-0.507176 -186.319834 196.407437 -0.011336 -0.740052 -0.672454 
-12.087445 -36.970105 54.270709 -0.867952 0.126394 0.480295 
-5.684860 -118.565425 122.733691 -0.717844 -0.517792 -0.465394 
9.793095 -180.286872 199.912383 0.955421 -0.055569 -0.289971 
-0.754450 -159.682170 166.334650 -0.194168 -0.750450 -0.631762 
-5.785035 -62.380894 82.250969 -0.616344 0.498269 0.609793 
-5.138190 -132.646243 150.183456 -0.842999 0.397730 0.362164 
3.635044 -177.066834 187.170160 0.322880 -0.705317 -0.631092 
4.501205 -134.094567 138.925898 0.736902 -0.489445 -0.466282 
-22.507745 -201.643415 226.928148 -0.410942 0.911476 0.018389 
-5.660420 -168.940123 185.522617 -0.993065 -0.093174 -0.071693 
-24.627730 6.305333 39.299610 -0.767832 0.032663 0.639818 
-11.827350 -173.079860 208.479119 -0.572140 0.425484 0.701155 
8.166810 -159.879415 187.381561 0.813471 0.489381 0.314279 
16.473165 -194.976211 215.619543 0.987718 0.155943 -0.009693 
-16.371400 14.509907 39.934294 0.274152 0.597640 0.753437 
-0.003882 -19.915869 22.009078 -0.282942 -0.776666 -0.562791 
-6.706240 -125.342844 134.402504 -0.993183 -0.098324 -0.062611 
5.530905 11.235933 42.254691 -0.166299 0.426201 0.889211 
5.104477 -212.573606 219.148140 0.209749 -0.923706 -0.320581 
-7.803165 -89.494884 98.795415 -0.994194 0.027684 0.103984 
4.398494 -51.413907 61.177332 0.928930 -0.262491 -0.261127 
-15.125360 -199.991463 221.193288 -0.453914 0.890340 0.035465 
-2.454702 1.294333 37.852456 -0.674077 0.264644 0.689626 
1.900863 -154.631847 185.082057 -0.080216 0.818237 0.569257 
-7.344305 -93.644936 99.156062 -0.900279 -0.347580 -0.262082 
-25.020550 -210.978648 234.590146 -0.726692 0.189974 0.660173 
-6.532765 -65.829346 68.330503 -0.384157 -0.641682 -0.663828 
-12.686545 -228.460603 229.589434 0.271131 -0.937313 0.218935 
4.253025 16.848398 30.317389 -0.304758 0.942061 -0.140154 
8.765055 -11.971424 13.114322 0.741904 -0.360185 -0.565548 
-25.101655 -222.169943 224.996691 -0.869899 -0.485601 0.086417 
-7.842295 -50.234627 69.707697 -0.641388 0.462591 0.612071 
2.678648 -199.932586 224.832918 -0.377763 0.188458 0.906520 
5.515732 -21.894157 48.650226 0.690437 0.296035 0.660045 
-6.070285 -203.525948 228.499350 0.290804 0.351539 0.889861 
-20.808190 6.553468 43.197835 -0.206404 -0.082310 0.974999 
-27.175245 -211.411893 229.541450 -0.951978 0.191692 0.238729 
-24.650455 -204.804047 219.007225 -0.540062 0.688374 -0.484226 
-0.111715 -79.074146 79.773357 0.216290 -0.673509 -0.706827 
-1.597532 -67.157071 68.307826 -0.006091 -0.676790 -0.736151 
5.220226 -131.517900 152.020213 0.731381 0.561388 0.387202 
-4.348710 -5.983954 15.159827 -0.220753 -0.105505 -0.969607 
-7.660390 -172.048142 197.618853 -0.739701 -0.110524 -0.663797 
5.433644 -94.415992 102.943035 0.981771 -0.116300 -0.150331 
-1.511741 7.702592 21.026393 -0.608130 0.668297 -0.428435 
13.437695 -203.262944 228.791657 0.903211 -0.282085 0.323479 
11.396665 9.880725 30.631298 0.966676 0.254917 0.023560 
-5.862455 -45.513048 49.211670 -0.238470 -0.644857 -0.726148 
-24.058610 -216.136899 214.487275 -0.697782 -0.125566 -0.705219 
-1.398715 -89.237647 89.563673 -0.031210 -0.694095 -0.719207 
5.281537 -89.930471 103.158122 0.951068 0.231370 0.204789 
5.707093 -27.562587 41.373252 0.926172 -0.342780 -0.157186 
5.662431 -210.886474 228.076277 -0.658335 -0.577432 0.482875 
-16.646180 -7.593755 15.672556 -0.692113 -0.423506 -0.584485 
-22.209140 17.430636 21.262878 -0.487011 0.732697 -0.475370 
-24.339780 15.261487 27.437556 -0.877947 0.452006 -0.157794 
-1.730024 -193.099002 223.433102 -0.518771 0.049388 0.853486 
-14.883990 -201.299372 215.591757 -0.674667 0.538947 -0.504341 
-5.556870 -208.985907 229.069758 0.603481 -0.098094 0.791321 
-7.941825 -183.080443 203.838393 -0.817839 -0.234246 -0.525612 
1.572271 -161.127668 194.145673 -0.103888 0.855205 0.507771 
-0.115503 -148.317275 176.102201 -0.356172 0.747813 0.560283 
0.255277 -205.144414 226.449259 0.012357 0.061663 0.998021 
6.248395 -137.957167 146.980614 0.890088 -0.321023 -0.323555 
-11.927930 -24.008285 32.676247 -0.546881 -0.684516 -0.482037 
-4.067495 -157.982324 166.401280 -0.549775 -0.643247 -0.532899 
10.752135 -8.085653 40.032235 0.852729 -0.434919 0.289307 
4.825616 -31.435029 54.738017 0.864220 0.243404 0.440316 
2.828028 -22.738568 50.514071 0.220280 0.522973 0.823393 
-1.933132 -148.729960 153.457980 -0.292764 -0.740475 -0.604968 
-15.446075 6.678181 42.485416 0.439082 -0.035303 0.897753 
-25.130375 -203.997608 223.790400 -0.708537 0.699487 -0.093238 
-9.479995 -188.659363 214.463273 -0.801871 0.325048 0.501344 
1.311900 -201.973713 237.220521 -0.942369 -0.306485 0.134194 
-17.094635 -213.062964 210.719469 -0.029117 0.131024 -0.990952 
0.959507 -119.675940 120.404641 0.191640 -0.711867 -0.675662 
-7.791380 -179.522789 212.749320 -0.570212 0.146197 0.808384 
3.105129 -205.289264 236.759879 -0.444004 -0.649318 0.617451 
10.963070 6.101560 20.091622 0.846580 0.220871 -0.484270 
-12.846895 -17.488323 23.807410 -0.420185 -0.804341 -0.420096 
-19.195095 18.354831 35.327196 -0.099133 0.926435 0.363167 
-11.964330 -42.731788 57.049612 -0.932302 0.121030 0.340829 
3.912378 3.841659 13.299052 -0.223934 0.574733 -0.787106 
8.347460 7.209170 16.634115 0.424244 0.545151 -0.723068 
-5.025540 -160.676320 185.667266 -0.829205 0.511139 0.226177 
6.606390 -166.898278 201.507538 0.681512 0.684898 0.257791 
0.272598 -36.617386 61.877397 0.073176 0.624644 0.777474 
-5.732785 -213.956063 217.122803 0.594070 -0.398822 -0.698586 
-9.869015 -64.766057 72.747751 -0.989185 -0.145338 -0.019761 
0.229394 -98.293949 98.481488 0.158714 -0.695910 -0.700371 
3.125837 -3.634558 10.184424 -0.278388 0.202634 -0.938850 
-2.559632 -112.023808 133.445699 -0.456554 0.651142 0.606278 
5.398683 -87.582042 97.699802 0.999240 0.037559 -0.010475 
-3.262314 -58.789485 80.942925 -0.235803 0.655522 0.717418 
-9.751890 4.047817 30.148788 0.599394 0.762171 0.244585 
-4.965025 -156.040297 178.274507 -0.813749 0.491399 0.310386 
14.797320 -0.053614 32.121870 0.983043 -0.174649 -0.055893 
-8.292035 -192.503691 206.512910 -0.711324 -0.147479 -0.687218 
-6.129645 -90.211779 92.894737 -0.637524 -0.569795 -0.518552 
3.348100 -202.135980 229.905460 -0.972738 -0.177566 -0.149171 
-26.730540 -218.413856 221.483381 -0.929744 -0.307347 -0.202765 
-14.683830 -2.225905 10.058262 -0.275616 -0.114882 -0.954378 
-9.492235 1.959164 12.297023 0.419779 0.290691 -0.859816 
7.495305 -18.482191 33.884540 0.921348 -0.388737 0.000933 
3.904968 -97.472601 100.920122 0.694442 -0.490043 -0.526885 
9.367730 2.025174 13.266612 0.717500 0.330009 -0.613422 
11.204750 14.620181 37.175828 0.666853 0.510473 0.542885 
0.419043 -4.720432 39.627883 -0.358941 0.060239 0.931414 
-3.181332 -49.293890 72.269681 -0.186831 0.626003 0.757110 
-2.331251 -103.317981 124.428658 -0.243226 0.700414 0.671016 
-4.245535 -69.371235 89.969893 -0.461001 0.591305 0.661693 
-5.553270 -162.995704 185.191162 -0.980781 0.183496 0.066310 
-4.396305 -214.515091 226.256288 0.550921 -0.500479 0.667838 
4.485696 -167.622743 177.214805 0.375780 -0.697869 -0.609728 
-8.175435 -223.512639 232.530686 0.561720 -0.613789 0.554737 
7.917270 -165.183547 181.949112 0.924080 -0.245443 -0.292973 
2.348573 -200.058045 238.459070 -0.382884 0.075636 0.920695 
-10.223180 -182.951739 209.624570 -0.931676 -0.227070 0.283582 
-5.972375 -155.053643 167.443423 -0.955898 -0.235078 -0.176062 
-1.216265 -41.051164 44.556515 0.193424 -0.647527 -0.737086 
-23.917240 -6.906511 38.510903 -0.563203 -0.443825 0.697009 
6.084790 -108.818319 119.680861 0.999369 0.035447 -0.002288 
-3.004073 -192.124997 202.570269 -0.143872 -0.656433 -0.740538 
-6.425205 -221.527758 231.645111 0.867573 -0.290695 0.403502 
-2.700998 2.788648 16.452222 -0.198622 0.612516 -0.765097 
3.409493 -89.669462 107.316273 0.643717 0.547415 0.534757 
-9.790515 -17.799630 44.343616 -0.049918 0.497513 0.866019 
7.632485 -173.557441 188.410202 0.796561 -0.389020 -0.462767 
-11.753340 15.307063 28.041010 0.964382 0.258134 0.057746 
-0.274592 -119.854191 143.255725 -0.107740 0.747697 0.655241 
8.488000 -195.937302 235.426935 0.476816 0.347992 0.807186 
-7.199515 -106.432797 116.071742 -0.999691 -0.020552 0.014003 
-5.740955 -185.329950 216.490120 -0.527205 0.334992 0.780920 
4.940578 -52.228078 66.192188 0.998789 -0.047135 -0.014123 
6.518455 -124.263185 134.322539 0.987537 -0.106671 -0.115720 
9.044595 -211.643244 231.352368 0.223363 -0.813944 0.536288 
11.467820 -190.451873 206.219837 0.686256 -0.199868 -0.699361 
-4.611350 -111.217593 129.700221 -0.721959 0.490490 0.488052 
4.211228 -75.613086 92.211308 0.831983 0.387875 0.396683 
-3.105990 -2.012499 14.716382 -0.172007 0.254780 -0.951578 
-6.587585 -135.970473 147.823526 -0.998591 -0.052957 -0.003266 
0.201364 -99.921836 121.126410 0.309384 0.683090 0.661566 
-4.811455 -168.030490 202.842578 -0.049152 0.874013 0.483411 
2.337429 1.750690 42.826110 -0.353430 -0.102677 0.929809 
2.814068 -30.274265 56.020658 0.397237 0.537512 0.743830 
-13.536390 -27.297305 48.691879 -0.715410 0.149950 0.682425 
-21.216715 -209.668009 212.043360 -0.325915 0.320990 -0.889238 
-14.018390 -220.920553 213.118143 0.128936 -0.541884 -0.830505 
7.079975 -185.458823 198.755655 0.516751 -0.550141 -0.655983 
-9.987815 -222.675530 216.606239 0.476987 -0.589382 -0.652006 
-2.904260 -144.495617 168.062277 -0.675343 0.568741 0.469516 
3 4 305 5 
3 135 289 50 
3 7 165 391 
3 229 10 426 
3 220 366 307 
3 295 8 162 
3 157 182 1 
3 161 207 305 
3 63 12 50 
3 325 79 14 
3 406 405 48 
3 16 47 17 
3 262 283 128 
3 60 482 175 
3 339 178 9 
3 158 412 70 
3 448 293 214 
3 3 24 309 
3 37 216 68 
3 95 0 30 
3 203 281 31 
3 32 414 33 
3 159 60 367 
3 420 416 153 
3 313 487 76 
3 32 297 287 
3 268 476 401 
3 5 207 407 
3 284 256 479 
3 278 352 211 
3 391 236 49 
3 141 366 52 
3 104 302 437 
3 402 339 9 
3 349 34 204 
3 187 218 206 
3 119 265 69 
3 5 305 207 
3 65 99 496 
3 59 67 237 
3 369 342 260 
3 94 398 59 
3 285 120 154 
3 119 69 471 
3 496 39 56 
3 62 259 411 
3 461 11 309 
3 55 88 254 
3 153 80 279 
3 250 198 145 
3 35 88 55 
3 360 230 462 
3 93 94 237 
3 51 370 180 
3 94 196 398 
3 401 476 64 
3 99 104 87 
3 430 95 141 
3 381 8 295 
3 248 68 296 
3 115 38 393 
3 481 28 191 
3 127 32 287 
3 82 372 316 
3 240 488 159 
3 58 187 437 
3 458 195 494 
3 117 289 97 
3 304 455 142 
3 414 90 358 
3 80 280 279 
3 181 335 395 
3 215 24 3 
3 251 430 141 
3 398 264 470 
3 406 282 311 
3 172 424 450 
3 458 373 192 
3 3 11 61 
3 81 6 344 
3 448 97 289 
3 29 191 27 
3 47 193 40 
3 167 349 127 
3 276 436 327 
3 395 475 299 
3 243 417 275 
3 454 9 146 
3 410 164 448 
3 269 112 239 
3 270 388 399 
3 183 41 184 
3 378 253 465 
3 158 290 501 
3 21 114 254 
3 192 197 188 
3 43 377 390 
3 10 134 318 
3 432 321 382 
3 203 276 411 
3 431 365 337 
3 202 41 230 
3 106 384 238 
3 229 352 226 
3 449 51 208 
3 71 287 298 
3 149 170 397 
3 146 380 173 
3 260 212 213 
3 200 20 6 
3 170 149 429 
3 240 86 480 
3 257 19 441 
3 240 159 356 
3 468 223 224 
3 260 176 228 
3 260 342 176 
3 143 376 387 
3 388 135 497 
3 239 457 271 
3 104 495 419 
3 306 425 12 
3 269 186 243 
3 244 316 372 
3 10 455 134 
3 486 247 396 
3 58 437 459 
3 54 56 331 
3 293 448 289 
3 118 86 356 
3 460 442 235 
3 242 311 282 
3 111 43 208 
3 234 4 467 
3 379 200 6 
3 130 259 230 
3 214 410 448 
3 488 460 262 
3 359 217 44 
3 155 28 209 
3 485 77 338 
3 34 354 204 
3 178 52 366 
3 364 182 313 
3 304 142 272 
3 155 428 172 
3 273 163 473 
3 107 15 274 
3 380 132 96 
3 276 327 363 
3 277 144 278 
3 279 280 144 
3 246 265 119 
3 346 223 245 
3 377 67 59 
3 141 52 251 
3 113 140 341 
3 168 232 88 
3 230 435 462 
3 459 437 302 
3 73 371 484 
3 297 174 298 
3 320 364 27 
3 261 137 120 
3 114 21 78 
3 478 317 466 
3 344 112 397 
3 309 11 3 
3 393 130 230 
3 175 482 352 
3 157 37 313 
3 156 190 236 
3 133 53 241 
3 101 143 199 
3 1 396 247 
3 247 342 369 
3 61 136 128 
3 165 7 290 
3 265 246 188 
3 92 328 162 
3 114 328 55 
3 490 25 329 
3 306 399 497 
3 388 244 160 
3 332 97 273 
3 348 445 181 
3 334 365 421 
3 234 481 40 
3 498 12 500 
3 433 194 434 
3 473 189 350 
3 468 224 214 
3 467 4 340 
3 395 150 433 
3 275 301 447 
3 345 8 330 
3 41 393 230 
3 194 433 150 
3 370 109 180 
3 323 453 25 
3 257 434 456 
3 480 236 190 
3 422 388 270 
3 126 180 148 
3 480 190 235 
3 275 173 301 
3 36 478 353 
3 204 354 416 
3 125 236 391 
3 249 277 211 
3 263 82 315 
3 64 476 156 
3 411 493 281 
3 116 400 440 
3 193 47 161 
3 315 483 423 
3 110 255 272 
3 48 288 219 
3 20 373 74 
3 421 365 386 
3 366 141 307 
3 436 171 42 
3 105 219 79 
3 206 218 484 
3 261 22 137 
3 214 293 263 
3 364 76 27 
3 141 72 307 
3 345 84 8 
3 98 90 127 
3 256 285 154 
3 258 450 340 
3 330 8 381 
3 383 231 46 
3 10 318 426 
3 135 408 289 
3 346 245 362 
3 291 438 212 
3 325 105 79 
3 226 10 229 
3 473 205 68 
3 24 151 57 
3 126 326 147 
3 299 329 348 
3 387 422 270 
3 172 428 424 
3 119 66 246 
3 57 459 444 
3 110 272 389 
3 148 11 461 
3 386 69 265 
3 314 215 303 
3 54 138 56 
3 133 241 430 
3 304 272 303 
3 361 325 69 
3 365 334 83 
3 451 399 330 
3 276 363 324 
3 147 222 126 
3 297 165 174 
3 440 400 142 
3 231 2 450 
3 310 201 177 
3 274 103 186 
3 408 372 263 
3 135 50 497 
3 24 215 75 
3 33 485 125 
3 171 76 42 
3 445 285 284 
3 343 8 84 
3 74 6 20 
3 171 31 17 
3 46 385 413 
3 175 367 60 
3 313 37 487 
3 317 349 167 
3 100 441 132 
3 454 106 402 
3 81 379 6 
3 287 71 167 
3 402 308 91 
3 374 412 210 
3 367 278 491 
3 32 127 414 
3 292 179 337 
3 418 419 495 
3 146 9 178 
3 217 359 422 
3 109 60 262 
3 202 185 184 
3 124 91 470 
3 238 402 106 
3 458 494 373 
3 137 405 267 
3 109 262 136 
3 375 370 51 
3 431 337 179 
3 349 317 464 
3 223 115 224 
3 415 138 133 
3 259 62 435 
3 152 308 418 
3 317 167 466 
3 81 322 379 
3 197 373 26 
3 385 45 82 
3 43 111 377 
3 409 385 300 
3 490 441 392 
3 295 143 101 
3 454 173 275 
3 352 482 336 
3 155 467 428 
3 326 355 382 
3 253 378 129 
3 361 69 386 
3 335 26 200 
3 303 268 443 
3 181 299 348 
3 408 263 293 
3 480 235 442 
3 245 223 468 
3 178 366 221 
3 218 151 75 
3 368 239 271 
3 444 461 309 
3 311 431 179 
3 220 307 100 
3 286 284 479 
3 418 384 419 
3 501 412 158 
3 72 25 307 
3 459 382 444 
3 492 283 460 
3 193 305 4 
3 223 346 38 
3 464 357 18 
3 430 251 415 
3 276 324 411 
3 395 299 181 
3 381 451 330 
3 215 314 75 
3 458 166 227 
3 483 45 407 
3 39 23 331 
3 272 255 303 
3 246 66 477 
3 21 217 376 
3 137 22 288 
3 113 466 167 
3 411 281 203 
3 104 99 302 
3 33 391 32 
3 353 327 42 
3 165 290 158 
3 62 210 435 
3 260 228 463 
3 320 28 396 
3 143 387 199 
3 241 53 225 
3 333 266 188 
3 406 311 179 
3 441 100 392 
3 76 102 27 
3 368 494 239 
3 179 405 406 
3 390 59 310 
3 92 378 465 
3 103 15 417 
3 460 283 262 
3 399 388 497 
3 16 250 47 
3 324 374 411 
3 180 222 51 
3 40 4 234 
3 24 57 309 
3 325 14 471 
3 472 338 77 
3 164 163 448 
3 109 136 148 
3 156 338 472 
3 420 153 144 
3 392 25 490 
3 350 357 205 
3 115 410 224 
3 264 196 251 
3 2 413 176 
3 433 490 475 
3 44 244 359 
3 70 174 158 
3 374 62 411 
3 438 117 332 
3 452 261 453 
3 419 227 87 
3 86 49 480 
3 264 124 470 
3 440 142 455 
3 47 250 161 
3 77 318 472 
3 267 405 292 
3 169 432 382 
3 475 329 299 
3 78 21 376 
3 77 485 233 
3 245 468 427 
3 249 211 426 
3 421 386 265 
3 120 137 267 
3 334 479 83 
3 173 454 146 
3 446 210 412 
3 171 102 76 
3 468 214 423 
3 201 470 177 
3 363 327 341 
3 255 110 73 
3 28 486 396 
3 500 12 438 
3 4 258 340 
3 82 168 385 
3 83 256 337 
3 331 23 54 
3 113 167 71 
3 53 54 23 
3 66 99 477 
3 440 226 116 
3 411 259 493 
3 248 213 332 
3 371 152 484 
3 127 287 167 
3 418 308 238 
3 266 333 286 
3 139 409 300 
3 356 159 491 
3 275 447 243 
3 477 87 166 
3 233 485 358 
3 111 439 67 
3 342 247 486 
3 48 219 105 
3 370 375 89 
3 206 418 495 
3 31 16 17 
3 424 340 450 
3 94 59 237 
3 221 146 178 
3 486 403 342 
3 426 318 233 
3 365 83 337 
3 119 471 23 
3 345 399 306 
3 227 195 458 
3 268 489 3 
3 115 223 38 
3 117 438 12 
3 394 455 304 
3 472 318 319 
3 127 349 347 
3 480 442 240 
3 212 438 213 
3 220 100 132 
3 80 118 356 
3 114 78 328 
3 80 153 469 
3 248 312 213 
3 290 118 501 
3 221 220 146 
3 251 52 264 
3 250 145 161 
3 438 291 500 
3 355 444 382 
3 157 1 216 
3 262 128 136 
3 328 78 162 
3 225 0 241 
3 12 425 50 
3 232 44 21 
3 117 12 63 
3 140 113 71 
3 98 347 420 
3 156 476 492 
3 89 375 336 
3 26 373 20 
3 155 209 467 
3 434 194 85 
3 323 25 72 
3 18 34 464 
3 112 269 149 
3 301 173 96 
3 268 401 443 
3 481 191 29 
3 206 495 187 
3 76 353 42 
3 199 381 101 
3 326 126 355 
3 205 357 499 
3 133 430 415 
3 496 56 351 
3 124 339 91 
3 302 99 65 
3 8 343 162 
3 65 496 351 
3 470 91 177 
3 433 434 257 
3 258 4 5 
3 48 105 406 
3 45 315 82 
3 361 242 282 
3 406 105 282 
3 54 133 138 
3 80 469 131 
3 279 144 153 
3 31 171 436 
3 285 348 120 
3 46 45 385 
3 231 450 258 
3 376 143 78 
3 106 15 107 
3 89 482 109 
3 492 460 190 
3 101 381 295 
3 84 13 129 
3 132 19 96 
3 265 266 421 
3 297 32 391 
3 181 197 26 
3 53 133 54 
3 388 160 135 
3 404 261 452 
3 215 489 303 
3 102 29 27 
3 380 96 173 
3 316 232 168 
3 476 268 61 
3 55 254 114 
3 416 184 185 
3 186 103 243 
3 350 18 357 
3 92 465 55 
3 176 413 228 
3 335 181 26 
3 501 80 131 
3 214 224 410 
3 145 427 483 
3 34 18 121 
3 501 131 446 
3 467 424 428 
3 73 110 310 
3 378 343 84 
3 277 420 144 
3 140 298 70 
3 159 367 491 
3 18 189 121 
3 478 499 317 
3 102 171 17 
3 43 400 208 
3 0 404 30 
3 341 353 466 
3 317 499 357 
3 145 198 362 
3 333 284 286 
3 455 319 134 
3 195 239 494 
3 12 498 306 
3 483 407 207 
3 402 9 454 
3 422 359 244 
3 200 26 20 
3 159 488 60 
3 479 256 83 
3 332 117 97 
3 175 278 367 
3 121 189 184 
3 482 60 109 
3 163 97 448 
3 203 436 276 
3 319 455 394 
3 222 208 51 
3 375 51 449 
3 413 383 46 
3 434 85 429 
3 256 292 337 
3 146 220 380 
3 318 134 319 
3 248 332 273 
3 471 14 53 
3 186 239 195 
3 111 67 377 
3 189 183 184 
3 403 2 176 
3 152 206 484 
3 61 268 3 
3 149 269 447 
3 177 308 371 
3 139 300 35 
3 372 160 244 
3 129 500 291 
3 201 310 59 
3 434 429 456 
3 187 495 437 
3 41 164 410 
3 248 296 312 
3 290 86 118 
3 122 197 181 
3 43 390 389 
3 119 39 66 
3 345 13 84 
3 401 394 443 
3 454 275 417 
3 486 172 403 
3 430 241 0 
3 116 449 208 
3 446 435 210 
3 300 88 35 
3 338 156 236 
3 383 2 231 
3 89 109 370 
3 336 226 352 
3 11 148 136 
3 199 451 381 
3 152 418 206 
3 446 462 435 
3 214 263 423 
3 310 110 390 
3 176 342 403 
3 198 130 346 
3 6 457 344 
3 347 349 204 
3 98 249 90 
3 329 475 490 
3 107 384 106 
3 291 212 252 
3 163 183 473 
3 199 387 270 
3 122 181 445 
3 124 123 339 
3 105 325 361 
3 201 59 398 
3 409 139 463 
3 484 314 73 
3 322 200 379 
3 232 254 88 
3 194 150 322 
3 30 323 95 
3 437 495 104 
3 273 473 68 
3 252 474 253 
3 111 208 222 
3 485 33 358 
3 255 314 303 
3 64 319 394 
3 108 14 79 
3 188 197 122 
3 499 36 487 
3 324 140 70 
3 44 217 21 
3 493 198 250 
3 231 5 407 
3 303 489 268 
3 95 323 72 
3 496 99 39 
3 322 150 200 
3 25 453 329 
3 147 439 222 
3 407 45 46 
3 108 22 225 
3 395 200 150 
3 89 336 482 
3 5 231 258 
3 121 184 416 
3 368 6 74 
3 123 52 178 
3 139 212 463 
3 401 64 394 
3 294 138 196 
3 397 85 344 
3 205 473 350 
3 377 59 390 
3 389 400 43 
3 92 55 328 
3 296 216 247 
3 169 382 459 
3 382 321 326 
3 92 162 343 
3 358 249 233 
3 209 28 481 
3 447 269 243 
3 364 320 396 
3 182 364 396 
3 149 447 301 
3 373 494 74 
3 56 39 331 
3 324 70 374 
3 198 346 362 
3 433 475 395 
3 383 413 2 
3 0 225 404 
3 271 457 6 
3 250 16 281 
3 0 95 430 
3 263 372 82 
3 281 493 250 
3 289 408 293 
3 213 438 332 
3 385 409 228 
3 246 192 188 
3 334 421 266 
3 125 485 338 
3 292 256 154 
3 280 356 491 
3 405 179 292 
3 122 333 188 
3 481 234 209 
3 212 474 252 
3 296 68 216 
3 468 423 427 
3 284 285 256 
3 216 1 247 
3 142 389 272 
3 103 417 243 
3 489 215 3 
3 218 58 151 
3 461 444 355 
3 403 172 450 
3 108 79 219 
3 169 302 65 
3 361 282 105 
3 296 247 369 
3 283 61 128 
3 121 354 34 
3 311 242 431 
3 385 228 413 
3 277 98 420 
3 470 201 398 
3 300 168 88 
3 378 84 129 
3 419 87 104 
3 57 58 459 
3 474 139 35 
3 169 459 302 
3 207 145 483 
3 322 85 194 
3 453 261 120 
3 141 95 72 
3 445 284 333 
3 394 304 443 
3 420 347 204 
3 35 55 465 
3 478 466 353 
3 190 156 492 
3 341 324 363 
3 369 260 213 
3 36 353 487 
3 283 476 61 
3 148 461 126 
3 222 180 126 
3 157 313 182 
3 145 362 427 
3 219 22 108 
3 85 81 344 
3 242 361 386 
3 211 229 426 
3 352 229 211 
3 289 63 50 
3 418 238 384 
3 396 1 182 
3 178 339 123 
3 236 125 338 
3 368 271 6 
3 143 295 78 
3 145 207 161 
3 139 474 212 
3 253 129 291 
3 499 487 37 
3 19 132 441 
3 77 233 318 
3 75 151 24 
3 57 151 58 
3 460 488 442 
3 126 461 355 
3 390 110 389 
3 498 500 13 
3 373 197 192 
3 80 356 280 
3 407 46 231 
3 397 170 85 
3 218 75 484 
3 349 464 34 
3 7 391 49 
3 269 239 186 
3 154 120 267 
3 41 202 184 
3 253 474 465 
3 53 108 225 
3 483 427 423 
3 259 130 198 
3 358 33 414 
3 154 267 292 
3 483 315 45 
3 41 410 393 
3 320 27 191 
3 321 237 67 
3 380 220 132 
3 31 281 16 
3 195 274 186 
3 277 249 98 
3 365 431 242 
3 316 244 232 
3 432 169 351 
3 29 102 17 
3 415 251 196 
3 419 384 227 
3 486 28 155 
3 404 452 30 
3 175 352 278 
3 93 237 432 
3 53 14 108 
3 183 164 41 
3 471 69 325 
3 294 56 138 
3 226 449 116 
3 192 166 458 
3 393 410 115 
3 99 87 477 
3 73 310 177 
3 140 71 298 
3 425 306 497 
3 500 129 13 
3 37 205 499 
3 160 408 135 
3 317 357 464 
3 227 166 87 
3 49 236 480 
3 259 198 493 
3 15 454 417 
3 10 226 440 
3 387 376 217 
3 25 392 307 
3 38 346 393 
3 152 371 308 
3 52 123 264 
3 23 39 119 
3 294 94 93 
3 334 266 286 
3 287 297 298 
3 212 260 463 
3 274 15 103 
3 467 340 424 
3 60 488 262 
3 432 294 93 
3 233 249 426 
3 18 350 189 
3 471 53 23 
3 343 378 92 
3 274 227 107 
3 326 321 439 
3 31 436 203 
3 405 137 48 
3 360 185 202 
3 266 265 188 
3 353 76 487 
3 476 283 492 
3 64 156 472 
3 39 99 66 
3 138 415 196 
3 329 453 348 
3 457 239 112 
3 257 441 433 
3 360 131 469 
3 193 4 40 
3 336 375 226 
3 473 183 189 
3 165 297 391 
3 109 148 180 
3 131 462 446 
3 356 86 240 
3 228 409 463 
3 320 191 28 
3 185 360 469 
3 193 161 305 
3 335 200 395 
3 22 219 288 
3 196 264 398 
3 217 422 387 
3 232 21 254 
3 362 245 427 
3 339 402 91 
3 365 242 386 
3 259 435 230 
3 164 183 163 
3 153 416 469 
3 451 199 270 
3 474 35 465 
3 177 91 308 
3 280 491 144 
3 429 149 301 
3 330 399 345 
3 345 306 498 
3 61 11 136 
3 222 439 111 
3 50 425 497 
3 238 308 402 
3 270 399 451 
3 285 445 348 
3 90 249 358 
3 22 261 225 
3 436 42 327 
3 209 234 467 
3 168 82 316 
3 432 237 321 
3 246 166 192 
3 348 453 120 
3 313 76 364 
3 96 456 301 
3 481 29 40 
3 29 17 40 
3 391 33 125 
3 142 400 389 
3 466 113 341 
3 375 449 226 
3 137 288 48 
3 37 157 216 
3 442 488 240 
3 227 384 107 
3 124 264 123 
3 144 491 278 
3 121 416 354 
3 246 477 166 
3 456 429 301 
3 333 122 445 
3 452 323 30 
3 400 116 208 
3 397 112 149 
3 341 327 353 
3 319 64 472 
3 56 294 351 
3 460 235 190 
3 80 501 118 
3 453 323 452 
3 286 479 334 
3 202 230 360 
3 13 345 498 
3 351 294 432 
3 443 304 303 
3 416 185 469 
3 225 261 404 
3 385 168 300 
3 17 47 40 
3 70 298 174 
3 450 2 403 
3 160 372 408 
3 221 366 220 
3 100 307 392 
3 429 85 170 
3 490 433 441 
3 147 326 439 
3 85 322 81 
3 7 86 290 
3 321 67 439 
3 127 90 414 
3 227 274 195 
3 455 10 440 
3 296 369 312 
3 295 162 78 
3 70 412 374 
3 49 86 7 
3 63 289 117 
3 312 369 213 
3 314 255 73 
3 163 273 97 
3 19 456 96 
3 98 127 347 
3 315 423 263 
3 15 106 454 
3 57 444 309 
3 165 158 174 
3 204 416 420 
3 68 205 37 
3 68 248 273 
3 252 253 291 
3 218 187 58 
3 94 294 196 
3 478 36 499 
3 374 210 62 
3 211 277 278 
3 486 155 172 
3 232 244 44 
3 75 314 484 
3 422 244 388 
3 73 177 371 
3 412 501 446 
3 393 346 130 
3 19 257 456 
3 112 344 457 
3 169 65 351 
3 462 131 360 
3 324 341 140 
3 74 494 368 
