ply
format ascii 1.0
comment VCGLIB generated
element vertex 498
property float x
property float y
property float z
property float nx
property float ny
property float nz
element face 1000
property list uchar int vertex_indices
end_header
23.775 -20.12943 31.45612 -0.7509081 0.1978822 0.6300631 
-16.101 39.39874 0.5437378 -0.5985956 0.6168283 0.5110834 
27.36104 22.63508 -12.90834 -0.662257 0.7338585 -0.1512196 
50.65185 21.20358 52.05772 0.7582504 -0.01749243 -0.6517288 
33.40052 -19.21544 -3.23444 -0.4696079 0.4998686 -0.7277362 
3.848425 15.75184 -26.09185 0.09458802 0.827424 0.5535545 
27.74508 8.111908 -28.08623 0.8538172 -0.369291 -0.3669061 
25.75573 37.38435 12.99407 0.8379186 0.5168896 0.1752643 
42.41518 15.77639 40.61625 0.8570938 -0.01386579 -0.5149739 
30.4881 29.50684 14.9758 0.8898925 0.4425101 -0.1107976 
37.4641 -53.71693 37.42303 -0.8901983 -0.4081188 0.20245 
-13.61608 42.82343 -12.9691 0.7250623 0.5782974 -0.3739742 
41.63505 52.24671 63.47274 0.2042204 0.7505853 0.6284232 
-58.45161 34.03745 -17.33917 -0.4115525 0.8866026 0.2110936 
-6.58638 17.38569 6.409059 -0.4705183 -0.5840173 0.6614652 
6.870885 28.84411 -73.18772 0.3360383 0.7936964 -0.5070742 
4.263168 30.89915 -67.09776 -0.09230287 0.9848627 0.1467159 
47.33688 -7.546955 49.91413 0.877951 0.009342718 -0.4786593 
59.74742 -27.40661 67.6008 0.8388131 -0.02449158 -0.5438684 
-20.04139 20.95329 -65.23215 -0.1798688 -0.9799832 0.08532424 
54.77801 -63.76498 32.86874 0.2763556 -0.8986212 0.3407454 
17.17968 16.33414 -14.31123 -0.472829 0.8650183 -0.1678571 
21.31367 21.42458 -5.149117 -0.4291407 0.8141915 -0.3910633 
2.640097 17.89254 -4.294421 0.1621017 0.6937977 -0.7016892 
64.96837 19.73964 71.45584 0.9305204 0.1246836 0.3443628 
-9.874687 40.15995 3.049944 -0.03946936 0.8988641 0.4364463 
4.562277 16.47301 -74.90227 0.01945234 -0.4021291 -0.9153764 
51.27803 -42.65723 12.71079 0.8555853 0.4846599 0.1818747 
18.51915 -7.827319 17.87541 -0.9693419 -0.236555 0.06646746 
13.27382 51.00399 12.18603 0.3053974 0.8373947 -0.4533238 
28.20433 -27.26174 16.00098 -0.835965 -0.5485488 0.01602096 
35.88952 -37.87375 32.37662 -0.9566947 -0.2177168 0.1932219 
6.210529 24.39663 -35.74296 0.147295 0.6214155 0.7695108 
0.8781117 11.20424 -16.89854 -0.9134501 -0.3923545 0.1080131 
-3.879096 20.5453 -47.72739 -0.8232589 0.5666157 0.0345188 
22 -7.138818 5.194241 -0.7500104 -0.347513 -0.562778 
59.854 27.78847 61.18148 0.7138976 0.000813478 -0.7002497 
34.63502 35.76475 35.17643 0.7614949 0.4931521 -0.4206263 
32.59223 -31.54409 14.97502 -0.832178 -0.5532929 0.03669728 
-3.394318 15.78529 -12.52445 0.2842332 0.7721914 -0.5682709 
7.720381 45.71188 5.881679 -0.05736677 0.4125166 -0.909142 
-40.3484 19.39867 -44.83674 0.8854579 -0.4436458 0.1383571 
26.22892 -25.42148 22.34742 -0.7389936 -0.6513563 -0.1721145 
54.60247 -54.93873 2.240288 0.8487401 -0.1294001 -0.5127336 
14.02928 6.055006 -55.22241 -0.0668964 -0.9048675 -0.4204044 
34.8339 30.70473 -10.11781 0.8845268 0.4131084 -0.2166885 
-14.7783 38.11702 -19.40229 0.6139991 0.3269013 -0.7184293 
54.6665 23.44896 74.05245 -0.6396482 -0.09007601 0.7633718 
18.22527 58.21494 53.76767 -0.8341677 -0.07862927 0.545877 
-37.84528 23.92239 -58.79832 -0.5033634 -0.3270096 -0.7998062 
45.04887 -43.71621 -7.910886 -0.2951769 -0.6927125 -0.6580427 
-53.2659 10.60261 -35.4872 -0.132441 -0.9513663 -0.2781393 
23.1912 43.61623 28.4315 0.7182091 0.5427908 -0.4353778 
37.00804 -60.43298 26.96305 -0.8145763 -0.572972 0.09038014 
52.0157 29.09291 73.48345 -0.4664257 -0.06963541 0.8818152 
-35.31908 32.5388 -59.15182 -0.0789035 0.9371258 -0.3399552 
7.734093 9.153768 -55.28806 -0.5995924 -0.7622627 -0.2438126 
36.41389 28.07085 49.95227 -0.7172668 -0.3907888 0.5768991 
40.15358 -36.84475 53.69658 -0.7214349 0.2024042 0.6622418 
34.47315 -41.31258 25.39647 -0.9913812 -0.02344709 0.1288929 
5.969221 7.369422 -23.75885 -0.5695952 -0.8159843 0.0986458 
15.78657 0.6023744 17.5992 -0.8849494 -0.2860698 0.3674622 
37.03242 -33.21508 -8.024059 -0.6409314 -0.6853893 -0.3456132 
16.06438 -13.86492 -41.24578 -0.1570425 -0.9623199 0.2219867 
33.94108 -40.50905 17.82751 -0.9998867 0.007172795 -0.01322971 
8.523681 8.900034 10.95505 -0.7256981 -0.6245254 0.2886697 
21.44776 44.732 10.66133 0.5537772 0.8289136 0.0789493 
54.47509 43.81036 59.40548 0.7147965 0.5047517 -0.4840369 
-57.09985 24.87033 -31.59802 -0.02585832 0.9174146 -0.3970918 
30.55728 18.32093 -28.07527 0.8630527 -0.1682548 -0.4762672 
30.31429 30.53015 9.817399 0.9383134 0.3431218 0.04284205 
20.61639 52.28587 31.54967 0.6450299 0.5578603 -0.522234 
26.55623 61.95024 54.14515 0.1720357 0.8797177 0.4432837 
33.18247 6.008956 -1.116667 0.9877705 -0.1359878 -0.07626762 
13.43533 2.873096 13.75369 -0.8475033 -0.5117247 0.1409825 
17.19988 -4.076587 -26.88057 -0.3361882 -0.8854815 0.3207801 
37.9304 -61.77942 35.79183 -0.5623284 -0.7622356 0.3205989 
41.25917 -20.1569 47.7999 -0.7781154 0.2092597 0.5922387 
58.38625 -16.79292 74.272 -0.215968 -0.05388851 0.9749122 
5.908033 52.45831 18.8784 -0.8208152 0.5459728 -0.1678574 
19.0722 24.06996 -56.84506 0.7400352 0.6513029 -0.1677866 
0.7484438 22.06837 -31.53803 -0.02042377 0.6179675 0.7859383 
28.85026 -28.71911 39.25947 -0.8799719 -0.226661 0.4174616 
-61.76781 18.33291 -24.77901 -0.82293 -0.5317991 -0.1999397 
-5.03126 17.90215 -57.70585 -0.738256 -0.6259405 0.2513495 
-33.34011 24.14737 -6.929255 -0.3503524 -0.3584233 0.8653242 
46.43575 -62.76081 30.09714 -0.250842 -0.964026 0.08793297 
45.28926 -59.43625 41.51588 -0.267943 -0.8212681 0.5037114 
29.95593 -32.65283 2.712356 -0.6383203 -0.7696033 -0.01606558 
43.12724 -21.5364 7.250758 0.9162633 0.3880995 -0.09919848 
46.93356 -32.46894 46.31833 0.9408459 0.1333948 -0.3114717 
39.083 -25.06038 -11.43397 0.2993873 0.6069625 -0.7361819 
50.79709 -40.14381 5.621799 0.8899469 0.4550061 -0.03104767 
15.97756 14.07873 -72.58083 0.4683725 -0.201037 -0.8603554 
13.57942 2.646033 -49.92637 -0.1018473 -0.7804217 -0.6169029 
19.10973 3.300706 -48.40217 0.5415946 -0.6821002 -0.4913397 
-60.76242 19.26074 -36.18451 -0.8609794 -0.2797463 -0.4248016 
-42.34629 26.90918 -20.87798 0.3556598 0.6599476 -0.6617969 
58.8431 -40.09318 65.90926 0.8970085 -0.3915702 0.2050572 
58.20615 14.00668 76.87142 -0.5295583 -0.05082382 0.8467496 
37.90472 -8.00624 12.6765 0.9380848 0.3437391 -0.04290037 
-56.07921 21.55918 -42.35308 -0.6391885 0.4863465 -0.5957391 
-28.29075 24.57096 -54.69756 0.523961 0.4150925 0.7437494 
33.03413 20.90101 13.29409 0.9809253 0.16472 -0.1032124 
29.64051 35.0245 -1.89004 -0.5203899 0.4756905 -0.7091635 
-56.35386 30.99718 -12.31544 -0.08087353 0.7361637 0.6719543 
-54.4279 8.369333 -26.80047 -0.116091 -0.9876819 -0.1049161 
-64.24033 14.50955 -14.37898 -0.9074849 -0.4200621 0.004346663 
24.49383 20.70626 -48.94095 0.8035086 0.5606356 0.2001539 
21.08721 30.33068 4.448682 -0.3644532 0.4072227 -0.8374627 
33.14858 57.94356 57.62443 0.2687598 0.846306 0.4599288 
23.87498 54.25419 59.03445 -0.6575215 -0.2478659 0.7114969 
33.61014 12.87819 2.741714 0.9970407 0.06517733 0.04076505 
5.465917 49.05107 20.36347 -0.9469249 -0.05481617 0.3167468 
-21.50741 30.93794 -2.577232 -0.6713052 0.2370701 0.7022443 
30.73127 30.99705 5.220916 0.9522347 0.1535569 0.2639494 
-16.65571 19.15752 -3.519244 -0.3671134 -0.9220346 0.1228006 
31.92461 39.35225 0.5648513 0.5590293 0.7434373 -0.3671338 
54.36671 -54.51856 45.46397 0.992092 0.1006716 0.07495729 
54.14753 -28.65836 72.88763 -0.595014 0.06913886 0.8007361 
20.41503 19.81644 -63.47627 0.8279611 0.4532749 -0.3301851 
-16.22776 26.2814 -25.40591 -0.5207344 0.07512712 -0.8504066 
23.07278 -24.03068 4.045084 -0.9347563 -0.1200019 -0.3344101 
3.475669 33.24234 -41.2043 -0.3629257 0.756499 -0.5440535 
46.80477 -31.53471 12.03088 0.9299766 0.3558313 0.0923451 
-22.04032 25.6266 -2.496329 -0.5244504 0.02897195 0.8509479 
-4.712175 38.12815 8.14655 -0.3571712 0.6989818 0.6195589 
39.71774 -49.42655 55.54638 -0.562059 -0.6197048 0.5477732 
38.04974 -19.69825 -4.027252 0.3038806 0.6874745 -0.659572 
11.07671 38.97109 25.30801 -0.7826453 -0.2982643 0.5463559 
60.92823 -18.76755 74.43024 0.5110909 -0.1716982 0.8422029 
46.04198 -46.48832 63.61225 -0.5138255 -0.4830498 0.7089754 
-2.452736 17.61584 -73.86749 -0.3093878 -0.6287661 -0.7133951 
5.124616 54.13807 28.16756 -0.876089 0.39272 0.2797124 
-40.44949 20.31902 -29.61938 0.9043195 0.08338893 -0.4186316 
38.05771 -9.10198 41.15227 -0.7659609 0.05119852 0.6408452 
24.89628 13.74904 -47.89262 0.9830081 0.01953539 0.1825193 
28.42132 1.908148 31.44954 -0.7186476 -0.04419283 0.6939688 
41.00373 26.66334 38.37735 0.85452 0.2163748 -0.472205 
8.986942 26.01289 3.179332 0.0403744 0.5408553 -0.840146 
-46.58183 27.54183 -9.895315 0.0470891 0.4658746 0.8835969 
57.7436 3.261977 63.50928 0.7684047 -0.09315239 -0.6331484 
12.31417 20.29951 -31.52984 -0.1570143 0.7244283 0.6712303 
3.260485 27.81185 -42.96933 -0.3030679 0.4917896 -0.8162677 
7.683563 52.01331 13.81105 -0.3949085 0.7846124 -0.477944 
64.19716 -1.077327 73.81351 0.8903878 -0.1297544 0.4363179 
-61.14837 24.43331 -9.502033 -0.3104869 0.1684365 0.9355357 
-19.91685 22.30585 -1.911391 -0.5052373 -0.5695006 0.6483859 
46.93383 -34.46378 62.60448 -0.84978 0.1712292 0.4985524 
62.54174 -19.792 70.87997 0.9849506 -0.1703943 -0.02894973 
6.644471 24.70231 -47.79932 -0.1820917 0.9406567 -0.2863694 
32.55153 -29.35298 -7.459034 -0.7380387 -0.05037662 -0.6728752 
19.25237 -7.443024 -37.27318 0.9300681 -0.3645467 0.04559632 
22.98216 64.81418 44.76147 0.4936431 0.8188095 -0.2930314 
12.79961 34.99401 7.39314 0.03020244 0.1941723 -0.9805024 
-20.20273 20.31666 -10.08939 -0.03499703 -0.9263855 -0.3749469 
53.26741 -56.9283 46.87115 0.6254152 -0.6748788 0.3916558 
35.43127 -36.93647 -0.3237403 -0.6741861 -0.726541 -0.1327074 
-64.51074 21.59859 -30.07687 -0.962478 0.08500627 -0.2577014 
39.72439 43.18306 66.7681 -0.5563819 -0.1545028 0.8164362 
-21.8038 22.10965 -67.89507 -0.3908321 -0.5984854 -0.6993323 
-61.74847 24.04645 -31.74097 -0.5507578 0.6591351 -0.5120611 
-28.98966 28.58261 -14.6388 0.02522223 -0.2221856 -0.9746782 
-19.79122 22.39306 -61.24726 0.258682 -0.7340767 0.6278654 
2.895717 12.92073 -17.24681 -0.01662097 0.9984 0.05404712 
20.77238 -21.35576 26.86739 -0.9216072 -0.3697153 0.118113 
35.12951 13.35466 -9.68889 0.9725404 -0.2077735 -0.1048588 
44.82884 37.04976 69.05769 -0.5759292 -0.1404763 0.8053397 
-40.7802 32.72443 -53.74851 0.04069818 0.9327861 0.3581253 
-58.69349 9.539987 -19.07828 -0.1116362 -0.95622 0.2705192 
25.40323 26.745 -32.10868 -0.2861615 0.8898491 0.3553592 
-14.21753 20.28132 -15.36423 -0.5416141 -0.8006892 -0.2560293 
20.87162 8.843438 -65.48479 0.5504228 -0.710487 -0.4384551 
-4.361942 26.51773 -77.1805 -0.2286854 -0.07518195 -0.970593 
-39.11867 19.21274 -48.76719 0.5765385 -0.8030523 0.1506994 
20.53863 3.949671 -44.85035 0.9448094 -0.3063155 -0.1162148 
22.86092 8.607768 -51.54185 0.8335066 -0.5501925 -0.05054615 
-42.7702 24.73376 -9.331388 -0.09359375 -0.3696262 0.9244547 
51.26811 -64.58041 14.03536 -0.02775607 -0.9919213 -0.1237815 
-48.3768 14.56889 -38.08399 0.5089537 -0.8587681 -0.05902096 
36.67679 -54.57978 10.98559 -0.6694361 -0.7008786 -0.2462206 
16.58106 16.19834 -22.91041 -0.5341323 0.7988545 0.2766482 
20.78685 63.2585 39.80405 0.1682573 0.7122709 -0.6814394 
-24.86108 31.27581 -19.01882 -0.5084149 -0.3427837 -0.7899453 
49.30347 2.493551 52.53867 0.8204867 -0.07845097 -0.566257 
-24.17976 19.98549 -8.282812 -0.1531556 -0.9706947 0.1851896 
39.71024 0.4846053 38.49422 0.8823658 0.003503359 -0.4705513 
-24.70699 34.76454 -7.276613 -0.5812333 0.609023 0.539684 
-42.24399 18.82595 -50.76967 -0.03939998 -0.9046261 -0.4243811 
-54.10696 21.43567 -11.48798 0.1532361 -0.470088 0.8692157 
35.50474 16.73288 25.84945 0.9393711 -0.002958111 -0.3428894 
-4.031845 21.62889 -35.7713 -0.6029266 0.7934855 0.08282655 
52.13471 -28.2386 58.45791 0.8479338 0.1126466 -0.5179952 
32.96901 -55.25176 25.45494 -0.9594901 -0.2085982 0.1893823 
48.00124 -57.48 46.09945 -0.2493262 -0.84514 0.4728369 
55.24192 42.35588 65.18014 0.7300758 0.6359847 0.2500253 
-0.2240114 32.27824 4.295488 0.3761308 0.1868003 -0.9075413 
50.42854 -63.64799 3.289471 0.1213106 -0.862757 -0.4908503 
21.15375 -17.16325 17.96245 -0.8556237 -0.4912478 -0.1630453 
11.87405 5.0228 8.392 -0.7200617 -0.6927291 -0.0404675 
49.23076 -40.37307 69.55275 -0.4065189 -0.3490617 0.844333 
-41.6548 17.67194 -30.41999 0.7630035 -0.6377833 -0.1051578 
41.0291 -60.75537 20.71184 -0.418428 -0.8923187 -0.1693676 
4.674597 12.08908 -59.38906 -0.4875531 -0.8698516 -0.07516738 
18.14611 -1.83457 20.705 -0.8294604 -0.1101828 0.5475905 
-21.42724 24.84947 -58.94653 0.4869385 0.1014699 0.8675222 
29.26918 25.35536 -24.11615 -0.5640063 0.8159894 0.1267206 
63.88433 1.020348 71.04945 0.8787622 -0.06554802 -0.4727372 
-41.51357 31.55243 -56.38773 -0.6306501 0.3899082 -0.6710082 
34.96661 -34.02934 46.85293 -0.7076768 0.2627349 0.6558688 
33.85948 -55.09655 19.62116 -0.8001585 -0.5718865 -0.1808096 
54.52074 -18.51216 63.67205 0.764527 -0.0181495 -0.6443362 
-51.33252 19.28043 -47.32687 -0.6542187 -0.04346026 -0.7550556 
-4.696814 23.1465 -4.71115 0.597925 0.4045245 -0.6919867 
56.96294 -57.62698 32.44903 0.9740716 0.1445518 0.1740384 
12.18852 9.369952 15.9899 -0.7205407 -0.2921186 0.6288783 
9.656549 16.41575 15.89586 -0.6151507 -0.2073878 0.7606444 
-1.037591 21.79782 -43.78269 -0.4959938 0.8216881 -0.2807468 
-5.139536 14.10386 -20.78797 -0.4732587 -0.8687043 0.1462153 
8.723204 4.437511 -43.48325 -0.7767535 -0.6053113 -0.173931 
13.57174 -3.138285 -43.32224 -0.7382978 -0.3580723 -0.5715774 
11.07424 2.102764 -29.18877 -0.6958252 -0.7021896 0.150855 
15.94948 21.55331 -1.611644 -0.1767148 0.7671824 -0.616606 
30.93365 8.510382 35.46424 -0.7372783 -0.1696737 0.6539354 
35.68023 -50.16504 35.39901 -0.9573376 -0.28835 0.01894642 
53.00405 35.15902 54.95176 0.6317095 0.1972551 -0.749689 
13.89924 26.82856 -67.94117 0.6799356 0.6217796 -0.3886872 
41.1158 -41.41131 1.547599 -0.9293739 -0.2676935 -0.2541738 
54.76227 32.4656 73.25637 -0.01178649 0.3122635 0.9499224 
34.38538 22.74793 21.85172 0.9632276 0.09188741 -0.2524864 
35.02852 -36.24628 11.81228 -0.9121242 -0.3913595 -0.1219312 
26.4766 -30.40189 -0.3204647 -0.7448339 -0.6352566 -0.2041362 
40.54338 1.20934 45.31975 -0.7900344 -0.09504839 0.6056497 
46.80246 -30.71362 4.277366 0.918909 0.3849343 -0.08620845 
33.66799 9.245265 17.93324 0.9892442 0.0782252 -0.1235994 
21.8142 -18.13194 9.145978 -0.9282826 -0.3591446 -0.09647012 
46.70138 -53.18622 54.15574 -0.2553379 -0.8632882 0.4353574 
-44.79839 22.85495 -33.63309 0.3903134 0.8960141 -0.2116936 
46.81867 -40.0893 33.07212 0.9488997 0.3135235 0.03594716 
-50.28645 31.92406 -18.3869 0.1817162 0.9715574 -0.1518404 
40.86244 54.25873 57.2618 0.5466304 0.7794295 -0.3060799 
-42.27171 22.77271 -41.25764 0.2781647 0.9369465 0.2115558 
-22.64495 29.91959 -64.37025 0.2132647 0.9184831 0.3330272 
63.62296 27.36151 68.92071 0.8838419 0.4045292 0.2349035 
-3.378098 30.29939 -75.73074 0.00642262 0.7357061 -0.6772705 
56.77618 -48.85225 6.415702 0.9473149 0.2895641 -0.1369198 
33.51962 -9.692515 1.343022 0.2872016 0.1507231 -0.9459375 
34.60084 -48.28854 29.11859 -0.9668205 -0.1204895 0.2252561 
35.21838 -44.47517 40.09767 -0.9889483 -0.09223032 -0.1160814 
14.54593 32.04611 -41.19639 0.231243 0.9678442 0.09901649 
57.4843 -63.17351 17.45388 0.8870845 -0.4360657 -0.1514198 
-31.5552 21.20102 -59.62535 -0.08085994 -0.9765179 -0.1996859 
48.04067 -42.12069 44.02124 0.937041 0.2921854 -0.1912636 
32.64998 -50.71856 11.5024 -0.8739508 -0.3088219 -0.375285 
-59.2305 30.76204 -24.2392 -0.2958057 0.8291259 -0.4743935 
46.36423 -61.71361 14.08979 -0.4568519 -0.881898 -0.1163702 
33.13422 -2.111589 1.271646 0.8377824 -0.08961114 -0.5386005 
36.41447 -6.742671 5.486828 0.88721 0.2826891 -0.3646168 
-2.589978 29.12845 -35.64594 -0.6299961 0.6974776 0.3415111 
1.754001 25.70897 -56.39655 -0.2683313 0.8761783 0.4003874 
-28.14448 21.08404 -15.45973 0.4931967 -0.4700196 -0.7320099 
33.21613 -31.63942 20.71493 -0.9049991 -0.4199962 -0.06767359 
29.20347 -30.15676 30.57447 -0.7394603 -0.6730105 0.0159826 
33.21437 28.50554 -15.36428 -0.174612 0.9072387 -0.3826599 
15.33632 -8.744149 -35.19462 -0.1986673 -0.8109993 0.550283 
30.24567 3.23382 -10.48078 0.8016334 -0.5609037 -0.2068114 
31.65442 2.430281 -4.09626 0.8284209 -0.4422302 -0.3437315 
12.5095 -1.886834 -37.17772 -0.8908197 -0.4429261 0.1012765 
19.17406 -1.571735 -45.05163 0.5147401 -0.3932483 -0.7618389 
36.22411 -23.31668 -9.629278 -0.3510547 0.5778365 -0.7367941 
27.50989 -10.2718 2.024278 -0.4293029 -0.1625287 -0.8884162 
-2.314668 31.51435 -71.73953 0.005251345 0.9995126 0.03077543 
-34.89332 33.84893 -16.20947 -0.1396707 0.6066254 -0.7826223 
36.38245 -34.60741 36.87775 -0.8790532 -0.4427536 -0.1767334 
17.66372 25.10919 1.648648 -0.2761559 0.6632718 -0.6955634 
-12.44395 25.75568 -24.43678 0.7124832 0.6911759 -0.1210103 
14.80839 53.05966 28.42491 0.3703944 0.905417 -0.2074321 
25.06671 -5.867914 0.9498006 -0.4182891 -0.6312315 -0.6531317 
30.36958 -14.8406 0.4026223 -0.4091999 0.2601525 -0.8745719 
32.31086 -46.11522 14.33641 -0.9681698 0.1084164 -0.2255952 
60.14182 19.61791 76.64439 0.2800743 0.1833484 0.9423067 
56.02599 -50.73184 15.07447 0.8682497 0.4670295 0.1674092 
58.81367 37.65173 61.27745 0.8688545 0.3412026 -0.3587096 
13.44151 13.56915 -17.21094 -0.3505816 0.9339322 -0.06973791 
-50.14091 15.61854 -45.52571 -0.04941022 -0.8368689 -0.5451688 
1.469047 43.66211 4.731853 -0.3924969 0.8082623 -0.4389283 
-3.353175 15.68439 -19.81022 0.5823986 0.5971121 0.5516059 
16.62496 64.74194 49.36038 -0.4151577 0.7818643 0.4651153 
59.8947 -30.44795 70.14182 0.8826522 -0.309722 0.3535497 
50.77816 -53.81943 -3.802402 0.4816728 -0.2768498 -0.8314719 
-15.57141 21.45656 -69.97695 -0.3576119 -0.6768745 -0.6433932 
19.08284 -6.704657 12.14954 -0.9209368 -0.3315263 -0.2048554 
19.89632 -12.76563 -43.28275 0.7407706 -0.6714185 -0.02135466 
46.83955 29.66499 48.84991 0.7347849 0.1644808 -0.6580556 
47.56462 -59.32296 0.7744499 -0.2902976 -0.8310457 -0.4744367 
-36.54142 19.64225 -15.4327 0.00418929 -0.9434154 0.3315868 
26.70404 26.4842 -2.914253 -0.6361908 0.5806395 -0.5080542 
61.29616 -8.368034 75.66457 0.08980592 -0.08637168 0.992207 
32.58053 -34.44499 27.73168 -0.896746 -0.4425174 -0.004988582 
44.39024 -18.32003 42.68307 0.921401 0.1095134 -0.3728634 
-3.874858 16.66076 -69.39729 -0.3627444 -0.9220164 -0.1352863 
57.94134 -6.105155 74.29292 -0.6196465 -0.005806183 0.7848595 
19.78211 38.39457 7.042558 -0.297146 0.01403986 -0.9547289 
3.924927 10.21752 -43.72762 -0.6798248 -0.7235333 -0.1197406 
0.7712985 42.07249 8.246736 -0.7918569 0.5167454 0.3254793 
1.973423 35.5238 12.63513 -0.610405 0.0992206 0.7858505 
34.55065 -47.49942 52.66182 -0.8829612 -0.125744 0.452292 
44.27348 -36.85798 -17.07895 0.3242884 -0.2705508 -0.9064432 
37.30045 -49.33434 5.790356 -0.8533401 0.06652162 -0.5170934 
-39.3068 23.94238 -46.68198 0.5979467 0.4144806 0.6860507 
23.58155 5.292272 -34.01977 0.8918225 -0.2119684 -0.3996526 
22.47965 28.62205 -37.16923 0.4273431 0.8687159 -0.2504208 
12.93231 26.83315 21.70593 -0.7141761 -0.2359771 0.6589896 
33.76641 4.652273 3.982672 0.9893185 0.08337588 -0.1195716 
34.99471 0.5218094 11.81763 0.9685487 0.2435315 -0.05104956 
21.93227 25.82659 32.08382 -0.7317178 -0.3036894 0.6102147 
0.1611324 28.27604 2.416368 0.4131738 0.480944 -0.7732918 
1.084522 10.74757 -31.53761 -0.6224132 -0.779911 -0.06588406 
25.7341 20.54314 -19.20143 -0.5598589 0.8258985 0.06670674 
24.17812 45.81842 48.47259 -0.7444886 -0.422859 0.5166498 
65.28994 22.18637 67.04128 0.9335609 -0.01266159 -0.3581949 
-11.74666 20.46159 -63.54567 -0.3013128 -0.4929902 0.8161932 
1.379562 20.39705 11.17238 -0.4817151 -0.2100034 0.8507933 
6.063932 9.625049 4.159608 -0.5592686 -0.8209653 0.1150412 
-38.37101 17.93968 -22.33383 0.4417181 -0.8969222 -0.02038676 
12.16425 13.26925 -24.65377 -0.2092662 0.9053679 0.3694814 
-8.824631 21.60256 -33.52359 -0.1338398 0.9661534 -0.2205322 
-51.39845 31.47512 -14.43791 0.2608873 0.8925042 0.3679322 
41.45005 -18.22211 22.07976 0.9518929 0.3058216 0.0193153 
-55.36398 15.42819 -42.37268 -0.643271 -0.4703482 -0.6041316 
29.73565 32.13818 19.14118 0.7748865 0.5750841 -0.262353 
57.15497 -54.14811 21.26419 0.952768 0.2917747 0.08426551 
10.95506 30.56784 -61.89364 0.4063655 0.9114076 -0.06483197 
-45.21222 21.11971 -51.83057 -0.5261065 -0.3487038 -0.7756401 
18.68463 22.84427 -46.60817 0.5388832 0.7980841 0.2695678 
21.04175 16.29329 -42.14439 0.8039178 0.546105 0.2355538 
54.26796 -50.61533 52.0433 0.9971693 -0.04142435 -0.06274962 
41.47198 35.31262 45.08741 0.713401 0.416372 -0.5636429 
61.5672 18.556 64.38761 0.7923905 -0.1812223 -0.5824739 
60.83674 -7.013999 67.70514 0.7260616 -0.04912147 -0.6858729 
21.51151 51.05298 49.20646 -0.7918832 -0.4725614 0.3867905 
50.63853 -46.42805 21.87963 0.8475585 0.5008906 0.1753657 
-5.867072 24.6519 -60.27729 -0.4370897 0.660439 0.6105514 
9.952732 29.99868 -57.97588 -0.04259598 0.9231973 0.3819587 
22.26124 -2.133804 -2.725611 -0.4817764 -0.8588154 -0.1741485 
33.83586 -18.14248 38.5762 -0.6675442 0.2230634 0.7103714 
-14.78717 44.66893 -8.034844 -0.1376379 0.9825555 0.1250622 
-49.27243 27.34799 -24.01883 0.2343765 0.8409524 -0.487716 
15.94919 18.83847 -71.91264 0.6999072 0.1638936 -0.6951753 
26.63191 43.43448 32.14445 0.6993641 0.5530082 -0.4528486 
23.69035 9.507957 -59.48546 0.7364392 -0.664138 -0.1287558 
18.73706 6.541797 -54.34916 0.3802095 -0.8898295 -0.252278 
-47.50423 28.78578 -49.87707 -0.7352309 0.6593354 -0.1572022 
56.72291 -61.37523 11.45628 0.8447776 -0.4559847 -0.2800512 
-35.95335 27.7534 -16.67837 0.4363038 0.2844553 -0.8536534 
4.281671 23.99744 -50.96811 -0.2369075 0.9634253 0.1252458 
-14.21153 23.02933 -13.43331 0.7565102 0.5342054 -0.377249 
34.33255 18.45931 -17.1081 0.9797869 -0.03149888 -0.1975489 
-51.73447 22.96357 -43.92527 -0.2643637 0.9596082 -0.09624889 
-4.574559 19.16052 -32.05952 0.01620999 0.8727386 0.4879186 
-65.40159 22.02367 -12.71001 -0.9029064 0.1392924 0.4066418 
40.6681 -53.58189 42.01104 -0.5557129 -0.6928252 0.4595394 
16.85998 25.52427 -42.01224 0.5836991 0.6239259 -0.5196267 
-34.86829 22.90436 -20.5153 0.5559767 0.6221485 -0.5511999 
19.91676 -10.54614 22.23829 -0.9330676 -0.0117132 0.3595106 
-32.5265 21.2802 -52.89354 0.474738 -0.7092478 0.5211443 
43.73787 19.21927 54.07209 -0.767687 -0.2519444 0.5892203 
50.5638 -40.78203 51.64833 0.8808606 0.2202027 -0.4190411 
12.95638 0.2001425 -46.07322 -0.4573381 -0.7102649 -0.5351315 
43.54181 -26.47948 32.44016 0.9729515 0.2171039 -0.07893907 
-3.465835 17.31709 -49.08956 -0.7851525 -0.6121487 -0.09385936 
-40.84229 20.15344 -37.09172 0.9277306 0.3458785 0.1403002 
-5.046268 14.57469 -12.65395 -0.271935 -0.9540756 -0.1256621 
21.53537 16.56851 27.84777 -0.7317501 -0.1876034 0.6552455 
43.96552 -48.16925 -5.127447 -0.4500306 -0.1602794 -0.8785118 
-47.15054 17.77054 -17.21178 0.1933965 -0.840344 0.5063789 
-9.293859 32.11805 -3.357064 0.7426414 0.2916498 -0.6028466 
30.54806 60.33813 53.7784 0.5803513 0.8045509 -0.1260566 
46.00006 38.54264 51.59891 0.5435361 0.3814911 -0.7476851 
39.68739 -55.06833 4.643433 -0.7723715 -0.4963385 -0.3963462 
45.78602 44.47496 68.36852 -0.1401656 0.3179916 0.9376753 
22.99485 -9.32035 26.4924 -0.7439287 0.1080535 0.6594653 
49.23654 -14.99399 54.44197 0.896679 0.01199805 -0.4425187 
-49.34703 13.33182 -26.19039 0.5218353 -0.8372119 0.1635977 
13.6595 24.89413 -50.31968 0.03681355 0.9752427 0.2180513 
9.148038 23.41001 -76.17192 0.4279851 0.2188171 -0.8768967 
35.54233 48.79208 64.95467 -0.3986534 0.1030344 0.9112954 
40.02142 -39.29628 6.954918 -0.8773737 -0.3873725 -0.2831218 
-14.52848 35.34298 5.630813 -0.5703196 0.3220627 0.7556528 
-12.13187 22.35653 5.673053 -0.6103311 -0.2252431 0.7594481 
24.77442 57.52228 58.29692 -0.2256425 0.5443904 0.8079137 
34.56423 41.63186 58.53732 -0.7065946 -0.4634275 0.5347513 
50.72894 43.81385 68.3129 0.3521447 0.6377943 0.6849909 
36.80829 -2.037549 31.06752 0.9579262 0.1246794 -0.2585199 
19.41798 58.11346 37.04874 0.34707 0.627001 -0.6974326 
34.46111 24.36007 -9.013228 0.9958354 0.03784327 0.08294368 
35.0649 14.67871 -5.647922 0.9926015 0.0004559301 0.1214172 
32.56409 26.76664 -26.06062 0.6017647 0.7695085 -0.2138591 
41.33353 -17.1953 32.78111 0.9602125 0.238278 -0.1456555 
-8.838005 40.19583 -1.720861 0.7158892 0.6144044 -0.3316775 
36.48431 27.26741 29.27955 0.8896485 0.2820628 -0.3591186 
27.50797 -28.17313 7.328169 -0.7831393 -0.5711483 0.2459318 
14.36817 52.91091 37.66222 -0.9262416 0.1221852 0.3565771 
20.73429 6.194963 -41.083 0.9785655 -0.2040293 -0.02795937 
20.20617 38.65358 37.69752 -0.7385944 -0.3592072 0.5704811 
32.80993 28.58321 21.30293 0.8844051 0.3760888 -0.276378 
-23.53047 28.91718 -67.68772 -0.3936713 0.5691239 -0.7218871 
-7.919297 18.24375 -36.15309 -0.8459077 -0.4228584 -0.325009 
54.98343 1.14077 67.49941 -0.8870583 -0.00279547 0.4616489 
-12.50124 30.26554 -12.28733 0.822799 0.02975113 -0.5675531 
21.50936 16.41026 -38.55889 0.8817137 0.1392038 -0.4507808 
12.60236 4.926888 -9.504489 -0.5590435 -0.8268386 0.06171152 
4.66648 48.21982 12.44234 -0.7631738 0.615688 -0.1961987 
48.66262 -44.97014 -5.482484 0.5930163 -0.2375767 -0.7693433 
23.26267 -1.822015 -20.74748 0.5070291 -0.8612083 -0.03523983 
14.7478 8.341631 -69.6752 -0.06487077 -0.889428 -0.4524485 
-21.21549 23.76518 -13.4663 -0.14549 -0.5664843 -0.8111277 
52.21282 -52.74365 56.02916 0.3668447 -0.7976422 0.4787399 
55.21354 -46.19589 63.56886 0.5488284 -0.679688 0.486633 
58.08998 -28.07799 73.52048 0.3509877 -0.2301428 0.9076573 
46.53643 -10.40411 53.54272 -0.8518171 0.06966119 0.5191868 
52.67972 11.14609 64.3638 -0.8590379 -0.1208854 0.4974339 
14.00372 -12.12592 -45.73296 -0.738151 -0.4226125 -0.5258629 
35.37996 -50.32782 45.40276 -0.7789251 -0.6144324 0.1254934 
-33.74768 30.18435 -9.747943 -0.3462077 0.5676726 0.7469191 
-2.749265 13.32631 2.313565 -0.4219403 -0.8716643 0.2493346 
57.48601 -64.21361 22.16014 0.7504584 -0.6603663 0.02698802 
-1.437501 17.2421 -6.405039 0.3705954 0.7554051 -0.5403907 
50.61019 -49.17587 37.6796 0.8840785 0.4659439 -0.03607694 
58.80796 4.657981 76.01795 -0.7106851 -0.08748986 0.6980489 
45.43648 -36.55122 -12.12918 0.9033043 0.1345298 -0.407361 
-53.01804 15.61121 -16.84698 0.4138878 -0.6954609 0.5873935 
-11.84962 28.93352 -74.45944 -0.38394 0.2957553 -0.8747108 
17.77523 -0.2981315 -16.88649 -0.5476311 -0.8133745 0.1962706 
4.529772 35.12785 15.20687 -0.7076386 -0.1642652 0.687215 
20.64313 -18.46282 21.81027 -0.9249491 -0.3559776 -0.1332254 
15.99356 50.12991 17.0931 0.7385451 0.6717061 -0.05798382 
19.50966 45.40968 21.97699 0.7644344 0.608494 -0.2130142 
8.634978 54.65219 30.24204 -0.2779989 0.8250042 0.4920211 
18.09199 -2.001855 7.039498 -0.7735526 -0.5563161 -0.3035274 
8.899423 13.61154 -12.02289 -0.09990458 0.9285386 -0.3575407 
51.48293 -65.07787 26.53281 -0.0850093 -0.9927127 0.08541118 
28.55417 42.75658 5.473766 0.7173683 0.6299017 0.2976686 
10.30323 48.98969 31.44252 -0.7644035 -0.28005 0.5807403 
-17.37801 42.46817 -16.0173 -0.1874157 0.8747166 -0.4469297 
9.779982 6.030191 -51.59106 -0.5275656 -0.7613571 -0.376842 
-16.43737 32.63061 -24.52972 0.2298373 0.4161484 -0.87977 
42.55204 -58.79871 5.647685 -0.5375406 -0.8082452 -0.2403951 
51.34415 -43.19838 1.254833 0.8931909 0.2817209 -0.3504905 
48.4735 49.95498 58.91067 0.611306 0.7845624 -0.103763 
25.29356 -1.964975 -5.242345 0.05607776 -0.9683386 -0.2432606 
25.04141 13.02384 -59.20388 0.9680631 0.04218181 -0.2471326 
17.15019 45.88973 5.978481 0.1466724 0.598413 -0.7876478 
14.54565 62.84137 42.84967 -0.8568479 0.459577 -0.233668 
42.81509 -24.20267 -1.303697 0.8462632 0.459186 -0.2701605 
20.65687 -4.573669 -30.20272 0.6959862 -0.7170812 0.0373875 
23.70547 -15.14995 5.463189 -0.7732159 -0.03921996 -0.6329289 
27.83993 -0.5163606 -7.097729 0.594532 -0.7502261 -0.2892963 
31.20243 9.483871 -21.70736 0.891749 -0.3494142 -0.2875648 
-13.39995 25.70298 -62.68451 0.1778457 0.356285 0.9172959 
0.7541214 24.7041 -77.34553 0.05593761 0.06319267 -0.9964325 
22.04415 -2.113931 -17.6369 -0.1073815 -0.9886181 0.1053734 
59.90236 25.27628 74.65186 0.2449306 0.2752272 0.9296553 
-62.67701 14.38315 -12.24334 -0.1737893 -0.5474133 0.8186184 
31.14901 50.59915 47.97545 0.6720984 0.4649523 -0.5762838 
56.6568 -44.69023 60.26867 0.9572865 -0.0927315 -0.2738678 
-7.445477 17.71933 -64.33444 -0.3014523 -0.9028153 0.3066773 
1.165177 14.94373 8.648168 -0.5549462 -0.5789239 0.5973958 
65.82563 6.476473 73.68189 0.9957843 -0.0470481 0.07874073 
-64.39302 24.48462 -19.10856 -0.9810117 0.1620115 -0.1066222 
-22.35253 37.62474 -18.53188 -0.3761909 0.6461872 -0.6640199 
-15.52085 28.28206 -13.69864 0.9367737 0.05076285 -0.3462342 
10.48985 55.70988 19.19232 0.05373133 0.9792671 -0.1953177 
28.84159 26.6961 -32.57213 0.6952739 0.523672 -0.4923025 
-13.45769 30.15314 -70.60971 -0.08626432 0.9956841 0.03422887 
-7.75408 29.96098 9.996082 -0.4077247 -0.01676122 0.9129511 
-19.20141 39.91573 -5.588279 -0.6914958 0.5906296 0.4159207 
58.293 34.51468 71.14051 0.5929137 0.4689344 0.6546403 
36.07712 -3.091332 24.79683 0.9639501 0.2603392 -0.05498712 
4.8567 12.72353 -71.40752 -0.3513618 -0.8501667 -0.3921244 
24.71119 0.6506073 -24.11009 0.8133858 -0.5473358 -0.1970459 
12.11966 9.215978 -61.6539 -0.3107961 -0.9234083 -0.2252177 
44.95947 26.72523 60.15542 -0.7656667 -0.379734 0.5191884 
17.59099 25.72948 -52.91448 0.4019974 0.8880605 0.2230395 
31.11593 -36.06882 42.86335 -0.9837714 -0.1714184 -0.05300485 
52.62631 -36.9066 72.1966 0.1481369 -0.3839796 0.9113809 
-24.24759 37.40114 -12.39168 -0.5689778 0.8057176 0.1645701 
20.10156 -0.8961363 -10.82533 -0.3973242 -0.9167819 0.04055197 
38.3044 -14.18267 2.386713 0.7575061 0.4759859 -0.4467908 
57.37259 -54.48449 12.75377 0.9947847 0.098954 -0.02472747 
7.264487 5.514998 -33.2733 -0.7405289 -0.6718645 -0.01466557 
17.451 1.264285 0.9033231 -0.6478489 -0.7486817 -0.1405967 
61.1177 6.760904 76.9063 0.1367933 -0.06277306 0.9886087 
24.27313 44.22259 4.479067 -0.01433024 0.7576308 -0.6525261 
44.28667 -56.03205 -4.497001 -0.5007796 -0.5556054 -0.6637186 
30.02318 -3.074404 -0.8175222 0.4160017 -0.5758832 -0.7037764 
40.00469 -33.69076 -16.2282 -0.6412352 -0.2599624 -0.7219675 
25.85011 -20.55566 12.50192 -0.8224832 -0.5579117 0.1107069 
3 481 415 172 
3 190 229 400 
3 175 268 95 
3 83 106 169 
3 262 273 82 
3 140 424 239 
3 477 24 243 
3 373 137 223 
3 420 148 119 
3 163 321 459 
3 198 497 42 
3 198 235 497 
3 319 340 402 
3 28 364 204 
3 472 436 29 
3 391 340 319 
3 42 497 30 
3 301 492 429 
3 82 209 345 
3 35 277 270 
3 61 204 373 
3 123 258 249 
3 432 474 244 
3 33 60 411 
3 466 321 19 
3 173 460 132 
3 309 102 168 
3 267 220 422 
3 240 377 110 
3 290 300 19 
3 436 66 29 
3 176 95 351 
3 422 264 267 
3 407 326 34 
3 360 463 146 
3 244 474 271 
3 70 103 112 
3 158 469 254 
3 430 448 413 
3 153 394 182 
3 367 336 252 
3 143 258 123 
3 429 492 99 
3 290 160 432 
3 146 189 140 
3 94 268 368 
3 86 20 87 
3 280 24 462 
3 91 128 454 
3 103 229 234 
3 482 47 54 
3 327 239 13 
3 94 95 268 
3 457 450 414 
3 65 323 199 
3 309 365 102 
3 451 80 108 
3 327 105 140 
3 218 60 33 
3 249 32 142 
3 202 76 53 
3 382 90 299 
3 196 376 399 
3 392 228 477 
3 166 357 395 
3 38 261 42 
3 179 383 51 
3 184 3 338 
3 138 37 337 
3 477 462 24 
3 468 145 207 
3 14 389 147 
3 2 22 296 
3 224 247 10 
3 91 269 128 
3 284 51 329 
3 58 306 127 
3 121 183 446 
3 274 139 109 
3 434 129 113 
3 330 7 437 
3 418 200 131 
3 426 178 250 
3 41 309 371 
3 107 469 83 
3 98 485 200 
3 46 409 471 
3 358 309 352 
3 383 179 201 
3 181 318 170 
3 426 250 331 
3 225 378 67 
3 15 244 271 
3 168 102 55 
3 216 434 322 
3 197 294 289 
3 379 447 180 
3 420 301 408 
3 53 76 10 
3 142 32 81 
3 156 194 20 
3 48 453 340 
3 29 40 144 
3 84 203 370 
3 409 399 376 
3 293 138 337 
3 388 1 114 
3 63 292 264 
3 130 419 149 
3 61 74 291 
3 279 253 210 
3 241 237 371 
3 424 177 85 
3 217 150 355 
3 144 79 472 
3 30 497 401 
3 0 165 82 
3 137 232 223 
3 15 271 16 
3 348 226 120 
3 435 198 42 
3 446 275 121 
3 88 62 157 
3 161 101 96 
3 72 153 287 
3 61 291 28 
3 198 28 291 
3 247 248 31 
3 333 284 212 
3 269 91 151 
3 430 454 448 
3 197 43 353 
3 189 146 463 
3 129 434 312 
3 3 36 338 
3 481 44 445 
3 263 45 357 
3 261 262 42 
3 261 64 59 
3 456 122 235 
3 58 127 131 
3 116 155 171 
3 57 404 315 
3 75 221 267 
3 455 264 152 
3 234 314 313 
3 200 418 98 
3 270 246 278 
3 152 403 310 
3 222 23 139 
3 201 179 41 
3 333 212 352 
3 329 212 284 
3 390 111 386 
3 306 58 209 
3 264 75 267 
3 124 92 233 
3 279 193 59 
3 3 8 293 
3 175 403 152 
3 439 491 277 
3 96 158 161 
3 401 231 88 
3 421 232 420 
3 84 342 321 
3 115 442 7 
3 124 233 89 
3 275 286 359 
3 285 412 40 
3 470 446 183 
3 46 11 409 
3 8 184 186 
3 302 109 154 
3 421 420 408 
3 309 358 241 
3 141 211 184 
3 135 420 232 
3 239 347 254 
3 239 254 13 
3 139 316 196 
3 96 83 158 
3 176 350 451 
3 400 229 405 
3 46 444 11 
3 214 426 331 
3 262 31 273 
3 388 114 389 
3 488 257 89 
3 304 113 412 
3 237 97 363 
3 274 296 22 
3 52 330 437 
3 380 392 12 
3 133 438 472 
3 49 188 333 
3 295 85 177 
3 413 448 289 
3 90 398 299 
3 257 313 314 
3 443 133 113 
3 313 73 112 
3 86 178 441 
3 60 221 433 
3 119 148 200 
3 447 294 255 
3 286 33 164 
3 260 354 162 
3 313 256 73 
3 391 167 159 
3 88 157 387 
3 350 351 172 
3 451 350 172 
3 5 164 325 
3 55 208 168 
3 386 380 12 
3 288 18 149 
3 241 371 309 
3 101 358 212 
3 493 66 442 
3 237 68 347 
3 215 61 373 
3 231 401 122 
3 411 433 487 
3 328 478 398 
3 2 318 22 
3 115 7 70 
3 38 401 230 
3 87 361 76 
3 402 453 394 
3 119 419 78 
3 160 49 406 
3 121 326 407 
3 88 387 230 
3 374 289 494 
3 421 429 99 
3 114 187 424 
3 397 263 357 
3 214 428 118 
3 37 330 349 
3 385 26 460 
3 73 256 266 
3 126 305 304 
3 482 391 57 
3 162 354 272 
3 134 260 324 
3 363 260 134 
3 291 439 35 
3 40 196 285 
3 325 181 142 
3 218 33 286 
3 448 454 233 
3 272 424 486 
3 336 118 428 
3 247 224 248 
3 309 174 365 
3 313 112 103 
3 185 295 260 
3 301 78 297 
3 277 491 344 
3 5 81 359 
3 14 116 425 
3 399 409 11 
3 404 402 443 
3 117 45 104 
3 335 410 136 
3 306 484 248 
3 393 398 478 
3 434 216 312 
3 145 149 207 
3 401 88 230 
3 419 485 288 
3 328 369 238 
3 431 383 375 
3 142 311 249 
3 486 424 187 
3 37 464 337 
3 246 488 128 
3 260 162 416 
3 218 407 317 
3 342 84 34 
3 344 411 487 
3 124 27 92 
3 20 194 87 
3 14 322 475 
3 320 24 338 
3 394 71 276 
3 53 10 247 
3 70 112 115 
3 328 398 369 
3 264 455 75 
3 78 130 297 
3 387 157 227 
3 417 418 131 
3 183 416 162 
3 45 115 395 
3 85 147 125 
3 216 215 312 
3 280 468 24 
3 353 43 245 
3 282 195 243 
3 164 5 286 
3 460 15 385 
3 77 420 135 
3 427 23 440 
3 312 215 373 
3 39 427 440 
3 75 433 221 
3 60 317 221 
3 376 213 409 
3 34 84 370 
3 42 165 435 
3 248 273 31 
3 298 31 262 
3 298 262 261 
3 234 478 314 
3 389 14 475 
3 223 366 373 
3 291 74 439 
3 377 240 464 
3 406 49 55 
3 73 266 166 
3 296 274 109 
3 326 191 217 
3 33 372 39 
3 32 258 81 
3 209 77 345 
3 13 360 146 
3 21 283 440 
3 449 392 195 
3 238 252 428 
3 10 423 224 
3 490 267 221 
3 65 467 323 
3 445 219 56 
3 444 346 11 
3 318 181 21 
3 266 256 495 
3 476 187 114 
3 1 476 114 
3 317 407 370 
3 7 442 66 
3 409 213 356 
3 296 263 2 
3 251 188 49 
3 79 113 133 
3 201 324 383 
3 110 390 12 
3 260 295 324 
3 276 438 402 
3 58 148 77 
3 230 64 38 
3 7 330 9 
3 122 278 4 
3 480 455 6 
3 423 127 306 
3 42 262 165 
3 75 461 433 
3 259 342 34 
3 406 242 474 
3 117 104 493 
3 278 456 270 
3 440 164 39 
3 404 443 129 
3 342 459 321 
3 145 130 149 
3 425 116 372 
3 126 285 399 
3 449 195 67 
3 149 18 339 
3 495 277 450 
3 478 328 100 
3 302 154 40 
3 170 311 142 
3 339 18 211 
3 400 330 37 
3 362 410 335 
3 208 49 333 
3 259 343 16 
3 9 103 70 
3 245 448 92 
3 365 174 188 
3 203 56 303 
3 303 317 370 
3 4 151 122 
3 311 410 362 
3 86 255 178 
3 227 50 374 
3 97 239 272 
3 454 430 91 
3 423 361 127 
3 112 396 115 
3 216 322 467 
3 289 374 413 
3 263 104 45 
3 222 139 274 
3 458 357 166 
3 371 134 201 
3 446 470 46 
3 132 479 300 
3 378 337 464 
3 333 352 208 
3 451 120 80 
3 226 80 120 
3 190 393 234 
3 385 348 26 
3 362 150 143 
3 186 190 8 
3 336 465 418 
3 53 210 202 
3 319 57 391 
3 432 160 406 
3 12 240 110 
3 336 367 465 
3 242 205 459 
3 325 142 5 
3 67 378 449 
3 233 454 89 
3 480 414 455 
3 175 176 403 
3 214 341 428 
3 458 265 480 
3 221 317 490 
3 345 77 135 
3 483 80 332 
3 111 391 386 
3 157 50 227 
3 253 180 210 
3 105 327 13 
3 130 78 419 
3 380 167 228 
3 151 91 496 
3 297 130 145 
3 243 24 320 
3 219 445 368 
3 489 331 250 
3 54 462 228 
3 67 195 282 
3 214 118 156 
3 458 480 6 
3 249 143 123 
3 277 246 270 
3 311 473 410 
3 141 338 468 
3 397 357 69 
3 377 153 72 
3 52 349 330 
3 260 363 354 
3 310 455 152 
3 55 49 208 
3 384 259 355 
3 372 286 39 
3 300 466 19 
3 292 63 422 
3 308 279 387 
3 213 427 356 
3 237 241 358 
3 467 65 215 
3 468 492 145 
3 263 206 2 
3 1 25 346 
3 342 16 271 
3 457 265 266 
3 486 444 470 
3 145 492 297 
3 375 177 189 
3 493 442 117 
3 90 369 398 
3 307 62 496 
3 287 390 72 
3 211 192 382 
3 48 111 390 
3 247 59 193 
3 494 308 374 
3 317 60 218 
3 209 82 484 
3 47 99 280 
3 343 259 384 
3 68 161 254 
3 140 189 177 
3 434 305 322 
3 490 303 219 
3 383 106 51 
3 432 406 474 
3 155 260 416 
3 245 489 353 
3 27 245 92 
3 52 71 349 
3 474 342 271 
3 371 201 41 
3 356 275 471 
3 489 245 281 
3 153 453 287 
3 420 77 148 
3 110 72 390 
3 453 153 182 
3 252 336 428 
3 450 344 487 
3 321 466 84 
3 7 436 437 
3 257 314 100 
3 86 87 76 
3 141 339 211 
3 323 425 372 
3 386 159 380 
3 231 62 88 
3 256 257 246 
3 475 126 388 
3 170 206 397 
3 173 244 460 
3 197 353 178 
3 237 358 68 
3 277 344 450 
3 323 491 199 
3 133 443 438 
3 362 143 249 
3 442 115 117 
3 124 238 341 
3 219 303 56 
3 426 441 178 
3 108 335 136 
3 415 26 93 
3 176 136 403 
3 299 393 186 
3 316 139 23 
3 83 96 51 
3 475 322 305 
3 203 415 481 
3 432 173 290 
3 29 66 452 
3 380 228 392 
3 347 239 97 
3 9 330 405 
3 402 404 319 
3 160 19 251 
3 469 13 254 
3 135 137 345 
3 205 163 459 
3 124 328 238 
3 282 243 320 
3 158 83 469 
3 50 62 307 
3 377 464 153 
3 428 341 238 
3 424 140 177 
3 289 43 197 
3 10 76 361 
3 391 159 386 
3 458 6 69 
3 486 476 346 
3 363 134 237 
3 349 71 394 
3 17 299 186 
3 36 293 225 
3 258 191 359 
3 276 71 437 
3 233 92 448 
3 179 284 174 
3 446 46 471 
3 121 171 183 
3 411 491 323 
3 170 473 311 
3 212 329 101 
3 98 18 288 
3 375 324 295 
3 153 464 394 
3 222 22 440 
3 167 54 228 
3 191 258 217 
3 495 256 246 
3 232 366 223 
3 393 299 398 
3 316 23 213 
3 484 82 273 
3 284 179 51 
3 371 237 134 
3 421 47 366 
3 191 326 359 
3 286 275 356 
3 122 497 235 
3 375 189 431 
3 50 307 430 
3 22 21 440 
3 139 154 109 
3 470 183 272 
3 483 332 343 
3 12 390 386 
3 125 424 85 
3 372 171 218 
3 396 73 166 
3 287 48 390 
3 494 294 447 
3 486 470 272 
3 356 427 39 
3 104 296 109 
3 184 382 17 
3 29 452 40 
3 309 41 174 
3 185 116 147 
3 331 341 214 
3 36 225 282 
3 459 342 474 
3 24 468 338 
3 165 0 364 
3 35 439 277 
3 105 146 140 
3 372 218 286 
3 451 108 136 
3 454 128 488 
3 461 487 433 
3 100 314 478 
3 141 184 338 
3 225 67 282 
3 6 310 69 
3 364 0 381 
3 239 327 140 
3 113 304 305 
3 311 362 249 
3 489 281 331 
3 119 200 485 
3 254 347 68 
3 39 286 356 
3 203 481 56 
3 318 2 206 
3 144 40 412 
3 198 291 235 
3 451 136 176 
3 394 276 402 
3 400 405 330 
3 58 131 148 
3 267 219 220 
3 156 417 236 
3 248 484 273 
3 445 94 368 
3 107 83 169 
3 38 64 261 
3 360 107 463 
3 98 418 465 
3 370 407 34 
3 149 339 207 
3 155 185 260 
3 456 278 122 
3 391 111 340 
3 341 281 27 
3 37 138 400 
3 351 44 172 
3 152 264 292 
3 103 9 405 
3 82 345 0 
3 8 138 293 
3 343 332 16 
3 20 426 214 
3 104 302 493 
3 115 45 117 
3 53 247 193 
3 397 206 263 
3 431 189 463 
3 361 423 10 
3 168 352 309 
3 160 290 19 
3 447 202 180 
3 128 4 278 
3 421 99 47 
3 366 57 315 
3 196 399 285 
3 383 324 375 
3 38 42 30 
3 205 242 102 
3 20 214 156 
3 185 85 295 
3 339 141 207 
3 119 301 420 
3 373 366 315 
3 464 349 394 
3 203 300 479 
3 423 248 224 
3 131 127 236 
3 96 329 51 
3 95 44 351 
3 480 265 414 
3 456 35 270 
3 222 274 22 
3 12 392 449 
3 121 275 326 
3 14 425 467 
3 457 266 495 
3 170 318 206 
3 102 365 205 
3 477 195 392 
3 429 421 408 
3 12 449 240 
3 490 317 303 
3 199 74 65 
3 26 348 93 
3 290 173 132 
3 216 467 215 
3 78 301 119 
3 298 261 59 
3 229 103 405 
3 367 192 465 
3 165 262 82 
3 100 328 89 
3 350 176 351 
3 192 18 98 
3 32 249 258 
3 59 247 31 
3 429 408 301 
3 378 225 293 
3 192 90 382 
3 425 323 467 
3 46 470 444 
3 116 14 147 
3 190 138 8 
3 324 201 134 
3 388 389 475 
3 166 395 396 
3 360 13 469 
3 48 287 453 
3 485 98 288 
3 467 322 14 
3 495 246 277 
3 43 448 245 
3 163 205 365 
3 346 399 11 
3 28 435 364 
3 186 184 17 
3 5 359 286 
3 169 106 383 
3 257 100 89 
3 15 226 385 
3 75 414 461 
3 84 466 300 
3 462 477 228 
3 468 207 141 
3 198 435 28 
3 194 361 87 
3 357 458 69 
3 40 154 196 
3 362 384 150 
3 63 264 422 
3 101 68 358 
3 292 422 268 
3 279 210 193 
3 369 90 252 
3 284 333 188 
3 437 71 52 
3 113 79 412 
3 105 13 146 
3 172 415 93 
3 387 279 230 
3 170 397 473 
3 47 462 54 
3 8 3 184 
3 257 488 246 
3 175 95 176 
3 169 383 431 
3 340 453 402 
3 257 256 313 
3 388 126 25 
3 362 335 334 
3 308 253 279 
3 362 334 384 
3 234 313 103 
3 280 99 492 
3 357 45 395 
3 204 137 373 
3 41 179 174 
3 211 18 192 
3 293 337 378 
3 89 328 124 
3 464 240 378 
3 219 368 220 
3 250 178 353 
3 231 151 62 
3 411 323 372 
3 162 272 183 
3 494 447 379 
3 181 283 21 
3 86 76 202 
3 211 382 184 
3 231 122 151 
3 455 310 6 
3 263 296 104 
3 237 347 97 
3 229 190 234 
3 26 479 132 
3 69 310 410 
3 137 135 232 
3 341 331 281 
3 315 129 312 
3 282 320 36 
3 355 34 217 
3 417 131 236 
3 364 435 165 
3 308 379 253 
3 272 239 424 
3 355 259 34 
3 251 19 163 
3 360 469 107 
3 368 268 220 
3 361 194 236 
3 460 26 132 
3 268 175 152 
3 348 120 451 
3 69 410 473 
3 319 404 57 
3 252 90 367 
3 315 404 129 
3 426 20 441 
3 423 306 248 
3 384 483 343 
3 414 450 461 
3 116 185 155 
3 491 439 199 
3 334 108 483 
3 252 238 369 
3 20 86 441 
3 0 345 381 
3 381 204 364 
3 482 57 366 
3 310 403 410 
3 185 147 85 
3 151 496 62 
3 204 381 137 
3 56 481 445 
3 79 144 412 
3 452 66 493 
3 203 303 370 
3 203 84 300 
3 3 293 36 
3 316 376 196 
3 284 188 174 
3 463 107 169 
3 144 472 29 
3 251 163 365 
3 472 438 276 
3 113 129 443 
3 436 7 66 
3 430 413 50 
3 44 481 172 
3 401 38 30 
3 379 308 494 
3 381 345 137 
3 59 31 298 
3 150 217 143 
3 115 396 395 
3 192 367 90 
3 266 265 166 
3 280 462 47 
3 243 195 477 
3 453 182 394 
3 414 75 455 
3 399 346 25 
3 312 373 315 
3 240 449 378 
3 7 9 70 
3 409 356 471 
3 393 190 186 
3 244 15 460 
3 494 289 294 
3 118 336 156 
3 290 132 300 
3 161 158 254 
3 407 218 171 
3 437 436 276 
3 283 181 325 
3 374 308 227 
3 190 400 138 
3 468 280 492 
3 209 484 306 
3 365 188 251 
3 253 379 180 
3 97 272 354 
3 19 321 163 
3 244 173 432 
3 440 23 222 
3 202 210 180 
3 86 202 255 
3 245 27 281 
3 142 81 5 
3 148 131 200 
3 291 456 235 
3 58 77 209 
3 411 60 433 
3 25 126 399 
3 255 294 197 
3 217 34 326 
3 389 125 147 
3 154 139 196 
3 51 106 83 
3 212 358 352 
3 283 325 164 
3 61 215 74 
3 226 15 332 
3 361 236 127 
3 194 156 236 
3 27 124 341 
3 72 110 377 
3 457 495 450 
3 401 497 122 
3 157 62 50 
3 474 242 459 
3 25 1 388 
3 96 101 329 
3 375 295 177 
3 445 44 94 
3 155 416 171 
3 307 91 430 
3 416 183 171 
3 320 338 36 
3 342 259 16 
3 166 265 458 
3 436 472 276 
3 448 43 289 
3 387 227 308 
3 164 33 39 
3 258 143 217 
3 334 335 108 
3 226 332 80 
3 102 242 55 
3 299 17 382 
3 397 69 473 
3 415 479 26 
3 79 133 472 
3 226 348 385 
3 246 128 278 
3 332 15 16 
3 302 452 493 
3 363 97 354 
3 457 414 265 
3 167 380 159 
3 267 490 219 
3 419 288 149 
3 374 50 413 
3 476 486 187 
3 344 491 411 
3 230 279 64 
3 80 483 108 
3 434 113 305 
3 407 171 121 
3 348 172 93 
3 346 476 1 
3 450 487 461 
3 318 21 22 
3 232 421 366 
3 417 156 336 
3 193 210 53 
3 496 91 307 
3 452 302 40 
3 114 424 125 
3 111 48 340 
3 410 403 136 
3 475 305 126 
3 49 160 251 
3 411 372 33 
3 213 23 427 
3 4 269 151 
3 451 172 348 
3 384 355 150 
3 98 465 192 
3 334 483 384 
3 492 301 297 
3 101 161 68 
3 485 419 119 
3 169 431 463 
3 316 213 376 
3 234 393 478 
3 197 178 255 
3 292 268 152 
3 447 255 202 
3 128 269 4 
3 73 396 112 
3 486 346 444 
3 279 59 64 
3 37 349 464 
3 208 352 168 
3 220 268 422 
3 44 95 94 
3 391 482 167 
3 412 285 304 
3 406 55 242 
3 47 482 366 
3 438 443 402 
3 471 275 446 
3 479 415 203 
3 171 372 116 
3 89 454 488 
3 167 482 54 
3 336 418 417 
3 302 104 109 
3 164 440 283 
3 258 359 81 
3 74 215 65 
3 389 114 125 
3 291 35 456 
3 439 74 199 
3 353 489 250 
3 181 170 142 
3 359 326 275 
3 61 28 204 
3 126 304 285 
