ply
format ascii 1.0
comment created by MATLAB plywrite
element vertex 498
property float x
property float y
property float z
property float nx
property float ny
property float nz
element face 1000
property list uchar short vertex_indices
end_header
12.887500 -14.110192 10.029747 -0.750908 -0.305599 0.585445 
-7.050500 26.446302 19.984636 -0.598596 0.074771 0.797554 
14.680520 25.992548 6.213978 -0.662257 0.625844 0.411989 
26.325925 -6.771404 37.763143 0.758250 0.448474 -0.473210 
17.700260 3.448563 -6.753399 -0.469608 0.868048 -0.161125 
2.924213 29.597758 -3.231831 0.094588 0.193653 0.976500 
14.872540 27.343585 -7.460352 0.853817 -0.001685 -0.520570 
13.877865 19.429059 25.292590 0.837919 0.241565 0.489427 
22.207590 -3.410712 29.797349 0.857094 0.354338 -0.373945 
16.244050 15.106013 22.931344 0.889893 0.391247 0.234557 
19.732050 -31.313610 -1.266784 -0.890198 -0.431737 -0.145431 
-5.808040 34.587798 14.749111 0.725062 0.673357 0.144480 
21.817525 0.748900 56.583788 0.204220 0.086380 0.975106 
-28.225805 33.023308 8.858458 -0.411552 0.477656 0.776189 
-2.293190 14.203782 13.548454 -0.470518 -0.880689 0.054762 
4.435443 58.463637 -20.988465 0.336038 0.919783 0.202674 
3.131584 56.321133 -17.102213 -0.092303 0.592658 0.800148 
24.668440 -17.908175 24.504281 0.877951 0.345070 -0.331856 
30.873710 -35.088369 24.832966 0.838813 0.367256 -0.401891 
-9.020695 51.178038 -20.398463 -0.179869 -0.753285 -0.632621 
28.389005 -33.322366 -7.784073 0.276356 -0.876364 -0.394479 
9.589840 24.013686 2.846317 -0.472829 0.730352 0.492969 
11.656835 21.638350 9.541018 -0.429141 0.852243 0.299198 
2.320048 19.716782 8.465550 0.162102 0.986758 -0.005578 
33.484185 -16.994097 46.743607 0.930520 -0.155337 0.331666 
-3.937343 25.528744 21.548098 -0.039469 0.326977 0.944208 
3.281138 54.063694 -27.085745 0.019452 0.362922 -0.931616 
26.639015 -14.389428 -8.806455 0.855585 0.214101 0.471312 
10.259575 -2.168737 8.527004 -0.969342 -0.214269 -0.120270 
7.636910 25.607332 30.670966 0.305397 0.912675 0.271581 
15.102165 -9.486251 -0.646131 -0.835965 -0.399210 -0.376555 
18.944760 -22.094080 2.957079 -0.956695 -0.290578 -0.017321 
4.105265 38.042490 -4.341198 0.147295 -0.104721 0.983533 
1.439056 23.117914 -0.610770 -0.913450 -0.353813 -0.201060 
-0.939548 42.340513 -11.907161 -0.823259 0.376249 0.425067 
12.000000 4.400239 2.542264 -0.750010 0.152217 -0.643673 
30.927000 -8.493715 45.072903 0.713898 0.495727 -0.494575 
18.317510 7.762194 35.585139 0.761495 0.646139 0.051285 
17.296115 -10.795270 -2.970805 -0.832178 -0.417185 -0.365289 
-0.697159 22.896417 3.497869 0.284233 0.947850 0.144195 
4.860190 26.482585 25.305221 -0.057367 0.934554 -0.351165 
-19.174200 40.423238 -10.962839 0.885458 -0.411538 -0.215872 
14.114460 -11.846830 3.275948 -0.738994 -0.338874 -0.582282 
28.301235 -14.417374 -19.199688 0.848740 0.271059 -0.454057 
8.014640 39.902665 -21.764722 -0.066896 -0.342565 -0.937109 
18.416950 28.034959 11.018886 0.884527 0.445333 0.138891 
-6.389150 35.775314 9.568086 0.613999 0.739161 -0.276851 
28.333250 -16.705627 49.602595 -0.639648 -0.603480 0.476091 
10.112635 8.084774 54.312143 -0.834168 -0.441593 0.330393 
-17.922640 49.253129 -15.954201 -0.503363 0.334319 -0.796778 
23.524435 -4.631487 -19.462933 -0.295177 -0.024513 -0.955128 
-25.632950 32.063598 -10.066921 -0.132441 -0.476042 -0.869393 
12.595600 14.431865 35.577682 0.718209 0.691670 0.075954 
19.504020 -28.985548 -9.293585 -0.814576 -0.469060 -0.341245 
27.007850 -14.029465 51.715484 -0.466426 -0.672778 0.574297 
-16.659540 53.083729 -12.473534 -0.078903 0.903032 0.422265 
4.867046 41.249851 -20.482521 -0.599592 -0.366598 -0.711403 
19.206945 -2.815726 39.634542 -0.717267 -0.684259 0.131599 
21.076790 -32.210375 13.946470 -0.721435 -0.325155 0.611396 
18.236575 -20.098045 -1.956887 -0.991381 -0.107721 0.074561 
3.984611 24.886628 -5.633422 -0.569595 -0.646740 -0.507236 
8.893285 1.544390 11.966710 -0.884949 -0.462117 0.057552 
19.516210 -0.120225 -15.063690 -0.640931 -0.240257 -0.729029 
9.032190 24.533280 -23.297980 -0.157042 -0.837430 -0.523496 
17.970540 -16.010686 -5.362415 -0.999887 0.014427 -0.004283 
5.261840 8.353475 12.198435 -0.725698 -0.645726 -0.237487 
11.723880 23.701047 27.255295 0.553777 0.530304 0.641957 
28.237545 -0.817139 50.991354 0.714796 0.699179 0.014649 
-27.549925 36.191819 -2.088586 -0.025858 0.929496 0.367925 
16.278640 31.669473 -3.123598 0.863053 0.217798 -0.455745 
16.157145 18.093448 20.812225 0.938313 0.212329 0.272918 
11.308195 16.566657 40.799318 0.645030 0.763742 0.025193 
14.278115 9.482681 56.083742 0.172036 0.308604 0.935504 
17.591235 13.102102 4.996668 0.987771 -0.042228 -0.150087 
7.717665 4.411207 11.026670 -0.847503 -0.461533 -0.262155 
9.599940 21.575682 -12.034731 -0.336188 -0.852955 -0.399306 
19.965200 -33.926824 -5.494817 -0.562328 -0.765679 -0.312286 
21.629585 -22.211620 18.107836 -0.778115 -0.270808 0.566744 
30.193125 -33.887451 32.638051 -0.215968 -0.727473 0.651261 
3.954016 22.911787 34.600531 -0.820815 0.504754 0.267369 
10.536100 48.348921 -14.924780 0.740035 0.579183 0.341899 
1.374222 34.973356 -3.247666 -0.020424 -0.118775 0.992711 
15.425130 -21.616946 10.247902 -0.879972 -0.455464 0.134916 
-29.883905 30.042987 -1.486952 -0.822930 -0.234659 -0.517418 
-1.515630 46.158216 -17.967633 -0.738256 -0.620337 -0.264877 
-15.670055 23.674655 9.815080 -0.350352 -0.865321 0.358431 
24.217875 -31.524459 -8.729909 -0.250842 -0.743846 -0.619493 
23.644630 -35.765969 -1.667437 -0.267943 -0.936902 -0.224548 
15.977965 -5.195947 -9.510903 -0.638320 -0.532831 -0.555553 
22.563620 -2.726053 -2.548202 0.916263 0.344571 0.204285 
24.466780 -26.701825 12.150932 0.940846 0.314568 -0.125919 
20.541500 5.027338 -13.291754 0.299387 0.949747 -0.091370 
26.398545 -9.814199 -11.248964 0.889947 0.343691 0.299785 
8.988780 51.898832 -26.952502 0.468372 0.466210 -0.750517 
7.789710 35.834952 -20.589628 -0.101847 -0.115623 -0.988058 
10.554865 35.358264 -19.557434 0.541595 -0.134887 -0.829748 
-29.381210 36.082076 -6.738731 -0.860979 0.102571 -0.498190 
-20.173145 31.750669 4.082565 0.355660 0.934615 -0.001306 
30.421550 -39.633544 18.613232 0.897009 -0.421879 -0.131885 
30.103075 -22.106961 46.991884 -0.529558 -0.634681 0.562803 
19.952360 0.328687 5.877770 0.938085 0.273395 0.212726 
-27.039605 40.110512 -8.816864 -0.639189 0.765150 -0.077351 
-13.145375 47.498517 -13.649267 0.523961 -0.232397 0.819425 
17.517065 12.287280 18.447791 0.980925 0.189457 0.043493 
15.820255 25.795133 16.924144 -0.520390 0.837819 -0.165089 
-27.176930 29.246809 10.055193 -0.080874 0.045401 0.995690 
-26.213950 26.816381 -6.714718 -0.116091 -0.624208 -0.772585 
-31.120165 23.273114 2.038673 -0.907485 -0.300102 -0.293956 
13.246915 43.009485 -12.439552 0.803509 0.254898 0.537960 
11.543605 20.666205 18.070223 -0.364453 0.880126 -0.304224 
17.574290 6.060635 56.106001 0.268760 0.273208 0.923648 
12.937490 3.797446 55.238654 -0.657522 -0.678373 0.327835 
17.805070 14.106662 9.820840 0.997041 0.017262 0.074913 
3.732959 20.731146 33.890030 -0.946925 -0.262735 0.185212 
-9.753705 24.401499 14.850218 -0.671305 -0.328929 0.664195 
16.365635 20.566684 18.735176 0.952235 -0.078060 0.295221 
-7.327855 19.869773 9.385929 -0.367113 -0.738809 -0.565145 
16.962305 26.416127 19.975363 0.559029 0.785292 0.266088 
28.183355 -35.633782 2.373167 0.992092 0.018183 0.124188 
28.073765 -38.236293 26.918735 -0.595014 -0.517318 0.615093 
11.207515 49.826596 -20.011674 0.827961 0.553990 0.087039 
-7.113880 33.725540 1.575013 -0.520734 0.654452 -0.548204 
12.536390 -2.197553 -5.193162 -0.934756 0.151610 -0.321318 
2.737834 44.498630 -3.291494 -0.362926 0.919629 0.150223 
24.402385 -9.334013 -4.424098 0.929977 0.186312 0.316909 
-10.020160 22.108048 12.636848 -0.524450 -0.581226 0.622196 
-1.356088 22.144030 23.208763 -0.357171 0.056159 0.932349 
20.858870 -38.463977 9.524057 -0.562059 -0.825532 -0.050865 
20.024870 3.636147 -7.350659 0.303881 0.952506 0.019732 
6.538355 14.007154 32.060866 -0.782645 -0.597237 0.175426 
31.464115 -34.803539 31.878610 0.511091 -0.716937 0.474117 
24.020990 -41.209803 14.763039 -0.513826 -0.842889 0.159752 
-0.226368 54.036364 -26.088693 -0.309388 0.059843 -0.949051 
3.562308 19.026539 39.911085 -0.876089 0.079908 0.475482 
-19.224745 33.281486 -3.040172 0.904320 0.354983 -0.237052 
20.028855 -14.231008 19.507647 -0.765961 -0.416944 0.489348 
13.448140 39.538894 -14.872360 0.983008 -0.115247 0.142874 
15.210660 -4.757200 19.376260 -0.718648 -0.521960 0.459460 
21.501865 2.316422 33.308102 0.854520 0.486900 -0.180898 
5.493471 19.462622 15.610041 0.040374 0.976516 -0.211629 
-22.290915 26.582927 9.787108 0.047089 -0.295376 0.954220 
29.871800 -20.051610 35.819374 0.768405 0.381836 -0.513572 
7.157085 34.218840 -3.994077 -0.157014 0.037615 0.986880 
2.630243 43.068319 -6.469104 -0.303068 0.924937 -0.229439 
4.841781 25.231204 31.903527 -0.394909 0.892762 0.216849 
33.098580 -26.992961 39.078684 0.890388 -0.400274 0.216772 
-29.574185 25.069431 8.662937 -0.310487 -0.542422 0.780625 
-8.958425 20.409645 11.517500 -0.505237 -0.861176 0.055779 
24.466915 -35.609410 19.365809 -0.849780 -0.231453 0.473607 
32.270870 -33.480879 29.686681 0.984951 -0.100016 -0.140958 
4.322235 44.139783 -10.179091 -0.182092 0.867638 0.462653 
17.275765 1.238648 -13.145464 -0.738039 0.440174 -0.511415 
10.626185 25.291515 -18.607062 0.930068 -0.290014 -0.225533 
12.491080 15.342439 52.654135 0.493643 0.786190 0.371783 
7.399805 21.187249 21.506139 0.030202 0.830621 -0.556018 
-9.101365 23.613615 6.625661 -0.034997 -0.389924 -0.920182 
27.633705 -37.352666 2.047316 0.625415 -0.754154 -0.200270 
18.715635 -5.510545 -12.831089 -0.674186 -0.419903 -0.607581 
-31.255370 34.050807 -2.723741 -0.962478 0.242331 -0.122113 
20.862195 -4.727597 54.369517 -0.556382 -0.686558 0.468056 
-9.901900 52.986720 -21.225936 -0.390832 0.071311 -0.917695 
-29.874235 35.913033 -2.508886 -0.550758 0.828161 0.103999 
-13.494830 29.372402 7.880774 0.025222 0.532094 -0.846309 
-8.895610 49.816456 -17.815203 0.258682 -0.963038 -0.075105 
2.447858 24.018543 -0.054908 -0.016621 0.667757 0.744194 
11.386190 -12.359169 7.238157 -0.921607 -0.344946 -0.177910 
18.564755 20.461657 3.870166 0.972540 -0.072771 -0.221065 
23.414420 -8.463022 52.900661 -0.575929 -0.668794 0.470128 
-19.390100 50.487978 -9.720281 0.040698 0.406345 0.912813 
-28.346745 23.490750 -2.395768 -0.111636 -0.867435 -0.484865 
13.701615 37.239937 -1.545993 -0.286162 0.377940 0.880496 
-6.108765 26.209539 3.999759 -0.541614 -0.385131 -0.747214 
11.435810 46.165323 -25.661298 0.550423 -0.192354 -0.812425 
-1.180971 59.452968 -23.951788 -0.228685 0.633153 -0.739473 
-18.559335 42.289832 -12.987193 0.576539 -0.674403 -0.461284 
11.269315 33.875532 -17.524043 0.944809 -0.134421 -0.298774 
12.430460 39.163921 -18.859894 0.833507 -0.353303 -0.424787 
-20.385100 25.112436 8.874872 -0.093594 -0.915054 0.392321 
26.634055 -24.346259 -17.452062 -0.027756 -0.613866 -0.788922 
-23.188400 35.031693 -9.669511 0.508954 -0.565505 -0.648976 
19.338395 -18.593797 -14.718702 -0.669436 -0.321491 -0.669701 
9.290530 28.212456 -1.467667 -0.534132 0.369254 0.760496 
11.393425 17.136224 49.540321 0.168257 0.985502 0.021803 
-11.430540 32.683031 6.855408 -0.508415 0.316192 -0.800960 
25.651735 -14.947440 30.063193 0.820487 0.344932 -0.455877 
-11.089880 22.578900 7.379366 -0.153156 -0.817333 -0.555437 
20.855120 -8.848102 22.259233 0.882366 0.335208 -0.330252 
-11.353495 28.351064 14.147639 -0.581233 0.049029 0.812259 
-20.121995 43.116910 -14.142470 -0.039400 -0.339583 -0.939751 
-26.053480 24.780638 6.408152 0.153236 -0.947031 0.282224 
18.752370 4.304298 22.893974 0.939371 0.240368 -0.244551 
-1.015922 36.882267 -5.529480 -0.602927 0.502511 0.619647 
27.067355 -30.915844 19.954491 0.847934 0.445932 -0.286624 
17.484505 -26.040869 -7.841850 -0.959490 -0.281415 -0.013588 
25.000620 -37.204759 1.431278 -0.249326 -0.931950 -0.263260 
28.620960 -4.292538 53.232575 0.730076 0.272913 0.626504 
0.887994 21.568310 18.820677 0.376131 0.773817 -0.509639 
26.214270 -18.631714 -22.375403 0.121311 -0.262976 -0.957145 
11.576875 -6.172712 4.609179 -0.855624 -0.232073 -0.462655 
6.937025 7.977154 9.284818 -0.720062 -0.461218 -0.518449 
25.615380 -41.555730 20.297917 -0.406519 -0.843858 0.350208 
-19.827400 32.554710 -4.559516 0.763003 -0.376622 -0.525339 
21.514550 -26.028130 -12.524549 -0.418428 -0.511202 -0.750727 
3.337299 44.525092 -21.267059 -0.487553 -0.561925 -0.668230 
10.073055 -1.026812 12.470090 -0.829460 -0.465116 0.309293 
-9.713620 49.719815 -15.634234 0.486938 -0.541682 0.685180 
15.634590 32.694256 1.820525 -0.564006 0.487385 0.666598 
32.942165 -24.734852 38.600517 0.878762 0.287927 -0.380625 
-19.756785 51.297091 -11.523864 -0.630650 0.750182 -0.198766 
18.483305 -27.628459 11.753522 -0.707677 -0.277989 0.649550 
17.929740 -23.087440 -10.663569 -0.800159 -0.276532 -0.532237 
28.260370 -29.370145 26.661940 0.764527 0.442782 -0.468447 
-24.666260 41.605627 -12.245554 -0.654219 0.503175 -0.564635 
-1.348407 22.152115 10.488350 0.597925 0.775351 -0.203265 
29.481470 -30.510492 -5.387681 0.974072 -0.020851 0.225277 
7.094260 6.060715 14.889923 -0.720541 -0.651244 0.238124 
5.828275 9.096536 17.832661 -0.615151 -0.684503 0.391210 
0.481205 40.919381 -9.423237 -0.495994 0.779539 0.382505 
-1.569768 26.273289 -1.305729 -0.473259 -0.717656 -0.510878 
5.361602 33.405823 -16.640391 -0.776754 -0.305031 -0.551008 
7.785870 30.111995 -19.774839 -0.738298 0.150972 -0.657361 
6.537120 25.339856 -10.555549 -0.695825 -0.603193 -0.389854 
8.974740 19.942003 11.346590 -0.176715 0.978486 0.106475 
16.466825 -3.943293 24.164527 -0.737278 -0.582380 0.342424 
18.840115 -28.804833 -0.761679 -0.957338 -0.217291 -0.190498 
27.502025 -2.283102 45.116420 0.631709 0.669591 -0.390629 
7.949620 55.011598 -19.246687 0.679936 0.714508 0.164823 
21.557900 -8.335322 -13.803342 -0.929374 -0.009559 -0.369016 
28.381135 -12.486158 53.033999 -0.011786 -0.450895 0.892499 
18.192690 8.835042 23.467177 0.963228 0.243509 -0.113560 
18.514260 -11.224757 -6.531253 -0.912124 -0.190514 -0.362952 
14.238300 -2.739784 -10.057075 -0.744834 -0.304847 -0.593541 
21.271690 -11.919094 25.945171 -0.790034 -0.495469 0.361049 
24.401230 -5.147853 -7.913525 0.918909 0.333148 0.211232 
17.833995 5.045909 15.798926 0.989244 0.142712 -0.032084 
11.907100 -2.219753 -0.165725 -0.928283 -0.185738 -0.322169 
24.350690 -39.370734 7.240631 -0.255338 -0.918281 -0.302594 
-21.399195 36.344077 -3.950948 0.390313 0.783267 0.483889 
24.409335 -23.378313 2.361353 0.948900 0.196276 0.247113 
-24.143225 32.645275 7.443222 0.181716 0.794361 0.579629 
21.431220 4.676790 54.363165 0.546630 0.767570 0.334710 
-20.135855 40.083152 -7.759792 0.278165 0.512927 0.812115 
-10.322475 54.555490 -16.167759 0.213265 0.413978 0.884952 
32.811480 -12.505589 48.722475 0.883842 0.119943 0.452147 
-0.689049 60.339792 -21.629769 0.006423 0.999125 0.041322 
29.388090 -13.901833 -14.550688 0.947315 0.301569 0.107936 
17.759810 5.223059 -0.447433 0.287202 0.775457 -0.562300 
18.300420 -24.900048 -3.074190 -0.966821 -0.244479 0.074081 
18.609190 -28.716552 3.978046 -0.988948 0.016866 -0.147299 
8.272965 43.987198 -3.795097 0.231243 0.614353 0.754386 
29.742150 -25.441447 -15.163086 0.887084 -0.201274 -0.415415 
-14.777600 48.507911 -17.518141 -0.080860 -0.549302 -0.831703 
25.020335 -29.659705 6.919034 0.937041 0.341850 0.071363 
17.324990 -17.211431 -12.824715 -0.873951 0.046997 -0.483737 
-28.615250 35.049018 4.053482 -0.295806 0.921727 0.250835 
24.182115 -23.156922 -16.208838 -0.456852 -0.541309 -0.705883 
17.567110 8.474696 2.733559 0.837782 0.317484 -0.444212 
19.207235 4.423486 2.855158 0.887210 0.457714 -0.057931 
-0.294989 40.002005 -2.285630 -0.629996 0.251705 0.734676 
1.877000 48.822292 -14.007405 -0.268331 0.336433 0.902669 
-13.072240 26.597374 4.293055 0.493197 0.185257 -0.849963 
17.608065 -13.676830 -0.170145 -0.904999 -0.249129 -0.344835 
15.601735 -17.928025 5.339110 -0.739460 -0.487191 -0.464590 
17.607185 29.698799 7.488982 -0.174612 0.912095 0.370935 
8.668160 23.710659 -18.130251 -0.198667 -0.962572 -0.184356 
16.122835 16.559722 -0.815716 0.801633 -0.250380 -0.542857 
16.827210 13.058628 2.003541 0.828421 -0.069648 -0.555759 
7.254750 27.601552 -16.202516 -0.890820 -0.384809 -0.241583 
10.587030 31.632631 -19.966210 0.514740 0.260634 -0.816769 
19.112055 4.873847 -11.658688 -0.351055 0.929584 -0.112398 
14.754945 4.640084 -0.355999 -0.429303 0.513281 -0.743129 
-0.157334 58.879703 -19.138760 0.005251 0.684999 0.728525 
-16.446660 32.384151 9.337648 -0.139671 0.982347 -0.124447 
19.191225 -22.936242 6.570814 -0.879053 -0.188104 -0.438044 
9.831860 19.836867 14.468984 -0.276156 0.960842 -0.022832 
-5.221975 33.022801 1.831663 0.712483 0.574302 0.403169 
8.404195 18.441627 39.580935 0.370394 0.786902 0.493551 
13.533355 7.040331 0.980577 -0.418289 0.015487 -0.908182 
16.184790 3.504390 -3.097057 -0.409200 0.802372 -0.434459 
17.155430 -16.661169 -9.468919 -0.968170 0.236182 -0.082857 
31.070910 -19.613948 49.260157 0.280074 -0.536666 0.795957 
29.012995 -18.985153 -11.062268 0.868250 0.211863 0.448616 
30.406835 -4.356599 49.305040 0.868855 0.494913 -0.012378 
7.720755 24.275889 0.237948 -0.350582 0.709701 0.611079 
-24.070455 39.160491 -12.907638 -0.049410 -0.206261 -0.977249 
1.734523 26.182078 23.866442 -0.392497 0.881897 0.261160 
-0.676587 26.459888 -0.151205 0.582399 0.032176 0.812266 
9.312480 13.035442 54.899826 -0.415158 0.223974 0.881748 
30.947350 -37.636441 24.800371 0.882652 -0.469004 0.030990 
26.389080 -10.951512 -21.715782 0.481673 0.392178 -0.783701 
-6.785705 53.740117 -22.533495 -0.357612 -0.023673 -0.933570 
10.541420 1.141734 6.169154 -0.920937 -0.089569 -0.379279 
10.948160 26.007919 -23.839837 0.740771 -0.459664 -0.489865 
24.419775 -1.593750 39.765240 0.734785 0.581622 -0.349009 
24.782310 -15.551888 -21.785314 -0.290298 -0.252159 -0.923116 
-17.270710 25.972296 3.694733 0.004189 -0.901562 -0.432630 
14.352020 22.678758 12.793836 -0.636191 0.769823 0.051327 
31.648080 -31.002370 36.901720 0.089806 -0.762672 0.640521 
17.290265 -18.340251 2.112658 -0.896746 -0.309379 -0.316435 
23.195120 -18.899597 16.354458 0.921401 0.341092 -0.186216 
-0.937429 51.418518 -24.281268 -0.362744 -0.556301 -0.747627 
29.970670 -29.363380 37.182849 -0.619647 -0.559086 0.550873 
10.891055 22.803512 22.775348 -0.297146 0.685024 -0.665166 
2.962464 35.979026 -14.309093 -0.679825 -0.426945 -0.596285 
1.385649 23.767879 24.931797 -0.791857 0.135244 0.595543 
1.986711 18.817362 24.325558 -0.610405 -0.485522 0.625839 
18.275325 -36.218579 8.913889 -0.882961 -0.408734 0.230904 
23.136740 2.816177 -21.091179 0.324288 0.449645 -0.832260 
19.650225 -13.796835 -15.064752 -0.853340 0.412679 -0.318602 
-18.653400 43.264317 -9.948449 0.597947 -0.192030 0.778193 
12.790775 29.084275 -11.593571 0.891822 0.132714 -0.432481 
12.239825 40.541149 -3.254467 0.427343 0.791348 0.437202 
7.466155 10.640414 25.128230 -0.714176 -0.632838 0.299114 
17.883205 10.002463 6.945114 0.989319 0.143506 -0.025594 
18.497355 4.371945 9.070803 0.968549 0.208300 0.136106 
11.966135 5.076564 29.837966 -0.731718 -0.646228 0.216745 
1.080566 20.800442 16.192569 0.413174 0.886879 -0.206719 
1.542261 30.170149 -8.050476 -0.622413 -0.504892 -0.598068 
13.867050 28.219941 2.211527 -0.559859 0.536828 0.631168 
13.089060 5.446322 46.431809 -0.744489 -0.664333 0.066319 
33.644970 -13.770939 45.596577 0.933561 0.244329 -0.262235 
-4.873330 50.134661 -19.772311 -0.301313 -0.925733 0.228537 
1.689781 13.123663 17.183787 -0.481715 -0.750097 0.453105 
4.031966 12.024650 9.142467 -0.559269 -0.661856 -0.499165 
-18.185505 28.665850 -0.443486 0.441718 -0.619803 -0.648637 
7.082125 27.832672 -3.573295 -0.209266 0.378927 0.901455 
-3.412316 35.758534 -4.428093 -0.133840 0.839112 0.527235 
-24.699225 30.500152 9.207399 0.260887 0.370927 0.891264 
21.725025 -8.659916 6.197903 0.951893 0.202590 0.229907 
-26.681990 37.519060 -11.427729 -0.643271 0.094601 -0.759772 
15.867825 14.160632 26.109483 0.774887 0.592157 0.221135 
29.577485 -23.498312 -9.447922 0.952768 0.146731 0.265901 
6.477530 53.604657 -14.666873 0.406366 0.690305 0.598621 
-21.606110 44.615188 -13.694426 -0.526107 0.301891 -0.795031 
10.342315 42.761895 -10.377804 0.538883 0.373716 0.754945 
11.520875 37.773092 -10.947700 0.803918 0.219592 0.552717 
28.133980 -37.234393 7.285767 0.997169 0.015079 -0.073662 
21.735990 2.664678 40.298992 0.713401 0.692975 -0.104135 
31.783600 -13.997670 42.742841 0.792390 0.283729 -0.540014 
31.418370 -26.488178 33.536480 0.726062 0.450252 -0.519719 
11.755755 7.303905 49.015895 -0.791883 -0.607653 -0.060650 
26.319265 -20.527601 -5.867945 0.847559 0.230180 0.478186 
-1.933536 50.294687 -16.376747 -0.437090 0.035274 0.898726 
5.976366 51.423988 -12.969158 -0.042596 0.382712 0.922885 
12.130620 10.443816 0.745596 -0.481776 -0.484131 -0.730417 
17.917930 -16.791468 14.396993 -0.667544 -0.344580 0.660037 
-6.393585 32.928439 17.974419 -0.137638 0.606338 0.783205 
-23.636215 33.491484 2.714098 0.234376 0.939510 0.249778 
8.974595 53.587477 -24.602375 0.699907 0.607454 -0.375672 
14.315955 12.516935 37.338385 0.699364 0.711248 0.070825 
12.845175 43.477732 -22.409854 0.736439 -0.378571 -0.560661 
10.368530 39.676955 -21.125958 0.380210 -0.450816 -0.807593 
-22.752115 46.900685 -9.475050 -0.735231 0.577379 0.355063 
29.361455 -21.709837 -17.368794 0.844778 -0.124403 -0.520456 
-16.976675 30.030136 6.519435 0.436304 0.804765 -0.402482 
3.140836 45.409207 -12.046611 -0.236908 0.592681 0.769808 
-6.105765 26.419661 6.121398 0.756510 0.644495 0.110986 
18.166275 26.299701 2.363574 0.979787 0.117415 -0.161961 
-24.867235 41.484539 -8.999224 -0.264364 0.746603 0.610489 
-1.287279 33.997787 -4.739489 0.016210 0.272107 0.962130 
-31.700795 25.634980 6.052747 -0.902906 -0.189045 0.386033 
21.334050 -33.527271 1.061453 -0.555713 -0.814845 -0.164959 
9.429990 41.624047 -6.965909 0.583699 0.808614 0.073752 
-16.434145 29.872053 2.562978 0.555977 0.829682 0.050170 
10.958380 -5.481752 9.533015 -0.933067 -0.262495 0.245929 
-15.263250 45.209422 -14.152478 0.474738 -0.870018 -0.133011 
22.868935 -8.610338 37.918331 -0.767687 -0.594794 0.238489 
26.281900 -32.866984 11.262190 0.880861 0.452014 -0.140599 
7.478190 32.890035 -19.720125 -0.457338 -0.123836 -0.880628 
22.770905 -17.291361 7.822718 0.972951 0.209334 0.097698 
-0.732918 41.645143 -13.951015 -0.785152 -0.366485 -0.499224 
-19.421145 36.909863 -6.809035 0.927731 0.145365 0.343780 
-1.523134 22.446903 2.920154 -0.271935 -0.585775 -0.763491 
11.767685 3.245442 23.813354 -0.731750 -0.595985 0.330672 
22.982760 -7.898483 -19.974472 -0.450031 0.507868 -0.734535 
-22.575270 26.058800 2.020035 0.193397 -0.952277 -0.236151 
-3.646929 25.288175 14.964901 0.742641 0.632505 -0.220048 
16.274030 8.980255 55.218249 0.580351 0.658038 0.479769 
24.000030 0.812023 44.892398 0.543536 0.798449 -0.258937 
20.843695 -15.661857 -18.065179 -0.772372 -0.070704 -0.631224 
23.893010 -4.971660 55.709791 -0.140166 -0.438184 0.887890 
12.497425 -7.067375 12.158748 -0.743929 -0.389908 0.542717 
25.618270 -23.308849 23.585928 0.896679 0.321392 -0.304423 
-23.673515 28.619807 -4.307335 0.521835 -0.707678 -0.476318 
7.829750 45.468682 -11.345221 0.036814 0.535414 0.843787 
5.574019 57.635254 -24.771063 0.427985 0.774788 -0.465331 
18.771165 -1.450292 55.851627 -0.398653 -0.571528 0.717238 
21.010710 -10.114484 -10.229528 -0.877374 -0.073716 -0.474111 
-6.264240 22.207614 20.781889 -0.570320 -0.306596 0.762059 
-5.065935 16.677032 15.293103 -0.610331 -0.696283 0.377739 
13.387210 5.549036 56.260132 -0.225643 -0.186341 0.956223 
18.282115 -1.311678 49.637377 -0.706595 -0.705819 0.050432 
26.364470 -5.224614 55.401775 0.352145 -0.033375 0.935350 
19.404145 -6.242123 17.513149 0.957926 0.270963 -0.094639 
10.708990 16.317183 45.993655 0.347070 0.936516 -0.049801 
18.230555 24.796412 8.873809 0.995835 -0.031891 0.085409 
18.532450 19.023222 6.432087 0.992601 -0.085533 0.086177 
17.282045 34.255475 1.456819 0.601765 0.695345 0.392905 
21.666765 -13.521186 11.930430 0.960213 0.271482 0.065494 
-3.419003 27.905399 19.201897 0.715889 0.668981 0.199919 
19.242155 7.075897 29.061215 0.889648 0.453384 -0.054486 
14.753985 -5.580090 -5.325617 -0.783139 -0.577762 -0.229964 
8.184085 13.806275 44.090053 -0.926242 -0.165741 0.338536 
11.367145 32.963380 -14.706705 0.978565 -0.124500 -0.164041 
11.103085 7.739940 38.058641 -0.738594 -0.657389 0.149392 
17.404965 11.582375 25.671244 0.884405 0.461364 0.070507 
-10.765235 55.772272 -18.235108 -0.393671 0.912883 -0.108018 
-2.959649 35.635053 -7.154652 -0.845908 -0.069189 -0.528822 
28.491715 -22.926578 36.894431 -0.887058 -0.328412 0.324458 
-5.250620 28.922487 9.758698 0.822799 0.422359 -0.380283 
11.754680 36.047983 -9.123345 0.881714 0.417183 -0.220317 
7.301180 16.794788 0.385832 -0.559043 -0.628299 -0.541028 
3.333240 24.299244 29.616607 -0.763174 0.574090 0.296625 
25.331310 -6.365483 -18.792936 0.593016 0.376017 -0.711999 
12.631335 19.496483 -8.042477 0.507029 -0.584047 -0.633886 
8.373900 48.026576 -27.948340 -0.064871 -0.308989 -0.948851 
-9.607745 26.748184 6.417264 -0.145490 0.172991 -0.974118 
27.106410 -40.110265 8.355692 0.366845 -0.902538 -0.225500 
28.606770 -41.064258 14.865630 0.548828 -0.824713 -0.136512 
30.044990 -38.303308 27.478210 0.350988 -0.804547 0.479074 
24.268215 -20.916425 25.088147 -0.851817 -0.317863 0.416378 
27.339860 -17.129637 39.587291 -0.859038 -0.437218 0.266259 
8.001860 27.492119 -24.781220 -0.738151 0.073010 -0.670673 
18.689980 -33.825507 4.120853 -0.778925 -0.523206 -0.345733 
-15.873840 27.631106 10.981182 -0.346208 -0.126748 0.929556 
-0.374632 14.508706 9.799039 -0.421940 -0.792665 -0.440055 
29.743005 -28.212207 -13.274888 0.750458 -0.486032 -0.447867 
0.281250 20.485528 7.144890 0.370595 0.916266 0.152040 
26.305095 -29.514001 0.786823 0.884078 0.354982 0.303962 
30.403980 -25.650824 42.603114 -0.710685 -0.555461 0.431729 
23.718240 0.496308 -18.511025 0.903304 0.383175 -0.192920 
-25.509020 24.962108 1.284473 0.413888 -0.907115 -0.076417 
-4.924810 59.131041 -21.579999 -0.383940 0.827645 -0.409382 
9.887615 18.231915 -5.484857 -0.547631 -0.713926 -0.436360 
3.264886 17.376427 25.430515 -0.707639 -0.602088 0.369780 
11.321565 -8.628649 5.962388 -0.924949 -0.157509 -0.345919 
8.996780 22.807612 32.728996 0.738545 0.515968 0.433968 
10.754830 18.387585 33.143766 0.764434 0.580894 0.279648 
5.317489 18.217844 41.156022 -0.277999 0.235453 0.931278 
10.045995 5.666306 5.635051 -0.773553 -0.178747 -0.608001 
5.449712 21.725915 2.823882 -0.099905 0.909395 0.403758 
26.741465 -30.743246 -11.477206 -0.085009 -0.762347 -0.641560 
15.277085 25.430666 23.849485 0.717368 0.234923 0.655892 
6.151615 15.221245 39.347828 -0.764403 -0.608671 0.212619 
-7.689005 35.945859 13.089607 -0.187416 0.934545 0.302493 
5.889991 38.094707 -19.977827 -0.527566 -0.271892 -0.804829 
-7.218685 35.985584 4.702451 0.229837 0.916353 -0.327828 
22.276020 -17.741601 -19.150769 -0.537541 -0.401529 -0.741501 
26.672075 -8.948599 -14.706445 0.893191 0.447041 -0.048627 
25.236750 2.034717 53.353382 0.611306 0.628140 0.481399 
13.646780 11.761166 -0.428493 0.056078 -0.512706 -0.856731 
13.520705 44.830017 -20.778814 0.968063 0.204576 -0.144922 
9.575095 26.510125 25.428591 0.146672 0.980093 -0.133807 
8.272825 15.451743 50.870850 -0.856848 0.490198 0.159743 
22.407545 0.376994 -7.913638 0.846263 0.515726 0.133662 
11.328435 23.009171 -13.890003 0.695986 -0.533489 -0.480617 
12.852735 0.868287 -0.723456 -0.773216 0.419816 -0.475280 
14.919965 13.294130 -0.732264 0.594532 -0.325925 -0.735054 
16.601215 24.768273 -3.720902 0.891749 -0.043733 -0.450412 
-5.699975 51.932137 -17.122322 0.177846 -0.396696 0.900557 
1.377061 58.765197 -24.802933 0.055938 0.749269 -0.659899 
12.022075 17.832973 -6.626671 -0.107381 -0.773568 -0.624550 
30.951180 -16.227056 50.674555 0.244931 -0.462752 0.851980 
-30.338505 22.162398 3.042132 -0.173789 -0.965931 0.191769 
16.574505 7.720682 48.214033 0.672098 0.736265 -0.078722 
29.328400 -38.791948 13.870921 0.957286 0.128083 -0.259225 
-2.722739 49.361643 -21.326176 -0.301452 -0.855240 -0.421535 
1.582588 12.059443 13.620716 -0.554946 -0.831784 0.013060 
33.912815 -23.723012 42.218348 0.995784 -0.088946 0.022410 
-31.196510 29.846197 3.929726 -0.981012 0.189953 0.039166 
-10.176265 35.135625 9.790059 -0.376191 0.926456 -0.012608 
-6.760425 28.779533 8.218615 0.936774 0.280720 -0.208929 
6.244925 24.135926 36.135440 0.053731 0.830556 0.554337 
15.420795 37.448587 -1.796135 0.695274 0.718402 0.022183 
-5.728845 57.742958 -19.157042 -0.086264 0.679850 0.728260 
-2.877040 17.763527 20.659190 -0.407725 -0.657407 0.633701 
-8.600705 29.700841 17.168789 -0.691496 0.123537 0.711739 
30.146500 -10.569509 52.856057 0.592914 -0.131315 0.794487 
19.038560 -3.585366 13.962239 0.963950 0.222969 0.145206 
3.428350 50.743111 -26.946708 -0.351362 -0.323883 -0.878433 
13.355595 22.209936 -8.657834 0.813386 -0.247691 -0.526358 
7.059830 44.427181 -23.607052 -0.310796 -0.493694 -0.812202 
23.479735 -8.436934 44.113935 -0.765667 -0.635634 0.098608 
9.795495 47.107453 -12.275169 0.401997 0.470239 0.785667 
16.557965 -26.518991 8.913504 -0.983771 -0.083731 -0.158691 
27.313155 -41.393675 23.077255 0.148137 -0.915959 0.372927 
-11.123795 32.001511 12.734432 -0.568978 0.453359 0.686098 
11.050780 14.978077 -2.738454 -0.397324 -0.676936 -0.619589 
20.152200 2.801449 -1.835848 0.757506 0.652502 0.020645 
29.686295 -19.428575 -13.803071 0.994785 0.087456 0.052486 
4.632243 28.809285 -11.129593 -0.740529 -0.464709 -0.485451 
9.725500 10.089267 3.983513 -0.647849 -0.429980 -0.628816 
31.558850 -25.198343 43.935020 0.136793 -0.743440 0.654663 
13.136565 26.544992 23.979111 -0.014330 0.997131 0.074322 
23.143335 -11.546436 -22.998327 -0.500780 0.076449 -0.862192 
16.011590 9.100297 1.290986 0.416002 0.090436 -0.904856 
21.002345 3.738811 -19.326340 -0.641235 0.326688 -0.694329 
13.925055 -4.909158 0.467079 -0.822483 -0.472784 -0.316222 
3 481 415 172 
3 190 229 400 
3 175 268 95 
3 83 106 169 
3 262 273 82 
3 140 424 239 
3 477 24 243 
3 373 137 223 
3 420 148 119 
3 163 321 459 
3 198 497 42 
3 198 235 497 
3 319 340 402 
3 28 364 204 
3 472 436 29 
3 391 340 319 
3 42 497 30 
3 301 492 429 
3 82 209 345 
3 35 277 270 
3 61 204 373 
3 123 258 249 
3 432 474 244 
3 33 60 411 
3 466 321 19 
3 173 460 132 
3 309 102 168 
3 267 220 422 
3 240 377 110 
3 290 300 19 
3 436 66 29 
3 176 95 351 
3 422 264 267 
3 407 326 34 
3 360 463 146 
3 244 474 271 
3 70 103 112 
3 158 469 254 
3 430 448 413 
3 153 394 182 
3 367 336 252 
3 143 258 123 
3 429 492 99 
3 290 160 432 
3 146 189 140 
3 94 268 368 
3 86 20 87 
3 280 24 462 
3 91 128 454 
3 103 229 234 
3 482 47 54 
3 327 239 13 
3 94 95 268 
3 457 450 414 
3 65 323 199 
3 309 365 102 
3 451 80 108 
3 327 105 140 
3 218 60 33 
3 249 32 142 
3 202 76 53 
3 382 90 299 
3 196 376 399 
3 392 228 477 
3 166 357 395 
3 38 261 42 
3 179 383 51 
3 184 3 338 
3 138 37 337 
3 477 462 24 
3 468 145 207 
3 14 389 147 
3 2 22 296 
3 224 247 10 
3 91 269 128 
3 284 51 329 
3 58 306 127 
3 121 183 446 
3 274 139 109 
3 434 129 113 
3 330 7 437 
3 418 200 131 
3 426 178 250 
3 41 309 371 
3 107 469 83 
3 98 485 200 
3 46 409 471 
3 358 309 352 
3 383 179 201 
3 181 318 170 
3 426 250 331 
3 225 378 67 
3 15 244 271 
3 168 102 55 
3 216 434 322 
3 197 294 289 
3 379 447 180 
3 420 301 408 
3 53 76 10 
3 142 32 81 
3 156 194 20 
3 48 453 340 
3 29 40 144 
3 84 203 370 
3 409 399 376 
3 293 138 337 
3 388 1 114 
3 63 292 264 
3 130 419 149 
3 61 74 291 
3 279 253 210 
3 241 237 371 
3 424 177 85 
3 217 150 355 
3 144 79 472 
3 30 497 401 
3 0 165 82 
3 137 232 223 
3 15 271 16 
3 348 226 120 
3 435 198 42 
3 446 275 121 
3 88 62 157 
3 161 101 96 
3 72 153 287 
3 61 291 28 
3 198 28 291 
3 247 248 31 
3 333 284 212 
3 269 91 151 
3 430 454 448 
3 197 43 353 
3 189 146 463 
3 129 434 312 
3 3 36 338 
3 481 44 445 
3 263 45 357 
3 261 262 42 
3 261 64 59 
3 456 122 235 
3 58 127 131 
3 116 155 171 
3 57 404 315 
3 75 221 267 
3 455 264 152 
3 234 314 313 
3 200 418 98 
3 270 246 278 
3 152 403 310 
3 222 23 139 
3 201 179 41 
3 333 212 352 
3 329 212 284 
3 390 111 386 
3 306 58 209 
3 264 75 267 
3 124 92 233 
3 279 193 59 
3 3 8 293 
3 175 403 152 
3 439 491 277 
3 96 158 161 
3 401 231 88 
3 421 232 420 
3 84 342 321 
3 115 442 7 
3 124 233 89 
3 275 286 359 
3 285 412 40 
3 470 446 183 
3 46 11 409 
3 8 184 186 
3 302 109 154 
3 421 420 408 
3 309 358 241 
3 141 211 184 
3 135 420 232 
3 239 347 254 
3 239 254 13 
3 139 316 196 
3 96 83 158 
3 176 350 451 
3 400 229 405 
3 46 444 11 
3 214 426 331 
3 262 31 273 
3 388 114 389 
3 488 257 89 
3 304 113 412 
3 237 97 363 
3 274 296 22 
3 52 330 437 
3 380 392 12 
3 133 438 472 
3 49 188 333 
3 295 85 177 
3 413 448 289 
3 90 398 299 
3 257 313 314 
3 443 133 113 
3 313 73 112 
3 86 178 441 
3 60 221 433 
3 119 148 200 
3 447 294 255 
3 286 33 164 
3 260 354 162 
3 313 256 73 
3 391 167 159 
3 88 157 387 
3 350 351 172 
3 451 350 172 
3 5 164 325 
3 55 208 168 
3 386 380 12 
3 288 18 149 
3 241 371 309 
3 101 358 212 
3 493 66 442 
3 237 68 347 
3 215 61 373 
3 231 401 122 
3 411 433 487 
3 328 478 398 
3 2 318 22 
3 115 7 70 
3 38 401 230 
3 87 361 76 
3 402 453 394 
3 119 419 78 
3 160 49 406 
3 121 326 407 
3 88 387 230 
3 374 289 494 
3 421 429 99 
3 114 187 424 
3 397 263 357 
3 214 428 118 
3 37 330 349 
3 385 26 460 
3 73 256 266 
3 126 305 304 
3 482 391 57 
3 162 354 272 
3 134 260 324 
3 363 260 134 
3 291 439 35 
3 40 196 285 
3 325 181 142 
3 218 33 286 
3 448 454 233 
3 272 424 486 
3 336 118 428 
3 247 224 248 
3 309 174 365 
3 313 112 103 
3 185 295 260 
3 301 78 297 
3 277 491 344 
3 5 81 359 
3 14 116 425 
3 399 409 11 
3 404 402 443 
3 117 45 104 
3 335 410 136 
3 306 484 248 
3 393 398 478 
3 434 216 312 
3 145 149 207 
3 401 88 230 
3 419 485 288 
3 328 369 238 
3 431 383 375 
3 142 311 249 
3 486 424 187 
3 37 464 337 
3 246 488 128 
3 260 162 416 
3 218 407 317 
3 342 84 34 
3 344 411 487 
3 124 27 92 
3 20 194 87 
3 14 322 475 
3 320 24 338 
3 394 71 276 
3 53 10 247 
3 70 112 115 
3 328 398 369 
3 264 455 75 
3 78 130 297 
3 387 157 227 
3 417 418 131 
3 183 416 162 
3 45 115 395 
3 85 147 125 
3 216 215 312 
3 280 468 24 
3 353 43 245 
3 282 195 243 
3 164 5 286 
3 460 15 385 
3 77 420 135 
3 427 23 440 
3 312 215 373 
3 39 427 440 
3 75 433 221 
3 60 317 221 
3 376 213 409 
3 34 84 370 
3 42 165 435 
3 248 273 31 
3 298 31 262 
3 298 262 261 
3 234 478 314 
3 389 14 475 
3 223 366 373 
3 291 74 439 
3 377 240 464 
3 406 49 55 
3 73 266 166 
3 296 274 109 
3 326 191 217 
3 33 372 39 
3 32 258 81 
3 209 77 345 
3 13 360 146 
3 21 283 440 
3 449 392 195 
3 238 252 428 
3 10 423 224 
3 490 267 221 
3 65 467 323 
3 445 219 56 
3 444 346 11 
3 318 181 21 
3 266 256 495 
3 476 187 114 
3 1 476 114 
3 317 407 370 
3 7 442 66 
3 409 213 356 
3 296 263 2 
3 251 188 49 
3 79 113 133 
3 201 324 383 
3 110 390 12 
3 260 295 324 
3 276 438 402 
3 58 148 77 
3 230 64 38 
3 7 330 9 
3 122 278 4 
3 480 455 6 
3 423 127 306 
3 42 262 165 
3 75 461 433 
3 259 342 34 
3 406 242 474 
3 117 104 493 
3 278 456 270 
3 440 164 39 
3 404 443 129 
3 342 459 321 
3 145 130 149 
3 425 116 372 
3 126 285 399 
3 449 195 67 
3 149 18 339 
3 495 277 450 
3 478 328 100 
3 302 154 40 
3 170 311 142 
3 339 18 211 
3 400 330 37 
3 362 410 335 
3 208 49 333 
3 259 343 16 
3 9 103 70 
3 245 448 92 
3 365 174 188 
3 203 56 303 
3 303 317 370 
3 4 151 122 
3 311 410 362 
3 86 255 178 
3 227 50 374 
3 97 239 272 
3 454 430 91 
3 423 361 127 
3 112 396 115 
3 216 322 467 
3 289 374 413 
3 263 104 45 
3 222 139 274 
3 458 357 166 
3 371 134 201 
3 446 470 46 
3 132 479 300 
3 378 337 464 
3 333 352 208 
3 451 120 80 
3 226 80 120 
3 190 393 234 
3 385 348 26 
3 362 150 143 
3 186 190 8 
3 336 465 418 
3 53 210 202 
3 319 57 391 
3 432 160 406 
3 12 240 110 
3 336 367 465 
3 242 205 459 
3 325 142 5 
3 67 378 449 
3 233 454 89 
3 480 414 455 
3 175 176 403 
3 214 341 428 
3 458 265 480 
3 221 317 490 
3 345 77 135 
3 483 80 332 
3 111 391 386 
3 157 50 227 
3 253 180 210 
3 105 327 13 
3 130 78 419 
3 380 167 228 
3 151 91 496 
3 297 130 145 
3 243 24 320 
3 219 445 368 
3 489 331 250 
3 54 462 228 
3 67 195 282 
3 214 118 156 
3 458 480 6 
3 249 143 123 
3 277 246 270 
3 311 473 410 
3 141 338 468 
3 397 357 69 
3 377 153 72 
3 52 349 330 
3 260 363 354 
3 310 455 152 
3 55 49 208 
3 384 259 355 
3 372 286 39 
3 300 466 19 
3 292 63 422 
3 308 279 387 
3 213 427 356 
3 237 241 358 
3 467 65 215 
3 468 492 145 
3 263 206 2 
3 1 25 346 
3 342 16 271 
3 457 265 266 
3 486 444 470 
3 145 492 297 
3 375 177 189 
3 493 442 117 
3 90 369 398 
3 307 62 496 
3 287 390 72 
3 211 192 382 
3 48 111 390 
3 247 59 193 
3 494 308 374 
3 317 60 218 
3 209 82 484 
3 47 99 280 
3 343 259 384 
3 68 161 254 
3 140 189 177 
3 434 305 322 
3 490 303 219 
3 383 106 51 
3 432 406 474 
3 155 260 416 
3 245 489 353 
3 27 245 92 
3 52 71 349 
3 474 342 271 
3 371 201 41 
3 356 275 471 
3 489 245 281 
3 153 453 287 
3 420 77 148 
3 110 72 390 
3 453 153 182 
3 252 336 428 
3 450 344 487 
3 321 466 84 
3 7 436 437 
3 257 314 100 
3 86 87 76 
3 141 339 211 
3 323 425 372 
3 386 159 380 
3 231 62 88 
3 256 257 246 
3 475 126 388 
3 170 206 397 
3 173 244 460 
3 197 353 178 
3 237 358 68 
3 277 344 450 
3 323 491 199 
3 133 443 438 
3 362 143 249 
3 442 115 117 
3 124 238 341 
3 219 303 56 
3 426 441 178 
3 108 335 136 
3 415 26 93 
3 176 136 403 
3 299 393 186 
3 316 139 23 
3 83 96 51 
3 475 322 305 
3 203 415 481 
3 432 173 290 
3 29 66 452 
3 380 228 392 
3 347 239 97 
3 9 330 405 
3 402 404 319 
3 160 19 251 
3 469 13 254 
3 135 137 345 
3 205 163 459 
3 124 328 238 
3 282 243 320 
3 158 83 469 
3 50 62 307 
3 377 464 153 
3 428 341 238 
3 424 140 177 
3 289 43 197 
3 10 76 361 
3 391 159 386 
3 458 6 69 
3 486 476 346 
3 363 134 237 
3 349 71 394 
3 17 299 186 
3 36 293 225 
3 258 191 359 
3 276 71 437 
3 233 92 448 
3 179 284 174 
3 446 46 471 
3 121 171 183 
3 411 491 323 
3 170 473 311 
3 212 329 101 
3 98 18 288 
3 375 324 295 
3 153 464 394 
3 222 22 440 
3 167 54 228 
3 191 258 217 
3 495 256 246 
3 232 366 223 
3 393 299 398 
3 316 23 213 
3 484 82 273 
3 284 179 51 
3 371 237 134 
3 421 47 366 
3 191 326 359 
3 286 275 356 
3 122 497 235 
3 375 189 431 
3 50 307 430 
3 22 21 440 
3 139 154 109 
3 470 183 272 
3 483 332 343 
3 12 390 386 
3 125 424 85 
3 372 171 218 
3 396 73 166 
3 287 48 390 
3 494 294 447 
3 486 470 272 
3 356 427 39 
3 104 296 109 
3 184 382 17 
3 29 452 40 
3 309 41 174 
3 185 116 147 
3 331 341 214 
3 36 225 282 
3 459 342 474 
3 24 468 338 
3 165 0 364 
3 35 439 277 
3 105 146 140 
3 372 218 286 
3 451 108 136 
3 454 128 488 
3 461 487 433 
3 100 314 478 
3 141 184 338 
3 225 67 282 
3 6 310 69 
3 364 0 381 
3 239 327 140 
3 113 304 305 
3 311 362 249 
3 489 281 331 
3 119 200 485 
3 254 347 68 
3 39 286 356 
3 203 481 56 
3 318 2 206 
3 144 40 412 
3 198 291 235 
3 451 136 176 
3 394 276 402 
3 400 405 330 
3 58 131 148 
3 267 219 220 
3 156 417 236 
3 248 484 273 
3 445 94 368 
3 107 83 169 
3 38 64 261 
3 360 107 463 
3 98 418 465 
3 370 407 34 
3 149 339 207 
3 155 185 260 
3 456 278 122 
3 391 111 340 
3 341 281 27 
3 37 138 400 
3 351 44 172 
3 152 264 292 
3 103 9 405 
3 82 345 0 
3 8 138 293 
3 343 332 16 
3 20 426 214 
3 104 302 493 
3 115 45 117 
3 53 247 193 
3 397 206 263 
3 431 189 463 
3 361 423 10 
3 168 352 309 
3 160 290 19 
3 447 202 180 
3 128 4 278 
3 421 99 47 
3 366 57 315 
3 196 399 285 
3 383 324 375 
3 38 42 30 
3 205 242 102 
3 20 214 156 
3 185 85 295 
3 339 141 207 
3 119 301 420 
3 373 366 315 
3 464 349 394 
3 203 300 479 
3 423 248 224 
3 131 127 236 
3 96 329 51 
3 95 44 351 
3 480 265 414 
3 456 35 270 
3 222 274 22 
3 12 392 449 
3 121 275 326 
3 14 425 467 
3 457 266 495 
3 170 318 206 
3 102 365 205 
3 477 195 392 
3 429 421 408 
3 12 449 240 
3 490 317 303 
3 199 74 65 
3 26 348 93 
3 290 173 132 
3 216 467 215 
3 78 301 119 
3 298 261 59 
3 229 103 405 
3 367 192 465 
3 165 262 82 
3 100 328 89 
3 350 176 351 
3 192 18 98 
3 32 249 258 
3 59 247 31 
3 429 408 301 
3 378 225 293 
3 192 90 382 
3 425 323 467 
3 46 470 444 
3 116 14 147 
3 190 138 8 
3 324 201 134 
3 388 389 475 
3 166 395 396 
3 360 13 469 
3 48 287 453 
3 485 98 288 
3 467 322 14 
3 495 246 277 
3 43 448 245 
3 163 205 365 
3 346 399 11 
3 28 435 364 
3 186 184 17 
3 5 359 286 
3 169 106 383 
3 257 100 89 
3 15 226 385 
3 75 414 461 
3 84 466 300 
3 462 477 228 
3 468 207 141 
3 198 435 28 
3 194 361 87 
3 357 458 69 
3 40 154 196 
3 362 384 150 
3 63 264 422 
3 101 68 358 
3 292 422 268 
3 279 210 193 
3 369 90 252 
3 284 333 188 
3 437 71 52 
3 113 79 412 
3 105 13 146 
3 172 415 93 
3 387 279 230 
3 170 397 473 
3 47 462 54 
3 8 3 184 
3 257 488 246 
3 175 95 176 
3 169 383 431 
3 340 453 402 
3 257 256 313 
3 388 126 25 
3 362 335 334 
3 308 253 279 
3 362 334 384 
3 234 313 103 
3 280 99 492 
3 357 45 395 
3 204 137 373 
3 41 179 174 
3 211 18 192 
3 293 337 378 
3 89 328 124 
3 464 240 378 
3 219 368 220 
3 250 178 353 
3 231 151 62 
3 411 323 372 
3 162 272 183 
3 494 447 379 
3 181 283 21 
3 86 76 202 
3 211 382 184 
3 231 122 151 
3 455 310 6 
3 263 296 104 
3 237 347 97 
3 229 190 234 
3 26 479 132 
3 69 310 410 
3 137 135 232 
3 341 331 281 
3 315 129 312 
3 282 320 36 
3 355 34 217 
3 417 131 236 
3 364 435 165 
3 308 379 253 
3 272 239 424 
3 355 259 34 
3 251 19 163 
3 360 469 107 
3 368 268 220 
3 361 194 236 
3 460 26 132 
3 268 175 152 
3 348 120 451 
3 69 410 473 
3 319 404 57 
3 252 90 367 
3 315 404 129 
3 426 20 441 
3 423 306 248 
3 384 483 343 
3 414 450 461 
3 116 185 155 
3 491 439 199 
3 334 108 483 
3 252 238 369 
3 20 86 441 
3 0 345 381 
3 381 204 364 
3 482 57 366 
3 310 403 410 
3 185 147 85 
3 151 496 62 
3 204 381 137 
3 56 481 445 
3 79 144 412 
3 452 66 493 
3 203 303 370 
3 203 84 300 
3 3 293 36 
3 316 376 196 
3 284 188 174 
3 463 107 169 
3 144 472 29 
3 251 163 365 
3 472 438 276 
3 113 129 443 
3 436 7 66 
3 430 413 50 
3 44 481 172 
3 401 38 30 
3 379 308 494 
3 381 345 137 
3 59 31 298 
3 150 217 143 
3 115 396 395 
3 192 367 90 
3 266 265 166 
3 280 462 47 
3 243 195 477 
3 453 182 394 
3 414 75 455 
3 399 346 25 
3 312 373 315 
3 240 449 378 
3 7 9 70 
3 409 356 471 
3 393 190 186 
3 244 15 460 
3 494 289 294 
3 118 336 156 
3 290 132 300 
3 161 158 254 
3 407 218 171 
3 437 436 276 
3 283 181 325 
3 374 308 227 
3 190 400 138 
3 468 280 492 
3 209 484 306 
3 365 188 251 
3 253 379 180 
3 97 272 354 
3 19 321 163 
3 244 173 432 
3 440 23 222 
3 202 210 180 
3 86 202 255 
3 245 27 281 
3 142 81 5 
3 148 131 200 
3 291 456 235 
3 58 77 209 
3 411 60 433 
3 25 126 399 
3 255 294 197 
3 217 34 326 
3 389 125 147 
3 154 139 196 
3 51 106 83 
3 212 358 352 
3 283 325 164 
3 61 215 74 
3 226 15 332 
3 361 236 127 
3 194 156 236 
3 27 124 341 
3 72 110 377 
3 457 495 450 
3 401 497 122 
3 157 62 50 
3 474 242 459 
3 25 1 388 
3 96 101 329 
3 375 295 177 
3 445 44 94 
3 155 416 171 
3 307 91 430 
3 416 183 171 
3 320 338 36 
3 342 259 16 
3 166 265 458 
3 436 472 276 
3 448 43 289 
3 387 227 308 
3 164 33 39 
3 258 143 217 
3 334 335 108 
3 226 332 80 
3 102 242 55 
3 299 17 382 
3 397 69 473 
3 415 479 26 
3 79 133 472 
3 226 348 385 
3 246 128 278 
3 332 15 16 
3 302 452 493 
3 363 97 354 
3 457 414 265 
3 167 380 159 
3 267 490 219 
3 419 288 149 
3 374 50 413 
3 476 486 187 
3 344 491 411 
3 230 279 64 
3 80 483 108 
3 434 113 305 
3 407 171 121 
3 348 172 93 
3 346 476 1 
3 450 487 461 
3 318 21 22 
3 232 421 366 
3 417 156 336 
3 193 210 53 
3 496 91 307 
3 452 302 40 
3 114 424 125 
3 111 48 340 
3 410 403 136 
3 475 305 126 
3 49 160 251 
3 411 372 33 
3 213 23 427 
3 4 269 151 
3 451 172 348 
3 384 355 150 
3 98 465 192 
3 334 483 384 
3 492 301 297 
3 101 161 68 
3 485 419 119 
3 169 431 463 
3 316 213 376 
3 234 393 478 
3 197 178 255 
3 292 268 152 
3 447 255 202 
3 128 269 4 
3 73 396 112 
3 486 346 444 
3 279 59 64 
3 37 349 464 
3 208 352 168 
3 220 268 422 
3 44 95 94 
3 391 482 167 
3 412 285 304 
3 406 55 242 
3 47 482 366 
3 438 443 402 
3 471 275 446 
3 479 415 203 
3 171 372 116 
3 89 454 488 
3 167 482 54 
3 336 418 417 
3 302 104 109 
3 164 440 283 
3 258 359 81 
3 74 215 65 
3 389 114 125 
3 291 35 456 
3 439 74 199 
3 353 489 250 
3 181 170 142 
3 359 326 275 
3 61 28 204 
3 126 304 285 
