ply
format ascii 1.0
comment created by MATLAB plywrite
element vertex 248
property float x
property float y
property float z
property float nx
property float ny
property float nz
element face 500
property list uchar int vertex_indices
end_header
14.450390 28.120410 2.822998 -0.585261 0.528290 0.615126 
26.325925 -6.771404 37.763143 0.759060 0.441553 -0.478393 
22.207590 -3.410712 29.797349 0.852621 0.351658 -0.386490 
4.846961 58.806588 -23.921687 0.402356 0.899078 -0.172535 
31.683655 -35.934753 25.792507 0.943983 0.139572 -0.299026 
-10.261250 52.709794 -20.892805 -0.373450 -0.235771 -0.897189 
33.484185 -16.994097 46.743607 0.964142 -0.052186 0.260206 
10.092125 -2.126869 10.869063 -0.884774 -0.414365 0.213251 
-0.939548 42.340513 -11.907161 -0.754356 0.500760 0.424484 
33.362755 -11.630963 46.900676 0.931085 0.339114 -0.134475 
18.317510 7.762194 35.585139 0.762016 0.646501 0.036984 
-0.697159 22.896417 3.497869 0.385931 0.899466 0.204983 
8.457105 26.646662 26.323303 0.157432 0.958631 -0.237155 
18.216365 27.577780 10.324622 0.864386 0.469320 0.180487 
-7.227235 36.014380 5.215363 0.382887 0.852360 -0.356203 
27.135520 -13.891033 51.227951 -0.579560 -0.634973 0.510803 
8.587875 12.611198 54.744194 -0.664758 0.111186 0.738738 
-17.922640 49.253129 -15.954201 -0.527124 0.407370 -0.745781 
19.856235 -29.684732 -8.728980 -0.765247 -0.470645 -0.439193 
-16.659540 53.083729 -12.473534 -0.096505 0.933229 0.346077 
18.085650 1.906005 -14.055268 -0.743547 0.207797 -0.635577 
18.095535 -19.187817 -2.949886 -0.996075 -0.088333 -0.005713 
10.575890 23.478363 28.760976 0.633599 0.541144 0.552915 
-27.549925 36.191819 -2.088586 0.075634 0.915457 0.395243 
16.462575 8.872076 55.678421 0.463222 0.641480 0.611497 
10.245055 18.166658 -5.908457 -0.401352 -0.762258 -0.507818 
19.965200 -33.926824 -5.494817 -0.565297 -0.756953 -0.327812 
13.085225 42.965306 -12.152711 0.802477 0.288838 0.522114 
2.630959 30.063467 -3.320632 0.103769 0.147821 0.983555 
-29.883905 30.042987 -1.486952 -0.856304 -0.230876 -0.461996 
-0.431260 43.465314 -15.811714 -0.799573 -0.436063 -0.412956 
-19.169310 25.113002 8.912821 -0.157443 -0.943918 0.290225 
23.853620 -30.319935 -10.025730 -0.283929 -0.702005 -0.653126 
22.230420 -0.712926 -3.376617 0.878871 0.451026 0.155436 
22.118170 4.179794 -20.270208 0.400138 0.758867 -0.513819 
10.783235 31.907605 -18.366205 0.838767 0.080863 -0.538452 
17.481485 10.036100 17.402462 0.976954 0.212372 0.021424 
15.820255 25.795133 16.924144 -0.451433 0.879372 -0.151370 
-25.746625 29.358699 -8.362250 -0.195848 -0.577971 -0.792208 
11.362030 19.746219 14.937320 -0.326679 0.941784 -0.079518 
21.869120 0.692946 56.565759 0.171740 0.049540 0.983896 
3.732959 20.731146 33.890030 -0.958520 -0.108943 0.263382 
-9.753705 24.401499 14.850218 -0.623930 -0.418769 0.659806 
15.606960 19.153220 22.037387 0.943717 0.103608 0.314106 
28.067550 -38.091093 26.971523 -0.651791 -0.464693 0.599358 
-7.113880 33.725540 1.575013 -0.469920 0.730261 -0.495877 
2.737834 44.498630 -3.291494 -0.362926 0.919629 0.150223 
25.761785 -8.928468 -9.718996 0.912787 0.271159 0.305439 
-1.989116 22.370671 22.944864 -0.282443 0.148740 0.947682 
22.556755 -40.477080 11.581676 -0.564280 -0.817157 0.117653 
6.538355 14.007154 32.060866 -0.793886 -0.585541 0.163972 
2.408005 54.122480 -27.224810 -0.123579 0.197524 -0.972478 
13.448140 39.538894 -14.872360 0.966559 -0.232951 0.107226 
23.814430 -1.194754 38.691200 0.768359 0.570735 -0.289630 
5.493471 19.462622 15.610041 0.067704 0.972439 -0.223110 
6.425985 37.750818 -4.619575 0.005720 -0.062984 0.997998 
2.630243 43.068319 -6.469104 -0.309344 0.925041 -0.220465 
33.878930 -23.524881 42.304357 0.977952 -0.173845 0.115703 
-29.574185 25.069431 8.662937 -0.312486 -0.592945 0.742138 
-9.327140 20.612384 12.270720 -0.538555 -0.730330 0.420210 
24.466915 -35.609410 19.365809 -0.841751 -0.234333 0.486357 
10.626185 25.291515 -18.607062 0.898483 -0.374752 -0.228668 
28.380160 -33.361273 -7.706958 0.406099 -0.829287 -0.383884 
-31.024115 34.611866 -3.211910 -0.941318 0.073981 -0.329314 
-28.998225 37.692220 -5.978544 -0.625493 0.769615 -0.128261 
0.165251 23.430676 0.527653 -0.705337 0.423596 0.568389 
11.414155 -11.273916 7.139660 -0.921697 -0.347891 -0.171599 
13.530530 39.715952 -2.703406 0.392728 0.771959 0.499845 
-7.005765 25.175162 5.593422 -0.467855 -0.294350 -0.833349 
11.435810 46.165323 -25.661298 0.420079 -0.299931 -0.856490 
13.588695 44.576662 -21.168991 0.935166 0.063831 -0.348411 
26.960275 -29.361725 -13.064286 -0.050863 -0.725297 -0.686554 
-19.227515 39.492667 -10.138210 0.873473 -0.383824 -0.299539 
12.025135 16.014765 52.141759 0.327216 0.900796 0.285476 
-11.430540 32.683031 6.855408 -0.531792 0.462939 -0.709143 
25.651735 -14.947440 30.063193 0.811187 0.352798 -0.466379 
-7.810475 20.684558 8.923624 -0.314265 -0.758692 -0.570635 
20.855120 -8.848102 22.259233 0.885746 0.334499 -0.321814 
-26.053480 24.780638 6.408152 0.139673 -0.940923 0.308472 
17.484505 -26.040869 -7.841850 -0.949224 -0.314298 0.013817 
24.522100 -36.262492 -0.863274 -0.285348 -0.919984 -0.268713 
4.344612 11.143288 9.818040 -0.599141 -0.639541 -0.481681 
-19.308245 28.864519 -1.224591 0.445319 -0.665203 -0.599329 
-9.155795 49.316995 -16.433709 0.484068 -0.702710 0.521418 
-19.912160 52.010178 -9.654661 -0.367878 0.774437 0.514696 
20.866670 -32.079762 13.633001 -0.712425 -0.292466 0.637899 
27.568705 -29.424947 24.883781 0.809282 0.422237 -0.408386 
-1.348407 22.152115 10.488350 0.643683 0.740829 -0.191948 
29.481470 -30.510492 -5.387681 0.965188 0.053444 0.256038 
7.867585 3.506369 12.356069 -0.808774 -0.587577 0.025263 
0.481205 40.919381 -9.423237 -0.578903 0.786474 0.215243 
-1.569768 26.273289 -1.305729 -0.503763 -0.700545 -0.505429 
3.492182 36.095605 -15.097191 -0.716038 -0.412269 -0.563314 
7.924700 30.808654 -19.618028 -0.555345 -0.022126 -0.831326 
15.867705 -4.732898 20.718058 -0.726865 -0.520745 0.447763 
9.060755 53.678905 -19.432675 0.734404 0.665631 0.132614 
18.487700 8.449330 25.101172 0.916176 0.364294 -0.167067 
13.280430 -2.606081 -8.564855 -0.881954 0.129705 -0.453138 
20.023210 -12.597647 20.853383 -0.764666 -0.472939 0.437738 
-21.399195 36.344077 -3.950948 0.419757 0.706576 0.569697 
25.158940 -26.647716 1.256200 0.915229 0.274155 0.295286 
-24.143225 32.645275 7.443222 0.042666 0.750042 0.660013 
-1.647460 60.400091 -23.404651 -0.184028 0.946668 -0.264488 
29.588430 -14.786942 -14.303241 0.941394 0.310795 0.131089 
18.433225 -25.246040 -2.548600 -0.979675 -0.189681 0.065256 
18.609190 -28.716552 3.978046 -0.961789 0.126036 -0.243056 
8.272965 43.987198 -3.795097 0.270430 0.788726 0.552067 
-17.117635 46.391051 -15.874164 -0.085505 -0.383005 -0.919781 
25.190365 -30.751353 9.609005 0.922326 0.374737 -0.094269 
16.934635 -18.079241 -11.652525 -0.943045 0.089094 -0.320513 
-28.097355 33.444178 8.741489 -0.226263 0.771243 0.594970 
-0.294989 40.002005 -2.285630 -0.505454 0.327485 0.798292 
-1.844388 50.033648 -16.207604 -0.435476 0.103459 0.894236 
-13.235455 26.647110 4.602178 0.443157 0.068811 -0.893799 
17.432700 -11.776494 -1.675027 -0.865877 -0.341100 -0.365935 
17.607185 29.698799 7.488982 0.055467 0.928921 0.366100 
8.623395 24.519989 -21.985450 -0.074795 -0.918517 -0.388242 
16.819945 10.034968 1.971054 0.741875 0.026162 -0.670027 
6.742625 26.835185 -13.210625 -0.865591 -0.395545 -0.307078 
18.999825 4.471639 -7.460259 0.021522 0.985738 -0.166908 
1.492106 57.952476 -18.543276 0.011898 0.746091 0.665738 
-16.446660 32.384151 9.337648 -0.087015 0.964970 -0.247510 
19.200005 -23.078620 6.317600 -0.941649 -0.204984 -0.266981 
-5.221975 33.022801 1.831663 0.665661 0.626252 0.405837 
8.404195 18.441627 39.580935 0.322111 0.755478 0.570524 
12.429830 9.379747 1.276084 -0.361737 -0.398698 -0.842726 
17.086605 5.340530 -0.972133 -0.233469 0.701421 -0.673424 
-0.676587 26.459888 -0.151205 0.685638 0.165966 0.708770 
26.979170 -12.215131 -21.486682 0.631075 0.330852 -0.701627 
10.948160 26.007919 -23.839837 0.708112 -0.428088 -0.561531 
26.301925 -18.437311 -22.095131 0.035327 -0.388493 -0.920774 
-17.270710 25.972296 3.694733 0.074147 -0.861983 -0.501485 
13.767440 22.010895 11.716863 -0.638104 0.751024 0.169667 
16.445175 -18.521940 4.530035 -0.786342 -0.444162 -0.429402 
23.195120 -18.899597 16.354458 0.926013 0.353106 -0.133474 
-0.937429 51.418518 -24.281268 -0.376202 -0.582441 -0.720579 
29.970670 -29.363380 37.182849 -0.744106 -0.472093 0.472688 
9.485490 21.263135 22.158620 -0.213987 0.809767 -0.546340 
2.351519 18.510057 24.869907 -0.650974 -0.503175 0.568373 
19.650225 -13.796835 -15.064752 -0.839288 0.412716 -0.353922 
-19.032620 42.471099 -9.787158 0.609106 -0.134688 0.781568 
12.946240 28.519773 -11.536415 0.901816 0.069056 -0.426566 
17.734185 13.206311 10.028103 0.993624 0.107572 0.033753 
18.846250 2.171443 9.129886 0.964918 0.210617 0.156763 
0.870614 21.318178 18.531434 0.394456 0.807209 -0.439110 
2.403852 27.685662 -7.024862 -0.599992 -0.572777 -0.558513 
1.964208 11.543724 14.820414 -0.531731 -0.815794 0.227471 
6.903420 27.326685 -2.853812 -0.193743 0.389341 0.900487 
-23.329320 26.626595 9.799138 -0.015240 -0.365226 0.930794 
-25.642105 37.492022 -12.377125 -0.320703 -0.215420 -0.922358 
-24.161020 41.934332 -12.304137 -0.646907 0.400662 -0.648831 
9.451200 44.519883 -10.631043 0.272593 0.468613 0.840294 
27.973325 -36.399974 4.185548 0.983655 -0.175208 -0.041534 
31.783600 -13.997670 42.742841 0.817172 0.298522 -0.493066 
31.354290 -20.768064 38.344039 0.771582 0.371154 -0.516629 
12.400455 6.477435 48.324620 -0.795127 -0.606442 0.000605 
26.319265 -20.527601 -5.867945 0.838701 0.242913 0.487415 
6.333815 52.773528 -13.392705 0.250393 0.629184 0.735820 
17.917930 -16.791468 14.396993 -0.684395 -0.360103 0.633979 
-20.564400 31.923643 4.341042 0.313158 0.948730 0.042927 
9.036470 52.873144 -26.108256 0.603322 0.520995 -0.603794 
8.822410 39.801533 -21.841671 0.185453 -0.335244 -0.923698 
29.908825 -25.753153 -15.402754 0.813988 -0.312839 -0.489444 
4.433535 44.437761 -10.774494 -0.197843 0.799428 0.567250 
18.846735 21.149503 4.461306 0.998338 0.010986 -0.056571 
-25.273350 41.856547 -9.199209 -0.386416 0.781167 0.490367 
-2.284267 35.865392 -5.017398 -0.275703 0.746096 0.606076 
19.843215 -31.950648 -0.012701 -0.763989 -0.619645 -0.179891 
9.429990 41.624047 -6.965909 0.483905 0.871902 -0.074987 
-18.398635 32.510139 -1.830878 0.852532 0.520928 -0.042692 
-17.410105 43.546352 -13.314462 0.544192 -0.756366 -0.362995 
-1.523134 22.446903 2.920154 -0.264659 -0.570474 -0.777506 
11.573220 4.886291 26.841715 -0.734123 -0.619097 0.278894 
23.434410 -5.577676 -19.020136 -0.491293 0.142584 -0.859244 
-3.646929 25.288175 14.964901 0.780081 0.587937 -0.214016 
22.513895 1.599312 42.027393 0.628682 0.758812 -0.170183 
11.896780 -6.589472 11.552954 -0.744204 -0.369835 0.556222 
24.139635 -17.298519 23.594374 0.879884 0.359084 -0.311226 
-23.673515 28.619807 -4.307335 0.463101 -0.760509 -0.455151 
18.771165 -1.450292 55.851627 -0.403131 -0.587230 0.701887 
19.272280 -11.458294 -7.437314 -0.955385 0.010638 -0.295172 
-4.242755 18.936358 20.953592 -0.547782 -0.465246 0.695328 
-5.271915 16.316811 14.070446 -0.584783 -0.801230 0.126728 
12.533535 4.193344 55.891120 -0.536827 -0.522622 0.662331 
18.282115 -1.311678 49.637377 -0.695070 -0.717793 0.040631 
25.271435 -5.186976 55.959039 0.127041 -0.226989 0.965576 
19.109675 -5.556244 15.926578 0.968417 0.247812 -0.027512 
10.828100 16.238692 45.761721 0.147583 0.988905 0.016900 
17.091465 34.974057 1.650313 0.713756 0.653730 0.251374 
21.109220 -9.818979 9.784613 0.955548 0.242921 0.167083 
-3.419003 27.905399 19.201897 0.721538 0.677570 0.142418 
15.588830 -5.298886 -8.874886 -0.695278 -0.516438 -0.499880 
8.184085 13.806275 44.090053 -0.909072 0.075064 0.409821 
11.103085 7.739940 38.058641 -0.744794 -0.649699 0.152230 
16.233995 13.901729 25.418723 0.877259 0.462497 0.128503 
-10.765235 55.772272 -18.235108 -0.420256 0.865559 -0.272382 
-2.959649 35.635053 -7.154652 -0.890426 0.019179 -0.454724 
27.893160 -18.376807 39.686115 -0.862108 -0.424620 0.276527 
-5.250620 28.922487 9.758698 0.896915 0.345490 -0.276008 
11.433560 35.778532 -10.082655 0.978382 0.205999 -0.018234 
7.301180 16.794788 0.385832 -0.554897 -0.626464 -0.547387 
1.171802 25.677035 23.666757 -0.547716 0.756690 0.356969 
24.167610 -0.953099 -17.477800 0.830942 0.425649 -0.358271 
25.849475 -39.500663 5.845019 0.042519 -0.957494 -0.285302 
28.606770 -41.064258 14.865630 0.390329 -0.913414 -0.115404 
31.330895 -35.984266 30.610238 0.314128 -0.800214 0.510863 
22.144350 -19.330103 20.189294 -0.821773 -0.296704 0.486474 
8.001860 27.492119 -24.781220 -0.591388 0.200644 -0.781026 
18.304570 -36.378351 8.883573 -0.918843 -0.387507 0.074598 
-14.820345 27.378077 11.412681 -0.376858 -0.079765 0.922830 
1.430303 19.864456 7.453007 0.270383 0.959142 0.083300 
-23.814570 25.944501 1.605582 0.256394 -0.942653 -0.213698 
11.854425 16.488760 33.411699 0.744497 0.627170 0.228870 
4.488539 18.179969 40.980365 -0.804712 -0.033325 0.592729 
10.537315 2.850608 5.707570 -0.849624 -0.146717 -0.506569 
6.733555 22.398989 1.915997 -0.186275 0.878506 0.439919 
16.613525 26.384907 21.606430 0.517832 0.732943 0.441186 
-6.272565 35.994054 14.177063 0.475384 0.844411 0.246942 
26.672075 -8.948599 -14.706445 0.897750 0.440120 0.018411 
28.063355 -0.326851 52.156365 0.746533 0.557129 0.363724 
14.424900 12.416569 -0.800918 0.279872 -0.579168 -0.765661 
8.272825 15.451743 50.870850 -0.841985 0.531410 0.093082 
11.847485 21.479200 -11.021498 0.657874 -0.535487 -0.529581 
12.089010 -1.573634 -1.167145 -0.907850 0.063868 -0.414402 
15.578675 26.877284 -6.915211 0.831212 0.041568 -0.554399 
-5.699975 51.932137 -17.122322 -0.004524 -0.328832 0.944378 
31.194495 -18.697070 49.664541 0.345413 -0.508431 0.788789 
-30.183500 21.632599 0.772334 -0.225523 -0.962220 -0.152554 
16.574505 7.720682 48.214033 0.712403 0.699645 -0.054587 
30.398775 -39.667912 18.441765 0.964050 -0.245323 -0.102104 
-4.952610 49.883191 -20.222989 -0.350460 -0.936515 0.010819 
-31.620955 26.881177 6.112165 -0.976849 -0.120444 0.176802 
-6.398250 26.702192 6.427907 0.815598 0.557226 0.155882 
5.537764 24.348186 35.982043 -0.122074 0.837218 0.533071 
-6.415455 56.458568 -18.479769 -0.008051 0.544725 0.838576 
-6.822750 31.183792 19.008691 -0.356058 0.322744 0.876960 
29.561970 -12.400380 53.236671 0.478219 -0.217116 0.850980 
8.217910 48.107284 -27.986505 -0.039656 -0.265008 -0.963430 
4.449663 44.014509 -21.874531 -0.434009 -0.502473 -0.747768 
22.833985 -7.777123 39.791215 -0.756660 -0.625258 0.191099 
15.843210 -22.563319 10.295130 -0.934839 -0.338505 0.107191 
26.389040 -41.587395 22.210843 -0.241439 -0.865216 0.439441 
-11.402840 34.453224 10.508723 -0.507179 0.822374 0.257820 
19.482035 3.582263 2.116425 0.836901 0.535164 -0.114876 
30.606790 -24.007205 45.809169 -0.353920 -0.691804 0.629403 
13.136565 26.544992 23.979111 -0.060681 0.997855 -0.024572 
23.019205 -13.093838 -22.674947 -0.507820 -0.021491 -0.861195 
14.901715 -8.263005 -0.099711 -0.766523 -0.503347 -0.398855 
3 238 237 69 
3 29 38 227 
3 133 122 240 
3 148 209 101 
3 236 6 9 
3 206 60 44 
3 83 230 225 
3 66 223 247 
3 233 22 12 
3 240 85 158 
3 214 125 126 
3 89 7 172 
3 46 111 106 
3 65 145 200 
3 140 83 84 
3 118 93 207 
3 70 35 161 
3 207 116 118 
3 196 166 8 
3 231 227 58 
3 102 234 120 
3 43 36 142 
3 63 231 110 
3 56 111 46 
3 58 78 148 
3 32 62 80 
3 34 119 33 
3 148 101 110 
3 140 170 83 
3 91 145 65 
3 177 108 134 
3 144 174 190 
3 72 178 38 
3 75 1 153 
3 53 10 175 
3 236 226 6 
3 85 208 49 
3 45 74 14 
3 138 50 41 
3 194 43 212 
3 204 241 49 
3 227 231 29 
3 14 198 232 
3 178 72 82 
3 147 0 67 
3 53 175 219 
3 3 102 120 
3 84 83 19 
3 89 138 146 
3 206 136 197 
3 18 26 167 
3 16 221 155 
3 198 190 174 
3 181 235 42 
3 140 99 72 
3 176 66 240 
3 14 123 45 
3 24 73 16 
3 89 214 7 
3 66 7 214 
3 104 105 122 
3 119 34 20 
3 202 33 218 
3 130 128 162 
3 78 58 227 
3 1 9 153 
3 115 13 164 
3 114 133 247 
3 239 193 172 
3 222 116 61 
3 36 143 142 
3 241 204 229 
3 61 35 141 
3 39 210 54 
3 116 25 118 
3 109 79 21 
3 1 2 53 
3 197 98 206 
3 30 112 230 
3 123 127 166 
3 242 14 74 
3 14 217 198 
3 2 75 77 
3 154 86 75 
3 101 159 110 
3 88 162 103 
3 181 42 182 
3 99 159 169 
3 17 107 150 
3 202 218 128 
3 108 189 134 
3 243 142 143 
3 145 118 25 
3 44 60 241 
3 246 130 32 
3 70 161 69 
3 28 65 147 
3 179 185 40 
3 64 165 150 
3 245 22 216 
3 99 23 159 
3 114 191 180 
3 80 167 26 
3 192 221 187 
3 5 17 195 
3 45 166 196 
3 173 128 246 
3 188 115 164 
3 88 100 152 
3 10 194 212 
3 3 51 102 
3 48 138 201 
3 68 113 121 
3 169 113 82 
3 12 144 201 
3 91 65 127 
3 218 33 47 
3 121 209 242 
3 76 131 113 
3 136 44 205 
3 182 76 81 
3 190 198 217 
3 193 192 213 
3 216 13 37 
3 208 240 105 
3 57 4 154 
3 55 67 106 
3 10 228 175 
3 126 243 119 
3 91 196 145 
3 112 30 8 
3 125 200 25 
3 182 146 181 
3 9 6 153 
3 18 167 104 
3 116 222 25 
3 203 204 49 
3 226 57 6 
3 162 128 103 
3 65 28 127 
3 138 89 172 
3 11 210 215 
3 174 87 198 
3 36 186 143 
3 94 239 172 
3 195 17 19 
3 65 171 11 
3 55 111 28 
3 85 206 158 
3 110 231 58 
3 167 208 104 
3 0 147 215 
3 235 209 42 
3 145 196 30 
3 43 216 22 
3 198 87 232 
3 132 115 0 
3 233 41 213 
3 113 131 82 
3 124 213 192 
3 85 60 206 
3 180 21 114 
3 97 126 119 
3 224 222 141 
3 247 133 66 
3 216 37 245 
3 215 65 11 
3 193 213 50 
3 112 225 230 
3 57 205 4 
3 81 76 171 
3 48 201 190 
3 117 125 220 
3 186 189 143 
3 154 4 86 
3 96 194 10 
3 84 17 150 
3 112 157 120 
3 194 36 43 
3 103 218 47 
3 92 145 30 
3 119 20 97 
3 67 199 168 
3 159 101 121 
3 33 202 34 
3 208 167 49 
3 142 164 43 
3 128 173 202 
3 115 37 13 
3 72 169 82 
3 51 237 135 
3 150 165 84 
3 70 95 27 
3 96 186 36 
3 3 160 51 
3 168 163 56 
3 77 96 2 
3 152 229 204 
3 155 239 184 
3 102 5 195 
3 152 108 229 
3 234 83 225 
3 147 55 28 
3 88 156 100 
3 158 206 98 
3 183 184 179 
3 191 173 180 
3 185 15 236 
3 92 238 93 
3 15 226 236 
3 88 152 62 
3 106 56 46 
3 154 153 57 
3 188 164 224 
3 141 222 61 
3 19 17 84 
3 151 112 163 
3 171 127 11 
3 135 230 5 
3 129 116 207 
3 139 109 180 
3 87 210 232 
3 99 140 165 
3 146 81 89 
3 115 188 0 
3 220 224 117 
3 57 244 205 
3 211 31 78 
3 16 183 24 
3 104 21 79 
3 246 139 173 
3 15 244 226 
3 157 112 151 
3 23 64 110 
3 148 78 31 
3 102 195 234 
3 76 113 68 
3 234 112 120 
3 73 221 16 
3 40 24 183 
3 108 152 100 
3 220 125 25 
3 43 22 212 
3 32 80 26 
3 179 15 185 
3 97 20 191 
3 117 243 126 
3 130 162 71 
3 99 165 23 
3 168 56 106 
3 47 100 156 
3 27 199 52 
3 237 51 160 
3 70 52 35 
3 134 186 77 
3 144 54 210 
3 29 63 38 
3 181 146 138 
3 192 193 155 
3 98 94 158 
3 47 189 100 
3 63 29 231 
3 173 20 34 
3 24 228 73 
3 209 148 31 
3 184 15 179 
3 177 134 77 
3 124 187 212 
3 72 149 170 
3 45 68 74 
3 200 125 81 
3 150 149 64 
3 229 4 205 
3 211 82 131 
3 73 228 187 
3 39 132 215 
3 166 111 90 
3 98 239 94 
3 186 134 189 
3 144 210 87 
3 149 72 38 
3 72 99 169 
3 197 15 239 
3 127 123 232 
3 97 247 223 
3 173 34 202 
3 54 137 39 
3 242 74 121 
3 40 183 179 
3 59 209 31 
3 171 68 91 
3 232 210 11 
3 37 132 39 
3 140 72 170 
3 103 156 88 
3 225 112 234 
3 6 57 153 
3 66 176 7 
3 171 91 127 
3 70 27 52 
3 33 119 243 
3 154 75 153 
3 53 219 9 
3 41 201 138 
3 67 168 106 
3 110 159 23 
3 11 127 232 
3 233 12 201 
3 66 214 223 
3 187 124 192 
3 85 49 60 
3 118 92 93 
3 105 240 122 
3 30 196 8 
3 223 126 97 
3 184 183 155 
3 156 103 47 
3 10 53 96 
3 61 116 129 
3 240 158 176 
3 62 162 88 
3 37 137 245 
3 43 13 216 
3 18 104 79 
3 211 78 227 
3 84 165 140 
3 197 244 15 
3 144 190 201 
3 178 82 211 
3 76 31 131 
3 44 136 206 
3 228 212 187 
3 238 135 237 
3 208 105 104 
3 63 149 38 
3 223 214 126 
3 40 185 219 
3 45 123 166 
3 182 81 146 
3 67 0 188 
3 236 219 185 
3 40 219 24 
3 118 145 92 
3 5 102 51 
3 133 114 21 
3 96 36 194 
3 108 86 229 
3 66 133 240 
3 143 189 33 
3 86 4 229 
3 55 106 111 
3 21 104 122 
3 244 197 136 
3 86 108 177 
3 14 242 217 
3 76 182 59 
3 96 53 2 
3 241 229 205 
3 117 126 125 
3 128 218 103 
3 235 190 217 
3 77 75 177 
3 28 166 127 
3 227 38 178 
3 243 143 33 
3 30 230 135 
3 12 137 144 
3 168 151 163 
3 64 23 165 
3 129 207 35 
3 149 150 107 
3 41 233 201 
3 148 110 58 
3 69 237 160 
3 2 1 75 
3 227 178 211 
3 155 221 192 
3 243 117 142 
3 168 199 151 
3 7 94 172 
3 33 189 47 
3 228 24 175 
3 200 81 171 
3 68 121 74 
3 32 26 18 
3 86 177 75 
3 115 132 37 
3 224 141 199 
3 172 50 138 
3 163 8 90 
3 139 246 109 
3 121 101 209 
3 163 112 8 
3 107 5 83 
3 167 80 203 
3 160 95 70 
3 224 199 67 
3 155 193 239 
3 172 193 50 
3 162 62 71 
3 151 27 157 
3 125 214 81 
3 108 100 189 
3 62 32 71 
3 141 35 199 
3 76 59 31 
3 7 176 94 
3 12 22 245 
3 238 92 30 
3 238 30 135 
3 1 53 9 
3 149 107 170 
3 107 83 170 
3 233 213 124 
3 41 50 213 
3 161 238 69 
3 191 114 247 
3 176 158 94 
3 21 122 133 
3 163 90 56 
3 43 164 13 
3 117 224 164 
3 9 219 236 
3 221 73 187 
3 190 235 48 
3 24 219 175 
3 186 96 77 
3 246 128 130 
3 5 51 135 
3 64 63 110 
3 196 91 68 
3 212 22 124 
3 173 139 180 
3 57 226 244 
3 85 240 208 
3 159 121 113 
3 5 230 83 
3 215 210 39 
3 18 109 246 
3 60 49 241 
3 200 145 25 
3 90 8 166 
3 137 54 144 
3 215 147 65 
3 95 3 157 
3 167 203 49 
3 80 62 203 
3 191 247 97 
3 191 20 173 
3 48 235 181 
3 63 64 149 
3 211 131 31 
3 238 161 93 
3 22 233 124 
3 111 56 90 
3 151 199 27 
3 95 157 27 
3 83 234 19 
3 188 224 67 
3 95 160 3 
3 157 3 120 
3 137 12 245 
3 169 159 113 
3 220 222 224 
3 235 242 209 
3 180 109 21 
3 196 68 45 
3 220 25 222 
3 0 215 132 
3 98 197 239 
3 203 62 152 
3 79 109 18 
3 42 209 59 
3 183 16 155 
3 199 35 52 
3 181 138 48 
3 17 5 107 
3 200 171 65 
3 70 69 160 
3 244 136 205 
3 241 205 44 
3 144 87 174 
3 130 71 32 
3 129 35 61 
3 246 32 18 
3 117 164 142 
3 242 235 217 
3 10 212 228 
3 93 35 207 
3 161 35 93 
3 184 239 15 
3 195 19 234 
3 232 123 14 
3 68 171 76 
3 152 204 203 
3 137 37 39 
3 111 166 28 
3 182 42 59 
3 214 89 81 
3 147 67 55 
