ply
format ascii 1.0
comment created by MATLAB plywrite
element vertex 498
property float x
property float y
property float z
property float nx
property float ny
property float nz
element face 1000
property list uchar short vertex_indices
end_header
24.775000 -28.078356 18.304408 -0.750908 -0.305599 0.585445 
-15.101000 31.825874 25.748710 -0.598596 0.074771 0.797554 
28.361040 33.757421 4.851289 -0.662257 0.625844 0.411989 
51.651850 -22.177987 59.166937 0.758250 0.448474 -0.473210 
34.400520 1.874644 -10.614423 -0.469608 0.868048 -0.161125 
4.848425 41.050279 -10.229026 0.094588 0.193653 0.976500 
28.745080 38.420780 -16.243116 0.853817 -0.001685 -0.520570 
26.755730 20.121889 35.173635 0.837919 0.241565 0.489427 
43.415180 -15.539637 46.388458 0.857094 0.354338 -0.373945 
31.488100 13.984148 32.398984 0.889893 0.391247 0.234557 
38.464100 -52.141381 4.367495 -0.890198 -0.431737 -0.145431 
-12.616080 45.229212 16.220009 0.725062 0.673357 0.144480 
42.635050 -14.303357 86.413564 0.204220 0.086380 0.975106 
-57.451610 43.967255 7.541778 -0.411552 0.477656 0.776189 
-5.586380 14.396536 18.273106 -0.470518 -0.880689 0.054762 
7.870885 88.418616 -42.785003 0.336038 0.919783 0.202674 
5.263168 84.413609 -36.455002 -0.092303 0.592658 0.800148 
48.336880 -36.622816 41.084256 0.877951 0.345070 -0.331856 
60.747420 -62.864778 44.857527 0.838813 0.367256 -0.401891 
-19.041390 77.204365 -40.498221 -0.179869 -0.753285 -0.632621 
55.778010 -53.960956 -5.180987 0.276356 -0.876364 -0.394479 
18.179680 31.383472 0.096543 -0.472829 0.730352 0.492969 
22.313670 26.488729 10.750432 -0.429141 0.852243 0.299198 
3.640097 23.765474 9.477637 0.162102 0.986758 -0.005578 
65.968370 -39.465996 74.798627 0.930520 -0.155337 0.331666 
-8.874687 30.129889 28.305899 -0.039469 0.326977 0.944208 
5.562277 82.875325 -51.238008 0.019452 0.362922 -0.931616 
52.278030 -24.916012 -10.345174 0.855585 0.214101 0.471312 
19.519150 -9.595608 13.739952 -0.969342 -0.214269 -0.120270 
14.273820 28.511952 42.192437 0.305397 0.912675 0.271581 
29.204330 -18.998847 1.155660 -0.835965 -0.399210 -0.376555 
36.889520 -38.897113 9.047755 -0.956695 -0.290578 -0.017321 
7.210529 54.129756 -13.528008 0.147295 -0.104721 0.983533 
1.878112 30.676977 -5.000773 -0.913450 -0.353813 -0.201060 
-2.879096 62.120263 -25.875761 -0.823259 0.376249 0.425067 
23.000000 1.554214 3.369119 -0.750010 0.152217 -0.643673 
60.854000 -26.194799 70.633673 0.713898 0.495727 -0.494575 
35.635020 0.383315 53.079771 0.761495 0.646139 0.051285 
33.592230 -20.550748 -2.137362 -0.832178 -0.417185 -0.365289 
-2.394318 29.556860 1.302196 0.284233 0.947850 0.144195 
8.720381 30.867717 33.849353 -0.057367 0.934554 -0.351165 
-39.348400 59.018830 -24.071601 0.885458 -0.411538 -0.215872 
27.228920 -23.342984 7.581793 -0.738994 -0.338874 -0.582282 
55.602470 -22.978933 -26.177152 0.848740 0.271059 -0.454057 
15.029280 60.283077 -40.432448 -0.066896 -0.342565 -0.937109 
35.833900 35.954449 11.784019 0.884527 0.445333 0.138891 
-13.778300 48.025622 8.098923 0.613999 0.739161 -0.276851 
55.666500 -39.570992 79.100231 -0.639648 -0.603480 0.476091 
19.225270 -2.692182 81.554701 -0.834168 -0.441593 0.330393 
-36.845280 73.424643 -33.359365 -0.503363 0.334319 -0.796778 
46.048870 -8.016956 -28.442265 -0.295177 -0.024513 -0.955128 
-52.265900 46.109674 -21.114079 -0.132441 -0.476042 -0.869393 
24.191200 10.548048 51.797994 0.718209 0.691670 0.075954 
38.008040 -47.064942 -8.307254 -0.814576 -0.469060 -0.341245 
53.015700 -35.895485 81.810126 -0.466426 -0.672778 0.574297 
-34.319080 78.598767 -28.785133 -0.078903 0.903032 0.422265 
8.734093 62.091704 -38.735226 -0.599592 -0.366598 -0.711403 
37.413890 -16.506743 61.265129 -0.717267 -0.684259 0.131599 
41.153580 -56.405642 27.720399 -0.721435 -0.325155 0.611396 
35.473150 -34.919540 1.179613 -0.991381 -0.107721 0.074561 
6.969221 34.328857 -12.991233 -0.569595 -0.646740 -0.507236 
16.786570 -4.592690 18.274144 -0.884949 -0.462117 0.057552 
38.032420 -1.980600 -22.597948 -0.640931 -0.240257 -0.729029 
17.064380 37.155100 -39.841338 -0.157042 -0.837430 -0.523496 
34.941080 -28.042509 -4.788305 -0.999887 0.014427 -0.004283 
9.523681 5.738925 17.330280 -0.725698 -0.645726 -0.237487 
22.447760 26.257739 37.350709 0.553777 0.530304 0.641957 
55.475090 -15.624477 78.190056 0.714796 0.699179 0.014649 
-56.099850 50.880616 -9.742951 -0.025858 0.929496 0.367925 
31.557280 44.186564 -10.458711 0.863053 0.217798 -0.455745 
31.314290 18.940075 28.600817 0.938313 0.212329 0.272918 
21.616390 12.806468 59.348142 0.645030 0.763742 0.025193 
27.556230 -0.899484 83.988011 0.172036 0.308604 0.935504 
34.182470 14.346698 5.451663 0.987771 -0.042228 -0.150087 
14.435330 -0.045149 16.295643 -0.847503 -0.461533 -0.262155 
18.199880 30.502900 -22.114948 -0.336188 -0.852955 -0.399306 
38.930400 -55.318084 -1.577463 -0.562328 -0.765679 -0.312286 
42.259170 -41.962078 32.157000 -0.778115 -0.270808 0.566744 
59.386250 -62.521490 56.522239 -0.215968 -0.727473 0.651261 
6.908033 23.655964 48.693780 -0.820815 0.504754 0.267369 
20.072200 71.850722 -31.618494 0.740035 0.579183 0.341899 
1.748444 49.244687 -11.277079 -0.020424 -0.118775 0.992711 
29.850260 -39.558778 20.066692 -0.879972 -0.455464 0.134916 
-60.767810 41.396367 -7.654970 -0.822930 -0.234659 -0.517418 
-4.031260 69.092094 -35.837944 -0.738256 -0.620337 -0.264877 
-32.340110 29.539469 10.780183 -0.350352 -0.865321 0.358431 
47.435750 -51.041127 -6.964717 -0.250842 -0.743846 -0.619493 
46.289260 -58.849616 4.605046 -0.267943 -0.936902 -0.224548 
30.955930 -10.772711 -13.169758 -0.638320 -0.532831 -0.555553 
44.127240 -8.335289 -3.030389 0.916263 0.344571 0.204285 
47.933560 -47.669651 23.935094 0.940846 0.314568 -0.125919 
40.083000 5.525797 -20.878345 0.299387 0.949747 -0.091370 
51.797090 -17.478990 -14.938564 0.889947 0.343691 0.299785 
16.977560 79.551107 -50.622616 0.468372 0.466210 -0.750517 
14.579420 53.860827 -37.867027 -0.101847 -0.115623 -0.988058 
20.109730 52.937836 -36.203363 0.541595 -0.134887 -0.829748 
-59.762420 51.599131 -16.807979 -0.860979 0.102571 -0.498190 
-41.346290 42.937689 0.506638 0.355660 0.934615 -0.001306 
59.843100 -68.606050 36.245590 0.897009 -0.421879 -0.131885 
59.206150 -47.304322 76.150832 -0.529558 -0.634681 0.562803 
38.904720 -5.285392 9.227326 0.938085 0.273395 0.212726 
-55.079210 58.133538 -20.741978 -0.639189 0.765150 -0.077351 
-27.290750 70.311912 -29.512874 0.523961 -0.232397 0.819425 
34.034130 10.542945 26.103807 0.980925 0.189457 0.043493 
30.640510 31.416568 21.209136 -0.520390 0.837819 -0.165089 
-55.353860 37.984637 10.084707 -0.080874 0.045401 0.995690 
-53.427900 37.475396 -15.006493 -0.116091 -0.624208 -0.772585 
-63.240330 30.408817 -0.993091 -0.907485 -0.300102 -0.293956 
25.493830 63.241057 -26.814446 0.803509 0.254898 0.537960 
22.087210 23.382753 23.932480 -0.364453 0.880126 -0.304224 
34.148580 -6.118273 84.673748 0.268760 0.273208 0.923648 
24.874980 -9.401736 83.783161 -0.657522 -0.678373 0.327835 
34.610140 14.958565 12.611435 0.997041 0.017262 0.074913 
6.465917 20.468415 48.026472 -0.946925 -0.262735 0.185212 
-20.507410 29.687967 18.314324 -0.671305 -0.328929 0.664195 
31.731270 23.104445 24.964698 0.952235 -0.078060 0.295221 
-15.655710 23.823293 10.850978 -0.367113 -0.738809 -0.565145 
32.924610 31.781660 25.740326 0.559029 0.785292 0.266088 
55.366710 -59.417827 10.736976 0.992092 0.018183 0.124188 
55.147530 -68.058905 48.635445 -0.595014 -0.517318 0.615093 
21.415030 75.071351 -39.651410 0.827961 0.553990 0.087039 
-15.227760 46.424647 -3.690558 -0.520734 0.654452 -0.548204 
24.072780 -7.026154 -7.161469 -0.934756 0.151610 -0.321318 
4.475669 63.767745 -13.158202 -0.362926 0.919629 0.150223 
47.804770 -18.047252 -4.630237 0.929977 0.186312 0.316909 
-21.040320 26.614777 15.378419 -0.524450 -0.581226 0.622196 
-3.712175 24.655910 31.481143 -0.357171 0.056159 0.932349 
40.717740 -65.092581 22.172650 -0.562059 -0.825532 -0.050865 
39.049740 2.274250 -11.560264 0.303881 0.952506 0.019732 
12.076710 10.570739 46.519937 -0.782645 -0.597237 0.175426 
61.928230 -63.772779 55.539488 0.511091 -0.716937 0.474117 
47.041980 -70.274600 30.678872 -0.513826 -0.842889 0.159752 
-1.452736 82.643764 -49.713486 -0.309388 0.059843 -0.949051 
6.124616 16.724050 57.526097 -0.876089 0.079908 0.475482 
-39.449490 46.627076 -10.638637 0.904320 0.354983 -0.237052 
39.057710 -30.067771 32.769928 -0.765961 -0.416944 0.489348 
25.896280 58.415928 -29.860515 0.983008 -0.115247 0.142874 
29.421320 -15.606459 30.765184 -0.718648 -0.521960 0.459460 
42.003730 -7.481286 50.647292 0.854520 0.486900 -0.180898 
9.986942 22.017328 20.412887 0.040374 0.976516 -0.211629 
-45.581830 33.976452 10.183603 0.047089 -0.295376 0.954220 
58.743600 -42.044261 58.734568 0.768405 0.381836 -0.513572 
13.314170 48.237121 -12.270749 -0.157014 0.037615 0.986880 
4.260485 62.193482 -17.727832 -0.303068 0.924937 -0.229439 
8.683563 27.704031 44.142268 -0.394909 0.892762 0.216849 
65.197160 -53.242382 65.023296 0.890388 -0.400274 0.216772 
-60.148370 31.884299 8.758865 -0.310487 -0.542422 0.780625 
-18.916850 24.239943 13.996251 -0.505237 -0.861176 0.055779 
47.933830 -62.617383 36.625871 -0.849780 -0.231453 0.473607 
63.541740 -61.339785 51.947472 0.984951 -0.100016 -0.140958 
7.644471 64.532854 -23.585231 -0.182092 0.867638 0.462653 
33.551530 -0.275311 -19.933772 -0.738039 0.440174 -0.511415 
20.252370 37.416998 -32.837702 0.930068 -0.290014 -0.225533 
23.982160 8.682933 77.645801 0.493643 0.786190 0.371783 
13.799610 23.522266 29.068914 0.030202 0.830621 -0.556018 
-19.202730 30.053964 5.931744 -0.034997 -0.389924 -0.920182 
54.267410 -61.975013 10.567848 0.625415 -0.754154 -0.200270 
36.431270 -10.619681 -18.169163 -0.674186 -0.419903 -0.607581 
-63.510740 47.739102 -10.302994 -0.962478 0.242331 -0.122113 
40.724390 -22.226733 84.082580 -0.556382 -0.686558 0.468056 
-20.803800 80.118067 -42.103642 -0.390832 0.071311 -0.917695 
-60.748470 50.535857 -10.330305 -0.550758 0.828161 0.103999 
-27.989660 38.590193 6.747385 0.025222 0.532094 -0.846309 
-18.791220 74.637523 -36.302477 0.258682 -0.963038 -0.075105 
3.895717 31.943486 -4.325295 -0.016621 0.667757 0.744194 
21.772380 -24.878398 13.717030 -0.921607 -0.344946 -0.177910 
36.129510 25.775834 2.333270 0.972540 -0.072771 -0.221065 
45.828840 -27.639030 82.555833 -0.575929 -0.668794 0.470128 
-39.780200 74.118906 -24.095272 0.040698 0.406345 0.912813 
-57.693490 31.585109 -7.791786 -0.111636 -0.867435 -0.484865 
26.403230 52.374397 -9.115784 -0.286162 0.377940 0.880496 
-13.217530 34.509831 1.435911 -0.541614 -0.385131 -0.747214 
21.871620 70.568384 -47.562972 0.550423 -0.192354 -0.812425 
-3.361942 90.490612 -47.488985 -0.228685 0.633153 -0.739473 
-38.118670 62.248756 -27.511870 0.576539 -0.674403 -0.461284 
21.538630 50.291121 -32.822439 0.944809 -0.134421 -0.298774 
23.860920 58.604070 -35.865332 0.833507 -0.353303 -0.424787 
-41.770200 31.909462 9.073622 -0.093594 -0.915054 0.392321 
52.268110 -38.441549 -21.622888 -0.027756 -0.613866 -0.788922 
-47.376800 50.556790 -21.073854 0.508954 -0.565505 -0.648976 
37.676790 -30.196529 -18.553478 -0.669436 -0.321491 -0.669701 
17.581060 38.603311 -7.276910 -0.534132 0.369254 0.760496 
21.786850 12.009427 72.559272 0.168257 0.985502 0.021803 
-23.861080 43.830271 4.554328 -0.508415 0.316192 -0.800960 
50.303470 -33.170059 48.991026 0.820487 0.344932 -0.455877 
-23.179760 28.333692 7.277335 -0.153156 -0.817333 -0.555437 
40.710240 -22.389355 35.937503 0.882366 0.335208 -0.330252 
-23.706990 35.840180 16.491430 -0.581233 0.049029 0.812259 
-41.243990 63.729119 -29.429829 -0.039400 -0.339583 -0.939751 
-53.106960 31.873716 5.378012 0.153236 -0.947031 0.282224 
36.504740 -2.468497 34.399509 0.939371 0.240368 -0.244551 
-3.031845 52.588136 -15.117729 -0.602927 0.502511 0.619647 
53.134710 -55.577408 36.628897 0.847934 0.445932 -0.286624 
33.969010 -42.854330 -6.655980 -0.959490 -0.281415 -0.013588 
49.001240 -61.632291 9.600951 -0.249326 -0.931950 -0.263260 
56.241920 -21.347224 82.267229 0.730076 0.272913 0.626504 
0.775989 24.614447 24.904199 0.376131 0.773817 -0.509639 
51.428540 -28.795888 -30.213603 0.121311 -0.262976 -0.957145 
22.153750 -14.950655 8.532598 -0.855624 -0.232073 -0.462655 
12.874050 5.720458 12.962165 -0.720062 -0.461218 -0.518449 
50.230760 -71.855989 39.178858 -0.406519 -0.843858 0.350208 
-40.654800 45.809005 -12.815393 0.763003 -0.376622 -0.525339 
42.029100 -41.942975 -13.793944 -0.418428 -0.511202 -0.750727 
5.674597 67.231985 -40.554567 -0.487553 -0.561925 -0.668230 
19.146110 -8.606595 19.530951 -0.829460 -0.465116 0.309293 
-20.427240 74.074838 -32.960689 0.486938 -0.541682 0.685180 
30.269180 44.806401 -3.120010 -0.564006 0.487385 0.666598 
64.884330 -49.710373 63.864544 0.878762 0.287927 -0.380625 
-40.513570 75.695380 -26.997705 -0.630650 0.750182 -0.198766 
35.966610 -49.005969 23.506019 -0.707677 -0.277989 0.649550 
34.859480 -37.816395 -11.518297 -0.800159 -0.276532 -0.532237 
55.520740 -54.499665 46.555348 0.764527 0.442782 -0.468447 
-50.332520 61.064893 -26.251429 -0.654219 0.503175 -0.564635 
-3.696814 27.091164 12.096126 0.597925 0.775351 -0.203265 
57.962940 -50.132648 -2.064938 0.974072 -0.020851 0.225277 
13.188520 1.732531 21.868310 -0.720541 -0.651244 0.238124 
10.656549 5.798024 25.774227 -0.615151 -0.684503 0.391210 
-0.037591 59.481599 -21.820044 -0.495994 0.779539 0.382505 
-4.139536 35.617543 -6.660782 -0.473259 -0.717656 -0.510878 
9.723204 49.407060 -31.386453 -0.776754 -0.305031 -0.551008 
14.571740 44.984928 -35.535357 -0.738298 0.150972 -0.657361 
12.074240 35.957039 -20.577942 -0.695825 -0.603193 -0.389854 
16.949480 23.559899 13.824893 -0.176715 0.978486 0.106475 
31.933650 -15.278271 37.906558 -0.737278 -0.582380 0.342424 
36.680230 -48.414691 4.659317 -0.957338 -0.217291 -0.190498 
54.004050 -16.739292 69.517011 0.631709 0.669591 -0.390629 
14.899240 82.826598 -39.473335 0.679936 0.714508 0.164823 
42.115800 -14.738915 -19.112639 -0.929374 -0.009559 -0.369016 
55.762270 -33.794922 83.525327 -0.011786 -0.450895 0.892499 
35.385380 4.326315 34.409961 0.963228 0.243509 -0.113560 
36.028520 -20.527025 -7.480996 -0.912124 -0.190514 -0.362952 
27.476600 -6.925951 -14.469860 -0.744834 -0.304847 -0.593541 
41.543380 -27.771049 42.139120 -0.790034 -0.495469 0.361049 
47.802460 -11.003687 -10.744820 0.918909 0.333148 0.211232 
34.667990 0.013015 23.446752 0.989244 0.142712 -0.032084 
22.814200 -8.017589 0.503612 -0.928283 -0.185738 -0.322169 
47.701380 -66.039368 18.865860 -0.255338 -0.918281 -0.302594 
-43.798390 51.467364 -12.609835 0.390313 0.783267 0.483889 
47.818670 -40.740567 8.384598 0.948900 0.196276 0.247113 
-49.286450 43.660773 5.457235 0.181716 0.794361 0.579629 
41.862440 -7.895021 82.281588 0.546630 0.767570 0.334710 
-41.271710 57.890499 -19.125990 0.278165 0.512927 0.812115 
-21.644950 81.545114 -34.694761 0.213265 0.413978 0.884952 
64.622960 -33.003290 76.959090 0.883842 0.119943 0.452147 
-2.378098 91.399674 -44.119591 0.006423 0.999125 0.041322 
57.776180 -23.078869 -19.191163 0.947315 0.301569 0.107936 
34.519620 3.377502 -1.343335 0.287202 0.775457 -0.562300 
35.600840 -42.024061 0.391724 -0.966821 -0.244479 0.074081 
36.218380 -49.182973 11.864937 -0.988948 0.016866 -0.147299 
15.545930 63.084344 -13.828181 0.231243 0.614353 0.754386 
58.484300 -40.546404 -17.926318 0.887084 -0.201274 -0.415415 
-30.555200 72.586966 -35.600564 -0.080860 -0.549302 -0.831703 
49.040670 -51.180346 16.526088 0.937041 0.341850 0.071363 
33.649980 -28.450825 -15.930711 -0.873951 0.046997 -0.483737 
-58.230500 47.969287 -0.165936 -0.295806 0.921727 0.250835 
47.364230 -36.866031 -19.954993 -0.456852 -0.541309 -0.705883 
34.134220 7.726478 2.884528 0.837782 0.317484 -0.444212 
37.414470 1.530040 3.841482 0.887210 0.457714 -0.057931 
-1.589978 56.724148 -10.768958 -0.629996 0.251705 0.734676 
2.754001 72.397310 -30.310755 -0.268331 0.336433 0.902669 
-27.144480 35.044952 1.808964 0.493197 0.185257 -0.849963 
34.216130 -25.475159 2.679177 -0.904999 -0.249129 -0.344835 
30.203470 -33.002554 11.883980 -0.739460 -0.487191 -0.464590 
34.214370 39.162187 6.088198 -0.174612 0.912095 0.370935 
16.336320 34.917252 -31.810017 -0.198667 -0.962572 -0.184356 
31.245670 20.722575 -4.063892 0.801633 -0.250380 -0.542857 
32.654420 14.850570 0.898992 0.828421 -0.069648 -0.555759 
13.509500 40.479047 -29.613640 -0.890820 -0.384809 -0.241583 
20.174060 47.338540 -36.116615 0.514740 0.260634 -0.816769 
37.224110 4.980847 -18.360629 -0.351055 0.929584 -0.112398 
28.509890 2.471743 -1.092965 -0.429303 0.513281 -0.743129 
-1.314668 88.700297 -40.045657 0.005251 0.684999 0.728525 
-33.893320 42.902028 8.393715 -0.139671 0.982347 -0.124447 
37.382450 -40.868737 14.714808 -0.879053 -0.188104 -0.438044 
18.663720 22.804950 18.602851 -0.276156 0.960842 -0.022832 
-11.443950 45.304920 -3.165618 0.712483 0.574302 0.403169 
15.808390 15.895641 57.134423 0.370394 0.786902 0.493551 
26.066710 5.874679 0.486532 -0.418289 0.015487 -0.908182 
31.369580 1.263267 -5.053491 -0.409200 0.802372 -0.434459 
33.310860 -28.251530 -10.921931 -0.968170 0.236182 -0.082857 
61.141820 -43.937496 79.132388 0.280074 -0.536666 0.795957 
57.025990 -31.489345 -12.907227 0.868250 0.211863 0.448616 
59.813670 -20.696740 76.294619 0.868855 0.494913 -0.012378 
14.441510 32.279850 -3.928056 -0.350582 0.709701 0.611079 
-49.140910 57.465081 -26.794578 -0.049410 -0.206261 -0.977249 
2.469047 30.683856 31.714168 -0.392497 0.881897 0.261160 
-2.353175 35.681974 -4.937051 0.582399 0.032176 0.812266 
17.624960 4.739756 81.507233 -0.415158 0.223974 0.881748 
60.894700 -66.741347 45.293205 0.882652 -0.469004 0.030990 
51.778160 -17.218360 -30.671362 0.481673 0.392178 -0.783701 
-14.571410 81.515161 -44.239616 -0.357612 -0.023673 -0.933570 
20.082840 -4.101965 9.516474 -0.920937 -0.089569 -0.379279 
20.896320 39.505381 -40.947908 0.740771 -0.459664 -0.489865 
47.839550 -14.669578 61.231530 0.734785 0.581622 -0.349009 
48.564620 -24.215216 -29.901054 -0.290298 -0.252159 -0.923116 
-35.541420 34.206418 1.016299 0.004189 -0.901562 -0.432630 
27.704040 27.454529 15.508932 -0.636191 0.769823 0.051327 
62.296160 -58.937301 62.469715 0.089806 -0.762672 0.640521 
33.580530 -33.016147 7.046003 -0.896746 -0.309379 -0.316435 
45.390240 -36.581207 28.854326 0.921401 0.341092 -0.186216 
-2.874858 78.310393 -46.460679 -0.362744 -0.556301 -0.747627 
58.941340 -56.493340 62.585914 -0.619647 -0.559086 0.550873 
20.782110 25.743389 30.695086 -0.297146 0.685024 -0.665166 
4.924927 52.884076 -28.324135 -0.679825 -0.426945 -0.596285 
1.771298 26.802150 33.797413 -0.791857 0.135244 0.595543 
2.973423 19.373976 33.816576 -0.610405 -0.485522 0.625839 
35.550650 -61.554798 20.815175 -0.882961 -0.408734 0.230904 
45.273480 3.642012 -32.342003 0.324288 0.449645 -0.832260 
38.300450 -22.820955 -19.994497 -0.853340 0.412679 -0.318602 
-38.306800 63.154877 -23.067021 0.597947 -0.192030 0.778193 
24.581550 41.860541 -22.872912 0.891822 0.132714 -0.432481 
23.479650 57.730242 -12.347973 0.427343 0.791348 0.437202 
13.932310 6.760968 36.597208 -0.714176 -0.632838 0.299114 
34.766410 9.252303 9.011131 0.989319 0.143506 -0.025594 
35.994710 0.267569 13.322754 0.968549 0.208300 0.136106 
22.932270 -2.614375 44.833726 -0.731718 -0.646228 0.216745 
1.161132 23.944954 21.045726 0.413174 0.886879 -0.206719 
2.084522 42.840331 -17.680745 -0.622413 -0.504892 -0.598068 
26.734100 37.913917 -1.671947 -0.559859 0.536828 0.631168 
25.178120 -5.211667 70.049141 -0.744489 -0.664333 0.066319 
66.289940 -34.336034 72.436837 0.933561 0.244329 -0.262235 
-10.746660 75.495190 -39.345345 -0.301313 -0.925733 0.228537 
2.379562 12.058197 24.018396 -0.481715 -0.750097 0.453105 
7.063932 11.915189 11.974298 -0.559269 -0.661856 -0.499165 
-37.371010 39.099115 -5.802614 0.441718 -0.619803 -0.648637 
13.164250 38.425663 -10.413144 -0.209266 0.378927 0.901455 
-7.824631 50.665993 -13.225381 -0.133840 0.839112 0.527235 
-50.398450 40.055979 8.554099 0.260887 0.370927 0.891264 
42.450050 -19.043295 11.427262 0.951893 0.202590 0.229907 
-54.363980 54.681963 -24.226827 -0.643271 0.094601 -0.759772 
30.735650 11.938207 37.421933 0.774887 0.592157 0.221135 
58.154970 -38.674037 -9.587622 0.952768 0.146731 0.265901 
11.955060 79.810341 -32.226585 0.406366 0.690305 0.598621 
-44.212220 65.926868 -29.032482 -0.526107 0.301891 -0.795031 
19.684630 62.471063 -23.625577 0.538883 0.373716 0.754945 
22.041750 54.977626 -23.543741 0.803918 0.219592 0.552717 
55.267960 -62.792587 18.527716 0.997169 0.015079 -0.073662 
42.471980 -8.282209 61.233737 0.713401 0.692975 -0.104135 
62.567200 -34.137960 68.131476 0.792390 0.283729 -0.540014 
61.836740 -51.417532 56.481887 0.726062 0.450252 -0.519719 
22.511510 -2.873269 73.632969 -0.791883 -0.607653 -0.060650 
51.638530 -34.829139 -4.698272 0.847559 0.230180 0.478186 
-4.867072 75.092265 -34.201637 -0.437090 0.035274 0.898726 
10.952732 76.164041 -29.224228 -0.042596 0.382712 0.922885 
23.261240 11.105702 -0.519817 -0.481776 -0.484131 -0.730417 
34.835860 -32.995969 25.469976 -0.667544 -0.344580 0.660037 
-13.787170 42.086320 21.450830 -0.137638 0.606338 0.783205 
-48.272430 45.851021 -1.910228 0.234376 0.939510 0.249778 
16.949190 81.676639 -47.363119 0.699907 0.607454 -0.375672 
27.631910 7.294687 54.845718 0.699364 0.711248 0.070825 
24.690350 65.853682 -42.096471 0.736439 -0.378571 -0.560661 
19.737060 59.817469 -39.416101 0.380210 -0.450816 -0.807593 
-46.504230 68.605841 -23.038293 -0.735231 0.577379 0.355063 
57.722910 -34.440003 -21.998179 0.844778 -0.124403 -0.520456 
-34.953350 39.851757 4.547682 0.436304 0.804765 -0.402482 
5.281671 66.822932 -26.672769 -0.236908 0.592681 0.769808 
-13.211530 34.425895 4.628860 0.756510 0.644495 0.110986 
35.332550 34.958874 -1.074496 0.979787 0.117415 -0.161961 
-50.734470 60.262029 -21.281578 -0.264364 0.746603 0.610489 
-3.574559 48.042262 -13.364508 0.016210 0.272107 0.962130 
-64.401590 33.243267 4.673711 -0.902906 -0.189045 0.386033 
41.668100 -55.958054 8.336934 -0.555713 -0.814845 -0.164959 
17.859980 60.087314 -18.209768 0.583699 0.808614 0.073752 
-33.868290 40.364480 -1.451091 0.555977 0.829682 0.050170 
20.916760 -14.835636 15.903971 -0.933067 -0.262495 0.245929 
-31.526500 66.919616 -29.843653 0.474738 -0.870018 -0.133011 
44.737870 -25.009733 59.753686 -0.767687 -0.594794 0.238489 
51.563800 -56.894899 23.755138 0.880861 0.452014 -0.140599 
13.956380 49.207713 -35.981134 -0.457338 -0.123836 -0.880628 
44.541810 -32.505467 15.547255 0.972951 0.209334 0.097698 
-2.465835 61.449957 -28.857753 -0.785152 -0.366485 -0.499224 
-39.842290 52.873912 -17.072782 0.927731 0.145365 0.343780 
-4.046268 28.981927 0.507492 -0.271935 -0.585775 -0.763491 
22.535370 -4.257112 36.002155 -0.731750 -0.595985 0.330672 
44.965520 -12.897802 -28.599468 -0.450031 0.507868 -0.734535 
-46.150540 34.657223 -1.552099 0.193397 -0.952277 -0.236151 
-8.293859 31.017248 18.320188 0.742641 0.632505 -0.220048 
31.548060 -1.500231 82.764865 0.580351 0.658038 0.479769 
47.000060 -11.980238 68.586096 0.543536 0.798449 -0.258937 
40.687390 -25.091385 -24.211333 -0.772372 -0.070704 -0.631224 
46.786020 -22.853929 86.171389 -0.140166 -0.438184 0.887890 
23.994850 -17.751965 20.207110 -0.743929 -0.389908 0.542717 
50.236540 -44.677494 40.713561 0.896679 0.321392 -0.304423 
-48.347030 39.764926 -11.681612 0.521835 -0.707678 -0.476318 
14.659500 66.779963 -25.615314 0.036814 0.535414 0.843787 
10.148038 87.876813 -48.391173 0.427985 0.774788 -0.465331 
36.542330 -17.515049 85.716783 -0.398653 -0.571528 0.717238 
41.021420 -18.130746 -13.327941 -0.877374 -0.073716 -0.474111 
-13.528480 25.215060 27.770940 -0.570320 -0.306596 0.762059 
-11.131870 17.832986 20.460523 -0.610331 -0.696283 0.377739 
25.774420 -6.927212 85.006061 -0.225643 -0.186341 0.956223 
35.564230 -16.120161 76.221052 -0.706595 -0.705819 0.050432 
51.728940 -23.180713 85.750213 0.352145 -0.033375 0.935350 
37.808290 -17.514323 28.209003 0.957926 0.270963 -0.094639 
20.417980 11.436921 67.310838 0.347070 0.936516 -0.049801 
35.461110 31.428103 9.132198 0.995835 -0.031891 0.085409 
36.064900 23.095947 6.511136 0.992601 -0.085533 0.086177 
33.564090 47.254680 -3.971603 0.601765 0.695345 0.392905 
42.333530 -27.542858 21.088495 0.960213 0.271482 0.065494 
-7.838005 34.198355 24.278041 0.715889 0.668981 0.199919 
37.484310 0.580180 43.269281 0.889648 0.453384 -0.054486 
28.507970 -12.155269 -6.719012 -0.783139 -0.577762 -0.229964 
15.368170 7.973364 64.888380 -0.926242 -0.165741 0.338536 
21.734290 48.364539 -28.355611 0.978565 -0.124500 -0.164041 
21.206170 -0.121739 56.853155 -0.738594 -0.657389 0.149392 
33.809930 8.092907 37.245237 0.884405 0.461364 0.070507 
-22.530470 83.793038 -38.076772 -0.393671 0.912883 -0.108018 
-6.919297 50.997175 -17.356615 -0.845908 -0.069189 -0.528822 
55.983430 -46.629938 60.920362 -0.887058 -0.328412 0.324458 
-11.501240 37.546908 9.694680 0.822799 0.422359 -0.380283 
22.509360 52.001391 -20.435181 0.881714 0.417183 -0.220317 
13.602360 20.851905 -2.277738 -0.559043 -0.628299 -0.541028 
5.666480 26.719504 40.834956 -0.763174 0.574090 0.296625 
49.662620 -10.786856 -27.091033 0.593016 0.376017 -0.711999 
24.262670 26.574167 -15.635477 0.507029 -0.584047 -0.633886 
15.747800 73.840207 -51.402511 -0.064871 -0.308989 -0.948851 
-20.215490 34.870147 5.017127 -0.145490 0.172991 -0.974118 
53.212820 -67.378665 20.705863 0.366845 -0.902538 -0.225500 
56.213540 -70.072359 30.807478 0.548828 -0.824713 -0.136512 
59.089980 -68.267591 49.500743 0.350988 -0.804547 0.479074 
47.536430 -41.318030 42.546957 -0.851817 -0.317863 0.416378 
53.679720 -38.309427 63.919587 -0.859038 -0.437218 0.266259 
15.003720 41.946331 -42.665101 -0.738151 0.073010 -0.670673 
36.379960 -56.995252 13.055682 -0.778925 -0.523206 -0.345733 
-32.747680 35.346235 11.803489 -0.346208 -0.126748 0.929556 
-1.749265 15.575357 12.501635 -0.421940 -0.792665 -0.440055 
58.486010 -45.128173 -14.521302 0.750458 -0.486032 -0.447867 
-0.437501 25.188453 7.318777 0.370595 0.916266 0.152040 
51.610190 -49.790281 7.154018 0.884078 0.354982 0.303962 
59.807960 -51.868541 70.138208 -0.710685 -0.555461 0.431729 
46.436480 -0.384485 -27.968462 0.903304 0.383175 -0.192920 
-52.018040 33.126181 -2.464060 0.413888 -0.907115 -0.076417 
-10.849620 89.548286 -43.813513 -0.383940 0.827645 -0.409382 
18.775230 24.160040 -11.497285 -0.547631 -0.713926 -0.436360 
5.529772 16.967795 35.774783 -0.707639 -0.602088 0.369780 
21.643130 -18.950791 11.062426 -0.924949 -0.157509 -0.345919 
16.993560 23.853704 45.861761 0.738545 0.515968 0.433968 
20.509660 17.039418 47.335701 0.764434 0.580894 0.279648 
9.634978 15.254622 59.577179 -0.277999 0.235453 0.931278 
19.091990 2.894359 7.840779 -0.773553 -0.178747 -0.608001 
9.899423 27.901615 0.498122 -0.099905 0.909395 0.403758 
52.482930 -49.327412 -11.299876 -0.085009 -0.762347 -0.641560 
29.554170 29.542077 31.831454 0.717368 0.234923 0.655892 
11.303230 11.032791 57.392618 -0.764403 -0.608671 0.212619 
-16.378010 47.614735 13.432564 -0.187416 0.934545 0.302493 
10.779982 57.187731 -37.365188 -0.527566 -0.271892 -0.804829 
-15.437370 49.272822 0.644575 0.229837 0.916353 -0.327828 
43.552040 -28.053741 -25.469424 -0.537541 -0.401529 -0.741501 
52.344150 -15.501412 -20.371980 0.893191 0.447041 -0.048627 
49.473500 -11.728701 81.246125 0.611306 0.628140 0.481399 
26.293560 13.336730 -2.559829 0.056078 -0.512706 -0.856731 
26.041410 67.603633 -39.868656 0.968063 0.204576 -0.144922 
18.150190 30.886185 34.032099 0.146672 0.980093 -0.133807 
15.545650 9.189164 74.907596 -0.856848 0.490198 0.159743 
43.815090 -2.584847 -11.797344 0.846263 0.515726 0.133662 
21.656870 33.040652 -25.215073 0.695986 -0.533489 -0.480617 
24.705470 -3.205768 -0.934461 -0.773216 0.419816 -0.475280 
28.839930 15.730537 -3.314710 0.594532 -0.325925 -0.735054 
32.202430 33.784217 -10.054374 0.891749 -0.043733 -0.450412 
-12.399950 77.729443 -35.649645 0.177846 -0.396696 0.900557 
1.754121 89.604703 -48.654963 0.055938 0.749269 -0.659899 
23.044150 23.769616 -13.161201 -0.107381 -0.773568 -0.624550 
60.902360 -39.045923 80.642537 0.244931 -0.462752 0.851980 
-61.677010 28.525161 0.747554 -0.173789 -0.965931 0.191769 
32.149010 -2.085445 72.331699 0.672098 0.736265 -0.078722 
57.656800 -66.420322 28.858910 0.957286 0.128083 -0.259225 
-6.445477 74.613231 -41.565897 -0.301452 -0.855240 -0.421535 
2.165177 11.115207 18.791666 -0.554946 -0.831784 0.013060 
66.825630 -48.857632 69.184695 0.995784 -0.088946 0.022410 
-63.393020 40.064748 0.636497 -0.981012 0.189953 0.039166 
-21.352530 47.008578 8.559013 -0.376191 0.926456 -0.012608 
-14.520850 37.622423 7.375118 0.936774 0.280720 -0.208929 
11.489850 25.228956 50.799519 0.053731 0.830556 0.554337 
29.841590 52.739986 -9.536696 0.695274 0.718402 0.022183 
-12.457690 86.971596 -39.856993 -0.086264 0.679850 0.728260 
-6.754080 18.466486 28.430462 -0.407725 -0.657407 0.633701 
-18.201410 37.321526 20.837985 -0.691496 0.123537 0.711739 
59.293000 -30.840420 82.889101 0.592914 -0.131315 0.794487 
37.077120 -12.789565 22.292045 0.963950 0.222969 0.145206 
5.856700 77.788903 -50.393650 -0.351362 -0.323883 -0.878433 
25.711190 30.826166 -17.090012 0.813386 -0.247691 -0.526358 
13.119660 67.528500 -44.101619 -0.310796 -0.493694 -0.812202 
45.959470 -25.925615 69.161574 -0.765667 -0.635634 0.098608 
18.590990 69.454273 -27.344524 0.401997 0.470239 0.785667 
32.115930 -46.774394 18.967048 -0.983771 -0.083731 -0.158691 
53.626310 -72.138446 43.383170 0.148137 -0.915959 0.372927 
-23.247590 41.671949 13.642649 -0.568978 0.453359 0.686098 
21.101560 18.678684 -6.692512 -0.397324 -0.676936 -0.619589 
39.304400 -0.048112 -2.997755 0.757506 0.652502 0.020645 
58.372590 -31.642978 -16.999226 0.994785 0.087456 0.052486 
8.264487 41.353131 -22.113520 -0.740529 -0.464709 -0.485451 
18.451000 9.948690 4.481683 -0.647849 -0.429980 -0.628816 
62.117700 -51.432742 72.081592 0.136793 -0.743440 0.654663 
25.273130 31.215407 31.816728 -0.014330 0.997131 0.074322 
45.286670 -17.880617 -32.512397 -0.500780 0.076449 -0.862192 
31.023180 8.954550 0.567162 0.416002 0.090436 -0.904856 
41.004690 4.711773 -29.828466 -0.641235 0.326688 -0.694329 
26.850110 -12.236266 1.980153 -0.822483 -0.472784 -0.316222 
3 481 415 172 
3 190 229 400 
3 175 268 95 
3 83 106 169 
3 262 273 82 
3 140 424 239 
3 477 24 243 
3 373 137 223 
3 420 148 119 
3 163 321 459 
3 198 497 42 
3 198 235 497 
3 319 340 402 
3 28 364 204 
3 472 436 29 
3 391 340 319 
3 42 497 30 
3 301 492 429 
3 82 209 345 
3 35 277 270 
3 61 204 373 
3 123 258 249 
3 432 474 244 
3 33 60 411 
3 466 321 19 
3 173 460 132 
3 309 102 168 
3 267 220 422 
3 240 377 110 
3 290 300 19 
3 436 66 29 
3 176 95 351 
3 422 264 267 
3 407 326 34 
3 360 463 146 
3 244 474 271 
3 70 103 112 
3 158 469 254 
3 430 448 413 
3 153 394 182 
3 367 336 252 
3 143 258 123 
3 429 492 99 
3 290 160 432 
3 146 189 140 
3 94 268 368 
3 86 20 87 
3 280 24 462 
3 91 128 454 
3 103 229 234 
3 482 47 54 
3 327 239 13 
3 94 95 268 
3 457 450 414 
3 65 323 199 
3 309 365 102 
3 451 80 108 
3 327 105 140 
3 218 60 33 
3 249 32 142 
3 202 76 53 
3 382 90 299 
3 196 376 399 
3 392 228 477 
3 166 357 395 
3 38 261 42 
3 179 383 51 
3 184 3 338 
3 138 37 337 
3 477 462 24 
3 468 145 207 
3 14 389 147 
3 2 22 296 
3 224 247 10 
3 91 269 128 
3 284 51 329 
3 58 306 127 
3 121 183 446 
3 274 139 109 
3 434 129 113 
3 330 7 437 
3 418 200 131 
3 426 178 250 
3 41 309 371 
3 107 469 83 
3 98 485 200 
3 46 409 471 
3 358 309 352 
3 383 179 201 
3 181 318 170 
3 426 250 331 
3 225 378 67 
3 15 244 271 
3 168 102 55 
3 216 434 322 
3 197 294 289 
3 379 447 180 
3 420 301 408 
3 53 76 10 
3 142 32 81 
3 156 194 20 
3 48 453 340 
3 29 40 144 
3 84 203 370 
3 409 399 376 
3 293 138 337 
3 388 1 114 
3 63 292 264 
3 130 419 149 
3 61 74 291 
3 279 253 210 
3 241 237 371 
3 424 177 85 
3 217 150 355 
3 144 79 472 
3 30 497 401 
3 0 165 82 
3 137 232 223 
3 15 271 16 
3 348 226 120 
3 435 198 42 
3 446 275 121 
3 88 62 157 
3 161 101 96 
3 72 153 287 
3 61 291 28 
3 198 28 291 
3 247 248 31 
3 333 284 212 
3 269 91 151 
3 430 454 448 
3 197 43 353 
3 189 146 463 
3 129 434 312 
3 3 36 338 
3 481 44 445 
3 263 45 357 
3 261 262 42 
3 261 64 59 
3 456 122 235 
3 58 127 131 
3 116 155 171 
3 57 404 315 
3 75 221 267 
3 455 264 152 
3 234 314 313 
3 200 418 98 
3 270 246 278 
3 152 403 310 
3 222 23 139 
3 201 179 41 
3 333 212 352 
3 329 212 284 
3 390 111 386 
3 306 58 209 
3 264 75 267 
3 124 92 233 
3 279 193 59 
3 3 8 293 
3 175 403 152 
3 439 491 277 
3 96 158 161 
3 401 231 88 
3 421 232 420 
3 84 342 321 
3 115 442 7 
3 124 233 89 
3 275 286 359 
3 285 412 40 
3 470 446 183 
3 46 11 409 
3 8 184 186 
3 302 109 154 
3 421 420 408 
3 309 358 241 
3 141 211 184 
3 135 420 232 
3 239 347 254 
3 239 254 13 
3 139 316 196 
3 96 83 158 
3 176 350 451 
3 400 229 405 
3 46 444 11 
3 214 426 331 
3 262 31 273 
3 388 114 389 
3 488 257 89 
3 304 113 412 
3 237 97 363 
3 274 296 22 
3 52 330 437 
3 380 392 12 
3 133 438 472 
3 49 188 333 
3 295 85 177 
3 413 448 289 
3 90 398 299 
3 257 313 314 
3 443 133 113 
3 313 73 112 
3 86 178 441 
3 60 221 433 
3 119 148 200 
3 447 294 255 
3 286 33 164 
3 260 354 162 
3 313 256 73 
3 391 167 159 
3 88 157 387 
3 350 351 172 
3 451 350 172 
3 5 164 325 
3 55 208 168 
3 386 380 12 
3 288 18 149 
3 241 371 309 
3 101 358 212 
3 493 66 442 
3 237 68 347 
3 215 61 373 
3 231 401 122 
3 411 433 487 
3 328 478 398 
3 2 318 22 
3 115 7 70 
3 38 401 230 
3 87 361 76 
3 402 453 394 
3 119 419 78 
3 160 49 406 
3 121 326 407 
3 88 387 230 
3 374 289 494 
3 421 429 99 
3 114 187 424 
3 397 263 357 
3 214 428 118 
3 37 330 349 
3 385 26 460 
3 73 256 266 
3 126 305 304 
3 482 391 57 
3 162 354 272 
3 134 260 324 
3 363 260 134 
3 291 439 35 
3 40 196 285 
3 325 181 142 
3 218 33 286 
3 448 454 233 
3 272 424 486 
3 336 118 428 
3 247 224 248 
3 309 174 365 
3 313 112 103 
3 185 295 260 
3 301 78 297 
3 277 491 344 
3 5 81 359 
3 14 116 425 
3 399 409 11 
3 404 402 443 
3 117 45 104 
3 335 410 136 
3 306 484 248 
3 393 398 478 
3 434 216 312 
3 145 149 207 
3 401 88 230 
3 419 485 288 
3 328 369 238 
3 431 383 375 
3 142 311 249 
3 486 424 187 
3 37 464 337 
3 246 488 128 
3 260 162 416 
3 218 407 317 
3 342 84 34 
3 344 411 487 
3 124 27 92 
3 20 194 87 
3 14 322 475 
3 320 24 338 
3 394 71 276 
3 53 10 247 
3 70 112 115 
3 328 398 369 
3 264 455 75 
3 78 130 297 
3 387 157 227 
3 417 418 131 
3 183 416 162 
3 45 115 395 
3 85 147 125 
3 216 215 312 
3 280 468 24 
3 353 43 245 
3 282 195 243 
3 164 5 286 
3 460 15 385 
3 77 420 135 
3 427 23 440 
3 312 215 373 
3 39 427 440 
3 75 433 221 
3 60 317 221 
3 376 213 409 
3 34 84 370 
3 42 165 435 
3 248 273 31 
3 298 31 262 
3 298 262 261 
3 234 478 314 
3 389 14 475 
3 223 366 373 
3 291 74 439 
3 377 240 464 
3 406 49 55 
3 73 266 166 
3 296 274 109 
3 326 191 217 
3 33 372 39 
3 32 258 81 
3 209 77 345 
3 13 360 146 
3 21 283 440 
3 449 392 195 
3 238 252 428 
3 10 423 224 
3 490 267 221 
3 65 467 323 
3 445 219 56 
3 444 346 11 
3 318 181 21 
3 266 256 495 
3 476 187 114 
3 1 476 114 
3 317 407 370 
3 7 442 66 
3 409 213 356 
3 296 263 2 
3 251 188 49 
3 79 113 133 
3 201 324 383 
3 110 390 12 
3 260 295 324 
3 276 438 402 
3 58 148 77 
3 230 64 38 
3 7 330 9 
3 122 278 4 
3 480 455 6 
3 423 127 306 
3 42 262 165 
3 75 461 433 
3 259 342 34 
3 406 242 474 
3 117 104 493 
3 278 456 270 
3 440 164 39 
3 404 443 129 
3 342 459 321 
3 145 130 149 
3 425 116 372 
3 126 285 399 
3 449 195 67 
3 149 18 339 
3 495 277 450 
3 478 328 100 
3 302 154 40 
3 170 311 142 
3 339 18 211 
3 400 330 37 
3 362 410 335 
3 208 49 333 
3 259 343 16 
3 9 103 70 
3 245 448 92 
3 365 174 188 
3 203 56 303 
3 303 317 370 
3 4 151 122 
3 311 410 362 
3 86 255 178 
3 227 50 374 
3 97 239 272 
3 454 430 91 
3 423 361 127 
3 112 396 115 
3 216 322 467 
3 289 374 413 
3 263 104 45 
3 222 139 274 
3 458 357 166 
3 371 134 201 
3 446 470 46 
3 132 479 300 
3 378 337 464 
3 333 352 208 
3 451 120 80 
3 226 80 120 
3 190 393 234 
3 385 348 26 
3 362 150 143 
3 186 190 8 
3 336 465 418 
3 53 210 202 
3 319 57 391 
3 432 160 406 
3 12 240 110 
3 336 367 465 
3 242 205 459 
3 325 142 5 
3 67 378 449 
3 233 454 89 
3 480 414 455 
3 175 176 403 
3 214 341 428 
3 458 265 480 
3 221 317 490 
3 345 77 135 
3 483 80 332 
3 111 391 386 
3 157 50 227 
3 253 180 210 
3 105 327 13 
3 130 78 419 
3 380 167 228 
3 151 91 496 
3 297 130 145 
3 243 24 320 
3 219 445 368 
3 489 331 250 
3 54 462 228 
3 67 195 282 
3 214 118 156 
3 458 480 6 
3 249 143 123 
3 277 246 270 
3 311 473 410 
3 141 338 468 
3 397 357 69 
3 377 153 72 
3 52 349 330 
3 260 363 354 
3 310 455 152 
3 55 49 208 
3 384 259 355 
3 372 286 39 
3 300 466 19 
3 292 63 422 
3 308 279 387 
3 213 427 356 
3 237 241 358 
3 467 65 215 
3 468 492 145 
3 263 206 2 
3 1 25 346 
3 342 16 271 
3 457 265 266 
3 486 444 470 
3 145 492 297 
3 375 177 189 
3 493 442 117 
3 90 369 398 
3 307 62 496 
3 287 390 72 
3 211 192 382 
3 48 111 390 
3 247 59 193 
3 494 308 374 
3 317 60 218 
3 209 82 484 
3 47 99 280 
3 343 259 384 
3 68 161 254 
3 140 189 177 
3 434 305 322 
3 490 303 219 
3 383 106 51 
3 432 406 474 
3 155 260 416 
3 245 489 353 
3 27 245 92 
3 52 71 349 
3 474 342 271 
3 371 201 41 
3 356 275 471 
3 489 245 281 
3 153 453 287 
3 420 77 148 
3 110 72 390 
3 453 153 182 
3 252 336 428 
3 450 344 487 
3 321 466 84 
3 7 436 437 
3 257 314 100 
3 86 87 76 
3 141 339 211 
3 323 425 372 
3 386 159 380 
3 231 62 88 
3 256 257 246 
3 475 126 388 
3 170 206 397 
3 173 244 460 
3 197 353 178 
3 237 358 68 
3 277 344 450 
3 323 491 199 
3 133 443 438 
3 362 143 249 
3 442 115 117 
3 124 238 341 
3 219 303 56 
3 426 441 178 
3 108 335 136 
3 415 26 93 
3 176 136 403 
3 299 393 186 
3 316 139 23 
3 83 96 51 
3 475 322 305 
3 203 415 481 
3 432 173 290 
3 29 66 452 
3 380 228 392 
3 347 239 97 
3 9 330 405 
3 402 404 319 
3 160 19 251 
3 469 13 254 
3 135 137 345 
3 205 163 459 
3 124 328 238 
3 282 243 320 
3 158 83 469 
3 50 62 307 
3 377 464 153 
3 428 341 238 
3 424 140 177 
3 289 43 197 
3 10 76 361 
3 391 159 386 
3 458 6 69 
3 486 476 346 
3 363 134 237 
3 349 71 394 
3 17 299 186 
3 36 293 225 
3 258 191 359 
3 276 71 437 
3 233 92 448 
3 179 284 174 
3 446 46 471 
3 121 171 183 
3 411 491 323 
3 170 473 311 
3 212 329 101 
3 98 18 288 
3 375 324 295 
3 153 464 394 
3 222 22 440 
3 167 54 228 
3 191 258 217 
3 495 256 246 
3 232 366 223 
3 393 299 398 
3 316 23 213 
3 484 82 273 
3 284 179 51 
3 371 237 134 
3 421 47 366 
3 191 326 359 
3 286 275 356 
3 122 497 235 
3 375 189 431 
3 50 307 430 
3 22 21 440 
3 139 154 109 
3 470 183 272 
3 483 332 343 
3 12 390 386 
3 125 424 85 
3 372 171 218 
3 396 73 166 
3 287 48 390 
3 494 294 447 
3 486 470 272 
3 356 427 39 
3 104 296 109 
3 184 382 17 
3 29 452 40 
3 309 41 174 
3 185 116 147 
3 331 341 214 
3 36 225 282 
3 459 342 474 
3 24 468 338 
3 165 0 364 
3 35 439 277 
3 105 146 140 
3 372 218 286 
3 451 108 136 
3 454 128 488 
3 461 487 433 
3 100 314 478 
3 141 184 338 
3 225 67 282 
3 6 310 69 
3 364 0 381 
3 239 327 140 
3 113 304 305 
3 311 362 249 
3 489 281 331 
3 119 200 485 
3 254 347 68 
3 39 286 356 
3 203 481 56 
3 318 2 206 
3 144 40 412 
3 198 291 235 
3 451 136 176 
3 394 276 402 
3 400 405 330 
3 58 131 148 
3 267 219 220 
3 156 417 236 
3 248 484 273 
3 445 94 368 
3 107 83 169 
3 38 64 261 
3 360 107 463 
3 98 418 465 
3 370 407 34 
3 149 339 207 
3 155 185 260 
3 456 278 122 
3 391 111 340 
3 341 281 27 
3 37 138 400 
3 351 44 172 
3 152 264 292 
3 103 9 405 
3 82 345 0 
3 8 138 293 
3 343 332 16 
3 20 426 214 
3 104 302 493 
3 115 45 117 
3 53 247 193 
3 397 206 263 
3 431 189 463 
3 361 423 10 
3 168 352 309 
3 160 290 19 
3 447 202 180 
3 128 4 278 
3 421 99 47 
3 366 57 315 
3 196 399 285 
3 383 324 375 
3 38 42 30 
3 205 242 102 
3 20 214 156 
3 185 85 295 
3 339 141 207 
3 119 301 420 
3 373 366 315 
3 464 349 394 
3 203 300 479 
3 423 248 224 
3 131 127 236 
3 96 329 51 
3 95 44 351 
3 480 265 414 
3 456 35 270 
3 222 274 22 
3 12 392 449 
3 121 275 326 
3 14 425 467 
3 457 266 495 
3 170 318 206 
3 102 365 205 
3 477 195 392 
3 429 421 408 
3 12 449 240 
3 490 317 303 
3 199 74 65 
3 26 348 93 
3 290 173 132 
3 216 467 215 
3 78 301 119 
3 298 261 59 
3 229 103 405 
3 367 192 465 
3 165 262 82 
3 100 328 89 
3 350 176 351 
3 192 18 98 
3 32 249 258 
3 59 247 31 
3 429 408 301 
3 378 225 293 
3 192 90 382 
3 425 323 467 
3 46 470 444 
3 116 14 147 
3 190 138 8 
3 324 201 134 
3 388 389 475 
3 166 395 396 
3 360 13 469 
3 48 287 453 
3 485 98 288 
3 467 322 14 
3 495 246 277 
3 43 448 245 
3 163 205 365 
3 346 399 11 
3 28 435 364 
3 186 184 17 
3 5 359 286 
3 169 106 383 
3 257 100 89 
3 15 226 385 
3 75 414 461 
3 84 466 300 
3 462 477 228 
3 468 207 141 
3 198 435 28 
3 194 361 87 
3 357 458 69 
3 40 154 196 
3 362 384 150 
3 63 264 422 
3 101 68 358 
3 292 422 268 
3 279 210 193 
3 369 90 252 
3 284 333 188 
3 437 71 52 
3 113 79 412 
3 105 13 146 
3 172 415 93 
3 387 279 230 
3 170 397 473 
3 47 462 54 
3 8 3 184 
3 257 488 246 
3 175 95 176 
3 169 383 431 
3 340 453 402 
3 257 256 313 
3 388 126 25 
3 362 335 334 
3 308 253 279 
3 362 334 384 
3 234 313 103 
3 280 99 492 
3 357 45 395 
3 204 137 373 
3 41 179 174 
3 211 18 192 
3 293 337 378 
3 89 328 124 
3 464 240 378 
3 219 368 220 
3 250 178 353 
3 231 151 62 
3 411 323 372 
3 162 272 183 
3 494 447 379 
3 181 283 21 
3 86 76 202 
3 211 382 184 
3 231 122 151 
3 455 310 6 
3 263 296 104 
3 237 347 97 
3 229 190 234 
3 26 479 132 
3 69 310 410 
3 137 135 232 
3 341 331 281 
3 315 129 312 
3 282 320 36 
3 355 34 217 
3 417 131 236 
3 364 435 165 
3 308 379 253 
3 272 239 424 
3 355 259 34 
3 251 19 163 
3 360 469 107 
3 368 268 220 
3 361 194 236 
3 460 26 132 
3 268 175 152 
3 348 120 451 
3 69 410 473 
3 319 404 57 
3 252 90 367 
3 315 404 129 
3 426 20 441 
3 423 306 248 
3 384 483 343 
3 414 450 461 
3 116 185 155 
3 491 439 199 
3 334 108 483 
3 252 238 369 
3 20 86 441 
3 0 345 381 
3 381 204 364 
3 482 57 366 
3 310 403 410 
3 185 147 85 
3 151 496 62 
3 204 381 137 
3 56 481 445 
3 79 144 412 
3 452 66 493 
3 203 303 370 
3 203 84 300 
3 3 293 36 
3 316 376 196 
3 284 188 174 
3 463 107 169 
3 144 472 29 
3 251 163 365 
3 472 438 276 
3 113 129 443 
3 436 7 66 
3 430 413 50 
3 44 481 172 
3 401 38 30 
3 379 308 494 
3 381 345 137 
3 59 31 298 
3 150 217 143 
3 115 396 395 
3 192 367 90 
3 266 265 166 
3 280 462 47 
3 243 195 477 
3 453 182 394 
3 414 75 455 
3 399 346 25 
3 312 373 315 
3 240 449 378 
3 7 9 70 
3 409 356 471 
3 393 190 186 
3 244 15 460 
3 494 289 294 
3 118 336 156 
3 290 132 300 
3 161 158 254 
3 407 218 171 
3 437 436 276 
3 283 181 325 
3 374 308 227 
3 190 400 138 
3 468 280 492 
3 209 484 306 
3 365 188 251 
3 253 379 180 
3 97 272 354 
3 19 321 163 
3 244 173 432 
3 440 23 222 
3 202 210 180 
3 86 202 255 
3 245 27 281 
3 142 81 5 
3 148 131 200 
3 291 456 235 
3 58 77 209 
3 411 60 433 
3 25 126 399 
3 255 294 197 
3 217 34 326 
3 389 125 147 
3 154 139 196 
3 51 106 83 
3 212 358 352 
3 283 325 164 
3 61 215 74 
3 226 15 332 
3 361 236 127 
3 194 156 236 
3 27 124 341 
3 72 110 377 
3 457 495 450 
3 401 497 122 
3 157 62 50 
3 474 242 459 
3 25 1 388 
3 96 101 329 
3 375 295 177 
3 445 44 94 
3 155 416 171 
3 307 91 430 
3 416 183 171 
3 320 338 36 
3 342 259 16 
3 166 265 458 
3 436 472 276 
3 448 43 289 
3 387 227 308 
3 164 33 39 
3 258 143 217 
3 334 335 108 
3 226 332 80 
3 102 242 55 
3 299 17 382 
3 397 69 473 
3 415 479 26 
3 79 133 472 
3 226 348 385 
3 246 128 278 
3 332 15 16 
3 302 452 493 
3 363 97 354 
3 457 414 265 
3 167 380 159 
3 267 490 219 
3 419 288 149 
3 374 50 413 
3 476 486 187 
3 344 491 411 
3 230 279 64 
3 80 483 108 
3 434 113 305 
3 407 171 121 
3 348 172 93 
3 346 476 1 
3 450 487 461 
3 318 21 22 
3 232 421 366 
3 417 156 336 
3 193 210 53 
3 496 91 307 
3 452 302 40 
3 114 424 125 
3 111 48 340 
3 410 403 136 
3 475 305 126 
3 49 160 251 
3 411 372 33 
3 213 23 427 
3 4 269 151 
3 451 172 348 
3 384 355 150 
3 98 465 192 
3 334 483 384 
3 492 301 297 
3 101 161 68 
3 485 419 119 
3 169 431 463 
3 316 213 376 
3 234 393 478 
3 197 178 255 
3 292 268 152 
3 447 255 202 
3 128 269 4 
3 73 396 112 
3 486 346 444 
3 279 59 64 
3 37 349 464 
3 208 352 168 
3 220 268 422 
3 44 95 94 
3 391 482 167 
3 412 285 304 
3 406 55 242 
3 47 482 366 
3 438 443 402 
3 471 275 446 
3 479 415 203 
3 171 372 116 
3 89 454 488 
3 167 482 54 
3 336 418 417 
3 302 104 109 
3 164 440 283 
3 258 359 81 
3 74 215 65 
3 389 114 125 
3 291 35 456 
3 439 74 199 
3 353 489 250 
3 181 170 142 
3 359 326 275 
3 61 28 204 
3 126 304 285 
