ply
format ascii 1.0
comment created by MATLAB plywrite
element vertex 248
property float x
property float y
property float z
property float nx
property float ny
property float nz
element face 500
property list uchar int vertex_indices
end_header
14.450390 24.011206 3.941630 -0.585261 0.528290 0.615126 
26.325925 -0.908633 28.901761 0.759060 0.441553 -0.478393 
22.207590 1.217747 22.937793 0.852621 0.351658 -0.386490 
4.846961 46.164511 -14.927109 0.402356 0.899078 -0.172535 
31.683655 -24.188043 17.902853 0.943983 0.139572 -0.299026 
-10.261250 41.627045 -12.946236 -0.373450 -0.235771 -0.897189 
33.484185 -8.284497 35.242438 0.964142 -0.052186 0.260206 
10.092125 1.084512 8.367320 -0.884774 -0.414365 0.213251 
-0.939548 34.138059 -6.610276 -0.754356 0.500760 0.424484 
33.362755 -4.125105 35.683213 0.931085 0.339114 -0.134475 
18.317510 10.207956 28.081495 0.762016 0.646501 0.036984 
-0.697159 20.009002 4.152899 0.385931 0.899466 0.204983 
8.457105 24.269634 22.038672 0.157432 0.958631 -0.237155 
18.216365 24.037839 9.714160 0.864386 0.469320 0.180487 
-7.227235 30.262036 6.262745 0.382887 0.852360 -0.356203 
27.135520 -5.616392 38.897173 -0.579560 -0.634973 0.510803 
8.587875 15.100581 43.195590 -0.664758 0.111186 0.738738 
-17.922640 39.246210 -9.330450 -0.527124 0.407370 -0.745781 
19.856235 -21.406569 -8.438185 -0.765247 -0.470645 -0.439193 
-16.659540 42.417547 -6.409064 -0.096505 0.933229 0.346077 
18.085650 2.721597 -10.679318 -0.743547 0.207797 -0.635577 
18.095535 -12.939964 -3.341450 -0.996075 -0.088333 -0.005713 
10.575890 21.963074 23.736377 0.633599 0.541144 0.552915 
-27.549925 29.964581 0.621439 0.075634 0.915457 0.395243 
16.462575 12.262823 43.695937 0.463222 0.641480 0.611497 
10.245055 15.789171 -3.407340 -0.401352 -0.762258 -0.507818 
19.965200 -24.496629 -6.188064 -0.565297 -0.756953 -0.327812 
13.085225 34.606913 -6.763095 0.802477 0.288838 0.522114 
2.630959 25.149070 -0.696712 0.103769 0.147821 0.983555 
-29.883905 25.242370 0.720987 -0.856304 -0.230876 -0.461996 
-0.431260 34.776026 -9.564705 -0.799573 -0.436063 -0.412956 
-19.169310 22.046535 8.474982 -0.157443 -0.943918 0.290225 
23.853620 -21.975282 -9.479433 -0.283929 -0.702005 -0.653126 
22.230420 1.330677 -2.571962 0.878871 0.451026 0.155436 
22.118170 4.111139 -15.353155 0.400138 0.758867 -0.513819 
10.783235 25.680511 -12.229353 0.838767 0.080863 -0.538452 
17.481485 10.885224 14.146914 0.976954 0.212372 0.021424 
15.820255 23.051239 14.714825 -0.451433 0.879372 -0.151370 
-25.746625 24.303617 -4.639916 -0.195848 -0.577971 -0.792208 
11.362030 18.252270 12.817346 -0.326679 0.941784 -0.079518 
21.869120 5.986553 43.895715 0.171740 0.049540 0.983896 
3.732959 20.142553 27.541765 -0.958520 -0.108943 0.263382 
-9.753705 21.849384 13.027046 -0.623930 -0.418769 0.659806 
15.606960 18.216025 18.276150 0.943717 0.103608 0.314106 
28.067550 -25.786459 18.686833 -0.651791 -0.464693 0.599358 
-7.113880 28.274223 3.309566 -0.469920 0.730261 -0.495877 
2.737834 36.320867 0.185070 -0.362926 0.919629 0.150223 
25.761785 -5.404108 -7.968777 0.912787 0.271159 0.305439 
-1.989116 20.759735 19.169880 -0.282443 0.148740 0.947682 
22.556755 -28.548820 6.635996 -0.564280 -0.817157 0.117653 
6.538355 14.830587 25.726103 -0.793886 -0.585541 0.163972 
2.408005 42.343290 -17.761914 -0.123579 0.197524 -0.972478 
13.448140 31.793640 -9.071538 0.966559 -0.232951 0.107226 
23.814430 3.461871 29.951844 0.768359 0.570735 -0.289630 
5.493471 18.072863 13.321024 0.067704 0.972439 -0.223110 
6.425985 31.020295 -1.244267 0.005720 -0.062984 0.997998 
2.630243 35.024936 -2.358932 -0.309344 0.925041 -0.220465 
33.878930 -13.602320 31.418566 0.977952 -0.173845 0.115703 
-29.574185 21.997946 8.279026 -0.312486 -0.592945 0.742138 
-9.327140 18.763790 10.805463 -0.538555 -0.730330 0.420210 
24.466915 -24.318831 12.949177 -0.841751 -0.234333 0.486357 
10.626185 20.546582 -12.809546 0.898483 -0.374752 -0.228668 
28.380160 -24.190675 -7.866176 0.406099 -0.829287 -0.383884 
-31.024115 28.675135 -0.341844 -0.941318 0.073981 -0.329314 
-28.998225 30.894061 -2.299338 -0.625493 0.769615 -0.128261 
0.165251 20.245619 1.886319 -0.705337 0.423596 0.568389 
11.414155 -6.215546 4.937004 -0.921697 -0.347891 -0.171599 
13.530530 32.654992 0.355455 0.392728 0.771959 0.499845 
-7.005765 21.897052 5.910099 -0.467855 -0.294350 -0.833349 
11.435810 36.279034 -17.025694 0.420079 -0.299931 -0.856490 
13.588695 35.317112 -13.644066 0.935166 0.063831 -0.348411 
26.960275 -21.414677 -11.773661 -0.050863 -0.725297 -0.686554 
-19.227515 32.039664 -5.410959 0.873473 -0.383824 -0.299539 
12.025135 17.579386 41.384393 0.327216 0.900796 0.285476 
-11.430540 27.781829 7.333533 -0.531792 0.462939 -0.709143 
25.651735 -7.693657 22.456796 0.811187 0.352798 -0.466379 
-7.810475 18.620407 8.219743 -0.314265 -0.758692 -0.570635 
20.855120 -3.438453 16.781071 0.885746 0.334499 -0.321814 
-26.053480 21.640262 6.517061 0.139673 -0.940923 0.308472 
17.484505 -18.534108 -7.534819 -0.949224 -0.314298 0.013817 
24.522100 -26.028303 -2.743159 -0.285348 -0.919984 -0.268713 
4.344612 11.290522 8.343919 -0.599141 -0.639541 -0.481681 
-19.308245 24.346076 0.853858 0.445319 -0.665203 -0.599329 
-9.155795 39.267088 -9.697696 0.484068 -0.702710 0.521418 
-19.912160 41.754613 -4.291694 -0.367878 0.774437 0.514696 
20.866670 -21.928795 8.723172 -0.712425 -0.292466 0.637899 
27.568705 -19.204785 17.587160 0.809282 0.422237 -0.408386 
-1.348407 19.849155 9.517899 0.643683 0.740829 -0.191948 
29.481470 -21.846662 -5.901808 0.965188 0.053444 0.256038 
7.867585 5.532077 9.853292 -0.808774 -0.587577 0.025263 
0.481205 33.186226 -4.772783 -0.578903 0.786474 0.215243 
-1.569768 22.336129 0.636833 -0.503763 -0.700545 -0.505429 
3.492182 29.115808 -9.450473 -0.716038 -0.412269 -0.563314 
7.924700 24.755619 -13.263440 -0.555345 -0.022126 -0.831326 
15.867705 -0.345807 15.833448 -0.726865 -0.520745 0.447763 
9.060755 42.463865 -11.758687 0.734404 0.665631 0.132614 
18.487700 10.115623 20.009800 0.916176 0.364294 -0.167067 
13.280430 -0.443087 -6.699360 -0.881954 0.129705 -0.453138 
20.023210 -6.423569 15.470023 -0.764666 -0.472939 0.437738 
-21.399195 29.971545 -0.810611 0.419757 0.706576 0.569697 
25.158940 -18.462141 -0.530781 0.915229 0.274155 0.295286 
-24.143225 27.787602 7.786141 0.042666 0.750042 0.660013 
-1.647460 47.428354 -14.432171 -0.184028 0.946668 -0.264488 
29.588430 -10.210321 -11.864830 0.941394 0.310795 0.131089 
18.433225 -17.603987 -3.391539 -0.979675 -0.189681 0.065256 
18.609190 -19.901011 1.452265 -0.961789 0.126036 -0.243056 
8.272965 35.895140 -0.235065 0.270430 0.788726 0.552067 
-17.117635 37.036272 -9.438878 -0.085505 -0.383005 -0.919781 
25.190365 -21.140383 5.688437 0.922326 0.374737 -0.094269 
16.934635 -12.600152 -10.009650 -0.943045 0.089094 -0.320513 
-28.097355 28.483078 8.838307 -0.226263 0.771243 0.594970 
-0.294989 32.901209 0.695761 -0.505454 0.327485 0.798292 
-1.844388 39.835100 -9.480076 -0.435476 0.103459 0.894236 
-13.235455 22.977056 5.230681 0.443157 0.068811 -0.893799 
17.432700 -7.129129 -1.913801 -0.865877 -0.341100 -0.365935 
17.607185 25.510315 7.646166 0.055467 0.928921 0.366100 
8.623395 19.748473 -15.469700 -0.074795 -0.918517 -0.388242 
16.819945 9.965812 2.205873 0.741875 0.026162 -0.670027 
6.742625 22.062304 -8.541845 -0.865591 -0.395545 -0.307078 
18.999825 5.099468 -5.423320 0.021522 0.985738 -0.166908 
1.492106 45.823734 -10.816083 0.011898 0.746091 0.665738 
-16.446660 27.698306 9.236523 -0.087015 0.964970 -0.247510 
19.200005 -15.399068 3.598226 -0.941649 -0.204984 -0.266981 
-5.221975 27.745714 3.466334 0.665661 0.626252 0.405837 
8.404195 18.709646 31.809162 0.322111 0.755478 0.570524 
12.429830 9.417428 1.629097 -0.361737 -0.398698 -0.842726 
17.086605 6.158022 -0.351025 -0.233469 0.701421 -0.673424 
-0.676587 22.549242 1.541322 0.685638 0.165966 0.708770 
26.979170 -8.647816 -17.270362 0.631075 0.330852 -0.701627 
10.948160 20.789468 -16.816075 0.708112 -0.428088 -0.561531 
26.301925 -13.498813 -18.111554 0.035327 -0.388493 -0.920774 
-17.270710 22.400865 4.488323 0.074147 -0.861983 -0.501485 
13.767440 19.813003 10.460128 -0.638104 0.751024 0.169667 
16.445175 -11.979469 2.486222 -0.786342 -0.444162 -0.429402 
23.195120 -11.567869 11.613596 0.926013 0.353106 -0.133474 
-0.937429 40.426150 -15.645123 -0.376202 -0.582441 -0.720579 
29.970670 -18.425056 27.107963 -0.744106 -0.472093 0.472688 
9.485490 19.855913 18.495552 -0.213987 0.809767 -0.546340 
2.351519 17.886942 20.429698 -0.650974 -0.503175 0.568373 
19.650225 -9.489495 -12.395159 -0.839288 0.412716 -0.353922 
-19.032620 34.365299 -4.962024 0.609106 -0.134688 0.781568 
12.946240 23.465510 -7.146052 0.901816 0.069056 -0.426566 
17.734185 12.899412 8.629266 0.993624 0.107572 0.033753 
18.846250 4.307064 7.277380 0.964918 0.210617 0.156763 
0.870614 19.682602 15.692076 0.394456 0.807209 -0.439110 
2.403852 23.088612 -3.704618 -0.599992 -0.572777 -0.558513 
1.964208 11.898144 12.238640 -0.531731 -0.815794 0.227471 
6.903420 23.059109 -0.498387 -0.193743 0.389341 0.900487 
-23.329320 23.270525 9.250918 -0.015240 -0.365226 0.930794 
-25.642105 30.358277 -7.262539 -0.320703 -0.215420 -0.922358 
-24.161020 33.800122 -6.941637 -0.646907 0.400662 -0.648831 
9.451200 35.900435 -5.493079 0.272593 0.468613 0.840294 
27.973325 -25.834164 1.155485 0.983655 -0.175208 -0.041534 
31.783600 -6.203975 32.324965 0.817172 0.298522 -0.493066 
31.354290 -11.704802 28.518129 0.771582 0.371154 -0.516629 
12.400455 9.972101 37.862956 -0.795127 -0.606442 0.000605 
26.319265 -14.150396 -5.679221 0.838701 0.242913 0.487415 
6.333815 42.122798 -7.138792 0.250393 0.629184 0.735820 
17.917930 -10.053095 10.224374 -0.684395 -0.360103 0.633979 
-20.564400 27.044543 5.342690 0.313158 0.948730 0.042927 
9.036470 41.443003 -16.972279 0.603322 0.520995 -0.603794 
8.822410 31.582032 -14.448826 0.185453 -0.335244 -0.923698 
29.908825 -18.761524 -13.368394 0.813988 -0.312839 -0.489444 
4.433535 35.828350 -5.608971 -0.197843 0.799428 0.567250 
18.846735 18.714572 4.794434 0.998338 0.010986 -0.056571 
-25.273350 33.924749 -4.543643 -0.386416 0.781167 0.490367 
-2.284267 29.537655 -1.664334 -0.275703 0.746096 0.606076 
19.843215 -22.641129 -1.828319 -0.763989 -0.619645 -0.179891 
9.429990 33.877773 -2.829334 0.483905 0.871902 -0.074987 
-18.398635 27.131003 0.601709 0.852532 0.520928 -0.042692 
-17.410105 34.987381 -7.627483 0.544192 -0.756366 -0.362995 
-1.523134 19.626777 3.679102 -0.264659 -0.570474 -0.777506 
11.573220 7.462114 21.144564 -0.734123 -0.619097 0.278894 
23.434410 -3.364873 -14.966638 -0.491293 0.142584 -0.859244 
-3.646929 22.542328 13.168567 0.780081 0.587937 -0.214016 
22.513895 5.822528 32.699736 0.628682 0.758812 -0.170183 
11.896780 -2.327983 8.630890 -0.744204 -0.369835 0.556222 
24.139635 -9.897992 17.311215 0.879884 0.359084 -0.311226 
-23.673515 23.973220 -1.546165 0.463101 -0.760509 -0.455151 
18.771165 4.285588 43.215539 -0.403131 -0.587230 0.701887 
19.272280 -7.225896 -6.353774 -0.955385 0.010638 -0.295172 
-4.242755 17.983703 17.424591 -0.547782 -0.465246 0.695328 
-5.271915 15.546963 11.942420 -0.584783 -0.801230 0.126728 
12.533535 8.655037 43.582029 -0.536827 -0.522622 0.662331 
18.282115 4.022952 38.415142 -0.695070 -0.717793 0.040631 
25.271435 1.400500 43.076233 0.127041 -0.226989 0.965576 
19.109675 -1.268127 12.076745 0.968417 0.247812 -0.027512 
10.828100 17.372899 36.460787 0.147583 0.988905 0.016900 
17.091465 29.244819 3.442150 0.713756 0.653730 0.251374 
21.109220 -4.932264 7.070298 0.955548 0.242921 0.167083 
-3.419003 24.819763 16.602983 0.721538 0.677570 0.142418 
15.588830 -2.545259 -7.099550 -0.695278 -0.516438 -0.499880 
8.184085 15.391167 35.022447 -0.909072 0.075064 0.409821 
11.103085 10.337969 29.994191 -0.744794 -0.649699 0.152230 
16.233995 14.353642 20.580072 0.877259 0.462497 0.128503 
-10.765235 44.155015 -10.707393 -0.420256 0.865559 -0.272382 
-2.959649 29.232199 -3.331873 -0.890426 0.019179 -0.454724 
27.893160 -9.774540 29.698977 -0.862108 -0.424620 0.276527 
-5.250620 25.044700 9.356285 0.896915 0.345490 -0.276008 
11.433560 29.168938 -5.589049 0.978382 0.205999 -0.018234 
7.301180 15.102265 1.381583 -0.554897 -0.626464 -0.547387 
1.171802 23.361199 19.925295 -0.547716 0.756690 0.356969 
24.167610 0.305473 -13.497891 0.830942 0.425649 -0.358271 
25.849475 -28.134727 2.255035 0.042519 -0.957494 -0.285302 
28.606770 -28.807711 9.142201 0.390329 -0.913414 -0.115404 
31.330895 -23.939586 21.627913 0.314128 -0.800214 0.510863 
22.144350 -11.672734 14.555404 -0.821773 -0.296704 0.486474 
8.001860 21.881921 -17.456181 -0.591388 0.200644 -0.781026 
18.304570 -25.537787 4.792150 -0.918843 -0.387507 0.074598 
-14.820345 23.948073 10.544224 -0.376858 -0.079765 0.922830 
1.430303 17.898268 7.032950 0.270383 0.959142 0.083300 
-23.814570 22.255002 2.870063 0.256394 -0.942653 -0.213698 
11.854425 16.831283 26.919105 0.744497 0.627170 0.228870 
4.488539 18.590472 32.876479 -0.804712 -0.033325 0.592729 
10.537315 4.628899 4.669585 -0.849624 -0.146717 -0.506569 
6.733555 19.529929 2.899223 -0.186275 0.878506 0.439919 
16.613525 23.786319 18.373128 0.517832 0.732943 0.441186 
-6.272565 30.779742 13.196186 0.475384 0.844411 0.246942 
26.672075 -5.716557 -11.829312 0.897750 0.440120 0.018411 
28.063355 4.934961 40.422981 0.746533 0.557129 0.363724 
14.424900 11.643718 0.202656 0.279872 -0.579168 -0.765661 
8.272825 17.068065 40.367439 -0.841985 0.531410 0.093082 
11.847485 18.048099 -7.166686 0.657874 -0.535487 -0.529581 
12.089010 0.796170 -0.913484 -0.907850 0.063868 -0.414402 
15.578675 22.469608 -3.667887 0.831212 0.041568 -0.554399 
-5.699975 41.249721 -10.074888 -0.004524 -0.328832 0.944378 
31.194495 -9.428409 37.401317 0.345413 -0.508431 0.788789 
-30.183500 18.868814 1.968627 -0.225523 -0.962220 -0.152554 
16.574505 10.927554 37.851386 0.712403 0.699645 -0.054587 
30.398775 -27.514340 11.992565 0.964050 -0.245323 -0.102104 
-4.952610 39.479664 -12.596176 -0.350460 -0.936515 0.010819 
-31.620955 23.248060 6.413056 -0.976849 -0.120444 0.176802 
-6.398250 23.128353 6.646726 0.815598 0.557226 0.155882 
5.537764 23.065977 29.375885 -0.122074 0.837218 0.533071 
-6.415455 44.671514 -10.855863 -0.008051 0.544725 0.838576 
-6.822750 27.345113 16.648621 -0.356058 0.322744 0.876960 
29.561970 -4.343345 40.540269 0.478219 -0.217116 0.850980 
8.217910 37.643336 -18.709369 -0.039656 -0.265008 -0.963430 
4.449663 34.840117 -14.223481 -0.434009 -0.502473 -0.747768 
22.833985 -1.566150 30.411238 -0.756660 -0.625258 0.191099 
15.843210 -14.763565 6.706750 -0.934839 -0.338505 0.107191 
26.389040 -28.775304 14.794859 -0.241439 -0.865216 0.439441 
-11.402840 29.369080 10.265872 -0.507179 0.822374 0.257820 
19.482035 4.981302 1.934273 0.836901 0.535164 -0.114876 
30.606790 -13.766927 34.101914 -0.353920 -0.691804 0.629403 
13.136565 24.051426 20.218662 -0.060681 0.997855 -0.024572 
23.019205 -9.398498 -18.242157 -0.507820 -0.021491 -0.861195 
14.901715 -4.316590 -0.485670 -0.766523 -0.503347 -0.398855 
3 238 237 69 
3 29 38 227 
3 133 122 240 
3 148 209 101 
3 236 6 9 
3 206 60 44 
3 83 230 225 
3 66 223 247 
3 233 22 12 
3 240 85 158 
3 214 125 126 
3 89 7 172 
3 46 111 106 
3 65 145 200 
3 140 83 84 
3 118 93 207 
3 70 35 161 
3 207 116 118 
3 196 166 8 
3 231 227 58 
3 102 234 120 
3 43 36 142 
3 63 231 110 
3 56 111 46 
3 58 78 148 
3 32 62 80 
3 34 119 33 
3 148 101 110 
3 140 170 83 
3 91 145 65 
3 177 108 134 
3 144 174 190 
3 72 178 38 
3 75 1 153 
3 53 10 175 
3 236 226 6 
3 85 208 49 
3 45 74 14 
3 138 50 41 
3 194 43 212 
3 204 241 49 
3 227 231 29 
3 14 198 232 
3 178 72 82 
3 147 0 67 
3 53 175 219 
3 3 102 120 
3 84 83 19 
3 89 138 146 
3 206 136 197 
3 18 26 167 
3 16 221 155 
3 198 190 174 
3 181 235 42 
3 140 99 72 
3 176 66 240 
3 14 123 45 
3 24 73 16 
3 89 214 7 
3 66 7 214 
3 104 105 122 
3 119 34 20 
3 202 33 218 
3 130 128 162 
3 78 58 227 
3 1 9 153 
3 115 13 164 
3 114 133 247 
3 239 193 172 
3 222 116 61 
3 36 143 142 
3 241 204 229 
3 61 35 141 
3 39 210 54 
3 116 25 118 
3 109 79 21 
3 1 2 53 
3 197 98 206 
3 30 112 230 
3 123 127 166 
3 242 14 74 
3 14 217 198 
3 2 75 77 
3 154 86 75 
3 101 159 110 
3 88 162 103 
3 181 42 182 
3 99 159 169 
3 17 107 150 
3 202 218 128 
3 108 189 134 
3 243 142 143 
3 145 118 25 
3 44 60 241 
3 246 130 32 
3 70 161 69 
3 28 65 147 
3 179 185 40 
3 64 165 150 
3 245 22 216 
3 99 23 159 
3 114 191 180 
3 80 167 26 
3 192 221 187 
3 5 17 195 
3 45 166 196 
3 173 128 246 
3 188 115 164 
3 88 100 152 
3 10 194 212 
3 3 51 102 
3 48 138 201 
3 68 113 121 
3 169 113 82 
3 12 144 201 
3 91 65 127 
3 218 33 47 
3 121 209 242 
3 76 131 113 
3 136 44 205 
3 182 76 81 
3 190 198 217 
3 193 192 213 
3 216 13 37 
3 208 240 105 
3 57 4 154 
3 55 67 106 
3 10 228 175 
3 126 243 119 
3 91 196 145 
3 112 30 8 
3 125 200 25 
3 182 146 181 
3 9 6 153 
3 18 167 104 
3 116 222 25 
3 203 204 49 
3 226 57 6 
3 162 128 103 
3 65 28 127 
3 138 89 172 
3 11 210 215 
3 174 87 198 
3 36 186 143 
3 94 239 172 
3 195 17 19 
3 65 171 11 
3 55 111 28 
3 85 206 158 
3 110 231 58 
3 167 208 104 
3 0 147 215 
3 235 209 42 
3 145 196 30 
3 43 216 22 
3 198 87 232 
3 132 115 0 
3 233 41 213 
3 113 131 82 
3 124 213 192 
3 85 60 206 
3 180 21 114 
3 97 126 119 
3 224 222 141 
3 247 133 66 
3 216 37 245 
3 215 65 11 
3 193 213 50 
3 112 225 230 
3 57 205 4 
3 81 76 171 
3 48 201 190 
3 117 125 220 
3 186 189 143 
3 154 4 86 
3 96 194 10 
3 84 17 150 
3 112 157 120 
3 194 36 43 
3 103 218 47 
3 92 145 30 
3 119 20 97 
3 67 199 168 
3 159 101 121 
3 33 202 34 
3 208 167 49 
3 142 164 43 
3 128 173 202 
3 115 37 13 
3 72 169 82 
3 51 237 135 
3 150 165 84 
3 70 95 27 
3 96 186 36 
3 3 160 51 
3 168 163 56 
3 77 96 2 
3 152 229 204 
3 155 239 184 
3 102 5 195 
3 152 108 229 
3 234 83 225 
3 147 55 28 
3 88 156 100 
3 158 206 98 
3 183 184 179 
3 191 173 180 
3 185 15 236 
3 92 238 93 
3 15 226 236 
3 88 152 62 
3 106 56 46 
3 154 153 57 
3 188 164 224 
3 141 222 61 
3 19 17 84 
3 151 112 163 
3 171 127 11 
3 135 230 5 
3 129 116 207 
3 139 109 180 
3 87 210 232 
3 99 140 165 
3 146 81 89 
3 115 188 0 
3 220 224 117 
3 57 244 205 
3 211 31 78 
3 16 183 24 
3 104 21 79 
3 246 139 173 
3 15 244 226 
3 157 112 151 
3 23 64 110 
3 148 78 31 
3 102 195 234 
3 76 113 68 
3 234 112 120 
3 73 221 16 
3 40 24 183 
3 108 152 100 
3 220 125 25 
3 43 22 212 
3 32 80 26 
3 179 15 185 
3 97 20 191 
3 117 243 126 
3 130 162 71 
3 99 165 23 
3 168 56 106 
3 47 100 156 
3 27 199 52 
3 237 51 160 
3 70 52 35 
3 134 186 77 
3 144 54 210 
3 29 63 38 
3 181 146 138 
3 192 193 155 
3 98 94 158 
3 47 189 100 
3 63 29 231 
3 173 20 34 
3 24 228 73 
3 209 148 31 
3 184 15 179 
3 177 134 77 
3 124 187 212 
3 72 149 170 
3 45 68 74 
3 200 125 81 
3 150 149 64 
3 229 4 205 
3 211 82 131 
3 73 228 187 
3 39 132 215 
3 166 111 90 
3 98 239 94 
3 186 134 189 
3 144 210 87 
3 149 72 38 
3 72 99 169 
3 197 15 239 
3 127 123 232 
3 97 247 223 
3 173 34 202 
3 54 137 39 
3 242 74 121 
3 40 183 179 
3 59 209 31 
3 171 68 91 
3 232 210 11 
3 37 132 39 
3 140 72 170 
3 103 156 88 
3 225 112 234 
3 6 57 153 
3 66 176 7 
3 171 91 127 
3 70 27 52 
3 33 119 243 
3 154 75 153 
3 53 219 9 
3 41 201 138 
3 67 168 106 
3 110 159 23 
3 11 127 232 
3 233 12 201 
3 66 214 223 
3 187 124 192 
3 85 49 60 
3 118 92 93 
3 105 240 122 
3 30 196 8 
3 223 126 97 
3 184 183 155 
3 156 103 47 
3 10 53 96 
3 61 116 129 
3 240 158 176 
3 62 162 88 
3 37 137 245 
3 43 13 216 
3 18 104 79 
3 211 78 227 
3 84 165 140 
3 197 244 15 
3 144 190 201 
3 178 82 211 
3 76 31 131 
3 44 136 206 
3 228 212 187 
3 238 135 237 
3 208 105 104 
3 63 149 38 
3 223 214 126 
3 40 185 219 
3 45 123 166 
3 182 81 146 
3 67 0 188 
3 236 219 185 
3 40 219 24 
3 118 145 92 
3 5 102 51 
3 133 114 21 
3 96 36 194 
3 108 86 229 
3 66 133 240 
3 143 189 33 
3 86 4 229 
3 55 106 111 
3 21 104 122 
3 244 197 136 
3 86 108 177 
3 14 242 217 
3 76 182 59 
3 96 53 2 
3 241 229 205 
3 117 126 125 
3 128 218 103 
3 235 190 217 
3 77 75 177 
3 28 166 127 
3 227 38 178 
3 243 143 33 
3 30 230 135 
3 12 137 144 
3 168 151 163 
3 64 23 165 
3 129 207 35 
3 149 150 107 
3 41 233 201 
3 148 110 58 
3 69 237 160 
3 2 1 75 
3 227 178 211 
3 155 221 192 
3 243 117 142 
3 168 199 151 
3 7 94 172 
3 33 189 47 
3 228 24 175 
3 200 81 171 
3 68 121 74 
3 32 26 18 
3 86 177 75 
3 115 132 37 
3 224 141 199 
3 172 50 138 
3 163 8 90 
3 139 246 109 
3 121 101 209 
3 163 112 8 
3 107 5 83 
3 167 80 203 
3 160 95 70 
3 224 199 67 
3 155 193 239 
3 172 193 50 
3 162 62 71 
3 151 27 157 
3 125 214 81 
3 108 100 189 
3 62 32 71 
3 141 35 199 
3 76 59 31 
3 7 176 94 
3 12 22 245 
3 238 92 30 
3 238 30 135 
3 1 53 9 
3 149 107 170 
3 107 83 170 
3 233 213 124 
3 41 50 213 
3 161 238 69 
3 191 114 247 
3 176 158 94 
3 21 122 133 
3 163 90 56 
3 43 164 13 
3 117 224 164 
3 9 219 236 
3 221 73 187 
3 190 235 48 
3 24 219 175 
3 186 96 77 
3 246 128 130 
3 5 51 135 
3 64 63 110 
3 196 91 68 
3 212 22 124 
3 173 139 180 
3 57 226 244 
3 85 240 208 
3 159 121 113 
3 5 230 83 
3 215 210 39 
3 18 109 246 
3 60 49 241 
3 200 145 25 
3 90 8 166 
3 137 54 144 
3 215 147 65 
3 95 3 157 
3 167 203 49 
3 80 62 203 
3 191 247 97 
3 191 20 173 
3 48 235 181 
3 63 64 149 
3 211 131 31 
3 238 161 93 
3 22 233 124 
3 111 56 90 
3 151 199 27 
3 95 157 27 
3 83 234 19 
3 188 224 67 
3 95 160 3 
3 157 3 120 
3 137 12 245 
3 169 159 113 
3 220 222 224 
3 235 242 209 
3 180 109 21 
3 196 68 45 
3 220 25 222 
3 0 215 132 
3 98 197 239 
3 203 62 152 
3 79 109 18 
3 42 209 59 
3 183 16 155 
3 199 35 52 
3 181 138 48 
3 17 5 107 
3 200 171 65 
3 70 69 160 
3 244 136 205 
3 241 205 44 
3 144 87 174 
3 130 71 32 
3 129 35 61 
3 246 32 18 
3 117 164 142 
3 242 235 217 
3 10 212 228 
3 93 35 207 
3 161 35 93 
3 184 239 15 
3 195 19 234 
3 232 123 14 
3 68 171 76 
3 152 204 203 
3 137 37 39 
3 111 166 28 
3 182 42 59 
3 214 89 81 
3 147 67 55 
