ply
format ascii 1.0
comment created by MATLAB plywrite
element vertex 498
property float x
property float y
property float z
property float nx
property float ny
property float nz
element face 1000
property list uchar short vertex_indices
end_header
12.887500 -8.238253 7.004556 -0.750908 -0.305599 0.585445 
-7.050500 23.737292 17.121824 -0.598596 0.074771 0.797554 
14.680520 22.566490 6.438945 -0.662257 0.625844 0.411989 
26.325925 -0.908633 28.901761 0.758250 0.448474 -0.473210 
17.700260 4.349878 -4.937242 -0.469608 0.868048 -0.161125 
2.924213 24.793985 -0.655718 0.094588 0.193653 0.976500 
14.872540 22.797987 -4.061966 0.853817 -0.001685 -0.520570 
13.877865 18.623233 20.811477 0.837919 0.241565 0.489427 
22.207590 1.217747 22.937793 0.857094 0.354338 -0.373945 
16.244050 15.137470 18.726998 0.889893 0.391247 0.234557 
19.732050 -22.222831 -2.760823 -0.890198 -0.431737 -0.145431 
-5.808040 29.725619 13.555136 0.725062 0.673357 0.144480 
21.817525 6.030924 43.912997 0.204220 0.086380 0.975106 
-28.225805 28.164367 8.903767 -0.411552 0.477656 0.776189 
-2.293190 13.880810 11.412721 -0.470518 -0.880689 0.054762 
4.435443 46.073728 -12.677767 0.336038 0.919783 0.202674 
3.131584 44.647163 -9.798078 -0.092303 0.592658 0.800148 
24.668440 -10.315589 17.979021 0.877951 0.345070 -0.331856 
30.873710 -23.590218 17.210730 0.838813 0.367256 -0.401891 
-9.020695 40.471183 -12.654885 -0.179869 -0.753285 -0.632621 
28.389005 -24.165159 -7.923533 0.276356 -0.876364 -0.394479 
9.589840 20.834773 3.715227 -0.472829 0.730352 0.492969 
11.656835 19.395210 8.754262 -0.429141 0.852243 0.299198 
2.320048 17.844266 7.807675 0.162102 0.986758 -0.005578 
33.484185 -8.284497 35.242438 0.930520 -0.155337 0.331666 
-3.937343 23.120340 18.277029 -0.039469 0.326977 0.944208 
3.281138 42.306078 -17.657804 0.019452 0.362922 -0.931616 
26.639015 -9.575532 -7.587701 0.855585 0.214101 0.471312 
10.259575 0.912706 6.552520 -0.969342 -0.214269 -0.120270 
7.636910 23.724180 25.341071 0.305397 0.912675 0.271581 
15.102165 -5.295674 -0.981308 -0.835965 -0.399210 -0.376555 
18.944760 -14.837253 1.056425 -0.956695 -0.290578 -0.017321 
4.105265 31.262563 -1.011494 0.147295 -0.104721 0.983533 
1.439056 19.935837 0.986779 -0.913450 -0.353813 -0.201060 
-0.939548 34.138059 -6.610276 -0.823259 0.376249 0.425067 
12.000000 5.639606 2.312480 -0.750010 0.152217 -0.643673 
30.927000 -1.806270 34.455606 0.713898 0.495727 -0.494575 
18.317510 10.207956 28.081495 0.761495 0.646139 0.051285 
17.296115 -6.446978 -2.858081 -0.832178 -0.417185 -0.365289 
-0.697159 20.009002 4.152899 0.284233 0.947850 0.144195 
4.860190 24.082069 21.241104 -0.057367 0.934554 -0.351165 
-19.174200 32.710664 -5.993674 0.885458 -0.411538 -0.215872 
14.114460 -6.888855 1.913125 -0.738994 -0.338874 -0.582282 
28.301235 -10.215801 -15.631750 0.848740 0.271059 -0.454057 
8.014640 31.664870 -14.383263 -0.066896 -0.342565 -0.937109 
18.416950 24.432934 10.278602 0.884527 0.445333 0.138891 
-6.389150 30.336135 9.616694 0.613999 0.739161 -0.276851 
28.333250 -7.891099 37.471921 -0.639648 -0.603480 0.476091 
10.112635 11.572275 42.591834 -0.834168 -0.441593 0.330393 
-17.922640 39.246210 -9.330450 -0.503363 0.334319 -0.796778 
23.524435 -2.659060 -15.252958 -0.295177 -0.024513 -0.955128 
-25.632950 26.295225 -5.798001 -0.132441 -0.476042 -0.869393 
12.595600 15.368566 28.472729 0.718209 0.691670 0.075954 
19.504020 -20.899141 -8.833464 -0.814576 -0.469060 -0.341245 
27.007850 -5.694493 39.266191 -0.466426 -0.672778 0.574297 
-16.659540 42.417547 -6.409064 -0.078903 0.903032 0.422265 
4.867046 32.783657 -13.310894 -0.599592 -0.366598 -0.711403 
19.206945 2.263699 30.585324 -0.717267 -0.684259 0.131599 
21.076790 -22.011205 8.957963 -0.721435 -0.325155 0.611396 
18.236575 -13.585200 -2.627238 -0.991381 -0.107721 0.074561 
3.984611 21.005517 -2.794518 -0.569595 -0.646740 -0.507236 
8.893285 3.990703 9.435217 -0.884949 -0.462117 0.057552 
19.516210 1.093656 -11.580254 -0.640931 -0.240257 -0.729029 
9.032190 19.680632 -16.484557 -0.157042 -0.837430 -0.523496 
17.970540 -10.625074 -5.019173 -0.999887 0.014427 -0.004283 
5.261840 9.273429 10.019831 -0.725698 -0.645726 -0.237487 
11.723880 22.045765 22.584522 0.553777 0.530304 0.641957 
28.237545 4.486225 39.492300 0.714796 0.699179 0.014649 
-27.549925 29.964581 0.621439 -0.025858 0.929496 0.367925 
16.278640 26.403540 -0.448650 0.863053 0.217798 -0.455745 
16.157145 17.323037 17.265026 0.938313 0.212329 0.272918 
11.308195 17.331299 32.640353 0.645030 0.763742 0.025193 
14.278115 12.759441 44.045924 0.172036 0.308604 0.935504 
17.591235 12.519285 4.729690 0.987771 -0.042228 -0.150087 
7.717665 6.153118 8.878449 -0.847503 -0.461533 -0.262155 
9.599940 18.062446 -7.944993 -0.336188 -0.852955 -0.399306 
19.965200 -24.496629 -6.188064 -0.562328 -0.765679 -0.312286 
21.629585 -14.026375 12.773232 -0.778115 -0.270808 0.566744 
30.193125 -22.196349 23.321864 -0.215968 -0.727473 0.651261 
3.954016 21.872245 28.221357 -0.820815 0.504754 0.267369 
10.536100 38.607801 -8.587695 0.740035 0.579183 0.341899 
1.374222 28.952731 -0.347996 -0.020424 -0.118775 0.992711 
15.425130 -14.034064 6.726536 -0.879972 -0.455464 0.134916 
-29.883905 25.242370 0.720987 -0.822930 -0.234659 -0.517418 
-1.515630 36.731491 -11.072684 -0.738256 -0.620337 -0.264877 
-15.670055 20.987235 9.087543 -0.350352 -0.865321 0.358431 
24.217875 -22.830222 -8.548412 -0.250842 -0.743846 -0.619493 
23.644630 -25.691956 -3.335873 -0.267943 -0.936902 -0.224548 
15.977965 -2.503462 -7.585579 -0.638320 -0.532831 -0.555553 
22.563620 -0.177788 -2.050756 0.916263 0.344571 0.204285 
24.466780 -17.855515 7.896448 0.940846 0.314568 -0.125919 
20.541500 5.182360 -9.902710 0.299387 0.949747 -0.091370 
26.398545 -6.180564 -9.205404 0.889947 0.343691 0.299785 
8.988780 40.638819 -17.683560 0.468372 0.466210 -0.750517 
7.789710 28.587182 -13.716089 -0.101847 -0.115623 -0.988058 
10.554865 28.279756 -12.945742 0.541595 -0.134887 -0.829748 
-29.381210 29.602867 -2.983420 -0.860979 0.102571 -0.498190 
-20.173145 26.895309 5.132382 0.355660 0.934615 -0.001306 
30.421550 -27.477539 12.127294 0.897009 -0.421879 -0.131885 
30.103075 -12.226101 35.130220 -0.529558 -0.634681 0.562803 
19.952360 2.687544 4.651173 0.938085 0.273395 0.212726 
-27.039605 32.596410 -4.351712 -0.639189 0.765150 -0.077351 
-13.145375 38.025674 -7.651310 0.523961 -0.232397 0.819425 
17.517065 12.689430 15.089798 0.980925 0.189457 0.043493 
15.820255 23.051239 14.714825 -0.520390 0.837819 -0.165089 
-27.176930 25.313312 9.605021 -0.080874 0.045401 0.995690 
-26.213950 22.434415 -3.516368 -0.116091 -0.624208 -0.772585 
-31.120165 20.213638 3.046182 -0.907485 -0.300102 -0.293956 
13.246915 34.624026 -6.982425 0.803509 0.254898 0.537960 
11.543605 19.150646 15.296378 -0.364453 0.880126 -0.304224 
17.574290 10.112754 43.859455 0.268760 0.273208 0.923648 
12.937490 8.309849 43.053580 -0.657522 -0.678373 0.327835 
17.805070 13.583775 8.522477 0.997041 0.017262 0.074913 
3.732959 20.142553 27.541765 -0.946925 -0.262735 0.185212 
-9.753705 21.849384 13.027046 -0.671305 -0.328929 0.664195 
16.365635 19.113216 15.805001 0.952235 -0.078060 0.295221 
-7.327855 18.017437 8.528980 -0.367113 -0.738809 -0.565145 
16.962305 23.713390 17.112852 0.559029 0.785292 0.266088 
28.183355 -25.349157 -0.201346 0.992092 0.018183 0.124188 
28.073765 -25.901958 18.637342 -0.595014 -0.517318 0.615093 
11.207515 39.448448 -12.436027 0.827961 0.553990 0.087039 
-7.113880 28.274223 3.309566 -0.520734 0.654452 -0.548204 
12.536390 0.073731 -4.065993 -0.934756 0.151610 -0.321318 
2.737834 36.320867 0.185070 -0.362926 0.919629 0.150223 
24.402385 -5.402749 -3.895674 0.929977 0.186312 0.316909 
-10.020160 19.942942 11.177804 -0.524450 -0.581226 0.622196 
-1.356088 20.600066 19.360597 -0.357171 0.056159 0.932349 
20.858870 -27.113539 5.163618 -0.562059 -0.825532 -0.050865 
20.024870 4.459481 -5.388242 0.303881 0.952506 0.019732 
6.538355 14.830587 25.726103 -0.782645 -0.597237 0.175426 
31.464115 -22.950431 22.679672 0.511091 -0.716937 0.474117 
24.020990 -28.926441 9.054152 -0.513826 -0.842889 0.159752 
-0.226368 42.344278 -16.887902 -0.309388 0.059843 -0.949051 
3.562308 19.181908 32.099451 -0.876089 0.079908 0.475482 
-19.224745 27.655897 -0.288141 0.904320 0.354983 -0.237052 
20.028855 -7.767581 14.331456 -0.765961 -0.416944 0.489348 
13.448140 31.793640 -9.071538 0.983008 -0.115247 0.142874 
15.210660 -0.444481 14.793705 -0.718648 -0.521960 0.459460 
21.501865 5.858430 25.995349 0.854520 0.486900 -0.180898 
5.493471 18.072863 13.321024 0.040374 0.976516 -0.211629 
-22.290915 23.236018 9.239010 0.047089 -0.295376 0.954220 
29.871800 -11.300682 26.607165 0.768405 0.381836 -0.513572 
7.157085 28.324450 -0.970488 -0.157014 0.037615 0.986880 
2.630243 35.024936 -2.358932 -0.303068 0.924937 -0.229439 
4.841781 23.506496 26.272450 -0.394909 0.892762 0.216849 
33.098580 -16.477957 28.716075 0.890388 -0.400274 0.216772 
-29.574185 21.997946 8.279026 -0.310487 -0.542422 0.780625 
-8.958425 18.562074 10.210546 -0.505237 -0.861176 0.055779 
24.466915 -24.318831 12.949177 -0.849780 -0.231453 0.473607 
32.270870 -22.057416 21.062266 0.984951 -0.100016 -0.140958 
4.322235 35.633212 -5.165979 -0.182092 0.867638 0.462653 
17.275765 2.259345 -10.015027 -0.738039 0.440174 -0.511415 
10.626185 20.546582 -12.809546 0.930068 -0.290014 -0.225533 
12.491080 17.089632 41.740856 0.493643 0.786190 0.371783 
7.399805 19.758354 17.986139 0.030202 0.830621 -0.556018 
-9.101365 20.750155 6.615906 -0.034997 -0.389924 -0.920182 
27.633705 -26.698641 -0.555807 0.625415 -0.754154 -0.200270 
18.715635 -2.944531 -10.173497 -0.674186 -0.419903 -0.607581 
-31.255370 28.270040 0.002509 -0.962478 0.242331 -0.122113 
20.862195 1.661358 41.873590 -0.556382 -0.686558 0.468056 
-9.901900 41.821504 -13.187532 -0.390832 0.071311 -0.917695 
-29.874235 29.723836 0.279613 -0.550758 0.828161 0.103999 
-13.494830 25.281067 7.929909 0.025222 0.532094 -0.846309 
-8.895610 39.571344 -10.736980 0.258682 -0.963038 -0.075105 
2.447858 20.665839 1.470519 -0.016621 0.667757 0.744194 
11.386190 -7.049462 4.948624 -0.921607 -0.344946 -0.177910 
18.564755 18.147123 4.296060 0.972540 -0.072771 -0.221065 
23.414420 -1.316581 40.514628 -0.575929 -0.668794 0.470128 
-19.390100 40.572815 -4.433079 0.040698 0.406345 0.912813 
-28.346745 20.118092 -0.372277 -0.111636 -0.867435 -0.484865 
13.701615 30.807922 1.103691 -0.286162 0.377940 0.880496 
-6.108765 22.602602 4.738477 -0.541614 -0.385131 -0.747214 
11.435810 36.279034 -17.025694 0.550423 -0.192354 -0.812425 
-1.180971 46.662894 -14.911927 -0.228685 0.633153 -0.739473 
-18.559335 34.034554 -7.449032 0.576539 -0.674403 -0.461284 
11.269315 27.253439 -11.460542 0.944809 -0.134421 -0.298774 
12.430460 31.266129 -12.179451 0.833507 -0.353303 -0.424787 
-20.385100 22.043839 8.445583 -0.093594 -0.915054 0.392321 
26.634055 -17.794839 -14.870425 -0.027756 -0.613866 -0.788922 
-23.188400 28.615620 -5.313809 0.508954 -0.565505 -0.648976 
19.338395 -13.180831 -12.412916 -0.669436 -0.321491 -0.669701 
9.290530 23.827036 0.626950 -0.534132 0.369254 0.760496 
11.393425 18.292333 39.438129 0.168257 0.985502 0.021803 
-11.430540 27.781829 7.333533 -0.508415 0.316192 -0.800960 
25.651735 -7.693657 22.456796 0.820487 0.344932 -0.455877 
-11.089880 19.994346 7.137540 -0.153156 -0.817333 -0.555437 
20.855120 -3.438453 16.781071 0.882366 0.335208 -0.330252 
-11.353495 24.863774 12.718477 -0.581233 0.049029 0.812259 
-20.121995 34.605788 -8.293765 -0.039400 -0.339583 -0.939751 
-26.053480 21.640262 6.517061 0.153236 -0.947031 0.282224 
18.752370 6.776778 18.055121 0.939371 0.240368 -0.244551 
-1.015922 30.294041 -2.000060 -0.602927 0.502511 0.619647 
27.067355 -20.651865 13.684083 0.847934 0.445932 -0.286624 
17.484505 -18.534108 -7.534819 -0.959490 -0.281415 -0.013588 
25.000620 -26.620858 -1.023699 -0.249326 -0.931950 -0.263260 
28.620960 1.930336 41.019710 0.730076 0.272913 0.626504 
0.887994 19.893373 15.930784 0.376131 0.773817 -0.509639 
26.214270 -13.665927 -18.340003 0.121311 -0.262976 -0.957145 
11.576875 -2.418811 3.282537 -0.855624 -0.232073 -0.462655 
6.937025 8.808799 7.742846 -0.720062 -0.461218 -0.518449 
25.615380 -28.864665 13.316503 -0.406519 -0.843858 0.350208 
-19.827400 27.003073 -1.507085 0.763003 -0.376622 -0.525339 
21.514550 -18.802982 -11.157579 -0.418428 -0.511202 -0.750727 
3.337299 35.271369 -13.723022 -0.487553 -0.561925 -0.668230 
10.073055 2.031046 9.671690 -0.829460 -0.465116 0.309293 
-9.713620 39.626382 -9.055077 0.486938 -0.541682 0.685180 
15.634590 27.490819 3.438159 -0.564006 0.487385 0.666598 
32.942165 -14.759073 28.480476 0.878762 0.287927 -0.380625 
-19.756785 41.091558 -5.780547 -0.630650 0.750182 -0.198766 
18.483305 -18.596209 7.533771 -0.707677 -0.277989 0.649550 
17.929740 -16.416677 -9.542493 -0.800159 -0.276532 -0.532237 
28.260370 -19.056535 18.966379 0.764527 0.442782 -0.468447 
-24.666260 33.549255 -6.915871 -0.654219 0.503175 -0.564635 
-1.348407 19.849155 9.517899 0.597925 0.775351 -0.203265 
29.481470 -21.846662 -5.901808 0.974072 -0.020851 0.225277 
7.094260 7.659478 11.966057 -0.720541 -0.651244 0.238124 
5.828275 10.183788 14.423880 -0.615151 -0.684503 0.391210 
0.481205 33.186226 -4.772783 -0.495994 0.779539 0.382505 
-1.569768 22.336129 0.636833 -0.473259 -0.717656 -0.510878 
5.361602 26.942573 -10.804722 -0.776754 -0.305031 -0.551008 
7.785870 24.207204 -13.426250 -0.738298 0.150972 -0.657361 
6.537120 21.063246 -6.576329 -0.695825 -0.603193 -0.389854 
8.974740 18.190035 10.050459 -0.176715 0.978486 0.106475 
16.466825 0.470344 18.547359 -0.737278 -0.582380 0.342424 
18.840115 -20.251450 -2.220636 -0.957338 -0.217291 -0.190498 
27.502025 3.002151 34.858959 0.631709 0.669591 -0.390629 
7.949620 43.506186 -11.535441 0.679936 0.714508 0.164823 
21.557900 -5.188242 -11.093978 -0.929374 -0.009559 -0.369016 
28.381135 -4.421784 40.378334 -0.011786 -0.450895 0.892499 
18.192690 10.316829 18.768358 0.963228 0.243509 -0.113560 
18.514260 -6.991251 -5.638755 -0.912124 -0.190514 -0.362952 
14.238300 -0.635370 -7.862012 -0.744834 -0.304847 -0.593541 
21.271690 -5.595415 19.450489 -0.790034 -0.495469 0.361049 
24.401230 -2.371165 -6.346650 0.918909 0.333148 0.211232 
17.833995 6.928319 12.609047 0.989244 0.142712 -0.032084 
11.907100 0.355805 -0.177035 -0.928283 -0.185738 -0.322169 
24.350690 -27.951115 3.342707 -0.255338 -0.918281 -0.302594 
-21.399195 29.971545 -0.810611 0.390313 0.783267 0.483889 
24.409335 -15.866464 0.519005 0.948900 0.196276 0.247113 
-24.143225 27.787602 7.786141 0.181716 0.794361 0.579629 
21.431220 8.938182 42.428460 0.546630 0.767570 0.334710 
-20.135855 32.638159 -3.535368 0.278165 0.512927 0.812115 
-10.322475 43.336515 -9.180086 0.213265 0.413978 0.884952 
32.811480 -4.693459 37.040878 0.883842 0.119943 0.452147 
-0.689049 47.487341 -13.062339 0.006423 0.999125 0.041322 
29.388090 -9.540144 -12.003621 0.947315 0.301569 0.107936 
17.759810 6.098354 0.048001 0.287202 0.775457 -0.562300 
18.300420 -17.367541 -3.777651 -0.966821 -0.244479 0.074081 
18.609190 -19.901011 1.452265 -0.988948 0.016866 -0.147299 
8.272965 35.895140 -0.235065 0.231243 0.614353 0.754386 
29.742150 -18.506057 -13.164383 0.887084 -0.201274 -0.415415 
-14.777600 38.576462 -10.585000 -0.080860 -0.549302 -0.831703 
25.020335 -20.455773 3.671890 0.937041 0.341850 0.071363 
17.324990 -11.998406 -10.865047 -0.873951 0.046997 -0.483737 
-28.615250 29.445871 5.306208 -0.295806 0.921727 0.250835 
24.182115 -16.800518 -13.837612 -0.456852 -0.541309 -0.705883 
17.567110 8.803846 2.703033 0.837782 0.317484 -0.444212 
19.207235 5.676220 2.555985 0.887210 0.457714 -0.057931 
-0.294989 32.901209 0.695761 -0.629996 0.251705 0.734676 
1.877000 39.028705 -7.849645 -0.268331 0.336433 0.902669 
-13.072240 22.920170 4.988518 0.493197 0.185257 -0.849963 
17.608065 -8.510051 -0.862424 -0.904999 -0.249129 -0.344835 
15.601735 -11.471733 3.147643 -0.739460 -0.487191 -0.464590 
17.607185 25.510315 7.646166 -0.174612 0.912095 0.370935 
8.668160 19.351682 -12.534684 -0.198667 -0.962572 -0.184356 
16.122835 14.848848 0.437822 0.801633 -0.250380 -0.542857 
16.827210 12.307482 2.410992 0.828421 -0.069648 -0.555759 
7.254750 22.477238 -10.811383 -0.890820 -0.384809 -0.241583 
10.587030 25.372495 -13.483821 0.514740 0.260634 -0.816769 
19.112055 5.160794 -8.648164 -0.351055 0.929584 -0.112398 
14.754945 5.652685 0.084053 -0.429303 0.513281 -0.743129 
-0.157334 46.505785 -11.221682 0.005251 0.684999 0.728525 
-16.446660 27.698306 9.236523 -0.139671 0.982347 -0.124447 
19.191225 -15.273822 3.802640 -0.879053 -0.188104 -0.438044 
9.831860 18.294537 12.460340 -0.276156 0.960842 -0.022832 
-5.221975 27.745714 3.466334 0.712483 0.574302 0.403169 
8.404195 18.709646 31.809162 0.370394 0.786902 0.493551 
13.533355 7.589577 1.261180 -0.418289 0.015487 -0.908182 
16.184790 4.610716 -2.104606 -0.409200 0.802372 -0.434459 
17.155430 -11.372858 -8.235545 -0.968170 0.236182 -0.082857 
31.070910 -10.161968 37.033826 0.280074 -0.536666 0.795957 
29.012995 -13.266021 -9.606827 0.868250 0.211863 0.448616 
30.406835 1.646982 37.976732 0.868855 0.494913 -0.012378 
7.720755 20.882408 1.712453 -0.350582 0.709701 0.611079 
-24.070455 31.617776 -7.573742 -0.049410 -0.206261 -0.977249 
1.734523 23.763893 20.109875 -0.392497 0.881897 0.261160 
-0.676587 22.549242 1.541322 0.582399 0.032176 0.812266 
9.312480 15.438129 43.341272 -0.415158 0.223974 0.881748 
30.947350 -25.563880 17.033837 0.882652 -0.469004 0.030990 
26.389080 -7.683652 -17.372427 0.481673 0.392178 -0.783701 
-6.785705 42.326659 -14.154489 -0.357612 -0.023673 -0.933570 
10.541420 3.334031 4.925045 -0.920937 -0.089569 -0.379279 
10.948160 20.789468 -16.816075 0.740771 -0.459664 -0.489865 
24.419775 3.217056 30.759197 0.734785 0.581622 -0.349009 
24.782310 -11.247605 -17.700063 -0.290298 -0.252159 -0.923116 
-17.270710 22.400865 4.488323 0.004189 -0.901562 -0.432630 
14.352020 20.393907 11.333254 -0.636191 0.769823 0.051327 
31.648080 -19.710056 26.792864 0.089806 -0.762672 0.640521 
17.290265 -11.982768 0.626446 -0.896746 -0.309379 -0.316435 
23.195120 -11.567869 11.613596 0.921401 0.341092 -0.186216 
-0.937429 40.426150 -15.645123 -0.362744 -0.556301 -0.747627 
29.970670 -18.425056 27.107963 -0.619647 -0.559086 0.550873 
10.891055 21.084581 19.064471 -0.297146 0.685024 -0.665166 
2.962464 29.072509 -8.847574 -0.679825 -0.426945 -0.596285 
1.385649 21.959177 20.790555 -0.791857 0.135244 0.595543 
1.986711 18.092336 20.026768 -0.610405 -0.485522 0.625839 
18.275325 -25.412349 4.825119 -0.882961 -0.408734 0.230904 
23.136740 3.007092 -16.069597 0.324288 0.449645 -0.832260 
19.650225 -9.489495 -12.395159 -0.853340 0.412679 -0.318602 
-18.653400 34.969497 -5.039617 0.597947 -0.192030 0.778193 
12.790775 23.898924 -7.156679 0.891822 0.132714 -0.432481 
12.239825 33.260736 -0.021842 0.427343 0.791348 0.437202 
7.466155 11.812714 20.161160 -0.714176 -0.632838 0.299114 
17.883205 10.236734 6.052915 0.989319 0.143506 -0.025594 
18.497355 6.006316 7.362643 0.968549 0.208300 0.136106 
11.966135 7.787698 23.474418 -0.731718 -0.646228 0.216745 
1.080566 19.142755 13.851422 0.413174 0.886879 -0.206719 
1.542261 24.950082 -4.350362 -0.622413 -0.504892 -0.598068 
13.867050 24.051827 3.474392 -0.559859 0.536828 0.631168 
13.089060 9.061548 36.336905 -0.744489 -0.664333 0.066319 
33.644970 -5.858663 34.546709 0.933561 0.244329 -0.262235 
-4.873330 39.701080 -12.232468 -0.301313 -0.925733 0.228537 
1.689781 13.261393 14.161485 -0.481715 -0.750097 0.453105 
4.031966 11.932316 7.873616 -0.559269 -0.661856 -0.499165 
-18.185505 24.238839 1.446460 0.441718 -0.619803 -0.648637 
7.082125 23.407820 -1.025011 -0.209266 0.378927 0.901455 
-3.412316 29.490045 -1.214685 -0.133840 0.839112 0.527235 
-24.699225 26.232696 9.023593 0.260887 0.370927 0.891264 
21.725025 -4.248865 4.363859 0.951893 0.202590 0.229907 
-26.681990 30.435711 -6.526278 -0.643271 0.094601 -0.759772 
15.867825 14.595100 21.130000 0.774887 0.592157 0.221135 
29.577485 -16.662253 -8.626270 0.952768 0.146731 0.265901 
6.477530 42.690090 -8.075283 0.406366 0.690305 0.598621 
-21.606110 35.791839 -7.857881 -0.526107 0.301891 -0.795031 
10.342315 34.555161 -5.401762 0.538883 0.373716 0.754945 
11.520875 30.660857 -6.139706 0.803918 0.219592 0.552717 
28.133980 -26.295308 3.504797 0.997169 0.015079 -0.073662 
21.735990 6.544038 31.425697 0.713401 0.692975 -0.104135 
31.783600 -6.203975 32.324965 0.792390 0.283729 -0.540014 
31.418370 -16.417244 24.457510 0.726062 0.450252 -0.519719 
11.755755 10.652778 38.447066 -0.791883 -0.607653 -0.060650 
26.319265 -14.150396 -5.679221 0.847559 0.230180 0.478186 
-1.933536 40.027026 -9.595422 -0.437090 0.035274 0.898726 
5.976366 41.103722 -6.891377 -0.042596 0.382712 0.922885 
12.130620 10.209239 1.281938 -0.481776 -0.484131 -0.730417 
17.917930 -10.053095 10.224374 -0.667544 -0.344580 0.660037 
-6.393585 28.633574 15.952140 -0.137638 0.606338 0.783205 
-23.636215 28.160911 4.177069 0.234376 0.939510 0.249778 
8.974595 42.085397 -15.764494 0.699907 0.607454 -0.375672 
14.315955 13.991579 29.721194 0.699364 0.711248 0.070825 
12.845175 34.392889 -14.669671 0.736439 -0.378571 -0.560661 
10.368530 31.528235 -13.902416 0.380210 -0.450816 -0.807593 
-22.752115 37.811531 -4.456846 -0.735231 0.577379 0.355063 
29.361455 -15.749795 -14.649061 0.844778 -0.124403 -0.520456 
-16.976675 25.708996 6.915643 0.436304 0.804765 -0.402482 
3.140836 36.504342 -6.535523 -0.236908 0.592681 0.769808 
-6.105765 22.891484 6.392729 0.756510 0.644495 0.110986 
18.166275 22.574978 3.477748 0.979787 0.117415 -0.161961 
-24.867235 33.648790 -4.411037 -0.264364 0.746603 0.610489 
-1.287279 28.109027 -1.560452 0.016210 0.272107 0.962130 
-31.700795 22.280204 6.292899 -0.902906 -0.189045 0.386033 
21.334050 -23.797197 -1.090975 -0.555713 -0.814845 -0.164959 
9.429990 33.877773 -2.829334 0.583699 0.808614 0.073752 
-16.434145 25.351166 3.844688 0.555977 0.829682 0.050170 
10.958380 -1.591054 7.133778 -0.933067 -0.262495 0.245929 
-15.263250 36.224398 -8.176955 0.474738 -0.870018 -0.133011 
22.868935 -2.322380 28.912386 -0.767687 -0.594794 0.238489 
26.281900 -22.679074 6.841757 0.880861 0.452014 -0.140599 
7.478190 26.360134 -13.218552 -0.457338 -0.123836 -0.880628 
22.770905 -10.831242 5.107380 0.972951 0.209334 0.097698 
-0.732918 33.478317 -8.233221 -0.785152 -0.366485 -0.499224 
-19.421145 30.239231 -2.988549 0.927731 0.145365 0.343780 
-1.523134 19.626777 3.679102 -0.271935 -0.585775 -0.763491 
11.767685 6.012151 18.703519 -0.731750 -0.595985 0.330672 
22.982760 -5.217541 -15.843256 -0.450031 0.507868 -0.734535 
-22.575270 22.368117 3.197574 0.193397 -0.952277 -0.236151 
-3.646929 22.542328 13.168567 0.742641 0.632505 -0.220048 
16.274030 12.319141 43.346290 0.580351 0.658038 0.479769 
24.000030 5.383853 34.869842 0.543536 0.798449 -0.258937 
20.843695 -11.111264 -14.827932 -0.772372 -0.070704 -0.631224 
23.893010 1.552278 42.896179 -0.140166 -0.438184 0.887890 
12.497425 -2.661730 9.071213 -0.743929 -0.389908 0.542717 
25.618270 -14.549345 16.946922 0.896679 0.321392 -0.304423 
-23.673515 23.973220 -1.546165 0.521835 -0.707678 -0.476318 
7.829750 36.592114 -5.989241 0.036814 0.535414 0.843787 
5.574019 45.207563 -15.654088 0.427985 0.774788 -0.465331 
18.771165 4.285588 43.215539 -0.398653 -0.571528 0.717238 
21.010710 -6.352247 -8.434428 -0.877374 -0.073716 -0.474111 
-6.264240 20.504811 17.486443 -0.570320 -0.306596 0.762059 
-5.065935 15.898482 12.909965 -0.610331 -0.696283 0.377739 
13.387210 9.726048 43.948270 -0.225643 -0.186341 0.956223 
18.282115 4.022952 38.415142 -0.706595 -0.705819 0.050432 
26.364470 1.338205 42.642777 0.352145 -0.033375 0.935350 
19.404145 -1.704428 13.263623 0.957926 0.270963 -0.094639 
10.708990 17.447441 36.644932 0.347070 0.936516 -0.049801 
18.230555 21.799233 8.425950 0.995835 -0.031891 0.085409 
18.532450 17.186544 6.192879 0.992601 -0.085533 0.086177 
17.282045 28.677256 3.249650 0.601765 0.695345 0.392905 
21.666765 -7.669339 8.510384 0.960213 0.271482 0.065494 
-3.419003 24.819763 16.602983 0.715889 0.668981 0.199919 
19.242155 9.288564 22.992368 0.889648 0.453384 -0.054486 
14.753985 -2.551591 -4.369830 -0.783139 -0.577762 -0.229964 
8.184085 15.391167 35.022447 -0.926242 -0.165741 0.338536 
11.367145 26.715307 -9.334753 0.978565 -0.124500 -0.164041 
11.103085 10.337969 29.994191 -0.738594 -0.657389 0.149392 
17.404965 12.573935 20.637419 0.884405 0.461364 0.070507 
-10.765235 44.155015 -10.707393 -0.393671 0.912883 -0.108018 
-2.959649 29.232199 -3.331873 -0.845908 -0.069189 -0.528822 
28.491715 -13.461367 27.267925 -0.887058 -0.328412 0.324458 
-5.250620 25.044700 9.356285 0.822799 0.422359 -0.380283 
11.754680 29.434544 -4.830688 0.881714 0.417183 -0.220317 
7.301180 15.102265 1.381583 -0.559043 -0.628299 -0.541028 
3.333240 22.649210 24.447336 -0.763174 0.574090 0.296625 
25.331310 -3.960962 -14.837722 0.593016 0.376017 -0.711999 
12.631335 16.691177 -4.979509 0.507029 -0.584047 -0.633886 
8.373900 37.583155 -18.684641 -0.064871 -0.308989 -0.948851 
-9.607745 23.163309 6.641228 -0.145490 0.172991 -0.974118 
27.106410 -28.456998 4.161533 0.366845 -0.902538 -0.225500 
28.606770 -28.807711 9.142201 0.548828 -0.824713 -0.136512 
30.044990 -25.920513 19.066280 0.350988 -0.804547 0.479074 
24.268215 -12.608647 18.251760 -0.851817 -0.317863 0.416378 
27.339860 -8.815351 29.696743 -0.859038 -0.437218 0.266259 
8.001860 21.881921 -17.456181 -0.738151 0.073010 -0.670673 
18.689980 -23.845868 1.258666 -0.778925 -0.523206 -0.345733 
-15.873840 24.118184 10.225387 -0.346208 -0.126748 0.929556 
-0.374632 13.893583 8.529538 -0.421940 -0.792665 -0.440055 
29.743005 -20.537705 -11.868203 0.750458 -0.486032 -0.447867 
0.281250 18.360519 6.831495 0.370595 0.916266 0.152040 
26.305095 -20.708038 -1.064602 0.884078 0.354982 0.303962 
30.403980 -15.229611 31.523203 -0.710685 -0.555461 0.431729 
23.718240 1.365537 -14.211136 0.903304 0.383175 -0.192920 
-25.509020 21.475704 2.563110 0.413888 -0.907115 -0.076417 
-4.924810 46.554961 -13.095776 -0.383940 0.827645 -0.409382 
9.887615 15.864882 -3.075670 -0.547631 -0.713926 -0.436360 
3.264886 17.043097 20.796024 -0.707639 -0.602088 0.369780 
11.321565 -4.238690 4.183476 -0.924949 -0.157509 -0.345919 
8.996780 21.680233 26.766945 0.738545 0.515968 0.433968 
10.754830 18.284663 26.824801 0.764434 0.580894 0.279648 
5.317489 18.630236 33.014659 -0.277999 0.235453 0.931278 
10.045995 6.803396 4.781070 -0.773553 -0.178747 -0.608001 
5.449712 19.063139 3.561689 -0.099905 0.909395 0.403758 
26.741465 -22.389241 -10.627796 -0.085009 -0.762347 -0.641560 
15.277085 23.181434 20.052027 0.717368 0.234923 0.655892 
6.151615 16.203809 31.437092 -0.764403 -0.608671 0.212619 
-7.689005 30.677719 12.351833 -0.187416 0.934545 0.302493 
5.889991 30.372218 -13.108162 -0.527566 -0.271892 -0.804829 
-7.218685 30.209223 5.864134 0.229837 0.916353 -0.327828 
22.276020 -12.785207 -15.791767 -0.537541 -0.401529 -0.741501 
26.672075 -5.716557 -11.829312 0.893191 0.447041 -0.048627 
25.236750 6.833615 41.489814 0.611306 0.628140 0.481399 
13.646780 11.158730 0.451830 0.056078 -0.512706 -0.856731 
13.520705 35.536385 -13.327063 0.968063 0.204576 -0.144922 
9.575095 24.110724 21.338208 0.146672 0.980093 -0.133807 
8.272825 17.068065 40.367439 -0.856848 0.490198 0.159743 
22.407545 1.904007 -6.017877 0.846263 0.515726 0.133662 
11.328435 19.061260 -9.295294 0.695986 -0.533489 -0.480617 
12.852735 2.712161 -0.424801 -0.773216 0.419816 -0.475280 
14.919965 12.326870 0.308017 0.594532 -0.325925 -0.735054 
16.601215 21.027773 -1.321636 0.891749 -0.043733 -0.450412 
-5.699975 41.249721 -10.074888 0.177846 -0.396696 0.900557 
1.377061 46.080027 -15.611490 0.055938 0.749269 -0.659899 
12.022075 15.488211 -3.982963 -0.107381 -0.773568 -0.624550 
30.951180 -7.456969 38.329901 0.244931 -0.462752 0.851980 
-30.338505 19.413884 3.756554 -0.173789 -0.965931 0.191769 
16.574505 10.927554 37.851386 0.672098 0.736265 -0.078722 
29.328400 -27.108585 8.507742 0.957286 0.128083 -0.259225 
-2.722739 39.010419 -13.480877 -0.301452 -0.855240 -0.421535 
1.582588 12.225802 11.341000 -0.554946 -0.831784 0.013060 
33.912815 -13.760755 31.340217 0.995784 -0.088946 0.022410 
-31.196510 25.412513 4.900753 -0.981012 0.189953 0.039166 
-10.176265 29.854351 9.750382 -0.376191 0.926456 -0.012608 
-6.760425 24.842409 8.156045 0.936774 0.280720 -0.208929 
6.244925 22.910859 29.481950 0.053731 0.830556 0.554337 
15.420795 30.954487 0.922548 0.695274 0.718402 0.022183 
-5.728845 45.625074 -11.303492 -0.086264 0.679850 0.728260 
-2.877040 17.058631 17.126968 -0.407725 -0.657407 0.633701 
-8.600705 26.088074 15.136616 -0.691496 0.123537 0.711739 
30.146500 -2.949255 40.354727 0.592914 -0.131315 0.794487 
19.038560 0.140032 10.674034 0.963950 0.222969 0.145206 
3.428350 39.744856 -17.747869 -0.351362 -0.323883 -0.878433 
13.355595 18.754244 -5.294164 0.813386 -0.247691 -0.526358 
7.059830 35.056320 -15.539559 -0.310796 -0.493694 -0.812202 
23.479735 -1.819413 33.716927 -0.765667 -0.635634 0.098608 
9.795495 37.804856 -6.611298 0.401997 0.470239 0.785667 
16.557965 -17.906741 5.402178 -0.983771 -0.083731 -0.158691 
27.313155 -28.573829 15.476828 0.148137 -0.915959 0.372927 
-11.123795 27.604404 11.842212 -0.568978 0.453359 0.686098 
11.050780 13.510508 -1.144158 -0.397324 -0.676936 -0.619589 
20.152200 4.141846 -1.170511 0.757506 0.652502 0.020645 
29.686295 -13.772288 -11.754081 0.994785 0.087456 0.052486 
4.632243 23.713752 -6.814017 -0.740529 -0.464709 -0.485451 
9.725500 10.127618 3.766365 -0.647849 -0.429980 -0.628816 
31.558850 -14.800197 32.580778 0.136793 -0.743440 0.654663 
13.136565 24.051426 20.218662 -0.014330 0.997131 0.074322 
23.143335 -8.220352 -18.400285 -0.500780 0.076449 -0.862192 
16.011590 9.202074 1.623995 0.416002 0.090436 -0.904856 
21.002345 3.826085 -14.649029 -0.641235 0.326688 -0.694329 
13.925055 -1.687614 0.152551 -0.822483 -0.472784 -0.316222 
3 481 415 172 
3 190 229 400 
3 175 268 95 
3 83 106 169 
3 262 273 82 
3 140 424 239 
3 477 24 243 
3 373 137 223 
3 420 148 119 
3 163 321 459 
3 198 497 42 
3 198 235 497 
3 319 340 402 
3 28 364 204 
3 472 436 29 
3 391 340 319 
3 42 497 30 
3 301 492 429 
3 82 209 345 
3 35 277 270 
3 61 204 373 
3 123 258 249 
3 432 474 244 
3 33 60 411 
3 466 321 19 
3 173 460 132 
3 309 102 168 
3 267 220 422 
3 240 377 110 
3 290 300 19 
3 436 66 29 
3 176 95 351 
3 422 264 267 
3 407 326 34 
3 360 463 146 
3 244 474 271 
3 70 103 112 
3 158 469 254 
3 430 448 413 
3 153 394 182 
3 367 336 252 
3 143 258 123 
3 429 492 99 
3 290 160 432 
3 146 189 140 
3 94 268 368 
3 86 20 87 
3 280 24 462 
3 91 128 454 
3 103 229 234 
3 482 47 54 
3 327 239 13 
3 94 95 268 
3 457 450 414 
3 65 323 199 
3 309 365 102 
3 451 80 108 
3 327 105 140 
3 218 60 33 
3 249 32 142 
3 202 76 53 
3 382 90 299 
3 196 376 399 
3 392 228 477 
3 166 357 395 
3 38 261 42 
3 179 383 51 
3 184 3 338 
3 138 37 337 
3 477 462 24 
3 468 145 207 
3 14 389 147 
3 2 22 296 
3 224 247 10 
3 91 269 128 
3 284 51 329 
3 58 306 127 
3 121 183 446 
3 274 139 109 
3 434 129 113 
3 330 7 437 
3 418 200 131 
3 426 178 250 
3 41 309 371 
3 107 469 83 
3 98 485 200 
3 46 409 471 
3 358 309 352 
3 383 179 201 
3 181 318 170 
3 426 250 331 
3 225 378 67 
3 15 244 271 
3 168 102 55 
3 216 434 322 
3 197 294 289 
3 379 447 180 
3 420 301 408 
3 53 76 10 
3 142 32 81 
3 156 194 20 
3 48 453 340 
3 29 40 144 
3 84 203 370 
3 409 399 376 
3 293 138 337 
3 388 1 114 
3 63 292 264 
3 130 419 149 
3 61 74 291 
3 279 253 210 
3 241 237 371 
3 424 177 85 
3 217 150 355 
3 144 79 472 
3 30 497 401 
3 0 165 82 
3 137 232 223 
3 15 271 16 
3 348 226 120 
3 435 198 42 
3 446 275 121 
3 88 62 157 
3 161 101 96 
3 72 153 287 
3 61 291 28 
3 198 28 291 
3 247 248 31 
3 333 284 212 
3 269 91 151 
3 430 454 448 
3 197 43 353 
3 189 146 463 
3 129 434 312 
3 3 36 338 
3 481 44 445 
3 263 45 357 
3 261 262 42 
3 261 64 59 
3 456 122 235 
3 58 127 131 
3 116 155 171 
3 57 404 315 
3 75 221 267 
3 455 264 152 
3 234 314 313 
3 200 418 98 
3 270 246 278 
3 152 403 310 
3 222 23 139 
3 201 179 41 
3 333 212 352 
3 329 212 284 
3 390 111 386 
3 306 58 209 
3 264 75 267 
3 124 92 233 
3 279 193 59 
3 3 8 293 
3 175 403 152 
3 439 491 277 
3 96 158 161 
3 401 231 88 
3 421 232 420 
3 84 342 321 
3 115 442 7 
3 124 233 89 
3 275 286 359 
3 285 412 40 
3 470 446 183 
3 46 11 409 
3 8 184 186 
3 302 109 154 
3 421 420 408 
3 309 358 241 
3 141 211 184 
3 135 420 232 
3 239 347 254 
3 239 254 13 
3 139 316 196 
3 96 83 158 
3 176 350 451 
3 400 229 405 
3 46 444 11 
3 214 426 331 
3 262 31 273 
3 388 114 389 
3 488 257 89 
3 304 113 412 
3 237 97 363 
3 274 296 22 
3 52 330 437 
3 380 392 12 
3 133 438 472 
3 49 188 333 
3 295 85 177 
3 413 448 289 
3 90 398 299 
3 257 313 314 
3 443 133 113 
3 313 73 112 
3 86 178 441 
3 60 221 433 
3 119 148 200 
3 447 294 255 
3 286 33 164 
3 260 354 162 
3 313 256 73 
3 391 167 159 
3 88 157 387 
3 350 351 172 
3 451 350 172 
3 5 164 325 
3 55 208 168 
3 386 380 12 
3 288 18 149 
3 241 371 309 
3 101 358 212 
3 493 66 442 
3 237 68 347 
3 215 61 373 
3 231 401 122 
3 411 433 487 
3 328 478 398 
3 2 318 22 
3 115 7 70 
3 38 401 230 
3 87 361 76 
3 402 453 394 
3 119 419 78 
3 160 49 406 
3 121 326 407 
3 88 387 230 
3 374 289 494 
3 421 429 99 
3 114 187 424 
3 397 263 357 
3 214 428 118 
3 37 330 349 
3 385 26 460 
3 73 256 266 
3 126 305 304 
3 482 391 57 
3 162 354 272 
3 134 260 324 
3 363 260 134 
3 291 439 35 
3 40 196 285 
3 325 181 142 
3 218 33 286 
3 448 454 233 
3 272 424 486 
3 336 118 428 
3 247 224 248 
3 309 174 365 
3 313 112 103 
3 185 295 260 
3 301 78 297 
3 277 491 344 
3 5 81 359 
3 14 116 425 
3 399 409 11 
3 404 402 443 
3 117 45 104 
3 335 410 136 
3 306 484 248 
3 393 398 478 
3 434 216 312 
3 145 149 207 
3 401 88 230 
3 419 485 288 
3 328 369 238 
3 431 383 375 
3 142 311 249 
3 486 424 187 
3 37 464 337 
3 246 488 128 
3 260 162 416 
3 218 407 317 
3 342 84 34 
3 344 411 487 
3 124 27 92 
3 20 194 87 
3 14 322 475 
3 320 24 338 
3 394 71 276 
3 53 10 247 
3 70 112 115 
3 328 398 369 
3 264 455 75 
3 78 130 297 
3 387 157 227 
3 417 418 131 
3 183 416 162 
3 45 115 395 
3 85 147 125 
3 216 215 312 
3 280 468 24 
3 353 43 245 
3 282 195 243 
3 164 5 286 
3 460 15 385 
3 77 420 135 
3 427 23 440 
3 312 215 373 
3 39 427 440 
3 75 433 221 
3 60 317 221 
3 376 213 409 
3 34 84 370 
3 42 165 435 
3 248 273 31 
3 298 31 262 
3 298 262 261 
3 234 478 314 
3 389 14 475 
3 223 366 373 
3 291 74 439 
3 377 240 464 
3 406 49 55 
3 73 266 166 
3 296 274 109 
3 326 191 217 
3 33 372 39 
3 32 258 81 
3 209 77 345 
3 13 360 146 
3 21 283 440 
3 449 392 195 
3 238 252 428 
3 10 423 224 
3 490 267 221 
3 65 467 323 
3 445 219 56 
3 444 346 11 
3 318 181 21 
3 266 256 495 
3 476 187 114 
3 1 476 114 
3 317 407 370 
3 7 442 66 
3 409 213 356 
3 296 263 2 
3 251 188 49 
3 79 113 133 
3 201 324 383 
3 110 390 12 
3 260 295 324 
3 276 438 402 
3 58 148 77 
3 230 64 38 
3 7 330 9 
3 122 278 4 
3 480 455 6 
3 423 127 306 
3 42 262 165 
3 75 461 433 
3 259 342 34 
3 406 242 474 
3 117 104 493 
3 278 456 270 
3 440 164 39 
3 404 443 129 
3 342 459 321 
3 145 130 149 
3 425 116 372 
3 126 285 399 
3 449 195 67 
3 149 18 339 
3 495 277 450 
3 478 328 100 
3 302 154 40 
3 170 311 142 
3 339 18 211 
3 400 330 37 
3 362 410 335 
3 208 49 333 
3 259 343 16 
3 9 103 70 
3 245 448 92 
3 365 174 188 
3 203 56 303 
3 303 317 370 
3 4 151 122 
3 311 410 362 
3 86 255 178 
3 227 50 374 
3 97 239 272 
3 454 430 91 
3 423 361 127 
3 112 396 115 
3 216 322 467 
3 289 374 413 
3 263 104 45 
3 222 139 274 
3 458 357 166 
3 371 134 201 
3 446 470 46 
3 132 479 300 
3 378 337 464 
3 333 352 208 
3 451 120 80 
3 226 80 120 
3 190 393 234 
3 385 348 26 
3 362 150 143 
3 186 190 8 
3 336 465 418 
3 53 210 202 
3 319 57 391 
3 432 160 406 
3 12 240 110 
3 336 367 465 
3 242 205 459 
3 325 142 5 
3 67 378 449 
3 233 454 89 
3 480 414 455 
3 175 176 403 
3 214 341 428 
3 458 265 480 
3 221 317 490 
3 345 77 135 
3 483 80 332 
3 111 391 386 
3 157 50 227 
3 253 180 210 
3 105 327 13 
3 130 78 419 
3 380 167 228 
3 151 91 496 
3 297 130 145 
3 243 24 320 
3 219 445 368 
3 489 331 250 
3 54 462 228 
3 67 195 282 
3 214 118 156 
3 458 480 6 
3 249 143 123 
3 277 246 270 
3 311 473 410 
3 141 338 468 
3 397 357 69 
3 377 153 72 
3 52 349 330 
3 260 363 354 
3 310 455 152 
3 55 49 208 
3 384 259 355 
3 372 286 39 
3 300 466 19 
3 292 63 422 
3 308 279 387 
3 213 427 356 
3 237 241 358 
3 467 65 215 
3 468 492 145 
3 263 206 2 
3 1 25 346 
3 342 16 271 
3 457 265 266 
3 486 444 470 
3 145 492 297 
3 375 177 189 
3 493 442 117 
3 90 369 398 
3 307 62 496 
3 287 390 72 
3 211 192 382 
3 48 111 390 
3 247 59 193 
3 494 308 374 
3 317 60 218 
3 209 82 484 
3 47 99 280 
3 343 259 384 
3 68 161 254 
3 140 189 177 
3 434 305 322 
3 490 303 219 
3 383 106 51 
3 432 406 474 
3 155 260 416 
3 245 489 353 
3 27 245 92 
3 52 71 349 
3 474 342 271 
3 371 201 41 
3 356 275 471 
3 489 245 281 
3 153 453 287 
3 420 77 148 
3 110 72 390 
3 453 153 182 
3 252 336 428 
3 450 344 487 
3 321 466 84 
3 7 436 437 
3 257 314 100 
3 86 87 76 
3 141 339 211 
3 323 425 372 
3 386 159 380 
3 231 62 88 
3 256 257 246 
3 475 126 388 
3 170 206 397 
3 173 244 460 
3 197 353 178 
3 237 358 68 
3 277 344 450 
3 323 491 199 
3 133 443 438 
3 362 143 249 
3 442 115 117 
3 124 238 341 
3 219 303 56 
3 426 441 178 
3 108 335 136 
3 415 26 93 
3 176 136 403 
3 299 393 186 
3 316 139 23 
3 83 96 51 
3 475 322 305 
3 203 415 481 
3 432 173 290 
3 29 66 452 
3 380 228 392 
3 347 239 97 
3 9 330 405 
3 402 404 319 
3 160 19 251 
3 469 13 254 
3 135 137 345 
3 205 163 459 
3 124 328 238 
3 282 243 320 
3 158 83 469 
3 50 62 307 
3 377 464 153 
3 428 341 238 
3 424 140 177 
3 289 43 197 
3 10 76 361 
3 391 159 386 
3 458 6 69 
3 486 476 346 
3 363 134 237 
3 349 71 394 
3 17 299 186 
3 36 293 225 
3 258 191 359 
3 276 71 437 
3 233 92 448 
3 179 284 174 
3 446 46 471 
3 121 171 183 
3 411 491 323 
3 170 473 311 
3 212 329 101 
3 98 18 288 
3 375 324 295 
3 153 464 394 
3 222 22 440 
3 167 54 228 
3 191 258 217 
3 495 256 246 
3 232 366 223 
3 393 299 398 
3 316 23 213 
3 484 82 273 
3 284 179 51 
3 371 237 134 
3 421 47 366 
3 191 326 359 
3 286 275 356 
3 122 497 235 
3 375 189 431 
3 50 307 430 
3 22 21 440 
3 139 154 109 
3 470 183 272 
3 483 332 343 
3 12 390 386 
3 125 424 85 
3 372 171 218 
3 396 73 166 
3 287 48 390 
3 494 294 447 
3 486 470 272 
3 356 427 39 
3 104 296 109 
3 184 382 17 
3 29 452 40 
3 309 41 174 
3 185 116 147 
3 331 341 214 
3 36 225 282 
3 459 342 474 
3 24 468 338 
3 165 0 364 
3 35 439 277 
3 105 146 140 
3 372 218 286 
3 451 108 136 
3 454 128 488 
3 461 487 433 
3 100 314 478 
3 141 184 338 
3 225 67 282 
3 6 310 69 
3 364 0 381 
3 239 327 140 
3 113 304 305 
3 311 362 249 
3 489 281 331 
3 119 200 485 
3 254 347 68 
3 39 286 356 
3 203 481 56 
3 318 2 206 
3 144 40 412 
3 198 291 235 
3 451 136 176 
3 394 276 402 
3 400 405 330 
3 58 131 148 
3 267 219 220 
3 156 417 236 
3 248 484 273 
3 445 94 368 
3 107 83 169 
3 38 64 261 
3 360 107 463 
3 98 418 465 
3 370 407 34 
3 149 339 207 
3 155 185 260 
3 456 278 122 
3 391 111 340 
3 341 281 27 
3 37 138 400 
3 351 44 172 
3 152 264 292 
3 103 9 405 
3 82 345 0 
3 8 138 293 
3 343 332 16 
3 20 426 214 
3 104 302 493 
3 115 45 117 
3 53 247 193 
3 397 206 263 
3 431 189 463 
3 361 423 10 
3 168 352 309 
3 160 290 19 
3 447 202 180 
3 128 4 278 
3 421 99 47 
3 366 57 315 
3 196 399 285 
3 383 324 375 
3 38 42 30 
3 205 242 102 
3 20 214 156 
3 185 85 295 
3 339 141 207 
3 119 301 420 
3 373 366 315 
3 464 349 394 
3 203 300 479 
3 423 248 224 
3 131 127 236 
3 96 329 51 
3 95 44 351 
3 480 265 414 
3 456 35 270 
3 222 274 22 
3 12 392 449 
3 121 275 326 
3 14 425 467 
3 457 266 495 
3 170 318 206 
3 102 365 205 
3 477 195 392 
3 429 421 408 
3 12 449 240 
3 490 317 303 
3 199 74 65 
3 26 348 93 
3 290 173 132 
3 216 467 215 
3 78 301 119 
3 298 261 59 
3 229 103 405 
3 367 192 465 
3 165 262 82 
3 100 328 89 
3 350 176 351 
3 192 18 98 
3 32 249 258 
3 59 247 31 
3 429 408 301 
3 378 225 293 
3 192 90 382 
3 425 323 467 
3 46 470 444 
3 116 14 147 
3 190 138 8 
3 324 201 134 
3 388 389 475 
3 166 395 396 
3 360 13 469 
3 48 287 453 
3 485 98 288 
3 467 322 14 
3 495 246 277 
3 43 448 245 
3 163 205 365 
3 346 399 11 
3 28 435 364 
3 186 184 17 
3 5 359 286 
3 169 106 383 
3 257 100 89 
3 15 226 385 
3 75 414 461 
3 84 466 300 
3 462 477 228 
3 468 207 141 
3 198 435 28 
3 194 361 87 
3 357 458 69 
3 40 154 196 
3 362 384 150 
3 63 264 422 
3 101 68 358 
3 292 422 268 
3 279 210 193 
3 369 90 252 
3 284 333 188 
3 437 71 52 
3 113 79 412 
3 105 13 146 
3 172 415 93 
3 387 279 230 
3 170 397 473 
3 47 462 54 
3 8 3 184 
3 257 488 246 
3 175 95 176 
3 169 383 431 
3 340 453 402 
3 257 256 313 
3 388 126 25 
3 362 335 334 
3 308 253 279 
3 362 334 384 
3 234 313 103 
3 280 99 492 
3 357 45 395 
3 204 137 373 
3 41 179 174 
3 211 18 192 
3 293 337 378 
3 89 328 124 
3 464 240 378 
3 219 368 220 
3 250 178 353 
3 231 151 62 
3 411 323 372 
3 162 272 183 
3 494 447 379 
3 181 283 21 
3 86 76 202 
3 211 382 184 
3 231 122 151 
3 455 310 6 
3 263 296 104 
3 237 347 97 
3 229 190 234 
3 26 479 132 
3 69 310 410 
3 137 135 232 
3 341 331 281 
3 315 129 312 
3 282 320 36 
3 355 34 217 
3 417 131 236 
3 364 435 165 
3 308 379 253 
3 272 239 424 
3 355 259 34 
3 251 19 163 
3 360 469 107 
3 368 268 220 
3 361 194 236 
3 460 26 132 
3 268 175 152 
3 348 120 451 
3 69 410 473 
3 319 404 57 
3 252 90 367 
3 315 404 129 
3 426 20 441 
3 423 306 248 
3 384 483 343 
3 414 450 461 
3 116 185 155 
3 491 439 199 
3 334 108 483 
3 252 238 369 
3 20 86 441 
3 0 345 381 
3 381 204 364 
3 482 57 366 
3 310 403 410 
3 185 147 85 
3 151 496 62 
3 204 381 137 
3 56 481 445 
3 79 144 412 
3 452 66 493 
3 203 303 370 
3 203 84 300 
3 3 293 36 
3 316 376 196 
3 284 188 174 
3 463 107 169 
3 144 472 29 
3 251 163 365 
3 472 438 276 
3 113 129 443 
3 436 7 66 
3 430 413 50 
3 44 481 172 
3 401 38 30 
3 379 308 494 
3 381 345 137 
3 59 31 298 
3 150 217 143 
3 115 396 395 
3 192 367 90 
3 266 265 166 
3 280 462 47 
3 243 195 477 
3 453 182 394 
3 414 75 455 
3 399 346 25 
3 312 373 315 
3 240 449 378 
3 7 9 70 
3 409 356 471 
3 393 190 186 
3 244 15 460 
3 494 289 294 
3 118 336 156 
3 290 132 300 
3 161 158 254 
3 407 218 171 
3 437 436 276 
3 283 181 325 
3 374 308 227 
3 190 400 138 
3 468 280 492 
3 209 484 306 
3 365 188 251 
3 253 379 180 
3 97 272 354 
3 19 321 163 
3 244 173 432 
3 440 23 222 
3 202 210 180 
3 86 202 255 
3 245 27 281 
3 142 81 5 
3 148 131 200 
3 291 456 235 
3 58 77 209 
3 411 60 433 
3 25 126 399 
3 255 294 197 
3 217 34 326 
3 389 125 147 
3 154 139 196 
3 51 106 83 
3 212 358 352 
3 283 325 164 
3 61 215 74 
3 226 15 332 
3 361 236 127 
3 194 156 236 
3 27 124 341 
3 72 110 377 
3 457 495 450 
3 401 497 122 
3 157 62 50 
3 474 242 459 
3 25 1 388 
3 96 101 329 
3 375 295 177 
3 445 44 94 
3 155 416 171 
3 307 91 430 
3 416 183 171 
3 320 338 36 
3 342 259 16 
3 166 265 458 
3 436 472 276 
3 448 43 289 
3 387 227 308 
3 164 33 39 
3 258 143 217 
3 334 335 108 
3 226 332 80 
3 102 242 55 
3 299 17 382 
3 397 69 473 
3 415 479 26 
3 79 133 472 
3 226 348 385 
3 246 128 278 
3 332 15 16 
3 302 452 493 
3 363 97 354 
3 457 414 265 
3 167 380 159 
3 267 490 219 
3 419 288 149 
3 374 50 413 
3 476 486 187 
3 344 491 411 
3 230 279 64 
3 80 483 108 
3 434 113 305 
3 407 171 121 
3 348 172 93 
3 346 476 1 
3 450 487 461 
3 318 21 22 
3 232 421 366 
3 417 156 336 
3 193 210 53 
3 496 91 307 
3 452 302 40 
3 114 424 125 
3 111 48 340 
3 410 403 136 
3 475 305 126 
3 49 160 251 
3 411 372 33 
3 213 23 427 
3 4 269 151 
3 451 172 348 
3 384 355 150 
3 98 465 192 
3 334 483 384 
3 492 301 297 
3 101 161 68 
3 485 419 119 
3 169 431 463 
3 316 213 376 
3 234 393 478 
3 197 178 255 
3 292 268 152 
3 447 255 202 
3 128 269 4 
3 73 396 112 
3 486 346 444 
3 279 59 64 
3 37 349 464 
3 208 352 168 
3 220 268 422 
3 44 95 94 
3 391 482 167 
3 412 285 304 
3 406 55 242 
3 47 482 366 
3 438 443 402 
3 471 275 446 
3 479 415 203 
3 171 372 116 
3 89 454 488 
3 167 482 54 
3 336 418 417 
3 302 104 109 
3 164 440 283 
3 258 359 81 
3 74 215 65 
3 389 114 125 
3 291 35 456 
3 439 74 199 
3 353 489 250 
3 181 170 142 
3 359 326 275 
3 61 28 204 
3 126 304 285 
