ply
format ascii 1.0
comment created by MATLAB plywrite
element vertex 248
property float x
property float y
property float z
property float nx
property float ny
property float nz
element face 500
property list uchar int vertex_indices
end_header
27.900780 37.645780 -0.721223 -0.585261 0.528290 0.615126 
51.651850 -22.177987 59.166937 0.759060 0.441553 -0.478393 
43.415180 -15.539637 46.388458 0.852621 0.351658 -0.386490 
8.693922 89.499918 -47.319997 0.402356 0.899078 -0.172535 
62.367310 -64.337277 46.480900 0.943983 0.139572 -0.299026 
-21.522500 79.632631 -41.543266 -0.373450 -0.235771 -0.897189 
65.968370 -39.465996 74.798627 0.964142 -0.052186 0.260206 
19.184250 -9.977916 17.300828 -0.884774 -0.414365 0.213251 
-2.879096 62.120263 -25.875761 -0.754356 0.500760 0.424484 
65.725510 -31.323516 74.016420 0.931085 0.339114 -0.134475 
35.635020 0.383315 53.079771 0.762016 0.646501 0.036984 
-2.394318 29.556860 1.302196 0.385931 0.899466 0.204983 
15.914210 30.923820 35.369462 0.157432 0.958631 -0.237155 
35.432730 35.390035 10.813175 0.864386 0.469320 0.180487 
-15.454470 49.219005 1.420670 0.382887 0.852360 -0.356203 
53.271040 -35.591676 81.040851 -0.579560 -0.634973 0.510803 
16.175750 4.122933 81.350888 -0.664758 0.111186 0.738738 
-36.845280 73.424643 -33.359365 -0.527124 0.407370 -0.745781 
38.712470 -48.237909 -7.313726 -0.765247 -0.470645 -0.439193 
-34.319080 78.598767 -28.785133 -0.096505 0.933229 0.346077 
35.171300 0.914910 -21.447254 -0.743547 0.207797 -0.635577 
35.191070 -33.343382 -0.506905 -0.996075 -0.088333 -0.005713 
20.151780 25.631614 39.687495 0.633599 0.541144 0.552915 
-56.099850 50.880616 -9.742951 0.075634 0.915457 0.395243 
31.925150 -1.752726 83.486685 0.463222 0.641480 0.611497 
19.490110 24.141286 -12.130340 -0.401352 -0.762258 -0.507818 
38.930400 -55.318084 -1.577463 -0.565297 -0.756953 -0.327812 
25.170450 63.119100 -26.368941 0.802477 0.288838 0.522114 
4.261919 41.776846 -10.453047 0.103769 0.147821 0.983555 
-60.767810 41.396367 -7.654970 -0.856304 -0.230876 -0.461996 
-1.862520 64.577971 -32.039801 -0.799573 -0.436063 -0.412956 
-39.338620 31.903095 9.131342 -0.157443 -0.943918 0.290225 
46.707240 -48.958838 -9.168734 -0.283929 -0.702005 -0.653126 
43.460840 -5.109873 -4.676187 0.878871 0.451026 0.155436 
43.236340 5.563531 -31.350738 0.400138 0.758867 -0.513819 
20.566470 47.452785 -33.730889 0.838767 0.080863 -0.538452 
33.962970 7.311684 24.939722 0.976954 0.212372 0.021424 
30.640510 31.416568 21.209136 -0.451433 0.879372 -0.151370 
-52.493250 41.663222 -18.001268 -0.195848 -0.577971 -0.792208 
21.724060 22.577613 19.333771 -0.326679 0.941784 -0.079518 
42.738240 -14.385186 86.396748 0.171740 0.049540 0.983896 
6.465917 20.468415 48.026472 -0.958520 -0.108943 0.263382 
-20.507410 29.687967 18.314324 -0.623930 -0.418769 0.659806 
30.213920 20.321601 30.265868 0.943717 0.103608 0.314106 
55.135100 -67.847704 48.688227 -0.651791 -0.464693 0.599358 
-15.227760 46.424647 -3.690558 -0.469920 0.730261 -0.495877 
4.475669 63.767745 -13.158202 -0.362926 0.919629 0.150223 
50.523570 -16.420727 -12.775895 0.912787 0.271159 0.305439 
-4.978231 25.051534 31.035841 -0.282443 0.148740 0.947682 
44.113510 -68.552096 25.691515 -0.564280 -0.817157 0.117653 
12.076710 10.570739 46.519937 -0.793886 -0.585541 0.163972 
3.816011 82.991393 -51.461114 -0.123579 0.197524 -0.972478 
25.896280 58.415928 -29.860515 0.966559 -0.232951 0.107226 
46.628860 -13.857004 59.518899 0.768359 0.570735 -0.289630 
9.986942 22.017328 20.412887 0.067704 0.972439 -0.223110 
11.851970 53.738327 -13.896646 0.005720 -0.062984 0.997998 
4.260485 62.193482 -17.727832 -0.309344 0.925041 -0.220465 
66.757860 -48.572101 69.278018 0.977952 -0.173845 0.115703 
-60.148370 31.884299 8.758865 -0.312486 -0.592945 0.742138 
-19.654280 24.405408 15.105399 -0.538555 -0.730330 0.420210 
47.933830 -62.617383 36.625871 -0.841751 -0.234333 0.486357 
20.252370 37.416998 -32.837702 0.898483 -0.374752 -0.228668 
55.760320 -54.034930 -5.056066 0.406099 -0.829287 -0.383884 
-63.048230 48.687034 -11.153737 -0.941318 0.073981 -0.329314 
-58.996450 53.907887 -15.956293 -0.625493 0.769615 -0.128261 
-0.669497 30.936725 -3.325609 -0.705337 0.423596 0.568389 
21.828310 -23.205918 13.360224 -0.921697 -0.347891 -0.171599 
26.061060 56.367835 -11.351083 0.392728 0.771959 0.499845 
-15.011530 32.630082 4.061372 -0.467855 -0.294350 -0.833349 
21.871620 70.568384 -47.562972 0.420079 -0.299931 -0.856490 
26.177390 67.291888 -40.414953 0.935166 0.063831 -0.348411 
52.920550 -46.919935 -13.981429 -0.050863 -0.725297 -0.686554 
-39.455030 57.443744 -22.637772 0.873473 -0.383824 -0.299539 
23.050270 9.805026 76.736976 0.327216 0.900796 0.285476 
-23.861080 43.830271 4.554328 -0.531792 0.462939 -0.709143 
50.303470 -33.170059 48.991026 0.811187 0.352798 -0.466379 
-16.620950 25.152930 9.991316 -0.314265 -0.758692 -0.570635 
40.710240 -22.389355 35.937503 0.885746 0.334499 -0.321814 
-53.106960 31.873716 5.378012 0.139673 -0.940923 0.308472 
33.969010 -42.854330 -6.655980 -0.949224 -0.314298 0.013817 
48.044200 -59.759396 5.925011 -0.285348 -0.919984 -0.268713 
7.689224 10.443479 13.171621 -0.599141 -0.639541 -0.481681 
-39.616490 39.550630 -7.030711 0.445319 -0.665203 -0.599329 
-19.311590 73.613298 -34.102209 0.484068 -0.702710 0.521418 
-40.824320 76.425950 -24.285222 -0.367878 0.774437 0.514696 
40.733340 -56.146906 27.217853 -0.712425 -0.292466 0.637899 
54.137410 -54.244477 43.856212 0.809282 0.422237 -0.408386 
-3.696814 27.091164 12.096126 0.643683 0.740829 -0.191948 
57.962940 -50.132648 -2.064938 0.965188 0.053444 0.256038 
14.735170 -1.677170 18.493743 -0.808774 -0.587577 0.025263 
-0.037591 59.481599 -21.820044 -0.578903 0.786474 0.215243 
-4.139536 35.617543 -6.660782 -0.503763 -0.700545 -0.505429 
5.984364 53.211834 -29.547250 -0.716038 -0.412269 -0.563314 
14.849400 46.016635 -35.429104 -0.555345 -0.022126 -0.831326 
30.735410 -15.825009 32.805199 -0.726865 -0.520745 0.447763 
17.121510 80.831253 -39.502899 0.734404 0.665631 0.132614 
35.975400 3.427326 36.973326 0.916176 0.364294 -0.167067 
25.560860 -7.006446 -12.221470 -0.881954 0.129705 -0.453138 
39.046420 -27.835171 34.509456 -0.764666 -0.472939 0.437738 
-43.798390 51.467364 -12.609835 0.419757 0.706576 0.569697 
49.317880 -45.512011 7.323299 0.915229 0.274155 0.295286 
-49.286450 43.660773 5.457235 0.042666 0.750042 0.660013 
-4.294919 91.829631 -46.835658 -0.184028 0.946668 -0.264488 
58.176860 -24.474740 -18.645510 0.941394 0.310795 0.131089 
35.866450 -42.651400 1.258526 -0.979675 -0.189681 0.065256 
36.218380 -49.182973 11.864937 -0.961789 0.126036 -0.243056 
15.545930 63.084344 -13.828181 0.270430 0.788726 0.552067 
-35.235270 69.048135 -32.692246 -0.085505 -0.383005 -0.919781 
49.380730 -53.356187 20.833023 0.922326 0.374737 -0.094269 
32.869270 -29.996477 -13.979220 -0.943045 0.089094 -0.320513 
-57.194710 44.630861 7.283374 -0.226263 0.771243 0.594970 
-1.589978 56.724148 -10.768958 -0.505454 0.327485 0.798292 
-4.688776 74.662273 -33.894173 -0.435476 0.103459 0.894236 
-27.470910 35.061860 2.270535 0.443157 0.068811 -0.893799 
33.865400 -22.292764 0.024056 -0.865877 -0.341100 -0.365935 
34.214370 39.162187 6.088198 0.055467 0.928921 0.366100 
16.246790 36.884841 -37.838761 -0.074795 -0.918517 -0.388242 
32.639890 10.249275 1.425422 0.741875 0.026162 -0.670027 
12.485250 38.741364 -24.908596 -0.865591 -0.395545 -0.307078 
36.999650 3.568258 -11.886414 0.021522 0.985738 -0.166908 
1.984211 87.173954 -38.961639 0.011898 0.746091 0.665738 
-33.893320 42.902028 8.393715 -0.087015 0.964970 -0.247510 
37.400010 -41.037464 14.356078 -0.941649 -0.204984 -0.266981 
-11.443950 45.304920 -3.165618 0.665661 0.626252 0.405837 
15.808390 15.895641 57.134423 0.322111 0.755478 0.570524 
23.859660 9.383217 0.491226 -0.361737 -0.398698 -0.842726 
33.173210 3.656449 -2.165253 -0.233469 0.701421 -0.673424 
-2.353175 35.681974 -4.937051 0.685638 0.165966 0.708770 
52.958340 -19.187515 -30.081569 0.631075 0.330852 -0.701627 
20.896320 39.505381 -40.947908 0.708112 -0.428088 -0.561531 
51.603850 -28.553040 -29.823551 0.035327 -0.388493 -0.920774 
-35.541420 34.206418 1.016299 0.074147 -0.861983 -0.501485 
26.534880 26.641970 13.995043 -0.638104 0.751024 0.169667 
31.890350 -33.753460 10.764232 -0.786342 -0.444162 -0.429402 
45.390240 -36.581207 28.854326 0.926013 0.353106 -0.133474 
-2.874858 78.310393 -46.460679 -0.376202 -0.582441 -0.720579 
58.941340 -56.493340 62.585914 -0.744106 -0.472093 0.472688 
17.970980 23.513620 30.048716 -0.213987 0.809767 -0.546340 
3.703038 18.802015 34.704594 -0.650974 -0.503175 0.568373 
38.300450 -22.820955 -19.994497 -0.839288 0.412716 -0.353922 
-39.065240 61.915442 -22.670155 0.609106 -0.134688 0.781568 
24.892480 40.989461 -22.678293 0.901816 0.069056 -0.426566 
34.468370 13.547123 13.098759 0.993624 0.107572 0.033753 
36.692500 -3.096833 13.831928 0.964918 0.210617 0.156763 
0.741229 24.288387 24.511092 0.394456 0.807209 -0.439110 
3.807703 38.859089 -15.644670 -0.599992 -0.572777 -0.558513 
2.928415 10.100835 20.718009 -0.531731 -0.815794 0.227471 
12.806840 37.517592 -9.220412 -0.193743 0.389341 0.900487 
-47.658640 34.040702 10.193616 -0.015240 -0.365226 0.930794 
-52.284210 54.821600 -25.668374 -0.320703 -0.215420 -0.922358 
-49.322040 61.576935 -26.403309 -0.646907 0.400662 -0.648831 
17.902400 65.198141 -24.346320 0.272593 0.468613 0.840294 
54.946650 -60.930574 13.644638 0.983655 -0.175208 -0.041534 
62.567200 -34.137960 68.131476 0.817172 0.298522 -0.493066 
61.708580 -43.616888 62.718141 0.771582 0.371154 -0.516629 
23.800910 -4.000981 72.737020 -0.795127 -0.606442 0.000605 
51.638530 -34.829139 -4.698272 0.838701 0.242913 0.487415 
11.667630 78.301159 -30.126687 0.250393 0.629184 0.735820 
34.835860 -32.995969 25.469976 -0.684395 -0.360103 0.633979 
-42.128800 43.152035 0.867560 0.313158 0.948730 0.042927 
17.072940 80.874965 -49.521731 0.603322 0.520995 -0.603794 
16.644820 60.143627 -40.530439 0.185453 -0.335244 -0.923698 
58.817650 -40.975733 -18.232154 0.813988 -0.312839 -0.489444 
7.867070 65.100325 -24.549268 -0.197843 0.799428 0.567250 
36.693470 26.711382 3.103036 0.998338 0.010986 -0.056571 
-51.546700 60.866991 -21.657175 -0.386416 0.781167 0.490367 
-5.568535 50.941073 -14.143723 -0.275703 0.746096 0.606076 
38.686430 -53.350978 6.399820 -0.763989 -0.619645 -0.179891 
17.859980 60.087314 -18.209768 0.483905 0.871902 -0.074987 
-37.797270 45.221347 -8.648979 0.852532 0.520928 -0.042692 
-35.820210 64.225791 -28.249902 0.544192 -0.756366 -0.362995 
-4.046268 28.981927 0.507492 -0.264659 -0.570474 -0.777506 
22.146440 -2.333600 40.304255 -0.734123 -0.619097 0.278894 
45.868820 -9.543111 -27.587300 -0.491293 0.142584 -0.859244 
-8.293859 31.017248 18.320188 0.780081 0.587937 -0.214016 
44.027790 -10.234844 64.070417 0.628682 0.758812 -0.170183 
22.793560 -16.908341 19.192966 -0.744204 -0.369835 0.556222 
47.279270 -35.520500 39.581607 0.879884 0.359084 -0.311226 
-48.347030 39.764926 -11.681612 0.463101 -0.760509 -0.455151 
36.542330 -17.515049 85.716783 -0.403131 -0.587230 0.701887 
37.544560 -20.710307 -8.817177 -0.955385 0.010638 -0.295172 
-9.485510 20.197582 28.655679 -0.547782 -0.465246 0.695328 
-11.543830 17.516965 18.666041 -0.584783 -0.801230 0.126728 
24.067070 -8.922740 84.701985 -0.536827 -0.522622 0.662331 
35.564230 -16.120161 76.221052 -0.695070 -0.717793 0.040631 
49.542870 -23.229505 86.592208 0.127041 -0.226989 0.965576 
37.219350 -16.166969 25.660728 0.968417 0.247812 -0.027512 
20.656200 11.361493 66.972366 0.147583 0.988905 0.016900 
33.182930 48.312806 -3.813628 0.713756 0.653730 0.251374 
41.218440 -21.492670 17.113497 0.955548 0.242921 0.167083 
-7.838005 34.198355 24.278041 0.721538 0.677570 0.142418 
30.177660 -11.050716 -12.180982 -0.695278 -0.516438 -0.499880 
15.368170 7.973364 64.888380 -0.909072 0.075064 0.409821 
21.206170 -0.121739 56.853155 -0.744794 -0.649699 0.152230 
31.467990 11.675261 36.418662 0.877259 0.462497 0.128503 
-22.530470 83.793038 -38.076772 -0.420256 0.865559 -0.272382 
-6.919297 50.997175 -17.356615 -0.890426 0.019179 -0.454724 
54.786320 -40.228699 64.307731 -0.862108 -0.424620 0.276527 
-11.501240 37.546908 9.694680 0.896915 0.345490 -0.276008 
21.867120 51.773524 -21.845662 0.978382 0.205999 -0.018234 
13.602360 20.851905 -2.277738 -0.554897 -0.626464 -0.547387 
1.343603 29.952301 31.506085 -0.547716 0.756690 0.356969 
47.335220 -2.789911 -26.117947 0.830942 0.425649 -0.358271 
50.698950 -65.971524 16.763963 0.042519 -0.957494 -0.285302 
56.213540 -70.072359 30.807478 0.390329 -0.913414 -0.115404 
61.661790 -65.330388 53.831633 0.314128 -0.800214 0.510863 
43.288700 -37.967662 34.779884 -0.821773 -0.296704 0.486474 
15.003720 41.946331 -42.665101 -0.591388 0.200644 -0.781026 
35.609140 -61.792485 20.799412 -0.918843 -0.387507 0.074598 
-30.640690 34.878476 12.509207 -0.376858 -0.079765 0.922830 
1.860606 24.183366 7.906588 0.270383 0.959142 0.083300 
-48.629140 34.561997 -2.161874 0.256394 -0.942653 -0.213698 
22.708850 14.094934 48.105662 0.744497 0.627170 0.228870 
7.977079 15.230365 59.316726 -0.804712 -0.033325 0.592729 
20.074630 -1.410045 8.487608 -0.849624 -0.146717 -0.506569 
12.467110 29.100183 -1.013526 -0.186275 0.878506 0.439919 
32.227050 31.423407 28.231707 0.517832 0.732943 0.441186 
-13.545130 47.481041 15.080459 0.475384 0.844411 0.246942 
52.344150 -15.501412 -20.371980 0.897750 0.440120 0.018411 
55.126710 -15.099278 79.871922 0.746533 0.557129 0.363724 
27.849800 14.406377 -3.252172 0.279872 -0.579168 -0.765661 
15.545650 9.189164 74.907596 -0.841985 0.531410 0.093082 
22.694970 30.162884 -20.552596 0.657874 -0.535487 -0.529581 
23.178020 -6.842280 -1.145431 -0.907850 0.063868 -0.414402 
30.157350 37.606389 -15.323607 0.831212 0.041568 -0.554399 
-12.399950 77.729443 -35.649645 -0.004524 -0.328832 0.944378 
61.388990 -42.617373 79.573948 0.345413 -0.508431 0.788789 
-61.367000 28.150191 -2.610271 -0.225523 -0.962220 -0.152554 
32.149010 -2.085445 72.331699 0.712403 0.699645 -0.054587 
59.797550 -68.625761 35.990853 0.964050 -0.245323 -0.102104 
-10.905220 75.197841 -39.984194 -0.350460 -0.936515 0.010819 
-64.241910 35.130917 4.526882 -0.976849 -0.120444 0.176802 
-13.796500 34.798036 5.042105 0.815598 0.557226 0.155882 
10.075529 25.581619 50.525340 -0.122074 0.837218 0.533071 
-13.830910 84.885425 -38.580312 -0.008051 0.544725 0.838576 
-14.645500 39.230804 23.359177 -0.356058 0.322744 0.876960 
58.123940 -33.702818 83.817821 0.478219 -0.217116 0.850980 
15.435820 73.970460 -51.476041 -0.039656 -0.265008 -0.963430 
7.899326 66.569662 -41.382983 -0.434009 -0.502473 -0.747768 
44.667970 -24.096812 62.448896 -0.756660 -0.625258 0.191099 
30.686420 -41.009866 20.318920 -0.934839 -0.338505 0.107191 
51.778080 -72.268608 42.099822 -0.241439 -0.865216 0.439441 
-23.805680 45.831840 9.784102 -0.507179 0.822374 0.257820 
37.964070 0.388887 2.876027 0.836901 0.535164 -0.114876 
60.213580 -49.974655 74.710553 -0.353920 -0.691804 0.629403 
25.273130 31.215407 31.816728 -0.060681 0.997855 -0.024572 
45.038410 -20.300161 -31.724884 -0.507820 -0.021491 -0.861195 
28.803430 -17.238933 1.755301 -0.766523 -0.503347 -0.398855 
3 238 237 69 
3 29 38 227 
3 133 122 240 
3 148 209 101 
3 236 6 9 
3 206 60 44 
3 83 230 225 
3 66 223 247 
3 233 22 12 
3 240 85 158 
3 214 125 126 
3 89 7 172 
3 46 111 106 
3 65 145 200 
3 140 83 84 
3 118 93 207 
3 70 35 161 
3 207 116 118 
3 196 166 8 
3 231 227 58 
3 102 234 120 
3 43 36 142 
3 63 231 110 
3 56 111 46 
3 58 78 148 
3 32 62 80 
3 34 119 33 
3 148 101 110 
3 140 170 83 
3 91 145 65 
3 177 108 134 
3 144 174 190 
3 72 178 38 
3 75 1 153 
3 53 10 175 
3 236 226 6 
3 85 208 49 
3 45 74 14 
3 138 50 41 
3 194 43 212 
3 204 241 49 
3 227 231 29 
3 14 198 232 
3 178 72 82 
3 147 0 67 
3 53 175 219 
3 3 102 120 
3 84 83 19 
3 89 138 146 
3 206 136 197 
3 18 26 167 
3 16 221 155 
3 198 190 174 
3 181 235 42 
3 140 99 72 
3 176 66 240 
3 14 123 45 
3 24 73 16 
3 89 214 7 
3 66 7 214 
3 104 105 122 
3 119 34 20 
3 202 33 218 
3 130 128 162 
3 78 58 227 
3 1 9 153 
3 115 13 164 
3 114 133 247 
3 239 193 172 
3 222 116 61 
3 36 143 142 
3 241 204 229 
3 61 35 141 
3 39 210 54 
3 116 25 118 
3 109 79 21 
3 1 2 53 
3 197 98 206 
3 30 112 230 
3 123 127 166 
3 242 14 74 
3 14 217 198 
3 2 75 77 
3 154 86 75 
3 101 159 110 
3 88 162 103 
3 181 42 182 
3 99 159 169 
3 17 107 150 
3 202 218 128 
3 108 189 134 
3 243 142 143 
3 145 118 25 
3 44 60 241 
3 246 130 32 
3 70 161 69 
3 28 65 147 
3 179 185 40 
3 64 165 150 
3 245 22 216 
3 99 23 159 
3 114 191 180 
3 80 167 26 
3 192 221 187 
3 5 17 195 
3 45 166 196 
3 173 128 246 
3 188 115 164 
3 88 100 152 
3 10 194 212 
3 3 51 102 
3 48 138 201 
3 68 113 121 
3 169 113 82 
3 12 144 201 
3 91 65 127 
3 218 33 47 
3 121 209 242 
3 76 131 113 
3 136 44 205 
3 182 76 81 
3 190 198 217 
3 193 192 213 
3 216 13 37 
3 208 240 105 
3 57 4 154 
3 55 67 106 
3 10 228 175 
3 126 243 119 
3 91 196 145 
3 112 30 8 
3 125 200 25 
3 182 146 181 
3 9 6 153 
3 18 167 104 
3 116 222 25 
3 203 204 49 
3 226 57 6 
3 162 128 103 
3 65 28 127 
3 138 89 172 
3 11 210 215 
3 174 87 198 
3 36 186 143 
3 94 239 172 
3 195 17 19 
3 65 171 11 
3 55 111 28 
3 85 206 158 
3 110 231 58 
3 167 208 104 
3 0 147 215 
3 235 209 42 
3 145 196 30 
3 43 216 22 
3 198 87 232 
3 132 115 0 
3 233 41 213 
3 113 131 82 
3 124 213 192 
3 85 60 206 
3 180 21 114 
3 97 126 119 
3 224 222 141 
3 247 133 66 
3 216 37 245 
3 215 65 11 
3 193 213 50 
3 112 225 230 
3 57 205 4 
3 81 76 171 
3 48 201 190 
3 117 125 220 
3 186 189 143 
3 154 4 86 
3 96 194 10 
3 84 17 150 
3 112 157 120 
3 194 36 43 
3 103 218 47 
3 92 145 30 
3 119 20 97 
3 67 199 168 
3 159 101 121 
3 33 202 34 
3 208 167 49 
3 142 164 43 
3 128 173 202 
3 115 37 13 
3 72 169 82 
3 51 237 135 
3 150 165 84 
3 70 95 27 
3 96 186 36 
3 3 160 51 
3 168 163 56 
3 77 96 2 
3 152 229 204 
3 155 239 184 
3 102 5 195 
3 152 108 229 
3 234 83 225 
3 147 55 28 
3 88 156 100 
3 158 206 98 
3 183 184 179 
3 191 173 180 
3 185 15 236 
3 92 238 93 
3 15 226 236 
3 88 152 62 
3 106 56 46 
3 154 153 57 
3 188 164 224 
3 141 222 61 
3 19 17 84 
3 151 112 163 
3 171 127 11 
3 135 230 5 
3 129 116 207 
3 139 109 180 
3 87 210 232 
3 99 140 165 
3 146 81 89 
3 115 188 0 
3 220 224 117 
3 57 244 205 
3 211 31 78 
3 16 183 24 
3 104 21 79 
3 246 139 173 
3 15 244 226 
3 157 112 151 
3 23 64 110 
3 148 78 31 
3 102 195 234 
3 76 113 68 
3 234 112 120 
3 73 221 16 
3 40 24 183 
3 108 152 100 
3 220 125 25 
3 43 22 212 
3 32 80 26 
3 179 15 185 
3 97 20 191 
3 117 243 126 
3 130 162 71 
3 99 165 23 
3 168 56 106 
3 47 100 156 
3 27 199 52 
3 237 51 160 
3 70 52 35 
3 134 186 77 
3 144 54 210 
3 29 63 38 
3 181 146 138 
3 192 193 155 
3 98 94 158 
3 47 189 100 
3 63 29 231 
3 173 20 34 
3 24 228 73 
3 209 148 31 
3 184 15 179 
3 177 134 77 
3 124 187 212 
3 72 149 170 
3 45 68 74 
3 200 125 81 
3 150 149 64 
3 229 4 205 
3 211 82 131 
3 73 228 187 
3 39 132 215 
3 166 111 90 
3 98 239 94 
3 186 134 189 
3 144 210 87 
3 149 72 38 
3 72 99 169 
3 197 15 239 
3 127 123 232 
3 97 247 223 
3 173 34 202 
3 54 137 39 
3 242 74 121 
3 40 183 179 
3 59 209 31 
3 171 68 91 
3 232 210 11 
3 37 132 39 
3 140 72 170 
3 103 156 88 
3 225 112 234 
3 6 57 153 
3 66 176 7 
3 171 91 127 
3 70 27 52 
3 33 119 243 
3 154 75 153 
3 53 219 9 
3 41 201 138 
3 67 168 106 
3 110 159 23 
3 11 127 232 
3 233 12 201 
3 66 214 223 
3 187 124 192 
3 85 49 60 
3 118 92 93 
3 105 240 122 
3 30 196 8 
3 223 126 97 
3 184 183 155 
3 156 103 47 
3 10 53 96 
3 61 116 129 
3 240 158 176 
3 62 162 88 
3 37 137 245 
3 43 13 216 
3 18 104 79 
3 211 78 227 
3 84 165 140 
3 197 244 15 
3 144 190 201 
3 178 82 211 
3 76 31 131 
3 44 136 206 
3 228 212 187 
3 238 135 237 
3 208 105 104 
3 63 149 38 
3 223 214 126 
3 40 185 219 
3 45 123 166 
3 182 81 146 
3 67 0 188 
3 236 219 185 
3 40 219 24 
3 118 145 92 
3 5 102 51 
3 133 114 21 
3 96 36 194 
3 108 86 229 
3 66 133 240 
3 143 189 33 
3 86 4 229 
3 55 106 111 
3 21 104 122 
3 244 197 136 
3 86 108 177 
3 14 242 217 
3 76 182 59 
3 96 53 2 
3 241 229 205 
3 117 126 125 
3 128 218 103 
3 235 190 217 
3 77 75 177 
3 28 166 127 
3 227 38 178 
3 243 143 33 
3 30 230 135 
3 12 137 144 
3 168 151 163 
3 64 23 165 
3 129 207 35 
3 149 150 107 
3 41 233 201 
3 148 110 58 
3 69 237 160 
3 2 1 75 
3 227 178 211 
3 155 221 192 
3 243 117 142 
3 168 199 151 
3 7 94 172 
3 33 189 47 
3 228 24 175 
3 200 81 171 
3 68 121 74 
3 32 26 18 
3 86 177 75 
3 115 132 37 
3 224 141 199 
3 172 50 138 
3 163 8 90 
3 139 246 109 
3 121 101 209 
3 163 112 8 
3 107 5 83 
3 167 80 203 
3 160 95 70 
3 224 199 67 
3 155 193 239 
3 172 193 50 
3 162 62 71 
3 151 27 157 
3 125 214 81 
3 108 100 189 
3 62 32 71 
3 141 35 199 
3 76 59 31 
3 7 176 94 
3 12 22 245 
3 238 92 30 
3 238 30 135 
3 1 53 9 
3 149 107 170 
3 107 83 170 
3 233 213 124 
3 41 50 213 
3 161 238 69 
3 191 114 247 
3 176 158 94 
3 21 122 133 
3 163 90 56 
3 43 164 13 
3 117 224 164 
3 9 219 236 
3 221 73 187 
3 190 235 48 
3 24 219 175 
3 186 96 77 
3 246 128 130 
3 5 51 135 
3 64 63 110 
3 196 91 68 
3 212 22 124 
3 173 139 180 
3 57 226 244 
3 85 240 208 
3 159 121 113 
3 5 230 83 
3 215 210 39 
3 18 109 246 
3 60 49 241 
3 200 145 25 
3 90 8 166 
3 137 54 144 
3 215 147 65 
3 95 3 157 
3 167 203 49 
3 80 62 203 
3 191 247 97 
3 191 20 173 
3 48 235 181 
3 63 64 149 
3 211 131 31 
3 238 161 93 
3 22 233 124 
3 111 56 90 
3 151 199 27 
3 95 157 27 
3 83 234 19 
3 188 224 67 
3 95 160 3 
3 157 3 120 
3 137 12 245 
3 169 159 113 
3 220 222 224 
3 235 242 209 
3 180 109 21 
3 196 68 45 
3 220 25 222 
3 0 215 132 
3 98 197 239 
3 203 62 152 
3 79 109 18 
3 42 209 59 
3 183 16 155 
3 199 35 52 
3 181 138 48 
3 17 5 107 
3 200 171 65 
3 70 69 160 
3 244 136 205 
3 241 205 44 
3 144 87 174 
3 130 71 32 
3 129 35 61 
3 246 32 18 
3 117 164 142 
3 242 235 217 
3 10 212 228 
3 93 35 207 
3 161 35 93 
3 184 239 15 
3 195 19 234 
3 232 123 14 
3 68 171 76 
3 152 204 203 
3 137 37 39 
3 111 166 28 
3 182 42 59 
3 214 89 81 
3 147 67 55 
