ply
format ascii 1.0
comment created by MATLAB plywrite
element vertex 502
property float x
property float y
property float z
property float nx
property float ny
property float nz
element face 1000
property list uchar short vertex_indices
end_header
33.939750 -26.819430 -85.336849 -0.550202 0.807612 0.212229 
32.389545 -48.473008 -78.387636 0.594740 0.054624 0.802060 
28.192370 -29.598589 -29.931878 -0.749133 0.599624 0.281515 
38.063530 -26.798240 -41.097085 0.638478 -0.588592 0.495889 
31.365935 -60.618057 -46.364200 0.796167 0.568636 0.206812 
33.642805 -42.111697 -26.931019 -0.541498 0.833800 0.107508 
35.988190 -29.122932 -89.112199 0.986178 0.067378 -0.151368 
20.614605 -61.937259 -25.927614 0.682568 0.567036 -0.461053 
42.242950 -49.595611 -45.583601 0.857128 -0.514331 0.028213 
43.028565 -46.274073 -49.068977 -0.163398 -0.443827 -0.881090 
40.492050 -49.516212 -62.059079 -0.565354 0.799163 -0.204241 
28.492465 -59.507717 -35.462624 -0.267619 0.958916 0.094129 
22.508675 -67.923708 -25.441931 -0.203607 -0.976009 -0.077136 
35.188245 -30.038360 -88.577085 0.188616 -0.856330 0.480752 
38.269425 -49.358926 -36.188490 0.186489 0.982454 0.002494 
27.785540 -46.052839 -83.076248 -0.788712 0.257293 0.558332 
29.847735 -58.573400 -60.080078 0.861981 0.288129 0.417099 
36.831960 -53.215282 -34.346720 0.426504 -0.484018 0.764081 
29.151280 -59.756161 -43.086810 -0.409025 0.842627 -0.350254 
28.051205 -57.973162 -29.002441 0.348757 -0.928962 0.124091 
29.486925 -28.039613 -31.078531 0.816143 0.336748 0.469586 
25.702465 -60.405228 -29.292203 -0.542699 0.166087 -0.823343 
33.637150 -53.319218 -28.204500 0.757447 -0.424434 -0.496115 
32.369260 -36.159244 -88.456833 -0.914027 0.188277 0.359314 
38.081405 -24.096727 -43.843406 0.365746 0.914793 0.171416 
41.643960 -53.027188 -58.966779 0.821314 -0.566637 -0.066067 
40.884140 -22.312109 -56.554589 -0.966972 0.055263 -0.248819 
24.918135 -54.479776 -26.598385 0.746378 -0.652574 -0.130638 
26.805880 -47.573108 -24.485105 0.016143 0.951488 0.307261 
34.852490 -62.371547 -46.358851 0.441712 -0.891443 0.101091 
31.441990 -50.580937 -76.348785 0.680575 -0.698592 -0.220878 
33.135335 -35.839694 -28.997235 0.923474 0.321915 0.208725 
27.471115 -64.144488 -32.673282 0.815455 -0.514769 -0.264661 
37.280355 -56.129220 -49.314642 -0.230388 0.916372 -0.327390 
29.227800 -62.526563 -37.337751 -0.039831 -0.997419 -0.059734 
30.412265 -50.977654 -77.554343 -0.232008 -0.914032 -0.332744 
27.839370 -59.902857 -38.525486 -0.787489 0.585685 -0.191922 
28.224095 -59.709036 -60.806453 -0.442502 -0.824680 -0.352270 
27.265850 -59.092232 -59.503124 -0.910196 -0.383815 -0.155659 
31.239700 -57.903101 -63.275759 -0.441979 0.841863 -0.309713 
29.901735 -24.399830 -36.461361 -0.043935 0.991369 -0.123520 
34.070005 -58.614874 -40.597333 -0.845882 -0.178134 -0.502745 
39.964060 -53.675917 -41.349302 0.911848 0.138508 0.386457 
35.320355 -27.137244 -86.063317 0.752457 0.630037 0.191995 
28.871940 -60.021707 -30.470537 0.218767 -0.875699 -0.430457 
22.035950 -54.234647 -26.040976 -0.776969 0.629535 -0.002458 
33.789025 -46.625546 -80.265384 0.354147 0.899385 -0.256294 
29.138315 -57.026398 -61.544513 0.169487 0.984954 0.033763 
35.648200 -47.731894 -78.224473 0.197378 -0.648247 0.735403 
35.466345 -40.277107 -31.356637 -0.308466 -0.302617 -0.901816 
31.197375 -45.113382 -24.660809 -0.527334 0.378989 -0.760451 
34.868700 -24.931163 -39.998927 -0.581372 0.810355 -0.073022 
37.079530 -55.755540 -56.364782 -0.979814 0.105785 0.169632 
25.961375 -63.325315 -28.087847 -0.018447 0.912284 0.409143 
35.450190 -56.322504 -41.680036 0.007572 -0.055945 -0.998405 
35.077220 -55.895248 -40.341251 -0.685477 0.720885 0.102209 
24.990850 -66.294126 -25.045565 0.638603 -0.171603 0.750159 
31.062935 -62.627660 -56.923149 0.328522 -0.556998 -0.762776 
29.887210 -35.661087 -25.810610 0.638799 0.419253 0.645107 
31.412455 -44.217924 -23.338402 -0.371349 0.914849 -0.158593 
29.573215 -58.799442 -41.588654 -0.157698 0.978048 -0.136209 
20.901565 -67.166037 -23.509769 -0.315404 -0.790132 0.525559 
24.949735 -63.184364 -32.991153 -0.656949 0.618271 -0.431462 
39.760755 -54.509499 -57.237128 0.725934 -0.682619 0.083973 
35.873515 -32.158312 -34.550596 0.776222 -0.496534 -0.388502 
30.391850 -48.399257 -77.088216 -0.081334 0.900164 0.427890 
32.866560 -33.325797 -89.419523 -0.013842 0.361770 0.932165 
26.209185 -63.766719 -33.526734 -0.004532 0.937291 -0.348519 
28.834790 -59.731716 -29.119901 0.331130 -0.433034 0.838352 
31.712910 -46.807673 -80.511679 -0.509209 0.851067 0.128027 
32.688235 -58.328958 -66.382914 0.558015 -0.773787 -0.299788 
35.142770 -31.603825 -91.144119 0.849061 -0.520433 -0.090805 
36.157555 -42.145966 -29.271717 0.901068 -0.430688 -0.050841 
32.442530 -55.697472 -26.885809 0.528192 -0.678764 -0.510188 
34.115095 -44.014306 -27.917208 -0.031457 -0.751459 -0.659029 
29.928780 -62.366252 -42.636823 0.329284 -0.929345 0.167005 
40.912555 -50.544516 -45.474995 -0.613325 0.130700 0.778942 
34.064690 -60.238653 -45.883621 -0.222279 0.965651 -0.134577 
28.792650 -56.749204 -27.486672 -0.349942 -0.160583 0.922905 
34.446890 -31.740026 -35.276124 -0.372781 -0.556686 -0.742384 
44.123850 -43.584879 -50.021906 0.456510 -0.647827 -0.609851 
31.491050 -62.388893 -47.167376 0.694471 -0.600473 0.396411 
37.556045 -25.254797 -47.041176 -0.690366 -0.043421 -0.722156 
24.223330 -64.084321 -28.170243 -0.519131 0.826929 -0.216083 
28.073630 -60.486058 -56.764728 -0.848530 -0.409184 0.335507 
44.118335 -24.585644 -59.517574 0.911666 0.406237 -0.061931 
22.626980 -56.748323 -24.291663 0.570987 0.005764 0.820939 
33.808725 -58.051453 -29.585153 0.398286 -0.916809 0.028793 
28.526745 -39.366637 -23.501180 -0.571582 0.402116 0.715260 
34.993835 -61.362041 -36.809713 -0.025952 -0.977547 -0.209114 
24.408765 -67.747540 -25.548265 0.343628 -0.895060 0.284231 
42.138235 -48.970946 -62.141302 0.480921 0.762739 -0.432372 
24.883310 -48.015830 -26.837346 -0.906088 0.273564 -0.322748 
34.797085 -60.928106 -44.784077 0.741996 0.340634 0.577417 
33.984350 -31.409508 -32.870092 -0.904251 0.396409 0.158715 
37.677140 -55.892735 -58.074830 -0.316212 -0.412448 -0.854340 
29.449605 -60.962704 -32.506175 0.768453 -0.445990 -0.458883 
39.290895 -52.317623 -61.390874 -0.930349 -0.196710 -0.309445 
26.757075 -62.052062 -31.090307 -0.680379 0.718436 -0.144686 
36.280310 -39.287908 -30.326688 0.878594 0.316372 -0.357744 
37.966070 -55.806403 -52.960627 -0.908918 0.396355 0.129502 
38.457100 -57.290014 -52.526818 -0.277619 -0.953737 0.115386 
41.152925 -52.931400 -46.192879 0.805953 -0.407598 0.429306 
32.681160 -58.958650 -43.305709 0.524036 0.808187 0.268736 
30.409465 -36.515434 -26.314765 0.993859 0.101447 0.044196 
29.035205 -65.063676 -52.388482 0.474937 0.600515 -0.643287 
30.769520 -66.164392 -40.360190 0.410124 -0.893405 0.183374 
22.031010 -64.050072 -22.180546 0.629573 0.093718 0.771268 
27.807375 -61.790315 -38.569790 -0.852227 -0.476802 -0.215334 
28.414690 -48.325129 -82.481163 -0.678124 -0.682219 0.273359 
36.224140 -55.393085 -35.269441 0.820010 -0.502225 0.274508 
29.231480 -39.679724 -23.154119 0.390143 0.452159 0.802085 
17.748590 -64.905933 -24.443279 -0.791275 -0.547492 0.272279 
25.719070 -59.126791 -26.813613 0.592500 -0.242123 0.768323 
22.772880 -53.484098 -27.413493 -0.680139 0.556607 -0.477073 
29.747545 -63.803137 -48.828113 0.696630 0.627291 -0.348156 
41.137120 -50.791610 -54.745825 -0.086357 0.931966 0.352110 
25.526770 -62.257819 -28.105542 0.322545 -0.901682 -0.287982 
29.330465 -65.180245 -39.420300 -0.925920 -0.198923 -0.321094 
25.503530 -59.255975 -28.239525 -0.090248 -0.671323 -0.735650 
41.742475 -51.658980 -47.144212 0.810044 -0.106186 -0.576674 
29.171400 -63.403491 -48.670785 -0.451958 0.892036 -0.002324 
38.428255 -50.875405 -35.294750 0.912806 -0.267428 0.308653 
29.712325 -44.830740 -22.540193 -0.574179 0.504977 -0.644451 
30.826765 -56.031166 -67.392295 -0.536118 0.728578 0.426324 
30.587895 -42.150542 -84.306944 -0.388631 0.921361 -0.007742 
34.159760 -39.294870 -29.925068 -0.588174 -0.780282 -0.212629 
39.637455 -25.196131 -51.015452 -0.839346 -0.538725 -0.072619 
32.861720 -42.153090 -85.260092 -0.732697 0.444841 -0.515045 
31.269675 -61.477265 -53.957932 0.109063 0.896515 0.429378 
32.329965 -47.866634 -82.593373 0.539009 -0.143125 -0.830051 
24.029175 -46.108033 -21.501282 -0.752606 0.612294 -0.242240 
35.472025 -56.587107 -39.614859 -0.134917 -0.056688 0.989234 
29.849535 -34.668325 -27.928549 0.849897 -0.027605 -0.526225 
44.493670 -40.798782 -51.184677 -0.766712 0.640625 -0.041855 
29.321720 -46.907789 -81.651176 -0.239247 0.585675 0.774432 
30.118930 -62.760443 -46.738551 -0.418238 -0.896932 0.143493 
29.267445 -55.503813 -71.164242 -0.813594 0.433009 0.388031 
34.411720 -28.672273 -88.048066 -0.999925 0.011737 0.003548 
25.209810 -51.288802 -25.112947 -0.500534 -0.125179 0.856619 
23.963315 -64.939183 -24.790423 0.647504 0.296152 0.702163 
35.061685 -29.908963 -91.406662 0.151288 0.487953 -0.859659 
25.835110 -52.612277 -27.674965 0.655322 -0.393906 -0.644509 
30.133130 -66.445681 -43.516962 -0.439484 -0.894634 0.080527 
33.084845 -43.518392 -27.306685 -0.782237 0.027706 -0.622364 
42.409875 -24.649112 -52.974503 0.710212 0.417099 0.567122 
29.491250 -46.343408 -83.586519 0.808202 0.576053 0.122366 
32.048695 -61.369276 -34.677852 -0.183344 -0.970616 -0.155851 
34.547055 -55.414338 -34.215786 -0.914125 0.106840 -0.391102 
40.842325 -52.953040 -47.592690 0.210209 -0.351955 -0.912107 
20.890690 -65.062958 -22.158065 0.087075 -0.288004 0.953662 
34.597195 -28.441071 -84.640871 0.322613 -0.098920 0.941348 
29.866760 -57.190238 -67.906267 -0.872833 -0.207072 0.441909 
31.054255 -64.117944 -50.067892 -0.225253 -0.900507 0.371953 
32.604300 -53.861253 -28.226822 -0.208602 -0.281543 -0.936600 
31.286640 -58.667443 -29.025252 0.152505 -0.784953 0.600493 
28.424460 -64.219693 -49.841156 -0.859420 0.449904 -0.242864 
20.246135 -57.568124 -24.824331 -0.899348 0.430706 -0.075274 
39.726030 -25.615087 -47.262637 0.246028 0.936746 -0.248953 
33.411520 -57.119302 -65.513676 0.930273 0.242751 -0.275073 
38.939655 -57.460232 -56.286043 0.516233 -0.826989 -0.222693 
35.635985 -57.774355 -40.093613 0.888761 -0.392972 0.235961 
37.950720 -26.232359 -44.932192 -0.222082 -0.972534 0.069692 
31.072430 -56.311759 -71.164351 0.999214 0.002831 0.039532 
31.334800 -60.318669 -62.632433 -0.076512 -0.978469 -0.191688 
27.703770 -57.906013 -58.043209 -0.639351 0.679249 0.360349 
29.417600 -31.050186 -29.166430 0.987613 0.037673 -0.152319 
20.014530 -60.427387 -21.854515 -0.068834 0.268136 0.960919 
41.929120 -23.967533 -56.324865 -0.429852 -0.870078 -0.241230 
33.257565 -45.531957 -23.888781 0.755115 -0.431519 0.493552 
38.987505 -55.133174 -51.650423 0.208585 0.973248 0.096331 
41.411985 -47.194452 -47.199355 -0.868444 0.153729 -0.471352 
31.758080 -38.414948 -88.085205 -0.858313 0.301325 0.415334 
34.301550 -34.880817 -32.416852 0.298009 -0.855306 -0.423841 
43.744590 -25.034561 -59.962157 -0.395478 -0.836423 -0.379465 
39.771875 -54.486229 -42.366804 0.777537 -0.619870 -0.105819 
41.877870 -22.096827 -57.925733 -0.113437 0.767907 -0.630438 
33.705475 -48.599022 -80.636225 0.600286 -0.736558 -0.311671 
31.372315 -26.250989 -34.238283 0.653832 0.414629 0.632919 
19.900430 -66.514756 -25.006859 -0.356943 -0.850093 -0.387212 
29.315030 -57.248693 -70.537896 -0.851968 -0.523392 -0.014498 
35.246810 -33.446982 -31.671708 0.838430 -0.120244 0.531580 
28.848415 -60.605011 -58.377533 -0.167042 -0.889099 -0.426146 
28.036520 -55.920039 -29.150359 -0.305812 0.929448 -0.206412 
32.548240 -60.086306 -62.601921 0.351491 -0.935069 0.045826 
30.152685 -64.618751 -42.467295 -0.205177 0.976604 -0.064393 
30.437345 -64.934838 -37.615580 0.850893 0.135592 0.507539 
31.050110 -64.612924 -39.576423 0.967919 0.201257 0.150429 
28.512505 -27.847084 -33.379147 -0.753027 -0.181712 -0.632400 
29.333935 -56.892212 -29.361461 0.447348 -0.191715 -0.873570 
30.681695 -58.928314 -33.970177 -0.187862 0.965194 -0.181959 
24.510555 -65.409446 -29.621077 -0.808666 -0.091183 -0.581158 
31.150915 -48.335411 -80.596995 -0.867321 -0.319621 0.381572 
30.471270 -57.594626 -29.345252 -0.214431 0.505006 0.836055 
37.322695 -27.039298 -42.826917 -0.145296 -0.899322 -0.412442 
38.126945 -56.018748 -41.345868 0.129249 -0.569058 -0.812076 
45.040205 -39.330217 -55.585659 0.324791 -0.687440 -0.649567 
28.436215 -57.944797 -62.580868 -0.647737 0.338910 -0.682332 
34.902830 -25.440580 -38.124394 0.210385 0.797984 0.564765 
37.791825 -54.337394 -39.587034 -0.446449 0.725161 0.524238 
42.047110 -21.725715 -55.741930 0.279111 0.886561 0.368926 
31.071400 -61.668700 -52.008944 -0.366188 0.830278 -0.420173 
29.017200 -39.253915 -26.383467 -0.201744 -0.399391 -0.894308 
32.175375 -36.642629 -29.918670 -0.337518 -0.372393 -0.864526 
25.811970 -61.295252 -27.074407 0.568105 -0.047049 0.821610 
40.482395 -27.158603 -46.316659 0.796205 -0.248254 0.551749 
34.200995 -42.470876 -83.630824 0.749272 -0.067307 0.658834 
34.409390 -59.347214 -49.284658 -0.469588 -0.145205 -0.870863 
35.766145 -53.503799 -36.510276 -0.683110 0.554177 -0.475655 
30.261570 -63.103740 -51.204620 -0.969949 -0.207631 -0.126841 
33.009515 -37.016630 -89.596033 -0.301684 -0.201024 -0.931974 
22.883945 -67.222932 -23.588384 0.234903 -0.669420 0.704768 
35.699370 -55.730929 -36.532089 0.052847 -0.630784 -0.774157 
24.251805 -67.228616 -27.992748 -0.197623 -0.862225 -0.466384 
31.737830 -50.844623 -73.868495 0.782135 0.267268 0.562878 
31.122795 -65.005687 -43.428840 0.769523 0.611749 -0.183297 
37.627440 -57.463052 -49.753811 -0.515340 -0.327077 -0.792115 
32.051140 -55.489321 -25.335897 0.396832 -0.227484 0.889256 
31.136070 -36.748556 -26.700568 -0.665174 0.101497 0.739758 
30.439370 -55.151051 -74.268859 0.193227 -0.555767 -0.808571 
19.232150 -60.912417 -26.710538 -0.244171 0.939243 -0.241252 
40.679570 -53.607453 -61.036719 0.359582 -0.878922 -0.313362 
28.866430 -48.995340 -22.485388 0.125847 -0.772243 0.622738 
35.508670 -37.741300 -29.506996 0.701128 0.707698 0.087085 
32.992670 -33.497774 -30.008648 -0.109630 0.811956 0.573331 
21.470980 -56.335161 -24.302367 -0.308747 0.507998 0.804123 
33.816115 -30.127545 -90.607010 -0.788997 0.613429 0.034460 
34.137510 -31.753824 -89.996847 0.108532 -0.424651 0.898828 
28.047545 -41.285051 -23.758225 -0.973030 -0.196641 -0.120603 
17.865550 -62.676607 -24.163249 -0.858312 0.468566 0.209157 
36.041250 -39.440739 -28.855247 0.682060 0.133693 0.718972 
39.028850 -56.112399 -40.320874 0.589002 -0.752669 0.294222 
38.273255 -56.862861 -47.742829 0.415189 0.233108 0.879363 
31.926530 -49.835901 -75.325659 0.963787 0.238346 0.119606 
23.942255 -63.350487 -24.303448 0.842823 -0.087226 0.531075 
34.437430 -46.383662 -79.045595 -0.554852 0.826861 0.091876 
39.858640 -52.399017 -58.471413 -0.843046 0.322190 -0.430658 
32.616055 -49.560855 -79.619326 0.595731 -0.799096 0.080932 
34.677550 -37.602817 -30.602616 0.185644 0.548484 -0.815292 
31.841380 -60.382804 -44.575802 -0.543166 -0.598072 -0.589305 
33.624075 -60.979180 -34.324383 0.420379 -0.520056 0.743521 
33.760035 -40.248816 -88.746691 0.851060 -0.163466 -0.498974 
38.988655 -44.337672 -80.110766 0.793780 0.522297 0.311639 
44.538810 -40.751652 -52.891609 -0.596821 -0.637529 -0.487197 
27.029975 -61.181814 -35.785880 -0.994698 0.058934 -0.084279 
27.379120 -62.713099 -34.214890 -0.763901 -0.586015 -0.270261 
34.987305 -43.901329 -27.071944 0.732485 -0.670029 0.120528 
28.845895 -43.465780 -21.186028 -0.895512 -0.208001 0.393439 
30.969755 -58.835848 -41.623100 0.580855 0.532992 0.615246 
30.706945 -59.549660 -40.510483 0.879010 0.374510 0.295100 
33.979000 -27.621367 -35.845322 -0.506032 0.673635 0.538654 
44.162425 -43.913625 -48.423681 0.732578 -0.160951 0.661381 
29.909440 -62.097461 -36.843825 0.761070 -0.645074 0.068212 
31.672980 -42.461122 -83.096673 -0.097586 0.365070 0.925851 
41.481290 -24.508008 -53.831932 -0.773926 0.620817 -0.124999 
19.657435 -61.459187 -23.988233 -0.808874 0.566664 -0.156892 
34.797055 -58.533036 -47.512016 0.090004 0.381503 0.919976 
31.054125 -56.212059 -72.551520 0.745357 -0.573851 -0.339322 
35.759470 -55.756713 -32.592901 0.927689 -0.246723 0.280217 
33.346220 -36.779291 -87.689654 0.261595 0.255086 0.930860 
20.307325 -63.652757 -27.045098 0.487828 -0.083329 -0.868953 
29.008520 -59.710035 -31.860006 -0.422524 0.905973 -0.026193 
42.213200 -49.777600 -60.789472 0.592075 0.399506 0.699887 
28.371755 -35.716057 -26.505653 -0.974522 0.075557 0.211181 
39.736120 -27.284050 -47.560395 -0.380349 -0.840076 -0.386791 
41.650750 -51.051197 -57.255745 0.734241 0.647585 -0.203774 
31.496155 -43.713450 -83.246794 0.206040 -0.656940 0.725243 
27.472245 -30.920671 -28.968099 -0.960639 0.010872 -0.277586 
21.745190 -66.377519 -26.780395 -0.410627 -0.345615 -0.843763 
34.986215 -26.491637 -41.249848 -0.706542 -0.258604 -0.658728 
29.592180 -43.806750 -20.697212 0.285699 0.271253 0.919129 
28.216310 -65.799099 -35.721127 -0.014823 -0.991364 0.130301 
33.248505 -57.756913 -30.202386 -0.029477 -0.725312 -0.687788 
28.452310 -58.688751 -29.273436 0.053825 0.477275 0.877104 
30.211415 -26.484246 -34.334544 -0.273194 0.901328 0.336113 
38.520365 -53.171236 -43.907331 -0.874978 0.294220 -0.384511 
30.825540 -55.544505 -70.239810 0.353137 0.920945 0.164788 
40.874075 -25.869769 -53.837832 -0.616607 -0.044968 -0.785986 
32.459715 -36.831789 -26.578456 0.485469 0.403879 0.775372 
21.702595 -62.012986 -24.310029 -0.116948 0.076102 -0.990218 
30.659605 -52.890889 -72.266016 0.340118 0.412800 0.844936 
38.974365 -57.674776 -49.009807 0.704008 -0.705898 0.077978 
31.184880 -59.440250 -63.743769 -0.404934 -0.558777 -0.723738 
29.758750 -41.508556 -23.134590 0.997517 0.067640 0.019589 
32.199995 -61.378369 -48.968299 0.941180 0.333598 0.053772 
29.894075 -63.374665 -55.606277 -0.571843 -0.805969 -0.152999 
36.672760 -50.634685 -35.376031 -0.716398 0.478903 -0.507372 
35.254695 -59.548384 -39.831071 0.620575 -0.589687 -0.516871 
39.509755 -53.351626 -46.458179 -0.894958 0.232300 -0.380902 
42.205580 -26.078876 -53.694655 0.356730 -0.925622 -0.126366 
23.740600 -61.178261 -25.982502 0.352151 -0.916386 -0.190334 
28.421385 -30.850795 -27.814383 -0.343512 0.541746 0.767144 
33.665815 -28.300295 -84.993269 -0.668644 -0.638386 0.381286 
37.213330 -46.096322 -80.904745 0.077504 -0.191629 -0.978403 
34.770720 -57.391085 -48.438267 -0.699000 0.698601 0.152828 
29.656055 -65.016383 -43.156628 -0.945396 0.297836 0.132360 
34.053575 -36.975974 -88.454352 0.998825 -0.046841 -0.012435 
33.317230 -58.336410 -62.428032 0.927324 -0.006169 0.374208 
29.608480 -65.429417 -50.128576 0.825161 -0.543837 -0.152807 
22.028235 -64.879319 -26.142933 -0.006520 0.696083 -0.717931 
33.938725 -59.818755 -37.103029 -0.788699 0.299806 -0.536721 
30.294905 -59.378697 -32.119558 0.376808 0.713543 0.590654 
36.658405 -50.915759 -34.027003 -0.471653 0.450628 0.757943 
31.329065 -35.070915 -29.991091 -0.902693 0.241179 -0.356340 
33.903170 -48.832315 -27.603960 -0.407628 0.565210 0.717201 
45.458050 -40.743953 -51.866227 0.943300 0.270333 0.192628 
29.943430 -61.597520 -33.838415 0.976421 0.095365 0.193670 
29.372995 -59.933662 -60.466428 0.403348 -0.859870 0.312945 
33.696940 -43.398726 -84.647377 0.175440 -0.973429 -0.147165 
29.869595 -59.136987 -58.116425 0.932011 0.261868 -0.250560 
28.536305 -60.694163 -42.867344 -0.926530 0.196483 -0.320837 
27.432995 -60.626891 -33.778081 -0.752528 0.648961 0.112031 
38.611375 -52.218428 -57.002041 -0.716919 0.694632 0.059272 
35.886545 -56.803637 -49.727953 -0.259604 0.453352 -0.852689 
41.342335 -52.273998 -53.374939 0.023363 -0.130340 0.991194 
35.983030 -26.510039 -38.757160 0.870733 -0.164395 0.463464 
31.620580 -54.788948 -27.044063 -0.476222 0.551691 -0.684726 
20.932420 -58.113530 -26.498333 -0.236954 -0.343003 -0.908957 
28.426350 -44.988551 -83.572783 -0.244381 0.600722 0.761190 
28.881725 -63.723316 -30.591554 0.827955 -0.514917 0.222151 
29.518605 -60.678005 -55.148530 -0.551746 0.274040 0.787705 
40.075770 -51.117226 -60.216325 -0.513776 0.792572 0.328428 
36.015250 -56.487779 -47.825083 -0.314833 0.858698 0.404373 
30.494250 -60.487824 -32.373084 0.622198 -0.622380 0.474881 
19.391325 -61.964358 -28.740109 0.445973 0.369424 -0.815251 
27.043115 -66.274071 -29.153736 0.524208 -0.851434 -0.016319 
33.692905 -57.133477 -28.432635 0.263439 0.148419 0.953190 
44.827500 -42.552210 -51.630211 0.066219 -0.697772 -0.713253 
33.663915 -41.347392 -84.154396 -0.062287 0.934021 0.351747 
33.260325 -38.734953 -26.733205 -0.038790 -0.641903 0.765804 
33.966885 -33.742452 -90.787067 0.908219 -0.355892 0.220180 
30.989790 -58.861837 -43.939044 -0.336399 0.695502 -0.634911 
35.787175 -28.939011 -86.787281 0.664220 -0.617653 0.421088 
31.661115 -64.595124 -53.424782 0.256305 -0.932878 -0.253072 
34.512960 -62.103228 -47.350114 -0.019728 -0.800882 -0.598497 
24.389980 -53.169082 -28.143013 0.033856 0.008364 -0.999392 
32.218505 -39.031031 -27.293759 -0.563963 -0.821792 0.081263 
31.928785 -40.300295 -88.822067 -0.563896 -0.556983 -0.609747 
38.022535 -54.205159 -41.442541 -0.770325 0.247151 -0.587805 
25.581560 -46.341571 -23.297369 0.117861 0.925894 0.358926 
29.120790 -35.363374 -28.072415 -0.329793 -0.370744 -0.868208 
32.975910 -52.034820 -27.308603 -0.569882 0.566724 0.595028 
35.456940 -41.091603 -27.979128 0.462576 0.408536 0.786843 
28.788620 -30.036149 -30.514596 0.121577 -0.560537 -0.819156 
32.175680 -46.378828 -82.136606 0.228032 0.864322 -0.448274 
28.733600 -62.134745 -42.777537 -0.763335 -0.626595 -0.157161 
35.598875 -54.564367 -35.081367 -0.204232 0.802586 0.560486 
38.973990 -25.818750 -42.974990 0.951386 -0.244826 0.186885 
37.768785 -25.278232 -41.285994 0.497331 0.699080 0.513759 
22.714270 -57.923775 -25.649151 0.760262 -0.624281 -0.179653 
34.892615 -59.813441 -35.684600 0.413288 0.758478 0.503890 
38.111700 -24.160698 -46.653888 -0.010319 0.929277 -0.369239 
41.600665 -51.794734 -60.552215 0.991748 -0.101304 0.078577 
34.261755 -42.116245 -86.748851 0.784940 -0.490144 -0.378982 
29.661280 -52.168847 -74.813405 -0.861025 -0.231615 -0.452758 
35.922835 -31.065096 -33.835828 0.948346 0.190904 0.253368 
28.434765 -36.762078 -26.687886 -0.804338 -0.108542 -0.584174 
23.828060 -55.369206 -27.673296 0.378940 -0.479837 -0.791303 
41.900705 -48.079397 -45.472251 -0.015928 0.428890 0.903216 
26.391525 -48.882976 -27.528947 0.181123 0.337517 -0.923730 
28.320585 -63.874631 -32.663633 0.313552 -0.900361 -0.301722 
40.209240 -51.217780 -57.046142 -0.526780 0.849711 0.022254 
35.727530 -46.390061 -77.963859 -0.068259 0.305558 0.949724 
37.767855 -57.539288 -55.145566 -0.579946 -0.812524 -0.058882 
29.558145 -46.182897 -24.316202 -0.177436 0.617921 -0.765957 
23.259415 -61.920639 -26.856061 -0.716395 0.226992 -0.659737 
32.495670 -56.797856 -63.568706 -0.077274 0.948635 0.306789 
37.950220 -50.883187 -37.331239 0.259835 -0.297965 -0.918533 
32.337490 -49.071118 -81.217831 0.018958 -0.888551 -0.458387 
34.340345 -54.885618 -30.399030 0.104079 0.913973 0.392201 
30.894335 -65.952338 -43.523928 0.793631 -0.599412 -0.104187 
40.188090 -52.501183 -45.455776 0.249184 0.892388 0.376233 
24.830460 -60.843579 -26.824771 -0.116661 0.877423 0.465316 
29.045910 -58.493649 -31.269026 -0.130845 0.176052 -0.975646 
31.524085 -60.049530 -48.264996 0.460267 0.880225 -0.115582 
28.716920 -47.440755 -84.124626 0.192766 -0.512069 -0.837034 
24.297140 -54.095065 -25.225711 0.357436 -0.232680 0.904488 
27.628250 -63.489897 -28.740821 0.482295 0.308583 0.819859 
40.505205 -53.543543 -58.261120 0.067481 -0.971829 -0.225818 
33.489695 -33.533524 -32.950157 -0.793496 -0.018313 -0.608300 
29.917990 -48.688156 -77.989292 -0.946290 0.305181 -0.106772 
30.497990 -60.190618 -43.385398 -0.102311 0.739556 -0.665274 
41.380625 -53.843846 -54.999374 0.447185 -0.868214 0.215013 
37.624140 -45.821169 -79.131894 0.651520 -0.384735 0.653836 
21.965765 -63.219303 -24.042273 0.096007 0.821229 -0.562464 
32.089715 -33.260905 -91.289995 -0.890362 0.210851 -0.403482 
42.590460 -45.285124 -48.280599 -0.661616 0.548403 0.511389 
38.437515 -54.744591 -55.491489 -0.141487 0.780080 0.609473 
30.647055 -59.732735 -35.214951 -0.607537 0.240620 -0.756968 
35.085465 -28.043257 -89.186536 -0.126846 0.845727 -0.518320 
30.430900 -44.752768 -84.938038 0.504325 -0.749607 -0.428655 
26.361385 -65.410784 -31.609534 0.098811 -0.981822 -0.162058 
41.830820 -51.016567 -62.706689 0.563540 -0.284053 -0.775717 
35.338535 -28.333914 -37.385335 0.887847 -0.329629 -0.321049 
43.298575 -42.320795 -50.497619 -0.756011 0.074579 -0.650296 
35.126600 -30.948569 -32.700481 0.273741 0.612655 0.741431 
34.974495 -56.774820 -32.963326 0.196585 -0.971005 -0.136026 
35.780015 -47.759053 -79.577612 0.567569 -0.522578 -0.636221 
33.900615 -54.997172 -31.624160 -0.679888 0.615337 -0.398889 
34.199415 -51.243217 -27.909285 0.916314 -0.185172 0.355076 
28.047180 -63.317105 -35.795842 -0.052935 0.984797 -0.165448 
19.362715 -61.726389 -22.128941 -0.850450 0.147415 0.504978 
33.563765 -50.597171 -28.739204 -0.491175 0.200030 -0.847782 
29.286940 -60.931332 -29.553279 0.397647 0.371670 0.838891 
29.381215 -58.418947 -57.207581 0.443501 0.812322 0.378734 
37.619745 -51.947329 -35.792011 0.636729 -0.496969 -0.589575 
30.143080 -50.124237 -73.432421 -0.334014 0.699524 0.631744 
43.572610 -46.546846 -48.022774 0.910264 -0.209113 0.357340 
32.211985 -56.626193 -30.078047 -0.396610 0.900052 -0.180571 
43.835445 -41.436981 -49.708475 -0.271304 0.767299 0.581073 
30.038815 -28.180105 -33.743998 0.653022 -0.756467 0.036334 
26.412980 -48.211054 -24.150170 -0.076172 -0.255967 0.963680 
21.757925 -61.577045 -23.021085 0.737594 0.405737 0.539752 
33.712930 -38.123707 -30.338050 -0.552431 -0.352634 -0.755294 
28.967815 -43.690497 -22.756565 -0.253563 -0.705567 -0.661726 
27.226625 -65.195437 -27.977152 0.756454 -0.292308 0.585092 
27.727460 -45.041041 -85.196811 -0.807059 -0.059657 -0.587450 
25.829750 -46.182238 -25.963198 0.253746 0.866525 -0.429823 
28.644610 -66.363124 -52.843961 -0.396121 -0.910058 -0.121995 
32.141720 -62.281042 -53.705107 0.782203 0.622701 -0.020038 
35.081055 -27.411239 -39.457048 0.113102 -0.959166 -0.259244 
33.931155 -40.151546 -86.620397 0.599051 0.627735 0.497078 
29.718340 -61.489573 -48.189814 -0.957078 0.078730 -0.278933 
26.633695 -57.485848 -30.129033 -0.283248 0.067522 -0.956667 
27.591165 -49.680779 -26.323854 0.776066 -0.523905 -0.351062 
31.339335 -54.833100 -25.839381 -0.610435 0.433911 0.662639 
40.581785 -23.737955 -51.849107 -0.213327 0.960659 -0.177839 
30.164525 -49.522181 -79.331996 -0.813478 -0.118878 -0.569316 
33.398595 -61.570361 -45.953939 -0.877427 -0.401349 -0.262756 
22.096525 -55.934770 -27.428478 -0.530420 0.157801 -0.832919 
26.099530 -65.326443 -33.093435 -0.547361 -0.792683 -0.268422 
34.688185 -40.065946 -29.095989 -0.923587 -0.056337 0.379228 
35.458715 -60.782480 -36.127513 0.898836 -0.304125 0.315597 
32.276125 -62.865745 -55.203369 0.935010 -0.112840 -0.336189 
35.742800 -58.992422 -48.772255 0.679982 -0.660083 -0.319241 
38.517760 -55.184654 -38.921107 0.324827 0.210932 0.921952 
30.982065 -26.369908 -35.815476 0.012006 -0.331483 -0.943385 
29.989010 -60.023346 -46.878044 -0.451268 0.848518 -0.276360 
31.110755 -37.221312 -28.292050 -0.803243 -0.469004 -0.367200 
39.821295 -52.915217 -55.281677 -0.563440 0.013633 0.826045 
18.915595 -63.438064 -22.634981 -0.664745 -0.074351 0.743362 
25.722660 -63.153797 -31.315078 -0.554161 0.822999 -0.124810 
33.551660 -61.741841 -43.371286 0.105963 -0.748062 0.655115 
29.040400 -65.360190 -49.292086 -0.393415 -0.910314 0.128658 
30.558175 -64.538308 -52.669812 -0.816654 -0.544524 0.191233 
38.888125 -52.226467 -42.347670 -0.263133 0.940211 0.216252 
23.673885 -64.178551 -26.302083 -0.131712 0.769235 -0.625244 
34.478235 -57.444316 -39.718016 -0.561358 0.572988 0.597128 
31.315315 -58.245999 -65.482345 -0.873051 -0.486324 0.035654 
18.589375 -64.643197 -28.058033 -0.625259 -0.272945 -0.731130 
25.968855 -57.558137 -27.985406 -0.430518 0.853794 0.292728 
34.951770 -48.153474 -29.663521 0.550954 -0.046568 -0.833235 
23.682465 -52.722079 -25.639602 -0.553579 0.567904 0.609127 
36.876550 -24.752563 -42.629751 -0.729037 0.593743 -0.340550 
28.335210 -64.815633 -38.280812 -0.760665 -0.081640 -0.643991 
29.381735 -55.576989 -73.373688 -0.619144 -0.568513 -0.541714 
24.393430 -58.914493 -26.246793 0.041832 0.730542 0.681585 
33.712370 -59.403980 -36.009631 0.101527 0.974780 -0.198737 
35.352460 -28.344799 -35.426734 0.727453 0.473119 0.496961 
26.943075 -47.525695 -25.997499 0.342614 0.744236 -0.573349 
26.206405 -52.554503 -25.930383 0.671088 -0.615918 0.412657 
32.401395 -43.985827 -23.468616 0.270321 0.736590 0.619969 
28.969000 -60.113350 -33.468380 0.289828 0.950449 0.112453 
33.202955 -33.368643 -92.106727 0.310376 -0.289989 -0.905303 
31.959765 -58.499058 -61.255553 0.373582 0.377827 0.847162 
29.069120 -36.114382 -25.466997 -0.196078 0.412734 0.889497 
36.546715 -44.909694 -79.476634 -0.205480 0.951546 0.228776 
25.271160 -47.864462 -24.111699 -0.843354 -0.374678 0.385190 
30.071980 -63.932778 -39.462260 -0.024795 0.965052 -0.260882 
29.804240 -46.912599 -24.230068 0.302715 -0.057076 -0.951370 
29.609220 -46.822017 -21.354634 -0.565926 -0.091237 0.819393 
30.033480 -39.077393 -25.948200 0.576537 -0.376076 -0.725377 
23.030520 -62.109963 -23.709962 0.799674 -0.495719 0.338799 
30.462745 -57.943113 -70.589503 0.182456 -0.935868 -0.301431 
41.201460 -49.415732 -46.580865 -0.309663 0.360861 -0.879709 
41.138410 -25.137845 -51.449380 0.904681 -0.118907 0.409162 
20.863035 -61.579040 -24.160782 0.460513 0.301642 -0.834829 
39.287215 -56.234442 -53.875892 0.991431 -0.072508 0.108664 
40.010090 -54.745677 -45.825855 -0.146257 -0.931364 -0.333422 
30.140305 -42.990610 -86.061928 -0.326918 0.550426 -0.768215 
25.000875 -49.908773 -27.033737 -0.781480 0.474360 -0.405303 
29.138595 -31.117901 -27.896488 0.457838 0.560588 0.690019 
31.211750 -46.467498 -21.522085 0.519855 -0.246851 0.817811 
27.871435 -58.200328 -30.140809 -0.410963 0.911622 -0.007405 
42.581635 -23.647650 -55.997575 0.867941 -0.451736 0.206429 
32.145185 -64.303595 -51.306069 0.732708 -0.645991 0.214091 
24.201395 -59.049103 -27.679922 -0.622247 0.256386 -0.739645 
38.951185 -24.923711 -45.404036 0.861345 0.465102 0.204363 
33.664965 -27.711540 -37.224551 -0.966890 -0.122850 -0.223676 
29.038370 -64.996662 -45.898168 -0.964939 -0.140952 0.221418 
32.114310 -46.303611 -24.839886 0.026159 -0.758972 -0.650598 
27.161955 -50.273635 -24.643359 0.187184 -0.627658 0.755650 
30.446650 -44.380712 -21.703667 0.594756 0.773284 0.219765 
30.770740 -56.963367 -26.865811 0.098683 -0.873628 0.476483 
29.995705 -48.279701 -22.689134 0.530112 -0.847168 -0.035870 
42.431690 -52.401795 -54.821499 0.967970 0.071132 0.240777 
24.865990 -47.626228 -20.463834 0.338434 -0.506861 0.792814 
30.867785 -60.892797 -42.551699 0.921644 -0.332333 0.200317 
28.477435 -26.578291 -32.428480 -0.516834 0.834162 0.192504 
44.419005 -38.334979 -55.067886 -0.627993 0.771794 0.099789 
27.248710 -62.047275 -29.757986 -0.383964 0.816459 0.431238 
26.572845 -64.391533 -35.225697 -0.674127 0.385059 -0.630303 
3 268 260 299 
3 384 299 7 
3 291 481 2 
3 230 99 223 
3 67 32 400 
3 315 458 393 
3 501 454 430 
3 463 296 210 
3 196 305 243 
3 134 305 499 
3 226 227 138 
3 227 71 13 
3 251 409 386 
3 274 188 498 
3 338 199 445 
3 248 239 442 
3 471 283 414 
3 377 319 403 
3 367 286 14 
3 83 500 441 
3 402 399 22 
3 378 63 95 
3 162 194 453 
3 238 413 203 
3 415 56 325 
3 263 88 465 
3 478 275 288 
3 115 121 185 
3 276 159 163 
3 317 357 349 
3 255 157 317 
3 192 69 135 
3 88 356 228 
3 300 447 41 
3 279 412 456 
3 166 343 20 
3 31 203 173 
3 473 180 455 
3 322 313 294 
3 194 162 347 
3 475 264 127 
3 314 495 116 
3 358 407 386 
3 64 393 355 
3 499 305 196 
3 365 372 21 
3 21 44 117 
3 333 485 444 
3 57 309 433 
3 443 489 156 
3 315 393 420 
3 257 455 219 
3 154 402 22 
3 335 142 27 
3 93 77 103 
3 194 3 420 
3 450 486 456 
3 379 173 203 
3 206 308 353 
3 406 280 214 
3 460 376 27 
3 117 44 68 
3 65 233 1 
3 184 297 464 
3 434 281 232 
3 271 32 391 
3 70 448 473 
3 163 257 214 
3 155 44 272 
3 490 246 169 
3 478 288 149 
3 174 168 26 
3 412 279 476 
3 246 74 72 
3 96 306 462 
3 352 265 25 
3 489 295 121 
3 453 24 351 
3 98 311 245 
3 440 255 229 
3 86 225 167 
3 388 147 96 
3 34 245 108 
3 118 271 454 
3 357 317 429 
3 353 421 206 
3 431 49 144 
3 427 192 368 
3 139 452 376 
3 11 462 60 
3 49 72 74 
3 464 297 366 
3 10 321 262 
3 78 450 19 
3 267 291 2 
3 46 130 344 
3 343 410 20 
3 314 382 495 
3 354 137 406 
3 475 289 145 
3 122 405 367 
3 98 245 32 
3 66 259 296 
3 381 331 239 
3 58 104 133 
3 241 259 421 
3 224 278 31 
3 141 226 389 
3 10 97 321 
3 491 222 411 
3 233 30 1 
3 124 366 276 
3 116 265 361 
3 208 346 302 
3 257 163 473 
3 12 268 213 
3 68 44 155 
3 385 141 463 
3 338 54 55 
3 261 96 462 
3 7 260 324 
3 455 257 473 
3 395 250 94 
3 413 438 203 
3 303 218 224 
3 109 375 368 
3 299 446 83 
3 381 4 437 
3 49 126 413 
3 276 280 137 
3 11 311 462 
3 328 128 125 
3 59 461 5 
3 254 277 426 
3 268 299 191 
3 189 183 316 
3 321 97 236 
3 92 417 359 
3 249 462 306 
3 266 390 308 
3 282 197 39 
3 498 20 274 
3 4 284 374 
3 124 137 152 
3 457 300 388 
3 93 103 442 
3 142 359 424 
3 73 316 154 
3 405 17 110 
3 2 20 498 
3 146 344 375 
3 75 136 81 
3 119 113 290 
3 62 441 67 
3 82 453 351 
3 180 473 152 
3 48 383 362 
3 236 361 321 
3 133 104 471 
3 291 263 465 
3 220 255 476 
3 161 195 231 
3 67 98 32 
3 492 123 283 
3 137 180 152 
3 353 308 337 
3 304 341 399 
3 442 428 29 
3 341 217 399 
3 136 153 81 
3 244 108 245 
3 156 121 115 
3 262 392 91 
3 266 318 390 
3 260 179 449 
3 60 18 36 
3 204 234 117 
3 95 160 363 
3 351 487 158 
3 201 444 209 
3 478 149 102 
3 361 439 116 
3 371 76 288 
3 379 303 224 
3 256 232 322 
3 355 393 458 
3 289 127 277 
3 101 160 477 
3 160 95 63 
3 332 292 13 
3 371 102 76 
3 75 497 252 
3 456 486 279 
3 2 498 188 
3 37 282 164 
3 435 445 199 
3 191 430 391 
3 330 66 296 
3 249 60 462 
3 493 189 73 
3 250 488 94 
3 280 163 214 
3 49 413 238 
3 39 366 448 
3 254 168 289 
3 237 30 35 
3 240 350 301 
3 166 133 343 
3 53 377 500 
3 312 236 95 
3 248 442 103 
3 227 226 66 
3 235 397 46 
3 22 217 73 
3 456 472 290 
3 392 97 10 
3 134 394 409 
3 107 140 234 
3 70 297 184 
3 23 172 259 
3 171 76 358 
3 299 83 191 
3 51 453 269 
3 466 362 383 
3 288 275 371 
3 448 366 124 
3 266 253 318 
3 302 14 286 
3 30 237 1 
3 476 349 412 
3 71 6 13 
3 210 385 463 
3 346 110 17 
3 198 315 348 
3 38 197 37 
3 96 261 388 
3 258 272 396 
3 162 453 82 
3 135 318 15 
3 461 169 342 
3 6 389 43 
3 312 439 361 
3 111 88 270 
3 468 118 454 
3 327 251 80 
3 202 414 228 
3 439 312 387 
3 108 244 36 
3 344 130 375 
3 333 444 285 
3 382 265 495 
3 428 442 239 
3 413 336 438 
3 49 99 72 
3 319 323 403 
3 121 295 185 
3 30 233 219 
3 350 300 457 
3 327 305 251 
3 8 171 9 
3 218 336 329 
3 275 338 445 
3 55 132 199 
3 202 356 471 
3 352 221 392 
3 358 8 407 
3 213 191 391 
3 378 221 25 
3 182 285 84 
3 164 282 184 
3 102 149 120 
3 389 6 141 
3 259 241 296 
3 440 229 112 
3 332 43 151 
3 174 484 168 
3 26 200 176 
3 156 105 418 
3 282 448 184 
3 209 153 136 
3 478 102 175 
3 297 70 159 
3 160 101 363 
3 51 269 488 
3 474 171 8 
3 66 23 259 
3 382 439 63 
3 128 479 125 
3 418 105 298 
3 305 327 243 
3 177 1 237 
3 304 451 402 
3 416 479 390 
3 487 162 205 
3 408 272 373 
3 202 228 356 
3 376 349 27 
3 15 318 416 
3 230 72 99 
3 78 425 183 
3 258 369 326 
3 344 69 46 
3 429 157 45 
3 56 377 140 
3 243 134 499 
3 82 351 158 
3 240 301 323 
3 355 395 181 
3 148 212 396 
3 493 78 19 
3 489 121 156 
3 116 439 314 
3 225 86 376 
3 285 182 57 
3 278 223 31 
3 446 365 117 
3 207 313 434 
3 15 109 135 
3 378 95 236 
3 294 207 428 
3 211 150 61 
3 246 72 342 
3 455 354 219 
3 150 440 61 
3 400 501 67 
3 218 438 336 
3 44 21 373 
3 237 368 177 
3 317 157 429 
3 292 332 151 
3 140 53 446 
3 283 270 492 
3 428 77 294 
3 174 85 484 
3 429 114 335 
3 437 374 201 
3 408 326 369 
3 112 179 61 
3 416 390 375 
3 51 250 198 
3 12 90 211 
3 345 136 75 
3 451 304 399 
3 32 245 360 
3 165 320 404 
3 247 470 270 
3 4 374 437 
3 454 501 400 
3 74 246 490 
3 219 233 257 
3 87 326 155 
3 267 263 291 
3 252 360 34 
3 256 93 434 
3 216 101 281 
3 481 58 166 
3 199 338 55 
3 274 40 436 
3 216 281 434 
3 13 292 138 
3 310 18 437 
3 470 247 123 
3 242 383 293 
3 391 430 271 
3 24 348 347 
3 324 220 7 
3 132 161 231 
3 157 255 401 
3 18 381 437 
3 84 165 38 
3 448 152 473 
3 161 287 54 
3 317 349 476 
3 393 64 79 
3 14 302 122 
3 333 285 57 
3 356 88 263 
3 28 123 364 
3 411 28 339 
3 256 294 77 
3 56 150 211 
3 7 220 476 
3 474 76 171 
3 348 51 198 
3 132 55 447 
3 435 231 42 
3 244 311 36 
3 339 131 496 
3 208 148 346 
3 181 173 64 
3 107 472 412 
3 128 328 421 
3 314 439 382 
3 337 128 172 
3 486 119 290 
3 274 410 178 
3 406 380 354 
3 432 287 161 
3 144 74 490 
3 241 353 337 
3 215 187 370 
3 138 389 226 
3 47 464 39 
3 438 303 203 
3 446 53 83 
3 497 75 81 
3 0 43 389 
3 487 351 24 
3 162 82 264 
3 345 422 136 
3 49 238 99 
3 83 441 191 
3 19 113 119 
3 254 200 26 
3 465 88 58 
3 10 91 392 
3 239 248 497 
3 112 229 449 
3 198 458 315 
3 343 188 410 
3 36 11 60 
3 442 29 93 
3 122 367 14 
3 380 406 65 
3 32 186 400 
3 361 265 321 
3 457 388 190 
3 294 256 322 
3 407 251 386 
3 295 118 185 
3 295 489 143 
3 195 54 338 
3 245 311 244 
3 371 445 42 
3 269 194 420 
3 77 331 103 
3 282 37 197 
3 134 409 305 
3 408 373 483 
3 444 485 153 
3 457 301 350 
3 132 231 435 
3 107 150 140 
3 64 355 181 
3 46 65 1 
3 500 403 261 
3 300 89 147 
3 462 98 261 
3 215 468 187 
3 230 223 278 
3 330 296 463 
3 460 491 139 
3 488 269 420 
3 468 215 185 
3 175 195 338 
3 222 482 470 
3 382 378 25 
3 421 353 241 
3 149 474 120 
3 56 140 150 
3 467 139 491 
3 123 59 50 
3 297 159 366 
3 411 470 28 
3 8 9 407 
3 189 423 183 
3 190 301 457 
3 216 313 33 
3 36 311 11 
3 35 427 368 
3 300 147 388 
3 374 284 201 
3 77 428 239 
3 339 467 131 
3 466 242 293 
3 281 170 232 
3 258 87 272 
3 149 288 474 
3 469 364 50 
3 409 394 386 
3 308 128 337 
3 373 21 483 
3 156 418 443 
3 240 89 432 
3 50 5 144 
3 423 189 19 
3 272 398 148 
3 376 460 139 
3 286 367 405 
3 449 179 112 
3 322 232 33 
3 25 265 382 
3 37 307 182 
3 29 428 334 
3 370 443 298 
3 217 341 425 
3 249 306 252 
3 58 111 283 
3 50 364 123 
3 234 372 107 
3 343 267 2 
3 236 312 361 
3 125 479 318 
3 489 443 143 
3 285 320 84 
3 274 178 40 
3 456 412 472 
3 187 186 106 
3 304 402 341 
3 431 342 230 
3 126 49 431 
3 273 372 204 
3 279 486 290 
3 89 240 147 
3 275 445 371 
3 347 348 3 
3 386 171 358 
3 103 331 248 
3 377 56 415 
3 192 135 109 
3 473 163 159 
3 136 422 209 
3 417 339 28 
3 5 342 431 
3 135 344 146 
3 307 37 164 
3 467 411 496 
3 101 216 100 
3 212 208 405 
3 21 372 483 
3 58 88 111 
3 191 441 62 
3 54 287 41 
3 65 46 69 
3 131 467 496 
3 450 113 19 
3 179 260 268 
3 339 92 467 
3 387 477 63 
3 92 339 417 
3 380 65 69 
3 331 381 60 
3 475 426 158 
3 76 102 8 
3 425 316 183 
3 86 349 376 
3 408 398 272 
3 56 211 90 
3 476 255 317 
3 51 348 453 
3 380 427 35 
3 169 482 494 
3 140 446 234 
3 335 357 429 
3 38 165 197 
3 384 7 476 
3 395 94 224 
3 372 273 483 
3 271 106 186 
3 491 424 222 
3 301 403 323 
3 378 382 63 
3 157 401 167 
3 488 420 79 
3 346 17 302 
3 377 415 319 
3 359 335 480 
3 475 254 426 
3 165 84 320 
3 399 402 451 
3 270 470 482 
3 7 299 260 
3 346 398 369 
3 217 22 399 
3 434 313 216 
3 444 153 209 
3 309 182 307 
3 294 313 207 
3 28 364 459 
3 431 230 329 
3 8 358 76 
3 110 212 405 
3 190 261 301 
3 252 34 75 
3 172 421 259 
3 379 94 79 
3 210 241 337 
3 482 222 494 
3 319 325 360 
3 279 290 472 
3 464 16 307 
3 97 378 236 
3 53 500 83 
3 350 161 447 
3 165 404 47 
3 186 32 271 
3 331 60 248 
3 105 115 298 
3 197 47 39 
3 310 345 108 
3 265 352 321 
3 18 60 381 
3 427 380 69 
3 110 346 258 
3 325 56 90 
3 170 33 232 
3 389 138 0 
3 384 372 365 
3 161 54 195 
3 146 318 135 
3 452 225 376 
3 40 178 436 
3 341 316 425 
3 58 133 166 
3 379 79 173 
3 309 419 433 
3 384 446 299 
3 170 477 387 
3 368 192 109 
3 34 108 345 
3 164 184 307 
3 59 492 461 
3 476 279 384 
3 453 348 24 
3 168 484 289 
3 12 211 61 
3 167 150 107 
3 410 188 436 
3 347 487 24 
3 459 359 417 
3 162 264 205 
3 406 214 233 
3 64 173 79 
3 441 500 98 
3 224 181 395 
3 227 330 71 
3 319 252 306 
3 207 434 334 
3 488 79 94 
3 423 119 450 
3 272 87 155 
3 113 456 290 
3 262 321 352 
3 180 137 455 
3 249 248 60 
3 268 191 213 
3 393 79 420 
3 145 254 475 
3 394 9 386 
3 167 225 157 
3 107 372 384 
3 235 362 466 
3 324 260 449 
3 334 428 207 
3 115 185 215 
3 145 484 200 
3 210 23 385 
3 16 404 309 
3 322 33 313 
3 82 158 264 
3 218 329 278 
3 325 391 32 
3 256 77 93 
3 273 204 68 
3 256 434 232 
3 480 114 452 
3 62 430 191 
3 117 234 446 
3 120 474 8 
3 338 478 175 
3 90 12 213 
3 363 52 95 
3 92 480 139 
3 189 493 19 
3 473 159 70 
3 419 485 433 
3 404 320 129 
3 0 292 151 
3 176 200 85 
3 59 5 50 
3 340 133 471 
3 261 190 388 
3 364 469 459 
3 278 329 230 
3 395 355 458 
3 303 438 218 
3 58 283 104 
3 490 169 494 
3 303 379 203 
3 465 58 481 
3 6 71 141 
3 65 406 233 
3 370 106 143 
3 147 240 323 
3 179 12 61 
3 460 142 424 
3 381 239 497 
3 253 125 318 
3 407 9 80 
3 461 482 169 
3 123 492 59 
3 337 172 210 
3 144 490 50 
3 66 330 227 
3 493 425 78 
3 344 135 69 
3 10 262 91 
3 3 194 347 
3 412 167 107 
3 158 487 205 
3 295 143 118 
3 467 92 139 
3 74 144 49 
3 359 469 424 
3 324 449 220 
3 416 318 479 
3 270 88 247 
3 271 118 106 
3 128 390 479 
3 137 124 276 
3 264 475 205 
3 4 81 284 
3 185 118 468 
3 350 447 300 
3 217 425 493 
3 0 138 292 
3 320 444 129 
3 365 446 384 
3 392 221 97 
3 47 16 464 
3 134 243 327 
3 343 133 340 
3 114 480 335 
3 485 333 433 
3 492 482 461 
3 42 445 435 
3 229 220 449 
3 71 463 141 
3 302 286 208 
3 100 170 387 
3 96 323 319 
3 338 275 478 
3 97 221 378 
3 471 414 202 
3 397 293 383 
3 172 23 210 
3 169 246 342 
3 472 107 279 
3 177 397 48 
3 263 267 340 
3 454 400 468 
3 271 430 454 
3 372 234 204 
3 319 360 252 
3 471 104 283 
3 426 127 158 
3 80 9 394 
3 450 78 183 
3 46 397 177 
3 272 148 396 
3 206 421 328 
3 385 226 141 
3 408 369 398 
3 175 371 42 
3 287 432 89 
3 397 383 48 
3 98 500 261 
3 386 9 171 
3 350 432 161 
3 173 181 31 
3 116 495 265 
3 175 42 231 
3 257 233 214 
3 404 16 47 
3 452 45 225 
3 383 242 466 
3 151 43 0 
3 35 30 354 
3 296 241 210 
3 166 20 481 
3 3 315 420 
3 467 491 411 
3 223 99 238 
3 224 218 278 
3 124 152 448 
3 329 126 431 
3 159 276 366 
3 123 247 414 
3 161 132 447 
3 37 182 38 
3 125 253 328 
3 255 440 401 
3 413 126 336 
3 276 163 280 
3 235 1 48 
3 494 222 424 
3 409 251 305 
3 195 175 231 
3 188 343 2 
3 443 370 143 
3 308 390 128 
3 448 282 39 
3 219 354 30 
3 27 349 357 
3 422 437 201 
3 6 43 332 
3 443 418 298 
3 339 496 411 
3 335 359 142 
3 245 34 360 
3 293 235 466 
3 490 469 50 
3 178 410 436 
3 249 497 248 
3 427 69 192 
3 206 253 266 
3 106 118 143 
3 158 205 475 
3 352 25 221 
3 387 312 52 
3 174 26 176 
3 450 183 423 
3 474 288 76 
3 346 148 398 
3 291 465 481 
3 342 72 230 
3 490 494 469 
3 261 403 301 
3 29 334 434 
3 252 497 249 
3 243 499 196 
3 101 52 363 
3 145 289 484 
3 110 258 396 
3 216 33 170 
3 41 447 55 
3 107 384 279 
3 80 394 327 
3 310 36 18 
3 193 408 483 
3 70 184 448 
3 411 222 470 
3 357 335 27 
3 102 371 175 
3 193 326 408 
3 461 342 5 
3 422 201 209 
3 32 360 325 
3 115 215 370 
3 203 31 238 
3 307 184 464 
3 272 44 373 
3 193 483 273 
3 390 146 375 
3 206 328 253 
3 284 81 485 
3 148 208 212 
3 189 316 73 
3 155 193 68 
3 345 310 437 
3 405 208 286 
3 23 66 385 
3 255 220 229 
3 482 492 270 
3 481 20 2 
3 113 450 456 
3 150 167 401 
3 89 300 41 
3 340 356 263 
3 412 86 167 
3 349 86 412 
3 154 316 402 
3 157 225 45 
3 111 270 283 
3 235 293 397 
3 460 424 491 
3 129 419 309 
3 54 41 55 
3 381 497 4 
3 308 206 266 
3 424 469 494 
3 1 177 48 
3 402 316 341 
3 250 395 458 
3 66 226 385 
3 68 193 273 
3 258 326 87 
3 48 362 235 
3 315 3 348 
3 150 401 440 
3 186 468 400 
3 228 414 247 
3 254 26 168 
3 162 487 347 
3 122 17 405 
3 352 392 262 
3 165 47 197 
3 182 84 38 
3 359 459 469 
3 95 52 312 
3 119 423 19 
3 475 127 289 
3 497 81 4 
3 216 170 100 
3 102 120 8 
3 139 480 452 
3 459 417 28 
3 155 326 193 
3 200 484 85 
3 283 123 414 
3 375 109 416 
3 453 194 269 
3 174 176 85 
3 429 45 114 
3 477 160 63 
3 274 20 410 
3 177 130 46 
3 333 57 433 
3 247 88 228 
3 239 331 77 
3 108 36 310 
3 27 142 460 
3 444 320 285 
3 309 57 182 
3 117 68 204 
3 501 62 67 
3 480 92 359 
3 188 274 436 
3 153 485 81 
3 493 73 217 
3 53 140 377 
3 201 284 419 
3 127 264 158 
3 128 421 172 
3 179 268 12 
3 284 485 419 
3 406 137 280 
3 52 101 100 
3 130 177 368 
3 394 134 327 
3 132 435 199 
3 416 109 15 
3 146 390 318 
3 213 391 325 
3 186 187 468 
3 452 114 45 
3 61 440 112 
3 254 145 200 
3 35 354 380 
3 154 22 73 
3 500 377 403 
3 477 170 281 
3 105 156 115 
3 6 332 13 
3 434 93 29 
3 89 41 287 
3 126 329 336 
3 67 441 98 
3 250 51 488 
3 319 415 325 
3 198 250 458 
3 455 137 354 
3 345 437 422 
3 17 122 302 
3 13 138 227 
3 444 201 129 
3 144 5 431 
3 319 306 96 
3 407 80 251 
3 340 267 343 
3 129 201 419 
3 96 147 323 
3 123 28 470 
3 181 224 31 
3 130 368 375 
3 224 94 379 
3 106 370 187 
3 396 212 110 
3 365 21 117 
3 238 31 223 
3 127 426 277 
3 46 1 235 
3 330 463 71 
3 258 346 369 
3 501 430 62 
3 404 129 309 
3 119 486 450 
3 115 370 298 
3 277 254 289 
3 34 345 75 
3 350 240 432 
3 39 464 366 
3 98 462 311 
3 101 477 281 
3 63 439 387 
3 471 356 340 
3 387 52 100 
3 16 309 307 
3 325 90 213 
3 368 237 35 
