ply
format ascii 1.0
comment created by MATLAB plywrite
element vertex 502
property float x
property float y
property float z
property float nx
property float ny
property float nz
element face 1000
property list uchar short vertex_indices
end_header
66.879500 -29.279757 -124.595245 -0.550202 0.807612 0.212229 
63.779090 -63.599361 -109.881482 0.594740 0.054624 0.802060 
55.384740 -44.067996 -39.639297 -0.749133 0.599624 0.281515 
75.127060 -37.674089 -57.186339 0.638478 -0.588592 0.495889 
61.731870 -88.205812 -58.770545 0.796167 0.568636 0.206812 
66.285610 -63.707190 -32.683114 -0.541498 0.833800 0.107508 
70.976380 -32.070743 -129.909395 0.986178 0.067378 -0.151368 
40.229210 -94.108710 -27.377818 0.682568 0.567036 -0.461053 
83.485900 -71.558381 -59.680575 0.857128 -0.514331 0.028213 
85.057130 -65.833108 -65.624295 -0.163398 -0.443827 -0.881090 
79.984100 -68.299207 -84.801177 -0.565354 0.799163 -0.204241 
55.984930 -88.590356 -42.370121 -0.267619 0.958916 0.094129 
44.017350 -103.323432 -25.497454 -0.203607 -0.976009 -0.077136 
69.376490 -33.567607 -128.919615 0.188616 -0.856330 0.480752 
75.538850 -72.987264 -45.409305 0.186489 0.982454 0.002494 
54.571080 -59.018413 -117.487015 -0.788712 0.257293 0.558332 
58.695470 -82.477596 -80.060379 0.861981 0.288129 0.417099 
72.663920 -79.214432 -41.868256 0.426504 -0.484018 0.764081 
57.302560 -87.516712 -53.940600 -0.409025 0.842627 -0.350254 
55.102410 -87.482495 -32.818334 0.348757 -0.928962 0.124091 
57.973850 -41.474003 -41.683526 0.816143 0.336748 0.469586 
50.404930 -91.133310 -32.796624 -0.542699 0.166087 -0.823343 
66.274300 -80.542758 -32.488888 0.757447 -0.424434 -0.496115 
63.738520 -42.917578 -127.570493 -0.914027 0.188277 0.359314 
75.162810 -33.034388 -61.885781 0.365746 0.914793 0.171416 
82.287920 -74.238277 -79.420345 0.821314 -0.566637 -0.066067 
80.768280 -27.893790 -81.595120 -0.966972 0.055263 -0.248819 
48.836270 -82.617154 -29.820418 0.746378 -0.652574 -0.130638 
52.611760 -72.495232 -27.915740 0.016143 0.951488 0.307261 
68.704980 -90.878818 -58.428395 0.441712 -0.891443 0.101091 
61.883980 -67.199797 -106.373153 0.680575 -0.698592 -0.220878 
65.270670 -53.756283 -37.026298 0.923474 0.321915 0.208725 
53.942230 -96.187218 -37.236503 0.815455 -0.514769 -0.264661 
73.560710 -80.803687 -64.121472 -0.230388 0.916372 -0.327390 
57.455600 -92.833337 -44.652437 -0.039831 -0.997419 -0.059734 
59.824530 -67.574688 -108.134628 -0.232008 -0.914032 -0.332744 
54.678740 -88.609071 -46.962072 -0.787489 0.585685 -0.191922 
55.448190 -84.069732 -80.950924 -0.442502 -0.824680 -0.352270 
53.531700 -83.378092 -79.082387 -0.910196 -0.383815 -0.155659 
61.479400 -80.847486 -85.057662 -0.441979 0.841863 -0.309713 
58.803470 -34.902364 -50.579222 -0.043935 0.991369 -0.123520 
67.140010 -86.251792 -50.364502 -0.845882 -0.178134 -0.502745 
78.928120 -78.582528 -52.451112 0.911848 0.138508 0.386457 
69.640710 -29.625671 -125.641707 0.752457 0.630037 0.191995 
56.743880 -90.324453 -34.665231 0.218767 -0.875699 -0.430457 
43.071900 -82.349798 -29.017724 -0.776969 0.629535 -0.002458 
66.578050 -60.426513 -113.094708 0.354147 0.899385 -0.256294 
57.276630 -79.841318 -82.586565 0.169487 0.984954 0.033763 
70.296400 -62.501123 -109.774017 0.197378 -0.648247 0.735403 
69.932690 -60.068648 -39.776355 -0.308466 -0.302617 -0.901816 
61.394750 -68.713609 -28.651998 -0.527334 0.378989 -0.760451 
68.737400 -35.038192 -55.868590 -0.581372 0.810355 -0.073022 
73.159060 -78.891387 -74.935714 -0.979814 0.105785 0.169632 
50.922750 -95.812370 -30.405208 -0.018447 0.912284 0.409143 
69.900380 -82.552426 -52.450975 0.007572 -0.055945 -0.998405 
69.154440 -82.156376 -50.492305 -0.685477 0.720885 0.102209 
48.981700 -100.915756 -25.203865 0.638603 -0.171603 0.750159 
61.125870 -89.256838 -74.477584 0.328522 -0.556998 -0.762776 
58.774420 -54.091096 -32.204512 0.638799 0.419253 0.645107 
61.824910 -67.600989 -26.807465 -0.371349 0.914849 -0.158593 
58.146430 -86.344216 -51.839928 -0.157698 0.978048 -0.136209 
40.803130 -102.536916 -22.697528 -0.315404 -0.790132 0.525559 
48.899470 -94.663625 -37.903757 -0.656949 0.618271 -0.431462 
78.521510 -76.826495 -76.502343 0.725934 -0.682619 0.083973 
70.747030 -47.088773 -46.189775 0.776222 -0.496534 -0.388502 
59.783700 -63.734487 -107.915463 -0.081334 0.900164 0.427890 
64.733120 -38.416574 -129.577152 -0.013842 0.361770 0.932165 
51.418370 -95.449007 -38.608956 -0.004532 0.937291 -0.348519 
56.669580 -90.139826 -32.662356 0.331130 -0.433034 0.838352 
62.425820 -60.657126 -113.435325 -0.509209 0.851067 0.128027 
64.376470 -80.904572 -89.711256 0.558015 -0.773787 -0.299788 
69.285540 -35.464121 -132.533101 0.849061 -0.520433 -0.090805 
71.315110 -63.313562 -36.243362 0.901068 -0.430688 -0.050841 
63.885060 -84.417945 -30.026455 0.528192 -0.678764 -0.510188 
67.230190 -66.418560 -33.823476 -0.031457 -0.751459 -0.659029 
58.857560 -91.579707 -52.757745 0.329284 -0.929345 0.167005 
80.825110 -73.025021 -59.334336 -0.613325 0.130700 0.778942 
67.129380 -87.719211 -58.110503 -0.222279 0.965651 -0.134577 
56.585300 -85.906135 -30.741725 -0.349942 -0.160583 0.922905 
67.893780 -46.313188 -47.375014 -0.372781 -0.556686 -0.742384 
87.247700 -61.553775 -67.588605 0.456510 -0.647827 -0.609851 
61.982100 -90.751245 -59.657129 0.694471 -0.600473 0.396411 
74.112090 -34.189968 -66.537986 -0.690366 -0.043421 -0.722156 
47.446660 -96.953256 -30.386192 -0.519131 0.826929 -0.216083 
55.147260 -86.023618 -74.644104 -0.848530 -0.409184 0.335507 
87.236670 -30.793848 -85.677089 0.911666 0.406237 -0.061931 
44.253960 -86.513364 -25.873310 0.570987 0.005764 0.820939 
66.617450 -87.490804 -33.691362 0.398286 -0.916809 0.028793 
56.053490 -60.177542 -27.979563 -0.571582 0.402116 0.715260 
68.987670 -91.159404 -44.069623 -0.025952 -0.977547 -0.209114 
47.817530 -103.034731 -25.693042 0.343628 -0.895060 0.284231 
83.276470 -67.452663 -85.030330 0.480921 0.762739 -0.432372 
48.766620 -72.721811 -31.415777 -0.906088 0.273564 -0.322748 
68.594170 -88.979245 -56.303683 0.741996 0.340634 0.577417 
66.968700 -46.267833 -43.771638 -0.904251 0.396409 0.158715 
74.354280 -78.774723 -77.515367 -0.316212 -0.412448 -0.854340 
57.899210 -91.370612 -37.587917 0.768453 -0.445990 -0.458883 
77.581790 -72.695302 -83.249359 -0.930349 -0.196710 -0.309445 
52.514150 -93.300277 -35.222909 -0.680379 0.718436 -0.144686 
71.560620 -58.757477 -38.395328 0.878594 0.316372 -0.357744 
74.932140 -79.617302 -69.738745 -0.908918 0.396355 0.129502 
75.914200 -81.960675 -68.795110 -0.277619 -0.953737 0.115386 
81.305850 -76.525438 -59.973610 0.805953 -0.407598 0.429306 
64.362320 -86.259761 -54.426066 0.524036 0.808187 0.268736 
59.818930 -55.296929 -32.810016 0.993859 0.101447 0.044196 
57.070410 -93.832610 -67.103614 0.474937 0.600515 -0.643287 
60.539040 -97.800996 -48.565137 0.410124 -0.893405 0.183374 
43.062020 -98.041963 -21.265563 0.629573 0.093718 0.771268 
54.614750 -91.476761 -46.670068 -0.852227 -0.476802 -0.215334 
55.829380 -62.594302 -116.147403 -0.678124 -0.682219 0.273359 
71.448280 -82.357234 -42.859487 0.820010 -0.502225 0.274508 
57.462960 -60.720734 -27.391073 0.390143 0.452159 0.802085 
34.497180 -98.915135 -24.550514 -0.791275 -0.547492 0.272279 
50.438140 -89.657328 -29.263239 0.592500 -0.242123 0.768323 
44.545760 -80.944671 -31.252139 -0.680139 0.556607 -0.477073 
58.495090 -92.589953 -61.918395 0.696630 0.627291 -0.348156 
81.274240 -71.635672 -73.414243 -0.086357 0.931966 0.352110 
50.053540 -94.182339 -30.635504 0.322545 -0.901682 -0.287982 
57.660930 -96.480369 -47.320380 -0.925920 -0.198923 -0.321094 
50.007060 -89.582577 -31.411450 -0.090248 -0.671323 -0.735650 
82.484950 -74.405306 -61.665625 0.810044 -0.106186 -0.576674 
57.342800 -92.010935 -61.754781 -0.451958 0.892036 -0.002324 
75.856510 -75.468327 -43.758563 0.912806 -0.267428 0.308653 
58.424650 -68.686844 -25.474421 -0.574179 0.504977 -0.644451 
60.653530 -77.210910 -91.687035 -0.536118 0.728578 0.426324 
60.175790 -52.837635 -120.105655 -0.388631 0.921361 -0.007742 
67.319520 -58.844585 -37.782009 -0.588174 -0.780282 -0.212629 
78.274910 -33.343567 -72.605198 -0.839346 -0.538725 -0.072619 
64.723440 -52.659965 -121.557586 -0.732697 0.444841 -0.515045 
61.539350 -88.068658 -70.178282 0.109063 0.896515 0.429378 
63.659930 -61.874269 -116.405721 0.539009 -0.143125 -0.830051 
47.058350 -70.831084 -23.648025 -0.752606 0.612294 -0.242240 
69.944050 -83.348999 -49.253640 -0.134917 -0.056688 0.989234 
58.699070 -52.174898 -35.620943 0.849897 -0.027605 -0.526225 
87.987340 -57.086813 -69.891130 -0.766712 0.640625 -0.041855 
57.643440 -60.592637 -115.152630 -0.239247 0.585675 0.774432 
59.237860 -91.399098 -58.932911 -0.418238 -0.896932 0.143493 
57.534890 -75.688857 -97.535210 -0.813594 0.433009 0.388031 
67.823440 -31.586717 -128.373700 -0.999925 0.011737 0.003548 
49.419620 -78.037656 -28.164699 -0.500534 -0.125179 0.856619 
46.926630 -98.899679 -25.073162 0.647504 0.296152 0.702163 
69.123370 -32.831465 -133.255997 0.151288 0.487953 -0.859659 
50.670220 -79.566377 -31.816634 0.655322 -0.393906 -0.644509 
59.266260 -97.628337 -53.321875 -0.439484 -0.894634 0.080527 
65.169690 -65.779170 -32.987615 -0.782237 0.027706 -0.622364 
83.819750 -32.136861 -75.694610 0.710212 0.417099 0.567122 
57.982500 -59.363991 -118.209224 0.808202 0.576053 0.122366 
63.097390 -91.576499 -40.819696 -0.183344 -0.970616 -0.155851 
68.094110 -82.590316 -41.249869 -0.914125 0.106840 -0.391102 
80.684650 -76.291784 -62.102532 0.210209 -0.351955 -0.912107 
40.781380 -99.589690 -21.038375 0.087075 -0.288004 0.953662 
68.194390 -31.883397 -123.225824 0.322613 -0.098920 0.941348 
58.733520 -78.879217 -92.249454 -0.872833 -0.207072 0.441909 
61.108510 -92.833512 -63.747618 -0.225253 -0.900507 0.371953 
64.208600 -81.364464 -32.419658 -0.208602 -0.281543 -0.936600 
61.573280 -88.536104 -32.720848 0.152505 -0.784953 0.600493 
55.848920 -93.031745 -63.382735 -0.859420 0.449904 -0.242864 
39.492270 -87.661125 -26.528843 -0.899348 0.430706 -0.075274 
78.452060 -34.696799 -66.806823 0.246028 0.936746 -0.248953 
65.823040 -79.226854 -88.617115 0.930273 0.242751 -0.275073 
76.879310 -81.504012 -74.491028 0.516233 -0.826989 -0.222693 
70.271970 -85.066948 -49.757027 0.888761 -0.392972 0.235961 
74.901440 -36.081298 -63.138096 -0.222082 -0.972534 0.069692 
61.144860 -76.919993 -97.381481 0.999214 0.002831 0.039532 
61.669600 -84.650890 -83.617249 -0.076512 -0.978469 -0.191688 
54.407540 -81.848598 -77.083702 -0.639351 0.679249 0.360349 
57.835200 -46.425754 -38.196406 0.987613 0.037673 -0.152319 
39.029060 -92.583780 -21.458789 -0.068834 0.268136 0.960919 
82.858240 -30.460100 -80.929746 -0.429852 -0.870078 -0.241230 
65.515130 -69.498492 -27.395847 0.755115 -0.431519 0.493552 
76.975010 -78.840992 -67.870478 0.208585 0.973248 0.096331 
81.823970 -67.591709 -62.600038 -0.868444 0.153729 -0.471352 
62.516160 -46.425630 -126.574545 -0.858313 0.301325 0.415334 
67.603100 -51.643781 -42.419785 0.298009 -0.855306 -0.423841 
86.489180 -31.393231 -86.269040 -0.395478 -0.836423 -0.379465 
78.543750 -79.623480 -53.847245 0.777537 -0.619870 -0.105819 
82.755740 -27.304571 -83.725488 -0.113437 0.767907 -0.630438 
66.410950 -63.363079 -113.283899 0.600286 -0.736558 -0.311671 
61.744630 -38.146621 -46.839075 0.653832 0.414629 0.632919 
38.800860 -101.259328 -25.102859 -0.356943 -0.850093 -0.387212 
57.630060 -78.467027 -96.248421 -0.851968 -0.523392 -0.014498 
69.493620 -49.600821 -41.557438 0.838430 -0.120244 0.531580 
56.696830 -85.897680 -77.079052 -0.167042 -0.889099 -0.426146 
55.073040 -84.325752 -33.434803 -0.305812 0.929448 -0.206412 
64.096480 -84.302626 -83.615014 0.351491 -0.935069 0.045826 
59.305370 -95.044379 -52.070370 -0.205177 0.976604 -0.064393 
59.874690 -96.450172 -44.617077 0.850893 0.135592 0.507539 
61.100220 -95.586141 -47.666344 0.967919 0.201257 0.150429 
56.025010 -40.742413 -45.225897 -0.753027 -0.181712 -0.632400 
57.667870 -85.766948 -33.571306 0.447348 -0.191715 -0.873570 
60.363390 -87.991732 -40.206280 -0.187862 0.965194 -0.181959 
48.021110 -98.696146 -32.344581 -0.808666 -0.091183 -0.581158 
61.301830 -62.968859 -113.274332 -0.867321 -0.319621 0.381572 
59.942540 -86.840382 -33.412814 -0.214431 0.505006 0.836055 
73.645390 -37.711924 -59.776356 -0.145296 -0.899322 -0.412442 
75.253890 -82.153211 -51.999625 0.129249 -0.569058 -0.812076 
89.080410 -54.010716 -76.877113 0.324791 -0.687440 -0.649567 
55.872430 -81.043382 -83.990840 -0.647737 0.338910 -0.682332 
68.805660 -36.171501 -52.915128 0.210385 0.797984 0.564765 
74.583650 -79.926163 -49.639757 -0.446449 0.725161 0.524238 
83.094220 -27.155030 -80.468477 0.279111 0.886561 0.368926 
61.142800 -88.731604 -67.171934 -0.366188 0.830278 -0.420173 
57.034400 -59.456769 -32.393088 -0.201744 -0.399391 -0.894308 
63.350750 -54.804292 -38.277449 -0.337518 -0.372393 -0.864526 
50.623940 -92.911976 -29.247599 0.568105 -0.047049 0.821610 
79.964790 -37.229011 -65.071330 0.796205 -0.248254 0.551749 
67.401990 -53.454549 -119.014361 0.749272 -0.067307 0.658834 
67.818780 -85.713012 -63.462831 -0.469588 -0.145205 -0.870863 
70.532290 -79.241972 -45.110145 -0.683110 0.554177 -0.475655 
59.523140 -91.071536 -65.672957 -0.969949 -0.207631 -0.126841 
65.019030 -44.007083 -129.143103 -0.301684 -0.201024 -0.931974 
44.767890 -102.608639 -22.806485 0.234903 -0.669420 0.704768 
70.398740 -82.631540 -44.719169 0.052847 -0.630784 -0.774157 
47.503610 -101.778373 -29.516810 -0.197623 -0.862225 -0.466384 
62.475660 -68.074040 -102.543439 0.782135 0.267268 0.562878 
61.245590 -95.450844 -53.461878 0.769523 0.611749 -0.183297 
74.254880 -82.752543 -64.536618 -0.515340 -0.327077 -0.792115 
63.102280 -84.395984 -27.704334 0.396832 -0.227484 0.889256 
61.272140 -55.578676 -33.353501 -0.665174 0.101497 0.739758 
59.878740 -74.559960 -102.333245 0.193227 -0.555767 -0.808571 
37.464300 -92.397916 -28.766052 -0.244171 0.939243 -0.241252 
80.359140 -74.728216 -82.464012 0.359582 -0.878922 -0.313362 
56.732860 -75.043342 -24.597651 0.125847 -0.772243 0.622738 
70.017340 -56.556872 -37.440866 0.701128 0.707698 0.087085 
64.985340 -49.994992 -39.013578 -0.109630 0.811956 0.573331 
41.941960 -85.881745 -25.968319 -0.308747 0.507998 0.804123 
66.632230 -33.316856 -131.995846 -0.788997 0.613429 0.034460 
67.275020 -35.911219 -130.756307 0.108532 -0.424651 0.898828 
55.095090 -63.051880 -28.005839 -0.973030 -0.196641 -0.120603 
34.731100 -95.571405 -24.548435 -0.858312 0.468566 0.209157 
71.082500 -59.270637 -36.124023 0.682060 0.133693 0.718972 
77.057700 -82.491155 -50.419892 0.589002 -0.752669 0.294222 
75.546510 -82.221011 -61.586587 0.415189 0.233108 0.879363 
62.853060 -66.259384 -104.956016 0.963787 0.238346 0.119606 
46.884510 -96.571565 -24.633714 0.842823 -0.087226 0.531075 
67.874860 -60.290269 -111.282057 -0.554852 0.826861 0.091876 
78.717280 -73.375420 -78.785155 -0.843046 0.322190 -0.430658 
64.232110 -65.022425 -111.551134 0.595731 -0.799096 0.080932 
68.355100 -56.137161 -39.136759 0.185644 0.548484 -0.815292 
62.682760 -88.187978 -56.090178 -0.543166 -0.598072 -0.589305 
66.248150 -91.049394 -40.355380 0.420379 -0.520056 0.743521 
66.520070 -49.094100 -127.233214 0.851060 -0.163466 -0.498974 
76.977310 -56.969677 -113.294887 0.793780 0.522297 0.311639 
88.077620 -56.689866 -72.501146 -0.596821 -0.637529 -0.487197 
53.059950 -91.079790 -42.543825 -0.994698 0.058934 -0.084279 
53.758240 -93.712413 -39.858263 -0.763901 -0.586015 -0.270261 
68.974610 -66.407407 -32.556974 0.732485 -0.670029 0.120528 
56.691790 -66.864840 -23.670925 -0.895512 -0.208001 0.393439 
60.939510 -86.393131 -51.885483 0.580855 0.532992 0.615246 
60.413890 -87.692771 -50.054104 0.879010 0.374510 0.295100 
66.958000 -39.928714 -49.026870 -0.506032 0.673635 0.538654 
87.324850 -62.359145 -65.090597 0.732578 -0.160951 0.661381 
58.818880 -92.273548 -43.981522 0.761070 -0.645074 0.068212 
62.345960 -53.541428 -118.202275 -0.097586 0.365070 0.925851 
81.962580 -31.758525 -77.028046 -0.773926 0.620817 -0.124999 
38.314870 -93.749623 -24.513633 -0.808874 0.566664 -0.156892 
68.594110 -84.810004 -60.916744 0.090004 0.381503 0.919976 
61.108250 -76.503847 -99.514252 0.745357 -0.573851 -0.339322 
70.518940 -83.421152 -38.711688 0.927689 -0.246723 0.280217 
65.692440 -44.008542 -126.283354 0.261595 0.255086 0.930860 
39.614650 -96.509948 -28.753889 0.487828 -0.083329 -0.868953 
57.017040 -89.584863 -36.841883 -0.422524 0.905973 -0.026193 
83.426400 -68.939343 -82.816751 0.592075 0.399506 0.699887 
55.743510 -54.042470 -33.253154 -0.974522 0.075557 0.211181 
78.472240 -37.183266 -66.942652 -0.380349 -0.840076 -0.386791 
82.301500 -71.553154 -77.189436 0.734241 0.647585 -0.203774 
61.992310 -55.421144 -118.192492 0.206040 -0.656940 0.725243 
53.944490 -46.266176 -37.918858 -0.960639 0.010872 -0.277586 
42.490380 -100.712387 -27.831530 -0.410627 -0.345615 -0.843763 
68.972430 -37.177787 -57.477521 -0.706542 -0.258604 -0.658728 
58.184360 -67.477521 -22.861116 0.285699 0.271253 0.919129 
55.432620 -98.127989 -41.565671 -0.014823 -0.991364 0.130301 
65.497010 -86.924412 -34.688011 -0.029477 -0.725312 -0.687788 
55.904620 -88.521300 -33.094976 0.053825 0.477275 0.877104 
59.422830 -38.483725 -46.941328 -0.273194 0.901328 0.336113 
76.040730 -77.326246 -56.445188 -0.874978 0.294220 -0.384511 
60.651080 -75.926946 -96.118801 0.353137 0.920945 0.164788 
80.748150 -33.832467 -76.777652 -0.616607 -0.044968 -0.785986 
63.919430 -55.728767 -33.151572 0.485469 0.403879 0.775372 
42.405190 -94.532215 -24.898505 -0.116948 0.076102 -0.990218 
60.319210 -71.497395 -99.711802 0.340118 0.412800 0.844936 
76.948730 -83.216885 -63.362570 0.704008 -0.705898 0.077978 
61.369760 -83.100664 -85.478030 -0.404934 -0.558777 -0.723738 
58.517500 -63.511247 -27.012966 0.997517 0.067640 0.019589 
63.399990 -88.868364 -62.593873 0.941180 0.333598 0.053772 
58.788150 -90.645965 -72.328635 -0.571843 -0.805969 -0.152999 
72.345520 -75.086033 -43.928271 -0.716398 0.478903 -0.507372 
69.509390 -87.820239 -49.019053 0.620575 -0.589687 -0.516871 
78.019510 -77.115250 -60.297833 -0.894958 0.232300 -0.380902 
83.411160 -34.178378 -76.519649 0.356730 -0.925622 -0.126366 
46.481200 -92.941686 -27.606028 0.352151 -0.916386 -0.190334 
55.842770 -46.379452 -36.174125 -0.343512 0.541746 0.767144 
66.331630 -31.601758 -123.789626 -0.668644 -0.638386 0.381286 
73.426660 -59.498292 -114.169778 0.077504 -0.191629 -0.978403 
68.541440 -82.893459 -62.545688 -0.699000 0.698601 0.152828 
58.312110 -95.518993 -53.045042 -0.945396 0.297836 0.132360 
67.107150 -44.162593 -127.411144 0.998825 -0.046841 -0.012435 
65.634460 -81.669238 -83.683353 0.927324 -0.006169 0.374208 
58.216960 -94.820389 -63.590285 0.825161 -0.543837 -0.152807 
43.056470 -98.550837 -27.145530 -0.006520 0.696083 -0.717931 
66.877450 -88.751860 -44.810539 -0.788699 0.299806 -0.536721 
59.589810 -89.030528 -37.300503 0.376808 0.713543 0.590654 
72.316810 -75.771294 -41.819072 -0.471653 0.450628 0.757943 
61.658130 -52.395504 -38.687179 -0.902693 0.241179 -0.356340 
66.806340 -73.819957 -32.428430 -0.407628 0.565210 0.717201 
89.916100 -56.873445 -70.940126 0.943300 0.270333 0.192628 
58.886860 -92.084193 -39.497079 0.976421 0.095365 0.193670 
57.745990 -84.476786 -80.390005 0.403348 -0.859870 0.312945 
66.393880 -54.674786 -120.386660 0.175440 -0.973429 -0.147165 
58.739190 -83.710424 -76.960797 0.932011 0.261868 -0.250560 
56.072610 -88.987851 -53.427509 -0.926530 0.196483 -0.320837 
53.865990 -90.616629 -39.590024 -0.752528 0.648961 0.112031 
76.222750 -73.380117 -76.580511 -0.716919 0.694632 0.059272 
70.773090 -81.752646 -64.622818 -0.259604 0.453352 -0.852689 
81.684670 -74.155670 -71.042916 0.023363 -0.130340 0.991194 
70.966060 -37.680626 -53.675635 0.870733 -0.164395 0.463464 
62.241160 -83.003383 -30.440656 -0.476222 0.551691 -0.684726 
40.864840 -88.173363 -28.975815 -0.236954 -0.343003 -0.908957 
55.852700 -57.302062 -118.446361 -0.244381 0.600722 0.761190 
56.763450 -95.941951 -34.144570 0.827955 -0.514917 0.222151 
58.037210 -86.623956 -72.144766 -0.551746 0.274040 0.787705 
79.151540 -71.089849 -81.688218 -0.513776 0.792572 0.328428 
71.030500 -81.633789 -61.783371 -0.314833 0.858698 0.404373 
59.988500 -90.672336 -37.475565 0.622198 -0.622380 0.474881 
37.782650 -93.614290 -31.658362 0.445973 0.369424 -0.815251 
53.086230 -100.102688 -31.467752 0.524208 -0.851434 -0.016319 
66.385810 -86.311511 -32.109997 0.263439 0.148419 0.953190 
88.655000 -59.673841 -70.236053 0.066219 -0.697772 -0.713253 
66.327830 -51.642843 -120.026183 -0.062287 0.934021 0.351747 
65.520650 -58.599352 -33.024872 -0.038790 -0.641903 0.765804 
66.933770 -38.790992 -131.581664 0.908219 -0.355892 0.220180 
60.979580 -85.991601 -55.409589 -0.336399 0.695502 -0.634911 
70.574350 -32.233324 -126.401696 0.664220 -0.617653 0.421088 
62.322230 -92.921234 -68.771986 0.256305 -0.932878 -0.253072 
68.025920 -90.281137 -59.990000 -0.019728 -0.800882 -0.598497 
47.779960 -80.325690 -32.423792 0.033856 0.008364 -0.999392 
63.437010 -58.943746 -33.822653 -0.563963 -0.821792 0.081263 
62.857570 -49.158186 -127.338268 -0.563896 -0.556983 -0.609747 
75.045070 -79.371232 -52.492383 -0.770325 0.247151 -0.587805 
50.163120 -70.844839 -26.340436 0.117861 0.925894 0.358926 
57.241580 -53.206617 -35.707778 -0.329793 -0.370744 -0.868208 
64.951820 -78.756226 -31.368361 -0.569882 0.566724 0.595028 
69.913880 -61.953120 -34.474534 0.462576 0.408536 0.786843 
56.577240 -44.623760 -40.443905 0.121577 -0.560537 -0.819156 
63.351360 -59.694138 -115.993087 0.228032 0.864322 -0.448274 
56.467200 -91.200132 -53.016263 -0.763335 -0.626595 -0.157161 
70.197750 -81.130248 -42.730748 -0.204232 0.802586 0.560486 
76.947980 -35.823837 -60.234477 0.951386 -0.244826 0.186885 
74.537570 -35.321904 -57.763726 0.497331 0.699080 0.513759 
44.428540 -88.045961 -27.717968 0.760262 -0.624281 -0.179653 
68.785230 -89.013940 -42.650136 0.413288 0.758478 0.503890 
75.223400 -32.596537 -66.156233 -0.010319 0.929277 -0.369239 
82.201330 -72.058264 -82.071000 0.991748 -0.101304 0.078577 
67.523510 -52.320247 -123.833187 0.784940 -0.490144 -0.378982 
58.322560 -69.911924 -103.731068 -0.861025 -0.231615 -0.452758 
70.845670 -45.559065 -45.308836 0.948346 0.190904 0.253368 
55.869530 -55.601697 -33.331601 -0.804338 -0.108542 -0.584174 
46.656120 -83.767732 -31.288962 0.378940 -0.479837 -0.791303 
82.801410 -69.269169 -59.799701 -0.015928 0.428890 0.903216 
51.783050 -73.911443 -32.304474 0.181123 0.337517 -0.923730 
55.641170 -95.777845 -37.273201 0.313552 -0.900361 -0.301722 
79.418480 -71.846919 -76.838311 -0.526780 0.849711 0.022254 
70.455060 -60.506064 -109.632479 -0.068259 0.305558 0.949724 
74.535710 -81.841711 -72.738100 -0.579946 -0.812524 -0.058882 
58.116290 -70.408987 -27.923166 -0.177436 0.617921 -0.765957 
45.518830 -93.906537 -28.795759 -0.716395 0.226992 -0.659737 
63.991340 -79.107502 -85.714580 -0.077274 0.948635 0.306789 
74.900440 -75.092281 -46.860300 0.259835 -0.297965 -0.918533 
63.674980 -63.971682 -114.080232 0.018958 -0.888551 -0.458387 
67.680690 -82.511648 -35.534571 0.104079 0.913973 0.392201 
60.788670 -96.875248 -53.426460 0.793631 -0.599412 -0.104187 
79.376180 -76.010271 -58.932351 0.249184 0.892388 0.376233 
48.660920 -92.271261 -28.953235 -0.116661 0.877423 0.465316 
57.091820 -87.843889 -36.173036 -0.130845 0.176052 -0.975646 
62.048170 -86.977429 -61.775286 0.460267 0.880225 -0.115582 
56.433840 -60.933643 -118.820178 0.192766 -0.512069 -0.837034 
47.594280 -82.292389 -27.802004 0.357436 -0.232680 0.904488 
54.256500 -95.938785 -31.368868 0.482295 0.308583 0.819859 
80.010410 -75.159515 -78.246703 0.067481 -0.971829 -0.225818 
65.979390 -49.489180 -43.489067 -0.793496 -0.018313 -0.608300 
58.835980 -64.003081 -109.233502 -0.946290 0.305181 -0.106772 
59.995980 -88.121867 -54.312837 -0.102311 0.739556 -0.665274 
81.761250 -76.238406 -73.219226 0.447185 -0.868214 0.215013 
74.248280 -59.416697 -111.520701 0.651520 -0.384735 0.653836 
42.931530 -96.421413 -24.260720 0.096007 0.821229 -0.562464 
63.179430 -37.961410 -132.439754 -0.890362 0.210851 -0.403482 
84.180920 -64.476304 -64.611329 -0.661616 0.548403 0.511389 
75.875030 -77.517234 -73.797544 -0.141487 0.780080 0.609473 
60.294110 -88.980416 -41.949854 -0.607537 0.240620 -0.756968 
69.170930 -30.411363 -130.228323 -0.126846 0.845727 -0.518320 
59.861800 -56.682726 -120.571660 0.504325 -0.749607 -0.428655 
51.722770 -98.319431 -35.374355 0.098811 -0.981822 -0.162058 
82.661640 -70.462109 -85.502230 0.563540 -0.284053 -0.775717 
69.677070 -40.721166 -51.237832 0.887847 -0.329629 -0.321049 
85.597150 -59.536940 -68.554278 -0.756011 0.074579 -0.650296 
69.253200 -45.597756 -43.600981 0.273741 0.612655 0.741431 
68.948990 -84.901997 -39.082220 0.196585 -0.971005 -0.136026 
70.560030 -62.284767 -111.830770 0.567569 -0.522578 -0.636221 
66.801230 -82.448277 -37.380187 -0.679888 0.615337 -0.398889 
67.398830 -77.435558 -32.434467 0.916314 -0.185172 0.355076 
55.094360 -94.331670 -42.152283 -0.052935 0.984797 -0.165448 
37.725430 -94.510939 -21.629533 -0.850450 0.147415 0.504978 
66.127530 -76.293026 -33.822161 -0.491175 0.200030 -0.847782 
57.573880 -91.885264 -33.094243 0.397647 0.371670 0.838891 
57.762430 -82.789381 -75.712663 0.443501 0.812322 0.378734 
74.239490 -77.007018 -44.312117 0.636729 -0.496969 -0.589575 
59.286160 -67.059371 -102.016162 -0.334014 0.699524 0.631744 
86.145220 -66.448038 -63.978125 0.910264 -0.209113 0.357340 
63.423970 -85.225093 -34.713916 -0.396610 0.900052 -0.180571 
86.670890 -58.340488 -67.520120 -0.271304 0.767299 0.581073 
59.077630 -41.180378 -45.718428 0.653022 -0.756467 0.036334 
51.825960 -73.531139 -27.283848 -0.076172 -0.255967 0.963680 
42.515850 -94.113435 -23.017436 0.737594 0.405737 0.539752 
66.425860 -56.981292 -38.634395 -0.552431 -0.352634 -0.755294 
56.935630 -66.908116 -26.021320 -0.253563 -0.705567 -0.661726 
53.453250 -98.683165 -29.880317 0.756454 -0.292308 0.585092 
54.454920 -57.072709 -120.911072 -0.807059 -0.059657 -0.587450 
50.659500 -70.094269 -30.432999 0.253746 0.866525 -0.429823 
56.289220 -95.725964 -67.550164 -0.396121 -0.910058 -0.121995 
63.283440 -89.341618 -69.639924 0.782203 0.622701 -0.020038 
69.162110 -38.920572 -54.570474 0.113102 -0.959166 -0.259244 
66.862310 -49.350888 -124.011676 0.599051 0.627735 0.497078 
58.436680 -89.186101 -61.386429 -0.957078 0.078730 -0.278933 
52.267390 -86.525332 -34.627866 -0.283248 0.067522 -0.956667 
54.182330 -75.356685 -30.316180 0.776066 -0.523905 -0.351062 
61.678670 -83.300125 -28.596542 -0.610435 0.433911 0.662639 
80.163570 -30.962792 -74.153277 -0.213327 0.960659 -0.177839 
59.329050 -65.018222 -111.120664 -0.813478 -0.118878 -0.569316 
65.797190 -89.735088 -57.963994 -0.877427 -0.401349 -0.262756 
43.193050 -84.676176 -30.808179 -0.530420 0.157801 -0.832919 
51.199060 -97.908264 -37.651600 -0.547361 -0.792683 -0.268422 
68.376370 -60.177478 -36.371781 -0.923587 -0.056337 0.379228 
69.917430 -90.406207 -43.140472 0.898836 -0.304125 0.315597 
63.552250 -89.947211 -71.811617 0.935010 -0.112840 -0.336189 
70.485600 -85.269977 -62.749605 0.679982 -0.660083 -0.319241 
76.035520 -81.344070 -48.463628 0.324827 0.210932 0.921952 
60.964130 -38.027413 -49.219764 0.012006 -0.331483 -0.943385 
58.978020 -87.201710 -59.666824 -0.451268 0.848518 -0.276360 
61.221510 -55.995927 -35.688566 -0.803243 -0.469004 -0.367200 
78.642590 -74.769579 -73.826283 -0.563440 0.013633 0.826045 
36.831190 -97.022820 -22.074607 -0.664745 -0.074351 0.743362 
50.445320 -94.936298 -35.355562 -0.554161 0.822999 -0.124810 
66.103320 -90.488325 -53.995862 0.105963 -0.748062 0.655115 
57.080800 -94.874230 -62.328821 -0.393415 -0.910314 0.128658 
60.116350 -92.978461 -67.632378 -0.816654 -0.544524 0.191233 
76.776250 -76.183676 -54.248519 -0.263133 0.940211 0.216252 
46.347770 -97.452685 -27.521525 -0.131712 0.769235 -0.625244 
67.956470 -84.635574 -49.247553 -0.561358 0.572988 0.597128 
61.630630 -80.949695 -88.354764 -0.873051 -0.486324 0.035654 
36.178750 -97.826251 -30.108753 -0.625259 -0.272945 -0.731130 
50.937710 -87.043798 -31.347619 -0.430518 0.853794 0.292728 
68.903540 -72.393236 -35.696109 0.550954 -0.046568 -0.833235 
46.364930 -80.121383 -28.694216 -0.553579 0.567904 0.609127 
72.753100 -34.264930 -59.911482 -0.729037 0.593743 -0.340550 
55.670420 -96.141815 -45.653469 -0.760665 -0.081640 -0.643991 
57.763470 -75.379516 -100.888045 -0.619144 -0.568513 -0.541714 
47.786860 -89.441792 -28.439952 0.041832 0.730542 0.681585 
66.424740 -88.328088 -43.223414 0.101527 0.974780 -0.198737 
69.704920 -41.110819 -48.251226 0.727453 0.473119 0.496961 
52.886150 -72.134909 -30.229370 0.342614 0.744236 -0.573349 
51.412810 -79.810642 -29.169230 0.671088 -0.615918 0.412657 
63.802790 -67.222514 -27.050095 0.270321 0.736590 0.619969 
56.938000 -89.893081 -39.215915 0.289828 0.950449 0.112453 
65.405910 -37.970014 -133.663775 0.310376 -0.289989 -0.905303 
62.919530 -82.140411 -81.865739 0.373582 0.377827 0.847162 
57.138240 -54.847282 -31.594569 -0.196078 0.412734 0.889497 
72.093430 -57.962118 -112.219634 -0.205480 0.951546 0.228776 
49.542320 -73.010326 -27.291244 -0.843354 -0.374678 0.385190 
59.143960 -94.571474 -47.621933 -0.024795 0.965052 -0.260882 
58.608480 -71.537320 -27.652923 0.302715 -0.057076 -0.951370 
58.218440 -71.946992 -23.288565 -0.565926 -0.091237 0.819393 
59.066960 -59.270690 -31.763448 0.576537 -0.376076 -0.725377 
45.061040 -94.794287 -23.965645 0.799674 -0.495719 0.338799 
59.925490 -79.515362 -96.194789 0.182456 -0.935868 -0.301431 
81.402920 -71.094325 -61.234477 -0.309663 0.360861 -0.879709 
81.276820 -33.172098 -73.277523 0.904681 -0.118907 0.409162 
40.726070 -93.899391 -24.753736 0.460513 0.301642 -0.834829 
77.574430 -80.095217 -71.051902 0.991431 -0.072508 0.108664 
79.020180 -79.359962 -59.068759 -0.146257 -0.931364 -0.333422 
59.280610 -53.783457 -122.619902 -0.326918 0.550426 -0.768215 
49.001750 -75.568889 -31.354479 -0.781480 0.474360 -0.405303 
57.277190 -46.770833 -36.248360 0.457838 0.560588 0.690019 
61.423500 -71.374877 -23.611256 0.519855 -0.246851 0.817811 
54.742870 -87.611822 -34.509719 -0.410963 0.911622 -0.007405 
84.163270 -30.034999 -80.491950 0.867941 -0.451736 0.206429 
63.290370 -92.880565 -65.599002 0.732708 -0.645991 0.214091 
47.402790 -89.373934 -30.598126 -0.622247 0.256386 -0.739645 
76.902370 -33.997291 -64.106361 0.861345 0.465102 0.204363 
66.329930 -39.803411 -51.111376 -0.966890 -0.122850 -0.223676 
57.076740 -94.966743 -57.226381 -0.964939 -0.140952 0.221418 
63.228620 -70.493182 -28.698167 0.026159 -0.758972 -0.650598 
53.323910 -76.580180 -27.642501 0.187184 -0.627658 0.755650 
59.893300 -68.160425 -24.285434 0.594756 0.773284 0.219765 
60.541480 -86.350737 -29.754859 0.098683 -0.873628 0.476483 
58.991410 -73.914036 -25.044433 0.530112 -0.847168 -0.035870 
83.863380 -74.074874 -73.222853 0.967970 0.071132 0.240777 
48.731980 -73.342134 -21.777972 0.338434 -0.506861 0.792814 
60.735570 -89.350654 -52.908692 0.921644 -0.332333 0.200317 
55.954870 -38.990091 -44.018936 -0.516834 0.834162 0.192504 
87.838010 -52.592786 -76.277694 -0.627993 0.771794 0.099789 
53.497420 -93.546758 -33.193618 -0.383964 0.816459 0.431238 
52.145690 -96.077493 -41.078839 -0.674127 0.385059 -0.630303 
3 268 260 299 
3 384 299 7 
3 291 481 2 
3 230 99 223 
3 67 32 400 
3 315 458 393 
3 501 454 430 
3 463 296 210 
3 196 305 243 
3 134 305 499 
3 226 227 138 
3 227 71 13 
3 251 409 386 
3 274 188 498 
3 338 199 445 
3 248 239 442 
3 471 283 414 
3 377 319 403 
3 367 286 14 
3 83 500 441 
3 402 399 22 
3 378 63 95 
3 162 194 453 
3 238 413 203 
3 415 56 325 
3 263 88 465 
3 478 275 288 
3 115 121 185 
3 276 159 163 
3 317 357 349 
3 255 157 317 
3 192 69 135 
3 88 356 228 
3 300 447 41 
3 279 412 456 
3 166 343 20 
3 31 203 173 
3 473 180 455 
3 322 313 294 
3 194 162 347 
3 475 264 127 
3 314 495 116 
3 358 407 386 
3 64 393 355 
3 499 305 196 
3 365 372 21 
3 21 44 117 
3 333 485 444 
3 57 309 433 
3 443 489 156 
3 315 393 420 
3 257 455 219 
3 154 402 22 
3 335 142 27 
3 93 77 103 
3 194 3 420 
3 450 486 456 
3 379 173 203 
3 206 308 353 
3 406 280 214 
3 460 376 27 
3 117 44 68 
3 65 233 1 
3 184 297 464 
3 434 281 232 
3 271 32 391 
3 70 448 473 
3 163 257 214 
3 155 44 272 
3 490 246 169 
3 478 288 149 
3 174 168 26 
3 412 279 476 
3 246 74 72 
3 96 306 462 
3 352 265 25 
3 489 295 121 
3 453 24 351 
3 98 311 245 
3 440 255 229 
3 86 225 167 
3 388 147 96 
3 34 245 108 
3 118 271 454 
3 357 317 429 
3 353 421 206 
3 431 49 144 
3 427 192 368 
3 139 452 376 
3 11 462 60 
3 49 72 74 
3 464 297 366 
3 10 321 262 
3 78 450 19 
3 267 291 2 
3 46 130 344 
3 343 410 20 
3 314 382 495 
3 354 137 406 
3 475 289 145 
3 122 405 367 
3 98 245 32 
3 66 259 296 
3 381 331 239 
3 58 104 133 
3 241 259 421 
3 224 278 31 
3 141 226 389 
3 10 97 321 
3 491 222 411 
3 233 30 1 
3 124 366 276 
3 116 265 361 
3 208 346 302 
3 257 163 473 
3 12 268 213 
3 68 44 155 
3 385 141 463 
3 338 54 55 
3 261 96 462 
3 7 260 324 
3 455 257 473 
3 395 250 94 
3 413 438 203 
3 303 218 224 
3 109 375 368 
3 299 446 83 
3 381 4 437 
3 49 126 413 
3 276 280 137 
3 11 311 462 
3 328 128 125 
3 59 461 5 
3 254 277 426 
3 268 299 191 
3 189 183 316 
3 321 97 236 
3 92 417 359 
3 249 462 306 
3 266 390 308 
3 282 197 39 
3 498 20 274 
3 4 284 374 
3 124 137 152 
3 457 300 388 
3 93 103 442 
3 142 359 424 
3 73 316 154 
3 405 17 110 
3 2 20 498 
3 146 344 375 
3 75 136 81 
3 119 113 290 
3 62 441 67 
3 82 453 351 
3 180 473 152 
3 48 383 362 
3 236 361 321 
3 133 104 471 
3 291 263 465 
3 220 255 476 
3 161 195 231 
3 67 98 32 
3 492 123 283 
3 137 180 152 
3 353 308 337 
3 304 341 399 
3 442 428 29 
3 341 217 399 
3 136 153 81 
3 244 108 245 
3 156 121 115 
3 262 392 91 
3 266 318 390 
3 260 179 449 
3 60 18 36 
3 204 234 117 
3 95 160 363 
3 351 487 158 
3 201 444 209 
3 478 149 102 
3 361 439 116 
3 371 76 288 
3 379 303 224 
3 256 232 322 
3 355 393 458 
3 289 127 277 
3 101 160 477 
3 160 95 63 
3 332 292 13 
3 371 102 76 
3 75 497 252 
3 456 486 279 
3 2 498 188 
3 37 282 164 
3 435 445 199 
3 191 430 391 
3 330 66 296 
3 249 60 462 
3 493 189 73 
3 250 488 94 
3 280 163 214 
3 49 413 238 
3 39 366 448 
3 254 168 289 
3 237 30 35 
3 240 350 301 
3 166 133 343 
3 53 377 500 
3 312 236 95 
3 248 442 103 
3 227 226 66 
3 235 397 46 
3 22 217 73 
3 456 472 290 
3 392 97 10 
3 134 394 409 
3 107 140 234 
3 70 297 184 
3 23 172 259 
3 171 76 358 
3 299 83 191 
3 51 453 269 
3 466 362 383 
3 288 275 371 
3 448 366 124 
3 266 253 318 
3 302 14 286 
3 30 237 1 
3 476 349 412 
3 71 6 13 
3 210 385 463 
3 346 110 17 
3 198 315 348 
3 38 197 37 
3 96 261 388 
3 258 272 396 
3 162 453 82 
3 135 318 15 
3 461 169 342 
3 6 389 43 
3 312 439 361 
3 111 88 270 
3 468 118 454 
3 327 251 80 
3 202 414 228 
3 439 312 387 
3 108 244 36 
3 344 130 375 
3 333 444 285 
3 382 265 495 
3 428 442 239 
3 413 336 438 
3 49 99 72 
3 319 323 403 
3 121 295 185 
3 30 233 219 
3 350 300 457 
3 327 305 251 
3 8 171 9 
3 218 336 329 
3 275 338 445 
3 55 132 199 
3 202 356 471 
3 352 221 392 
3 358 8 407 
3 213 191 391 
3 378 221 25 
3 182 285 84 
3 164 282 184 
3 102 149 120 
3 389 6 141 
3 259 241 296 
3 440 229 112 
3 332 43 151 
3 174 484 168 
3 26 200 176 
3 156 105 418 
3 282 448 184 
3 209 153 136 
3 478 102 175 
3 297 70 159 
3 160 101 363 
3 51 269 488 
3 474 171 8 
3 66 23 259 
3 382 439 63 
3 128 479 125 
3 418 105 298 
3 305 327 243 
3 177 1 237 
3 304 451 402 
3 416 479 390 
3 487 162 205 
3 408 272 373 
3 202 228 356 
3 376 349 27 
3 15 318 416 
3 230 72 99 
3 78 425 183 
3 258 369 326 
3 344 69 46 
3 429 157 45 
3 56 377 140 
3 243 134 499 
3 82 351 158 
3 240 301 323 
3 355 395 181 
3 148 212 396 
3 493 78 19 
3 489 121 156 
3 116 439 314 
3 225 86 376 
3 285 182 57 
3 278 223 31 
3 446 365 117 
3 207 313 434 
3 15 109 135 
3 378 95 236 
3 294 207 428 
3 211 150 61 
3 246 72 342 
3 455 354 219 
3 150 440 61 
3 400 501 67 
3 218 438 336 
3 44 21 373 
3 237 368 177 
3 317 157 429 
3 292 332 151 
3 140 53 446 
3 283 270 492 
3 428 77 294 
3 174 85 484 
3 429 114 335 
3 437 374 201 
3 408 326 369 
3 112 179 61 
3 416 390 375 
3 51 250 198 
3 12 90 211 
3 345 136 75 
3 451 304 399 
3 32 245 360 
3 165 320 404 
3 247 470 270 
3 4 374 437 
3 454 501 400 
3 74 246 490 
3 219 233 257 
3 87 326 155 
3 267 263 291 
3 252 360 34 
3 256 93 434 
3 216 101 281 
3 481 58 166 
3 199 338 55 
3 274 40 436 
3 216 281 434 
3 13 292 138 
3 310 18 437 
3 470 247 123 
3 242 383 293 
3 391 430 271 
3 24 348 347 
3 324 220 7 
3 132 161 231 
3 157 255 401 
3 18 381 437 
3 84 165 38 
3 448 152 473 
3 161 287 54 
3 317 349 476 
3 393 64 79 
3 14 302 122 
3 333 285 57 
3 356 88 263 
3 28 123 364 
3 411 28 339 
3 256 294 77 
3 56 150 211 
3 7 220 476 
3 474 76 171 
3 348 51 198 
3 132 55 447 
3 435 231 42 
3 244 311 36 
3 339 131 496 
3 208 148 346 
3 181 173 64 
3 107 472 412 
3 128 328 421 
3 314 439 382 
3 337 128 172 
3 486 119 290 
3 274 410 178 
3 406 380 354 
3 432 287 161 
3 144 74 490 
3 241 353 337 
3 215 187 370 
3 138 389 226 
3 47 464 39 
3 438 303 203 
3 446 53 83 
3 497 75 81 
3 0 43 389 
3 487 351 24 
3 162 82 264 
3 345 422 136 
3 49 238 99 
3 83 441 191 
3 19 113 119 
3 254 200 26 
3 465 88 58 
3 10 91 392 
3 239 248 497 
3 112 229 449 
3 198 458 315 
3 343 188 410 
3 36 11 60 
3 442 29 93 
3 122 367 14 
3 380 406 65 
3 32 186 400 
3 361 265 321 
3 457 388 190 
3 294 256 322 
3 407 251 386 
3 295 118 185 
3 295 489 143 
3 195 54 338 
3 245 311 244 
3 371 445 42 
3 269 194 420 
3 77 331 103 
3 282 37 197 
3 134 409 305 
3 408 373 483 
3 444 485 153 
3 457 301 350 
3 132 231 435 
3 107 150 140 
3 64 355 181 
3 46 65 1 
3 500 403 261 
3 300 89 147 
3 462 98 261 
3 215 468 187 
3 230 223 278 
3 330 296 463 
3 460 491 139 
3 488 269 420 
3 468 215 185 
3 175 195 338 
3 222 482 470 
3 382 378 25 
3 421 353 241 
3 149 474 120 
3 56 140 150 
3 467 139 491 
3 123 59 50 
3 297 159 366 
3 411 470 28 
3 8 9 407 
3 189 423 183 
3 190 301 457 
3 216 313 33 
3 36 311 11 
3 35 427 368 
3 300 147 388 
3 374 284 201 
3 77 428 239 
3 339 467 131 
3 466 242 293 
3 281 170 232 
3 258 87 272 
3 149 288 474 
3 469 364 50 
3 409 394 386 
3 308 128 337 
3 373 21 483 
3 156 418 443 
3 240 89 432 
3 50 5 144 
3 423 189 19 
3 272 398 148 
3 376 460 139 
3 286 367 405 
3 449 179 112 
3 322 232 33 
3 25 265 382 
3 37 307 182 
3 29 428 334 
3 370 443 298 
3 217 341 425 
3 249 306 252 
3 58 111 283 
3 50 364 123 
3 234 372 107 
3 343 267 2 
3 236 312 361 
3 125 479 318 
3 489 443 143 
3 285 320 84 
3 274 178 40 
3 456 412 472 
3 187 186 106 
3 304 402 341 
3 431 342 230 
3 126 49 431 
3 273 372 204 
3 279 486 290 
3 89 240 147 
3 275 445 371 
3 347 348 3 
3 386 171 358 
3 103 331 248 
3 377 56 415 
3 192 135 109 
3 473 163 159 
3 136 422 209 
3 417 339 28 
3 5 342 431 
3 135 344 146 
3 307 37 164 
3 467 411 496 
3 101 216 100 
3 212 208 405 
3 21 372 483 
3 58 88 111 
3 191 441 62 
3 54 287 41 
3 65 46 69 
3 131 467 496 
3 450 113 19 
3 179 260 268 
3 339 92 467 
3 387 477 63 
3 92 339 417 
3 380 65 69 
3 331 381 60 
3 475 426 158 
3 76 102 8 
3 425 316 183 
3 86 349 376 
3 408 398 272 
3 56 211 90 
3 476 255 317 
3 51 348 453 
3 380 427 35 
3 169 482 494 
3 140 446 234 
3 335 357 429 
3 38 165 197 
3 384 7 476 
3 395 94 224 
3 372 273 483 
3 271 106 186 
3 491 424 222 
3 301 403 323 
3 378 382 63 
3 157 401 167 
3 488 420 79 
3 346 17 302 
3 377 415 319 
3 359 335 480 
3 475 254 426 
3 165 84 320 
3 399 402 451 
3 270 470 482 
3 7 299 260 
3 346 398 369 
3 217 22 399 
3 434 313 216 
3 444 153 209 
3 309 182 307 
3 294 313 207 
3 28 364 459 
3 431 230 329 
3 8 358 76 
3 110 212 405 
3 190 261 301 
3 252 34 75 
3 172 421 259 
3 379 94 79 
3 210 241 337 
3 482 222 494 
3 319 325 360 
3 279 290 472 
3 464 16 307 
3 97 378 236 
3 53 500 83 
3 350 161 447 
3 165 404 47 
3 186 32 271 
3 331 60 248 
3 105 115 298 
3 197 47 39 
3 310 345 108 
3 265 352 321 
3 18 60 381 
3 427 380 69 
3 110 346 258 
3 325 56 90 
3 170 33 232 
3 389 138 0 
3 384 372 365 
3 161 54 195 
3 146 318 135 
3 452 225 376 
3 40 178 436 
3 341 316 425 
3 58 133 166 
3 379 79 173 
3 309 419 433 
3 384 446 299 
3 170 477 387 
3 368 192 109 
3 34 108 345 
3 164 184 307 
3 59 492 461 
3 476 279 384 
3 453 348 24 
3 168 484 289 
3 12 211 61 
3 167 150 107 
3 410 188 436 
3 347 487 24 
3 459 359 417 
3 162 264 205 
3 406 214 233 
3 64 173 79 
3 441 500 98 
3 224 181 395 
3 227 330 71 
3 319 252 306 
3 207 434 334 
3 488 79 94 
3 423 119 450 
3 272 87 155 
3 113 456 290 
3 262 321 352 
3 180 137 455 
3 249 248 60 
3 268 191 213 
3 393 79 420 
3 145 254 475 
3 394 9 386 
3 167 225 157 
3 107 372 384 
3 235 362 466 
3 324 260 449 
3 334 428 207 
3 115 185 215 
3 145 484 200 
3 210 23 385 
3 16 404 309 
3 322 33 313 
3 82 158 264 
3 218 329 278 
3 325 391 32 
3 256 77 93 
3 273 204 68 
3 256 434 232 
3 480 114 452 
3 62 430 191 
3 117 234 446 
3 120 474 8 
3 338 478 175 
3 90 12 213 
3 363 52 95 
3 92 480 139 
3 189 493 19 
3 473 159 70 
3 419 485 433 
3 404 320 129 
3 0 292 151 
3 176 200 85 
3 59 5 50 
3 340 133 471 
3 261 190 388 
3 364 469 459 
3 278 329 230 
3 395 355 458 
3 303 438 218 
3 58 283 104 
3 490 169 494 
3 303 379 203 
3 465 58 481 
3 6 71 141 
3 65 406 233 
3 370 106 143 
3 147 240 323 
3 179 12 61 
3 460 142 424 
3 381 239 497 
3 253 125 318 
3 407 9 80 
3 461 482 169 
3 123 492 59 
3 337 172 210 
3 144 490 50 
3 66 330 227 
3 493 425 78 
3 344 135 69 
3 10 262 91 
3 3 194 347 
3 412 167 107 
3 158 487 205 
3 295 143 118 
3 467 92 139 
3 74 144 49 
3 359 469 424 
3 324 449 220 
3 416 318 479 
3 270 88 247 
3 271 118 106 
3 128 390 479 
3 137 124 276 
3 264 475 205 
3 4 81 284 
3 185 118 468 
3 350 447 300 
3 217 425 493 
3 0 138 292 
3 320 444 129 
3 365 446 384 
3 392 221 97 
3 47 16 464 
3 134 243 327 
3 343 133 340 
3 114 480 335 
3 485 333 433 
3 492 482 461 
3 42 445 435 
3 229 220 449 
3 71 463 141 
3 302 286 208 
3 100 170 387 
3 96 323 319 
3 338 275 478 
3 97 221 378 
3 471 414 202 
3 397 293 383 
3 172 23 210 
3 169 246 342 
3 472 107 279 
3 177 397 48 
3 263 267 340 
3 454 400 468 
3 271 430 454 
3 372 234 204 
3 319 360 252 
3 471 104 283 
3 426 127 158 
3 80 9 394 
3 450 78 183 
3 46 397 177 
3 272 148 396 
3 206 421 328 
3 385 226 141 
3 408 369 398 
3 175 371 42 
3 287 432 89 
3 397 383 48 
3 98 500 261 
3 386 9 171 
3 350 432 161 
3 173 181 31 
3 116 495 265 
3 175 42 231 
3 257 233 214 
3 404 16 47 
3 452 45 225 
3 383 242 466 
3 151 43 0 
3 35 30 354 
3 296 241 210 
3 166 20 481 
3 3 315 420 
3 467 491 411 
3 223 99 238 
3 224 218 278 
3 124 152 448 
3 329 126 431 
3 159 276 366 
3 123 247 414 
3 161 132 447 
3 37 182 38 
3 125 253 328 
3 255 440 401 
3 413 126 336 
3 276 163 280 
3 235 1 48 
3 494 222 424 
3 409 251 305 
3 195 175 231 
3 188 343 2 
3 443 370 143 
3 308 390 128 
3 448 282 39 
3 219 354 30 
3 27 349 357 
3 422 437 201 
3 6 43 332 
3 443 418 298 
3 339 496 411 
3 335 359 142 
3 245 34 360 
3 293 235 466 
3 490 469 50 
3 178 410 436 
3 249 497 248 
3 427 69 192 
3 206 253 266 
3 106 118 143 
3 158 205 475 
3 352 25 221 
3 387 312 52 
3 174 26 176 
3 450 183 423 
3 474 288 76 
3 346 148 398 
3 291 465 481 
3 342 72 230 
3 490 494 469 
3 261 403 301 
3 29 334 434 
3 252 497 249 
3 243 499 196 
3 101 52 363 
3 145 289 484 
3 110 258 396 
3 216 33 170 
3 41 447 55 
3 107 384 279 
3 80 394 327 
3 310 36 18 
3 193 408 483 
3 70 184 448 
3 411 222 470 
3 357 335 27 
3 102 371 175 
3 193 326 408 
3 461 342 5 
3 422 201 209 
3 32 360 325 
3 115 215 370 
3 203 31 238 
3 307 184 464 
3 272 44 373 
3 193 483 273 
3 390 146 375 
3 206 328 253 
3 284 81 485 
3 148 208 212 
3 189 316 73 
3 155 193 68 
3 345 310 437 
3 405 208 286 
3 23 66 385 
3 255 220 229 
3 482 492 270 
3 481 20 2 
3 113 450 456 
3 150 167 401 
3 89 300 41 
3 340 356 263 
3 412 86 167 
3 349 86 412 
3 154 316 402 
3 157 225 45 
3 111 270 283 
3 235 293 397 
3 460 424 491 
3 129 419 309 
3 54 41 55 
3 381 497 4 
3 308 206 266 
3 424 469 494 
3 1 177 48 
3 402 316 341 
3 250 395 458 
3 66 226 385 
3 68 193 273 
3 258 326 87 
3 48 362 235 
3 315 3 348 
3 150 401 440 
3 186 468 400 
3 228 414 247 
3 254 26 168 
3 162 487 347 
3 122 17 405 
3 352 392 262 
3 165 47 197 
3 182 84 38 
3 359 459 469 
3 95 52 312 
3 119 423 19 
3 475 127 289 
3 497 81 4 
3 216 170 100 
3 102 120 8 
3 139 480 452 
3 459 417 28 
3 155 326 193 
3 200 484 85 
3 283 123 414 
3 375 109 416 
3 453 194 269 
3 174 176 85 
3 429 45 114 
3 477 160 63 
3 274 20 410 
3 177 130 46 
3 333 57 433 
3 247 88 228 
3 239 331 77 
3 108 36 310 
3 27 142 460 
3 444 320 285 
3 309 57 182 
3 117 68 204 
3 501 62 67 
3 480 92 359 
3 188 274 436 
3 153 485 81 
3 493 73 217 
3 53 140 377 
3 201 284 419 
3 127 264 158 
3 128 421 172 
3 179 268 12 
3 284 485 419 
3 406 137 280 
3 52 101 100 
3 130 177 368 
3 394 134 327 
3 132 435 199 
3 416 109 15 
3 146 390 318 
3 213 391 325 
3 186 187 468 
3 452 114 45 
3 61 440 112 
3 254 145 200 
3 35 354 380 
3 154 22 73 
3 500 377 403 
3 477 170 281 
3 105 156 115 
3 6 332 13 
3 434 93 29 
3 89 41 287 
3 126 329 336 
3 67 441 98 
3 250 51 488 
3 319 415 325 
3 198 250 458 
3 455 137 354 
3 345 437 422 
3 17 122 302 
3 13 138 227 
3 444 201 129 
3 144 5 431 
3 319 306 96 
3 407 80 251 
3 340 267 343 
3 129 201 419 
3 96 147 323 
3 123 28 470 
3 181 224 31 
3 130 368 375 
3 224 94 379 
3 106 370 187 
3 396 212 110 
3 365 21 117 
3 238 31 223 
3 127 426 277 
3 46 1 235 
3 330 463 71 
3 258 346 369 
3 501 430 62 
3 404 129 309 
3 119 486 450 
3 115 370 298 
3 277 254 289 
3 34 345 75 
3 350 240 432 
3 39 464 366 
3 98 462 311 
3 101 477 281 
3 63 439 387 
3 471 356 340 
3 387 52 100 
3 16 309 307 
3 325 90 213 
3 368 237 35 
